G04 #@! TF.GenerationSoftware,KiCad,Pcbnew,(5.1.8)-1*
G04 #@! TF.CreationDate,2021-01-26T22:47:04-05:00*
G04 #@! TF.ProjectId,kimchi_ulid,6b696d63-6869-45f7-956c-69642e6b6963,v0.1*
G04 #@! TF.SameCoordinates,Original*
G04 #@! TF.FileFunction,Copper,L4,Bot*
G04 #@! TF.FilePolarity,Positive*
%FSLAX46Y46*%
G04 Gerber Fmt 4.6, Leading zero omitted, Abs format (unit mm)*
G04 Created by KiCad (PCBNEW (5.1.8)-1) date 2021-01-26 22:47:04*
%MOMM*%
%LPD*%
G01*
G04 APERTURE LIST*
G04 #@! TA.AperFunction,Profile*
%ADD10C,0.100000*%
G04 #@! TD*
G04 #@! TA.AperFunction,ComponentPad*
%ADD11R,1.700000X1.700000*%
G04 #@! TD*
G04 #@! TA.AperFunction,ComponentPad*
%ADD12O,1.700000X1.700000*%
G04 #@! TD*
G04 #@! TA.AperFunction,ComponentPad*
%ADD13R,1.800000X1.800000*%
G04 #@! TD*
G04 #@! TA.AperFunction,ComponentPad*
%ADD14C,1.800000*%
G04 #@! TD*
G04 #@! TA.AperFunction,ComponentPad*
%ADD15C,2.500000*%
G04 #@! TD*
G04 #@! TA.AperFunction,ComponentPad*
%ADD16C,4.500000*%
G04 #@! TD*
G04 #@! TA.AperFunction,ComponentPad*
%ADD17C,5.000000*%
G04 #@! TD*
G04 #@! TA.AperFunction,SMDPad,CuDef*
%ADD18R,0.200000X1.500000*%
G04 #@! TD*
G04 #@! TA.AperFunction,SMDPad,CuDef*
%ADD19R,1.460000X1.360000*%
G04 #@! TD*
G04 #@! TA.AperFunction,SMDPad,CuDef*
%ADD20R,0.300000X0.750000*%
G04 #@! TD*
G04 #@! TA.AperFunction,ViaPad*
%ADD21C,0.457200*%
G04 #@! TD*
G04 #@! TA.AperFunction,Conductor*
%ADD22C,0.150000*%
G04 #@! TD*
G04 #@! TA.AperFunction,Conductor*
%ADD23C,0.127000*%
G04 #@! TD*
G04 #@! TA.AperFunction,Conductor*
%ADD24C,0.200000*%
G04 #@! TD*
G04 #@! TA.AperFunction,Conductor*
%ADD25C,0.254000*%
G04 #@! TD*
G04 #@! TA.AperFunction,Conductor*
%ADD26C,0.300000*%
G04 #@! TD*
G04 #@! TA.AperFunction,Conductor*
%ADD27C,0.750000*%
G04 #@! TD*
G04 #@! TA.AperFunction,Conductor*
%ADD28C,0.100000*%
G04 #@! TD*
G04 APERTURE END LIST*
D10*
X172000000Y-80600000D02*
X107000000Y-80600000D01*
X107000000Y-126000000D02*
X172000000Y-126000000D01*
X107000000Y-80600000D02*
X107000000Y-126000000D01*
X172000000Y-126000000D02*
X172000000Y-80600000D01*
D11*
X153800000Y-103200000D03*
D12*
X153800000Y-100660000D03*
X153800000Y-98120000D03*
D13*
X168800000Y-115300000D03*
D14*
X164400000Y-114300000D03*
D13*
X163600000Y-116500000D03*
X168800000Y-120300000D03*
X164000000Y-124400000D03*
X169100000Y-124700000D03*
D15*
X131600000Y-115875000D03*
X117600000Y-115875000D03*
D16*
X113600000Y-121000000D03*
X127600000Y-121000000D03*
D15*
X159400000Y-115875000D03*
X145400000Y-115875000D03*
D16*
X141400000Y-121000000D03*
X155400000Y-121000000D03*
D17*
X142400000Y-108700000D03*
X142400000Y-84500000D03*
X118250000Y-108700000D03*
X118250000Y-84500000D03*
D18*
X148500000Y-110760000D03*
X148900000Y-110760000D03*
X149300000Y-110760000D03*
X149700000Y-110760000D03*
X150100000Y-110760000D03*
X146500000Y-108440000D03*
X150500000Y-110760000D03*
X146900000Y-108440000D03*
X150900000Y-110760000D03*
X147300000Y-108440000D03*
X151300000Y-110760000D03*
X147700000Y-108440000D03*
X151700000Y-110760000D03*
X148100000Y-108440000D03*
X152100000Y-110760000D03*
X148500000Y-108440000D03*
X152500000Y-110760000D03*
X148900000Y-108440000D03*
X152900000Y-110760000D03*
X149300000Y-108440000D03*
X153300000Y-110760000D03*
X149700000Y-108440000D03*
X153700000Y-110760000D03*
X150100000Y-108440000D03*
X154100000Y-110760000D03*
X150500000Y-108440000D03*
X154500000Y-110760000D03*
X150900000Y-108440000D03*
X154900000Y-110760000D03*
X151300000Y-108440000D03*
X155300000Y-110760000D03*
X151700000Y-108440000D03*
X155700000Y-110760000D03*
X152100000Y-108440000D03*
X156100000Y-110760000D03*
X152500000Y-108440000D03*
X156500000Y-110760000D03*
X152900000Y-108440000D03*
X156900000Y-110760000D03*
X153300000Y-108440000D03*
X157300000Y-110760000D03*
X153700000Y-108440000D03*
X157700000Y-110760000D03*
X154100000Y-108440000D03*
X158100000Y-110760000D03*
X154500000Y-108440000D03*
X146500000Y-110760000D03*
X154900000Y-108440000D03*
X146900000Y-110760000D03*
X155300000Y-108440000D03*
X147300000Y-110760000D03*
X155700000Y-108440000D03*
X147700000Y-110760000D03*
X156100000Y-108440000D03*
X148100000Y-110760000D03*
X156500000Y-108440000D03*
X156900000Y-108440000D03*
X157300000Y-108440000D03*
X157700000Y-108440000D03*
X158100000Y-108440000D03*
X148500000Y-84760000D03*
X148900000Y-84760000D03*
X149300000Y-84760000D03*
X149700000Y-84760000D03*
X150100000Y-84760000D03*
X146500000Y-82440000D03*
X150500000Y-84760000D03*
X146900000Y-82440000D03*
X150900000Y-84760000D03*
X147300000Y-82440000D03*
X151300000Y-84760000D03*
X147700000Y-82440000D03*
X151700000Y-84760000D03*
X148100000Y-82440000D03*
X152100000Y-84760000D03*
X148500000Y-82440000D03*
X152500000Y-84760000D03*
X148900000Y-82440000D03*
X152900000Y-84760000D03*
X149300000Y-82440000D03*
X153300000Y-84760000D03*
X149700000Y-82440000D03*
X153700000Y-84760000D03*
X150100000Y-82440000D03*
X154100000Y-84760000D03*
X150500000Y-82440000D03*
X154500000Y-84760000D03*
X150900000Y-82440000D03*
X154900000Y-84760000D03*
X151300000Y-82440000D03*
X155300000Y-84760000D03*
X151700000Y-82440000D03*
X155700000Y-84760000D03*
X152100000Y-82440000D03*
X156100000Y-84760000D03*
X152500000Y-82440000D03*
X156500000Y-84760000D03*
X152900000Y-82440000D03*
X156900000Y-84760000D03*
X153300000Y-82440000D03*
X157300000Y-84760000D03*
X153700000Y-82440000D03*
X157700000Y-84760000D03*
X154100000Y-82440000D03*
X158100000Y-84760000D03*
X154500000Y-82440000D03*
X146500000Y-84760000D03*
X154900000Y-82440000D03*
X146900000Y-84760000D03*
X155300000Y-82440000D03*
X147300000Y-84760000D03*
X155700000Y-82440000D03*
X147700000Y-84760000D03*
X156100000Y-82440000D03*
X148100000Y-84760000D03*
X156500000Y-82440000D03*
X156900000Y-82440000D03*
X157300000Y-82440000D03*
X157700000Y-82440000D03*
X158100000Y-82440000D03*
D19*
X168800000Y-84100000D03*
D20*
X169550000Y-82600000D03*
X169050000Y-82600000D03*
X168550000Y-82600000D03*
X168050000Y-82600000D03*
X168050000Y-85600000D03*
X168550000Y-85600000D03*
X169050000Y-85600000D03*
X169550000Y-85600000D03*
D21*
X154800000Y-83600000D03*
X154200000Y-83600000D03*
X153000000Y-83600000D03*
X159400000Y-92600000D03*
X149750000Y-101400000D03*
X146400000Y-99800000D03*
X161800000Y-111600000D03*
X152600000Y-95200000D03*
X161400000Y-90400000D03*
X160200000Y-90400000D03*
X159000000Y-89800000D03*
X155400000Y-89800000D03*
X150800000Y-93400000D03*
X153600000Y-87400000D03*
X157200000Y-87600000D03*
X158400000Y-100283000D03*
X159522500Y-96502500D03*
X159522500Y-94777500D03*
X147600000Y-113000000D03*
X139800000Y-113200000D03*
X126320000Y-111800000D03*
X120600000Y-113000000D03*
X166720000Y-111480000D03*
X160600000Y-125200000D03*
X171000000Y-124400000D03*
X166800000Y-124400000D03*
X167800000Y-117400000D03*
X164600000Y-118400000D03*
X157819119Y-96502500D03*
X137149722Y-103450278D03*
X137149722Y-105450278D03*
X128900000Y-106900000D03*
X129000038Y-101800000D03*
X126600000Y-98000000D03*
X153110000Y-112800000D03*
X153000000Y-114600000D03*
X149000000Y-114600000D03*
X151400000Y-114600000D03*
X149000000Y-115600000D03*
X151400000Y-115600000D03*
X153000000Y-115600000D03*
X154600000Y-115600000D03*
X154600000Y-114600000D03*
X147600000Y-114600000D03*
X147600000Y-115600000D03*
X108400000Y-112600000D03*
X141400000Y-125200000D03*
X148000000Y-125200000D03*
X136000000Y-125200000D03*
X155400000Y-125200000D03*
X132600000Y-125200000D03*
X127600000Y-125200000D03*
X113600000Y-125200000D03*
X120600000Y-125200000D03*
X108200000Y-125200000D03*
X148000000Y-121600000D03*
X120600000Y-121200000D03*
X132600000Y-118000000D03*
X120600000Y-117400000D03*
X108400000Y-118000000D03*
X158200000Y-121000000D03*
X163800000Y-121800000D03*
X158400000Y-118200000D03*
X110600000Y-121200000D03*
X124600000Y-121200000D03*
X116600000Y-121200000D03*
X129000000Y-117400000D03*
X115200000Y-118000000D03*
X126200000Y-117400000D03*
X112000000Y-118000000D03*
X113200000Y-113000000D03*
X152400000Y-119600000D03*
X130600000Y-121200000D03*
X152400000Y-103517000D03*
X168800000Y-81600000D03*
X167400000Y-85600000D03*
X153600000Y-83600000D03*
X157580890Y-94777500D03*
X158410000Y-98589978D03*
X161580890Y-94891999D03*
X169550000Y-81800000D03*
X169550000Y-86650000D03*
X136600000Y-108600000D03*
X133600000Y-108600000D03*
X133600000Y-110200000D03*
X136600000Y-110200000D03*
X165800000Y-107800000D03*
X162400000Y-107800000D03*
X162400000Y-111000000D03*
X165800000Y-111000000D03*
X164000000Y-107800000D03*
X168550000Y-86650000D03*
X169050000Y-86650000D03*
X151200000Y-83600000D03*
X146800000Y-95199958D03*
X147649744Y-96878879D03*
X151800026Y-83600000D03*
X147454011Y-94854011D03*
X148200000Y-96682610D03*
X158200000Y-109600000D03*
X163948178Y-102044534D03*
X157600000Y-109600000D03*
X164000000Y-101000002D03*
X159900000Y-98600000D03*
X161580890Y-99600000D03*
X148687338Y-109606805D03*
X149600000Y-109600000D03*
X157000000Y-106800000D03*
X153800000Y-106000000D03*
X146336621Y-109600000D03*
X146920814Y-109595192D03*
X147506331Y-109602388D03*
X148095413Y-109606018D03*
X157200000Y-92800000D03*
X161000000Y-106200000D03*
X160286410Y-106065526D03*
X155000000Y-94999994D03*
X169000000Y-112800000D03*
X161000026Y-114200000D03*
X162020870Y-93179130D03*
X162841740Y-94000000D03*
X127200000Y-95600000D03*
X133400000Y-93600000D03*
X133400000Y-95800000D03*
X127200000Y-93800000D03*
X162117000Y-92083000D03*
X155800000Y-99317000D03*
X158400000Y-99317000D03*
X139200000Y-96800000D03*
X139200000Y-99200000D03*
X134600000Y-96800000D03*
X134850278Y-100200000D03*
X137000000Y-97800000D03*
X152400000Y-104483000D03*
X146400000Y-97400000D03*
D22*
X154760000Y-111840000D02*
X154760000Y-112160000D01*
X154360000Y-111440000D02*
X154360000Y-111840000D01*
D23*
X154760000Y-110760000D02*
X154760000Y-110760000D01*
D22*
X155040000Y-111360000D02*
X155040000Y-111760000D01*
X154640000Y-110760000D02*
X154640000Y-112160000D01*
X154100000Y-110760000D02*
X154100000Y-112100000D01*
X154360000Y-111840000D02*
X154360000Y-112160000D01*
D23*
X154640000Y-110760000D02*
X154360000Y-110760000D01*
X154760000Y-110760000D02*
X154640000Y-110760000D01*
X155160000Y-110760000D02*
X155040000Y-110760000D01*
X154240000Y-110760000D02*
X154100000Y-110760000D01*
D22*
X154760000Y-110760000D02*
X154760000Y-111840000D01*
X154360000Y-110760000D02*
X154360000Y-111440000D01*
X154900000Y-110760000D02*
X154900000Y-112100000D01*
D23*
X154360000Y-110760000D02*
X154240000Y-110760000D01*
D22*
X154500000Y-110760000D02*
X154500000Y-112100000D01*
X155040000Y-110760000D02*
X155040000Y-111360000D01*
D23*
X155040000Y-110760000D02*
X154760000Y-110760000D01*
D22*
X154240000Y-110760000D02*
X154240000Y-112160000D01*
D23*
X155300000Y-110760000D02*
X155160000Y-110760000D01*
D22*
X155040000Y-111760000D02*
X155040000Y-112160000D01*
X149700000Y-110760000D02*
X149700000Y-112100000D01*
X150100000Y-110760000D02*
X150100000Y-112100000D01*
X150500000Y-110760000D02*
X150500000Y-112100000D01*
X150240000Y-110760000D02*
X150240000Y-111360000D01*
X150360000Y-110760000D02*
X150360000Y-112160000D01*
D23*
X150500000Y-110760000D02*
X150360000Y-110760000D01*
X150360000Y-110760000D02*
X150240000Y-110760000D01*
D22*
X149840000Y-110760000D02*
X149840000Y-112160000D01*
X149960000Y-110760000D02*
X149960000Y-111840000D01*
D23*
X150240000Y-110760000D02*
X149960000Y-110760000D01*
X149960000Y-110760000D02*
X149840000Y-110760000D01*
X149440000Y-110760000D02*
X149300000Y-110760000D01*
X149840000Y-110760000D02*
X149560000Y-110760000D01*
D22*
X149560000Y-110760000D02*
X149560000Y-111440000D01*
D23*
X149560000Y-110760000D02*
X149440000Y-110760000D01*
D22*
X149440000Y-110760000D02*
X149440000Y-112160000D01*
X149300000Y-110760000D02*
X149300000Y-112100000D01*
X149560000Y-111840000D02*
X149560000Y-112160000D01*
X150240000Y-111760000D02*
X150240000Y-112160000D01*
D23*
X149960000Y-110760000D02*
X149960000Y-110760000D01*
D22*
X150240000Y-111360000D02*
X150240000Y-111760000D01*
X149560000Y-111440000D02*
X149560000Y-111840000D01*
X149960000Y-111840000D02*
X149960000Y-112160000D01*
D23*
X169050000Y-82600000D02*
X169050000Y-81850000D01*
X169050000Y-81850000D02*
X168800000Y-81600000D01*
X168800000Y-81600000D02*
X168800000Y-81600000D01*
X168050000Y-85600000D02*
X167400000Y-85600000D01*
X167400000Y-85600000D02*
X167400000Y-85600000D01*
D24*
X152900000Y-82440000D02*
X153760000Y-82440000D01*
X153760000Y-82440000D02*
X154100000Y-82440000D01*
D23*
X154783000Y-83600000D02*
X154800000Y-83600000D01*
X154500000Y-83883000D02*
X154783000Y-83600000D01*
X154500000Y-84760000D02*
X154500000Y-83883000D01*
X153300000Y-83300000D02*
X153300000Y-82440000D01*
X153000000Y-83600000D02*
X153300000Y-83300000D01*
X153700000Y-83250000D02*
X153700000Y-82440000D01*
X153600000Y-83350000D02*
X153700000Y-83250000D01*
X153600000Y-83600000D02*
X153600000Y-83350000D01*
X154100000Y-83300000D02*
X154100000Y-82440000D01*
X154200000Y-83400000D02*
X154100000Y-83300000D01*
X154200000Y-83600000D02*
X154200000Y-83400000D01*
D22*
X155300000Y-111700000D02*
X155200000Y-111800000D01*
X155300000Y-110760000D02*
X155300000Y-111700000D01*
X155160000Y-111840000D02*
X155000000Y-112000000D01*
X155160000Y-110760000D02*
X155160000Y-111840000D01*
D23*
X154500000Y-82440000D02*
X155700000Y-82440000D01*
X150900000Y-110760000D02*
X152100000Y-110760000D01*
D25*
X169550000Y-82600000D02*
X169550000Y-81800000D01*
X169550000Y-85600000D02*
X169550000Y-86650000D01*
X169050000Y-85600000D02*
X169050000Y-86650000D01*
X169050000Y-86650000D02*
X169550000Y-86650000D01*
X168550000Y-86650000D02*
X168550000Y-86650000D01*
X168550000Y-85600000D02*
X168550000Y-86650000D01*
D24*
X155700000Y-110760000D02*
X155700000Y-112100000D01*
X156900000Y-110760000D02*
X156900000Y-112100000D01*
X156100000Y-110760000D02*
X156100000Y-112100000D01*
X156500000Y-110760000D02*
X156500000Y-112100000D01*
D26*
X156700000Y-112100000D02*
X156700000Y-110300000D01*
D24*
X156700000Y-112100000D02*
X156900000Y-112100000D01*
D26*
X156300000Y-112100000D02*
X156300000Y-110300000D01*
D24*
X156300000Y-112100000D02*
X156700000Y-112100000D01*
D26*
X155900000Y-112100000D02*
X155900000Y-110300000D01*
D24*
X155700000Y-112100000D02*
X155900000Y-112100000D01*
X155900000Y-112100000D02*
X156300000Y-112100000D01*
D25*
X168550000Y-86650000D02*
X169050000Y-86650000D01*
X169050000Y-86650000D02*
X169050000Y-86650000D01*
D23*
X167440510Y-80840510D02*
X152779877Y-80840510D01*
X168550000Y-82600000D02*
X168550000Y-81950000D01*
X168550000Y-81950000D02*
X167440510Y-80840510D01*
X152779877Y-80840510D02*
X152100000Y-81520387D01*
X152100000Y-81520387D02*
X152100000Y-82440000D01*
X152500000Y-81479611D02*
X152500000Y-82440000D01*
X152885090Y-81094521D02*
X152500000Y-81479611D01*
X168050000Y-81850000D02*
X167294521Y-81094521D01*
X167294521Y-81094521D02*
X152885090Y-81094521D01*
X168050000Y-82600000D02*
X168050000Y-81850000D01*
X151300000Y-83500000D02*
X151200000Y-83600000D01*
X151300000Y-82440000D02*
X151300000Y-83500000D01*
X146800000Y-95199958D02*
X146800000Y-96029135D01*
X146800000Y-96029135D02*
X147649744Y-96878879D01*
X151800026Y-83600000D02*
X151800026Y-83400026D01*
X151700000Y-83300000D02*
X151700000Y-82440000D01*
X151800026Y-83400026D02*
X151700000Y-83300000D01*
X147454011Y-94854011D02*
X147454011Y-95936621D01*
X147454011Y-95936621D02*
X148200000Y-96682610D01*
X158200000Y-109900000D02*
X158200000Y-109600000D01*
X158100000Y-110000000D02*
X158200000Y-109900000D01*
X158100000Y-110760000D02*
X158100000Y-110000000D01*
X157700000Y-84760000D02*
X157700000Y-86059224D01*
X157700000Y-86059224D02*
X163345989Y-91705213D01*
X163345989Y-91705213D02*
X163345989Y-101442345D01*
X163345989Y-101442345D02*
X163948178Y-102044534D01*
X157600000Y-109900000D02*
X157600000Y-109600000D01*
X157700000Y-110000000D02*
X157600000Y-109900000D01*
X157700000Y-110760000D02*
X157700000Y-110000000D01*
X163600000Y-100600002D02*
X164000000Y-101000002D01*
X163600000Y-91600000D02*
X163600000Y-100600002D01*
X158100000Y-86100000D02*
X163600000Y-91600000D01*
X158100000Y-84760000D02*
X158100000Y-86100000D01*
X160580890Y-98600000D02*
X161580890Y-99600000D01*
X159900000Y-98600000D02*
X160580890Y-98600000D01*
X148500000Y-109794143D02*
X148687338Y-109606805D01*
X148500000Y-110760000D02*
X148500000Y-109794143D01*
X148900000Y-110760000D02*
X148900000Y-109998905D01*
X148900000Y-109998905D02*
X149298905Y-109600000D01*
X149298905Y-109600000D02*
X149600000Y-109600000D01*
X154200000Y-106400000D02*
X153800000Y-106000000D01*
X156600000Y-106400000D02*
X154200000Y-106400000D01*
X157000000Y-106800000D02*
X156600000Y-106400000D01*
X146500000Y-109763379D02*
X146336621Y-109600000D01*
X146500000Y-110760000D02*
X146500000Y-109763379D01*
X146900000Y-110760000D02*
X146900000Y-109616006D01*
X146900000Y-109616006D02*
X146920814Y-109595192D01*
X147506331Y-109676669D02*
X147506331Y-109602388D01*
X147300000Y-109883000D02*
X147506331Y-109676669D01*
X147300000Y-110760000D02*
X147300000Y-109883000D01*
X147700000Y-110760000D02*
X147700000Y-110001431D01*
X147700000Y-110001431D02*
X148095413Y-109606018D01*
D25*
X157200000Y-92800000D02*
X157618989Y-93218989D01*
X157618989Y-93218989D02*
X161357819Y-93218989D01*
X161357819Y-93218989D02*
X162600000Y-94461170D01*
X162600000Y-94461170D02*
X162600000Y-104600000D01*
X162600000Y-104600000D02*
X161000000Y-106200000D01*
X160286410Y-106065526D02*
X162218989Y-104132947D01*
X162218989Y-104132947D02*
X162218989Y-94618989D01*
X162218989Y-94618989D02*
X161200000Y-93600000D01*
X161200000Y-93600000D02*
X156399994Y-93600000D01*
X156399994Y-93600000D02*
X155000000Y-94999994D01*
D27*
X169100000Y-124700000D02*
X170800000Y-123000000D01*
X170800000Y-123000000D02*
X171200000Y-122600000D01*
X171200000Y-122600000D02*
X171200000Y-113800000D01*
X171200000Y-113800000D02*
X170200000Y-112800000D01*
X170200000Y-112800000D02*
X169000000Y-112800000D01*
D23*
X169000000Y-112800000D02*
X169000000Y-112800000D01*
D27*
X161000026Y-114800026D02*
X161000026Y-114200000D01*
X161800000Y-115600000D02*
X161000026Y-114800026D01*
X162600000Y-115600000D02*
X161800000Y-115600000D01*
X162700000Y-115600000D02*
X163600000Y-116500000D01*
X162600000Y-115600000D02*
X162700000Y-115600000D01*
D25*
X162020870Y-93179130D02*
X162841740Y-94000000D01*
X156873000Y-118073000D02*
X152200000Y-118073000D01*
X152175224Y-118075440D01*
X152151399Y-118082667D01*
X152129443Y-118094403D01*
X152110197Y-118110197D01*
X149147394Y-121073000D01*
X148301340Y-121073000D01*
X148286859Y-121063324D01*
X148176647Y-121017673D01*
X148059646Y-120994400D01*
X147940354Y-120994400D01*
X147823353Y-121017673D01*
X147713141Y-121063324D01*
X147698660Y-121073000D01*
X144027000Y-121073000D01*
X144027000Y-120741263D01*
X143926046Y-120233732D01*
X143728017Y-119755649D01*
X143440524Y-119325385D01*
X143074615Y-118959476D01*
X142644351Y-118671983D01*
X142166268Y-118473954D01*
X141658737Y-118373000D01*
X141141263Y-118373000D01*
X140633732Y-118473954D01*
X140155649Y-118671983D01*
X139725385Y-118959476D01*
X139359476Y-119325385D01*
X139071983Y-119755649D01*
X138873954Y-120233732D01*
X138773000Y-120741263D01*
X138773000Y-121073000D01*
X137877000Y-121073000D01*
X137877000Y-120070075D01*
X137853458Y-119831052D01*
X137760425Y-119524362D01*
X137609346Y-119241714D01*
X137406029Y-118993971D01*
X137158286Y-118790654D01*
X136875638Y-118639575D01*
X136568948Y-118546542D01*
X136250000Y-118515128D01*
X135931053Y-118546542D01*
X135624363Y-118639575D01*
X135341715Y-118790654D01*
X135093972Y-118993971D01*
X134890655Y-119241714D01*
X134739576Y-119524362D01*
X134646543Y-119831052D01*
X134623000Y-120070075D01*
X134623000Y-121073000D01*
X134377000Y-121073000D01*
X134377000Y-120070075D01*
X134353458Y-119831052D01*
X134260425Y-119524362D01*
X134109346Y-119241714D01*
X133906029Y-118993971D01*
X133658286Y-118790654D01*
X133375638Y-118639575D01*
X133327000Y-118624821D01*
X133327000Y-114248381D01*
X136725643Y-116702956D01*
X136747157Y-116715484D01*
X136770702Y-116723574D01*
X136801351Y-116726993D01*
X143961611Y-116650820D01*
X144136227Y-116912152D01*
X144362848Y-117138773D01*
X144629327Y-117316828D01*
X144925422Y-117439475D01*
X145239755Y-117502000D01*
X145560245Y-117502000D01*
X145874578Y-117439475D01*
X146170673Y-117316828D01*
X146437152Y-117138773D01*
X146663773Y-116912152D01*
X146841828Y-116645673D01*
X146852435Y-116620067D01*
X155601351Y-116526993D01*
X155626100Y-116524289D01*
X155649846Y-116516809D01*
X155671677Y-116504840D01*
X155690753Y-116488842D01*
X155706341Y-116469430D01*
X155717843Y-116447350D01*
X155724816Y-116423450D01*
X155727000Y-116400000D01*
X155727000Y-112127000D01*
X156873000Y-112127000D01*
X156873000Y-118073000D01*
G04 #@! TA.AperFunction,Conductor*
D28*
G36*
X156873000Y-118073000D02*
G01*
X152200000Y-118073000D01*
X152175224Y-118075440D01*
X152151399Y-118082667D01*
X152129443Y-118094403D01*
X152110197Y-118110197D01*
X149147394Y-121073000D01*
X148301340Y-121073000D01*
X148286859Y-121063324D01*
X148176647Y-121017673D01*
X148059646Y-120994400D01*
X147940354Y-120994400D01*
X147823353Y-121017673D01*
X147713141Y-121063324D01*
X147698660Y-121073000D01*
X144027000Y-121073000D01*
X144027000Y-120741263D01*
X143926046Y-120233732D01*
X143728017Y-119755649D01*
X143440524Y-119325385D01*
X143074615Y-118959476D01*
X142644351Y-118671983D01*
X142166268Y-118473954D01*
X141658737Y-118373000D01*
X141141263Y-118373000D01*
X140633732Y-118473954D01*
X140155649Y-118671983D01*
X139725385Y-118959476D01*
X139359476Y-119325385D01*
X139071983Y-119755649D01*
X138873954Y-120233732D01*
X138773000Y-120741263D01*
X138773000Y-121073000D01*
X137877000Y-121073000D01*
X137877000Y-120070075D01*
X137853458Y-119831052D01*
X137760425Y-119524362D01*
X137609346Y-119241714D01*
X137406029Y-118993971D01*
X137158286Y-118790654D01*
X136875638Y-118639575D01*
X136568948Y-118546542D01*
X136250000Y-118515128D01*
X135931053Y-118546542D01*
X135624363Y-118639575D01*
X135341715Y-118790654D01*
X135093972Y-118993971D01*
X134890655Y-119241714D01*
X134739576Y-119524362D01*
X134646543Y-119831052D01*
X134623000Y-120070075D01*
X134623000Y-121073000D01*
X134377000Y-121073000D01*
X134377000Y-120070075D01*
X134353458Y-119831052D01*
X134260425Y-119524362D01*
X134109346Y-119241714D01*
X133906029Y-118993971D01*
X133658286Y-118790654D01*
X133375638Y-118639575D01*
X133327000Y-118624821D01*
X133327000Y-114248381D01*
X136725643Y-116702956D01*
X136747157Y-116715484D01*
X136770702Y-116723574D01*
X136801351Y-116726993D01*
X143961611Y-116650820D01*
X144136227Y-116912152D01*
X144362848Y-117138773D01*
X144629327Y-117316828D01*
X144925422Y-117439475D01*
X145239755Y-117502000D01*
X145560245Y-117502000D01*
X145874578Y-117439475D01*
X146170673Y-117316828D01*
X146437152Y-117138773D01*
X146663773Y-116912152D01*
X146841828Y-116645673D01*
X146852435Y-116620067D01*
X155601351Y-116526993D01*
X155626100Y-116524289D01*
X155649846Y-116516809D01*
X155671677Y-116504840D01*
X155690753Y-116488842D01*
X155706341Y-116469430D01*
X155717843Y-116447350D01*
X155724816Y-116423450D01*
X155727000Y-116400000D01*
X155727000Y-112127000D01*
X156873000Y-112127000D01*
X156873000Y-118073000D01*
G37*
G04 #@! TD.AperFunction*
D25*
X136873000Y-117073000D02*
X133327000Y-117073000D01*
X133327000Y-109527000D01*
X136873000Y-109527000D01*
X136873000Y-117073000D01*
G04 #@! TA.AperFunction,Conductor*
D28*
G36*
X136873000Y-117073000D02*
G01*
X133327000Y-117073000D01*
X133327000Y-109527000D01*
X136873000Y-109527000D01*
X136873000Y-117073000D01*
G37*
G04 #@! TD.AperFunction*
D25*
X166073000Y-111473000D02*
X164600000Y-111473000D01*
X164575224Y-111475440D01*
X164551399Y-111482667D01*
X164529443Y-111494403D01*
X164510197Y-111510197D01*
X164494403Y-111529443D01*
X164482667Y-111551399D01*
X164475440Y-111575224D01*
X164473000Y-111600000D01*
X164473000Y-113023000D01*
X164274226Y-113023000D01*
X164027513Y-113072074D01*
X163795114Y-113168337D01*
X163585960Y-113308089D01*
X163421049Y-113473000D01*
X161193987Y-113473000D01*
X161147444Y-113458881D01*
X161000026Y-113444362D01*
X160852609Y-113458881D01*
X160806066Y-113473000D01*
X156727000Y-113473000D01*
X156727000Y-112127000D01*
X161498660Y-112127000D01*
X161513141Y-112136676D01*
X161623353Y-112182327D01*
X161740354Y-112205600D01*
X161859646Y-112205600D01*
X161976647Y-112182327D01*
X162086859Y-112136676D01*
X162186047Y-112070400D01*
X162270400Y-111986047D01*
X162336676Y-111886859D01*
X162382327Y-111776647D01*
X162405600Y-111659646D01*
X162405600Y-111540354D01*
X162382327Y-111423353D01*
X162336676Y-111313141D01*
X162270400Y-111213953D01*
X162186047Y-111129600D01*
X162127000Y-111090146D01*
X162127000Y-107527000D01*
X166073000Y-107527000D01*
X166073000Y-111473000D01*
G04 #@! TA.AperFunction,Conductor*
D28*
G36*
X166073000Y-111473000D02*
G01*
X164600000Y-111473000D01*
X164575224Y-111475440D01*
X164551399Y-111482667D01*
X164529443Y-111494403D01*
X164510197Y-111510197D01*
X164494403Y-111529443D01*
X164482667Y-111551399D01*
X164475440Y-111575224D01*
X164473000Y-111600000D01*
X164473000Y-113023000D01*
X164274226Y-113023000D01*
X164027513Y-113072074D01*
X163795114Y-113168337D01*
X163585960Y-113308089D01*
X163421049Y-113473000D01*
X161193987Y-113473000D01*
X161147444Y-113458881D01*
X161000026Y-113444362D01*
X160852609Y-113458881D01*
X160806066Y-113473000D01*
X156727000Y-113473000D01*
X156727000Y-112127000D01*
X161498660Y-112127000D01*
X161513141Y-112136676D01*
X161623353Y-112182327D01*
X161740354Y-112205600D01*
X161859646Y-112205600D01*
X161976647Y-112182327D01*
X162086859Y-112136676D01*
X162186047Y-112070400D01*
X162270400Y-111986047D01*
X162336676Y-111886859D01*
X162382327Y-111776647D01*
X162405600Y-111659646D01*
X162405600Y-111540354D01*
X162382327Y-111423353D01*
X162336676Y-111313141D01*
X162270400Y-111213953D01*
X162186047Y-111129600D01*
X162127000Y-111090146D01*
X162127000Y-107527000D01*
X166073000Y-107527000D01*
X166073000Y-111473000D01*
G37*
G04 #@! TD.AperFunction*
D25*
X150532131Y-111777869D02*
X150589537Y-111824981D01*
X150655030Y-111859988D01*
X150726095Y-111881545D01*
X150800000Y-111888824D01*
X151000000Y-111888824D01*
X151073905Y-111881545D01*
X151100000Y-111873629D01*
X151126095Y-111881545D01*
X151200000Y-111888824D01*
X151400000Y-111888824D01*
X151473905Y-111881545D01*
X151500000Y-111873629D01*
X151526095Y-111881545D01*
X151600000Y-111888824D01*
X151800000Y-111888824D01*
X151873905Y-111881545D01*
X151900000Y-111873629D01*
X151926095Y-111881545D01*
X152000000Y-111888824D01*
X152200000Y-111888824D01*
X152273905Y-111881545D01*
X152300000Y-111873629D01*
X152326095Y-111881545D01*
X152400000Y-111888824D01*
X152600000Y-111888824D01*
X152673905Y-111881545D01*
X152700000Y-111873629D01*
X152726095Y-111881545D01*
X152800000Y-111888824D01*
X153000000Y-111888824D01*
X153073905Y-111881545D01*
X153100000Y-111873629D01*
X153126095Y-111881545D01*
X153200000Y-111888824D01*
X153400000Y-111888824D01*
X153473905Y-111881545D01*
X153500000Y-111873629D01*
X153526095Y-111881545D01*
X153600000Y-111888824D01*
X153800000Y-111888824D01*
X153873905Y-111881545D01*
X153944970Y-111859988D01*
X154010463Y-111824981D01*
X154067869Y-111777869D01*
X154109616Y-111727000D01*
X154647394Y-111727000D01*
X155073000Y-112152606D01*
X155073000Y-115447394D01*
X154647394Y-115873000D01*
X147552606Y-115873000D01*
X147127000Y-115447394D01*
X147127000Y-112152606D01*
X147390782Y-111888824D01*
X147400000Y-111888824D01*
X147473905Y-111881545D01*
X147500000Y-111873629D01*
X147526095Y-111881545D01*
X147600000Y-111888824D01*
X147800000Y-111888824D01*
X147873905Y-111881545D01*
X147900000Y-111873629D01*
X147926095Y-111881545D01*
X148000000Y-111888824D01*
X148200000Y-111888824D01*
X148273905Y-111881545D01*
X148300000Y-111873629D01*
X148326095Y-111881545D01*
X148400000Y-111888824D01*
X148600000Y-111888824D01*
X148673905Y-111881545D01*
X148700000Y-111873629D01*
X148726095Y-111881545D01*
X148800000Y-111888824D01*
X149000000Y-111888824D01*
X149073905Y-111881545D01*
X149144970Y-111859988D01*
X149210463Y-111824981D01*
X149267869Y-111777869D01*
X149309616Y-111727000D01*
X150490384Y-111727000D01*
X150532131Y-111777869D01*
G04 #@! TA.AperFunction,Conductor*
D28*
G36*
X150532131Y-111777869D02*
G01*
X150589537Y-111824981D01*
X150655030Y-111859988D01*
X150726095Y-111881545D01*
X150800000Y-111888824D01*
X151000000Y-111888824D01*
X151073905Y-111881545D01*
X151100000Y-111873629D01*
X151126095Y-111881545D01*
X151200000Y-111888824D01*
X151400000Y-111888824D01*
X151473905Y-111881545D01*
X151500000Y-111873629D01*
X151526095Y-111881545D01*
X151600000Y-111888824D01*
X151800000Y-111888824D01*
X151873905Y-111881545D01*
X151900000Y-111873629D01*
X151926095Y-111881545D01*
X152000000Y-111888824D01*
X152200000Y-111888824D01*
X152273905Y-111881545D01*
X152300000Y-111873629D01*
X152326095Y-111881545D01*
X152400000Y-111888824D01*
X152600000Y-111888824D01*
X152673905Y-111881545D01*
X152700000Y-111873629D01*
X152726095Y-111881545D01*
X152800000Y-111888824D01*
X153000000Y-111888824D01*
X153073905Y-111881545D01*
X153100000Y-111873629D01*
X153126095Y-111881545D01*
X153200000Y-111888824D01*
X153400000Y-111888824D01*
X153473905Y-111881545D01*
X153500000Y-111873629D01*
X153526095Y-111881545D01*
X153600000Y-111888824D01*
X153800000Y-111888824D01*
X153873905Y-111881545D01*
X153944970Y-111859988D01*
X154010463Y-111824981D01*
X154067869Y-111777869D01*
X154109616Y-111727000D01*
X154647394Y-111727000D01*
X155073000Y-112152606D01*
X155073000Y-115447394D01*
X154647394Y-115873000D01*
X147552606Y-115873000D01*
X147127000Y-115447394D01*
X147127000Y-112152606D01*
X147390782Y-111888824D01*
X147400000Y-111888824D01*
X147473905Y-111881545D01*
X147500000Y-111873629D01*
X147526095Y-111881545D01*
X147600000Y-111888824D01*
X147800000Y-111888824D01*
X147873905Y-111881545D01*
X147900000Y-111873629D01*
X147926095Y-111881545D01*
X148000000Y-111888824D01*
X148200000Y-111888824D01*
X148273905Y-111881545D01*
X148300000Y-111873629D01*
X148326095Y-111881545D01*
X148400000Y-111888824D01*
X148600000Y-111888824D01*
X148673905Y-111881545D01*
X148700000Y-111873629D01*
X148726095Y-111881545D01*
X148800000Y-111888824D01*
X149000000Y-111888824D01*
X149073905Y-111881545D01*
X149144970Y-111859988D01*
X149210463Y-111824981D01*
X149267869Y-111777869D01*
X149309616Y-111727000D01*
X150490384Y-111727000D01*
X150532131Y-111777869D01*
G37*
G04 #@! TD.AperFunction*
M02*
