G04 #@! TF.GenerationSoftware,KiCad,Pcbnew,(5.1.8)-1*
G04 #@! TF.CreationDate,2021-01-26T22:47:04-05:00*
G04 #@! TF.ProjectId,kimchi_ulid,6b696d63-6869-45f7-956c-69642e6b6963,v0.1*
G04 #@! TF.SameCoordinates,Original*
G04 #@! TF.FileFunction,Copper,L2,Inr*
G04 #@! TF.FilePolarity,Positive*
%FSLAX46Y46*%
G04 Gerber Fmt 4.6, Leading zero omitted, Abs format (unit mm)*
G04 Created by KiCad (PCBNEW (5.1.8)-1) date 2021-01-26 22:47:04*
%MOMM*%
%LPD*%
G01*
G04 APERTURE LIST*
G04 #@! TA.AperFunction,Profile*
%ADD10C,0.100000*%
G04 #@! TD*
G04 #@! TA.AperFunction,ComponentPad*
%ADD11R,1.700000X1.700000*%
G04 #@! TD*
G04 #@! TA.AperFunction,ComponentPad*
%ADD12O,1.700000X1.700000*%
G04 #@! TD*
G04 #@! TA.AperFunction,ComponentPad*
%ADD13R,1.800000X1.800000*%
G04 #@! TD*
G04 #@! TA.AperFunction,ComponentPad*
%ADD14C,1.800000*%
G04 #@! TD*
G04 #@! TA.AperFunction,ComponentPad*
%ADD15C,2.500000*%
G04 #@! TD*
G04 #@! TA.AperFunction,ComponentPad*
%ADD16C,4.500000*%
G04 #@! TD*
G04 #@! TA.AperFunction,ComponentPad*
%ADD17C,5.000000*%
G04 #@! TD*
G04 #@! TA.AperFunction,ViaPad*
%ADD18C,0.457200*%
G04 #@! TD*
G04 #@! TA.AperFunction,Conductor*
%ADD19C,0.254000*%
G04 #@! TD*
G04 #@! TA.AperFunction,Conductor*
%ADD20C,0.100000*%
G04 #@! TD*
G04 APERTURE END LIST*
D10*
X172000000Y-80600000D02*
X107000000Y-80600000D01*
X107000000Y-126000000D02*
X172000000Y-126000000D01*
X107000000Y-80600000D02*
X107000000Y-126000000D01*
X172000000Y-126000000D02*
X172000000Y-80600000D01*
D11*
X153800000Y-103200000D03*
D12*
X153800000Y-100660000D03*
X153800000Y-98120000D03*
D13*
X168800000Y-115300000D03*
D14*
X164400000Y-114300000D03*
D13*
X163600000Y-116500000D03*
X168800000Y-120300000D03*
X164000000Y-124400000D03*
X169100000Y-124700000D03*
D15*
X131600000Y-115875000D03*
X117600000Y-115875000D03*
D16*
X113600000Y-121000000D03*
X127600000Y-121000000D03*
D15*
X159400000Y-115875000D03*
X145400000Y-115875000D03*
D16*
X141400000Y-121000000D03*
X155400000Y-121000000D03*
D17*
X142400000Y-108700000D03*
X142400000Y-84500000D03*
X118250000Y-108700000D03*
X118250000Y-84500000D03*
D18*
X154800000Y-83600000D03*
X154200000Y-83600000D03*
X153000000Y-83600000D03*
X159400000Y-92600000D03*
X149750000Y-101400000D03*
X146400000Y-99800000D03*
X161800000Y-111600000D03*
X152600000Y-95200000D03*
X161400000Y-90400000D03*
X160200000Y-90400000D03*
X159000000Y-89800000D03*
X155400000Y-89800000D03*
X150800000Y-93400000D03*
X153600000Y-87400000D03*
X157200000Y-87600000D03*
X158400000Y-100283000D03*
X159522500Y-96502500D03*
X159522500Y-94777500D03*
X147600000Y-113000000D03*
X139800000Y-113200000D03*
X126320000Y-111800000D03*
X120600000Y-113000000D03*
X166720000Y-111480000D03*
X160600000Y-125200000D03*
X171000000Y-124400000D03*
X166800000Y-124400000D03*
X167800000Y-117400000D03*
X164600000Y-118400000D03*
X157819119Y-96502500D03*
X137149722Y-103450278D03*
X137149722Y-105450278D03*
X128900000Y-106900000D03*
X129000038Y-101800000D03*
X126600000Y-98000000D03*
X153110000Y-112800000D03*
X153000000Y-114600000D03*
X149000000Y-114600000D03*
X151400000Y-114600000D03*
X149000000Y-115600000D03*
X151400000Y-115600000D03*
X153000000Y-115600000D03*
X154600000Y-115600000D03*
X154600000Y-114600000D03*
X147600000Y-114600000D03*
X147600000Y-115600000D03*
X108400000Y-112600000D03*
X141400000Y-125200000D03*
X148000000Y-125200000D03*
X136000000Y-125200000D03*
X155400000Y-125200000D03*
X132600000Y-125200000D03*
X127600000Y-125200000D03*
X113600000Y-125200000D03*
X120600000Y-125200000D03*
X108200000Y-125200000D03*
X148000000Y-121600000D03*
X120600000Y-121200000D03*
X132600000Y-118000000D03*
X120600000Y-117400000D03*
X108400000Y-118000000D03*
X158200000Y-121000000D03*
X163800000Y-121800000D03*
X158400000Y-118200000D03*
X110600000Y-121200000D03*
X124600000Y-121200000D03*
X116600000Y-121200000D03*
X129000000Y-117400000D03*
X115200000Y-118000000D03*
X126200000Y-117400000D03*
X112000000Y-118000000D03*
X113200000Y-113000000D03*
X152400000Y-119600000D03*
X130600000Y-121200000D03*
X152400000Y-103517000D03*
X168800000Y-81600000D03*
X167400000Y-85600000D03*
X153600000Y-83600000D03*
X157580890Y-94777500D03*
X158410000Y-98589978D03*
X161580890Y-94891999D03*
X169550000Y-81800000D03*
X169550000Y-86650000D03*
X136600000Y-108600000D03*
X133600000Y-108600000D03*
X133600000Y-110200000D03*
X136600000Y-110200000D03*
X165800000Y-107800000D03*
X162400000Y-107800000D03*
X162400000Y-111000000D03*
X165800000Y-111000000D03*
X164000000Y-107800000D03*
X168550000Y-86650000D03*
X169050000Y-86650000D03*
X151200000Y-83600000D03*
X146800000Y-95199958D03*
X147649744Y-96878879D03*
X151800026Y-83600000D03*
X147454011Y-94854011D03*
X148200000Y-96682610D03*
X158200000Y-109600000D03*
X163948178Y-102044534D03*
X157600000Y-109600000D03*
X164000000Y-101000002D03*
X159900000Y-98600000D03*
X161580890Y-99600000D03*
X148687338Y-109606805D03*
X149600000Y-109600000D03*
X157000000Y-106800000D03*
X153800000Y-106000000D03*
X146336621Y-109600000D03*
X146920814Y-109595192D03*
X147506331Y-109602388D03*
X148095413Y-109606018D03*
X157200000Y-92800000D03*
X161000000Y-106200000D03*
X160286410Y-106065526D03*
X155000000Y-94999994D03*
X169000000Y-112800000D03*
X161000026Y-114200000D03*
X162020870Y-93179130D03*
X162841740Y-94000000D03*
X127200000Y-95600000D03*
X133400000Y-93600000D03*
X133400000Y-95800000D03*
X127200000Y-93800000D03*
X162117000Y-92083000D03*
X155800000Y-99317000D03*
X158400000Y-99317000D03*
X139200000Y-96800000D03*
X139200000Y-99200000D03*
X134600000Y-96800000D03*
X134850278Y-100200000D03*
X137000000Y-97800000D03*
X152400000Y-104483000D03*
X146400000Y-97400000D03*
D19*
X171673000Y-125696000D02*
X170236307Y-125696000D01*
X170250324Y-125649793D01*
X170255228Y-125600000D01*
X170255228Y-123800000D01*
X170250324Y-123750207D01*
X170235800Y-123702328D01*
X170212214Y-123658203D01*
X170180473Y-123619527D01*
X170141797Y-123587786D01*
X170097672Y-123564200D01*
X170049793Y-123549676D01*
X170000000Y-123544772D01*
X168200000Y-123544772D01*
X168150207Y-123549676D01*
X168102328Y-123564200D01*
X168058203Y-123587786D01*
X168019527Y-123619527D01*
X167987786Y-123658203D01*
X167964200Y-123702328D01*
X167949676Y-123750207D01*
X167944772Y-123800000D01*
X167944772Y-125600000D01*
X167949676Y-125649793D01*
X167963693Y-125696000D01*
X107304000Y-125696000D01*
X107304000Y-122824363D01*
X107381366Y-122918634D01*
X107610379Y-123106581D01*
X107871659Y-123246238D01*
X108155164Y-123332238D01*
X108450000Y-123361277D01*
X108744835Y-123332238D01*
X109028340Y-123246238D01*
X109289620Y-123106581D01*
X109518634Y-122918634D01*
X109706581Y-122689621D01*
X109846238Y-122428341D01*
X109932238Y-122144836D01*
X109954000Y-121923884D01*
X109954000Y-120753378D01*
X111096000Y-120753378D01*
X111096000Y-121246622D01*
X111192227Y-121730390D01*
X111380984Y-122186089D01*
X111655016Y-122596207D01*
X112003793Y-122944984D01*
X112413911Y-123219016D01*
X112869610Y-123407773D01*
X113353378Y-123504000D01*
X113846622Y-123504000D01*
X114330390Y-123407773D01*
X114786089Y-123219016D01*
X115196207Y-122944984D01*
X115544984Y-122596207D01*
X115819016Y-122186089D01*
X116007773Y-121730390D01*
X116104000Y-121246622D01*
X116104000Y-120753378D01*
X125096000Y-120753378D01*
X125096000Y-121246622D01*
X125192227Y-121730390D01*
X125380984Y-122186089D01*
X125655016Y-122596207D01*
X126003793Y-122944984D01*
X126413911Y-123219016D01*
X126869610Y-123407773D01*
X127353378Y-123504000D01*
X127846622Y-123504000D01*
X128330390Y-123407773D01*
X128786089Y-123219016D01*
X129196207Y-122944984D01*
X129544984Y-122596207D01*
X129819016Y-122186089D01*
X130007773Y-121730390D01*
X130104000Y-121246622D01*
X130104000Y-120753378D01*
X130007773Y-120269610D01*
X129927626Y-120076116D01*
X131246000Y-120076116D01*
X131246000Y-121923883D01*
X131267762Y-122144835D01*
X131353762Y-122428340D01*
X131493419Y-122689620D01*
X131681366Y-122918634D01*
X131910379Y-123106581D01*
X132171659Y-123246238D01*
X132455164Y-123332238D01*
X132750000Y-123361277D01*
X133044835Y-123332238D01*
X133328340Y-123246238D01*
X133589620Y-123106581D01*
X133818634Y-122918634D01*
X134006581Y-122689621D01*
X134146238Y-122428341D01*
X134232238Y-122144836D01*
X134254000Y-121923884D01*
X134254000Y-120076116D01*
X134746000Y-120076116D01*
X134746000Y-121923883D01*
X134767762Y-122144835D01*
X134853762Y-122428340D01*
X134993419Y-122689620D01*
X135181366Y-122918634D01*
X135410379Y-123106581D01*
X135671659Y-123246238D01*
X135955164Y-123332238D01*
X136250000Y-123361277D01*
X136544835Y-123332238D01*
X136828340Y-123246238D01*
X137089620Y-123106581D01*
X137318634Y-122918634D01*
X137506581Y-122689621D01*
X137646238Y-122428341D01*
X137732238Y-122144836D01*
X137754000Y-121923884D01*
X137754000Y-120753378D01*
X138896000Y-120753378D01*
X138896000Y-121246622D01*
X138992227Y-121730390D01*
X139180984Y-122186089D01*
X139455016Y-122596207D01*
X139803793Y-122944984D01*
X140213911Y-123219016D01*
X140669610Y-123407773D01*
X141153378Y-123504000D01*
X141646622Y-123504000D01*
X142130390Y-123407773D01*
X142586089Y-123219016D01*
X142996207Y-122944984D01*
X143344984Y-122596207D01*
X143619016Y-122186089D01*
X143807773Y-121730390D01*
X143904000Y-121246622D01*
X143904000Y-120753378D01*
X152896000Y-120753378D01*
X152896000Y-121246622D01*
X152992227Y-121730390D01*
X153180984Y-122186089D01*
X153455016Y-122596207D01*
X153803793Y-122944984D01*
X154213911Y-123219016D01*
X154669610Y-123407773D01*
X155153378Y-123504000D01*
X155646622Y-123504000D01*
X155666731Y-123500000D01*
X162844772Y-123500000D01*
X162844772Y-125300000D01*
X162849676Y-125349793D01*
X162864200Y-125397672D01*
X162887786Y-125441797D01*
X162919527Y-125480473D01*
X162958203Y-125512214D01*
X163002328Y-125535800D01*
X163050207Y-125550324D01*
X163100000Y-125555228D01*
X164900000Y-125555228D01*
X164949793Y-125550324D01*
X164997672Y-125535800D01*
X165041797Y-125512214D01*
X165080473Y-125480473D01*
X165112214Y-125441797D01*
X165135800Y-125397672D01*
X165150324Y-125349793D01*
X165155228Y-125300000D01*
X165155228Y-123500000D01*
X165150324Y-123450207D01*
X165135800Y-123402328D01*
X165112214Y-123358203D01*
X165080473Y-123319527D01*
X165041797Y-123287786D01*
X164997672Y-123264200D01*
X164949793Y-123249676D01*
X164900000Y-123244772D01*
X163100000Y-123244772D01*
X163050207Y-123249676D01*
X163002328Y-123264200D01*
X162958203Y-123287786D01*
X162919527Y-123319527D01*
X162887786Y-123358203D01*
X162864200Y-123402328D01*
X162849676Y-123450207D01*
X162844772Y-123500000D01*
X155666731Y-123500000D01*
X156130390Y-123407773D01*
X156586089Y-123219016D01*
X156996207Y-122944984D01*
X157344984Y-122596207D01*
X157619016Y-122186089D01*
X157807773Y-121730390D01*
X157904000Y-121246622D01*
X157904000Y-120753378D01*
X157807773Y-120269610D01*
X157727626Y-120076116D01*
X159046000Y-120076116D01*
X159046000Y-121923883D01*
X159067762Y-122144835D01*
X159153762Y-122428340D01*
X159293419Y-122689620D01*
X159481366Y-122918634D01*
X159710379Y-123106581D01*
X159971659Y-123246238D01*
X160255164Y-123332238D01*
X160550000Y-123361277D01*
X160844835Y-123332238D01*
X161128340Y-123246238D01*
X161389620Y-123106581D01*
X161618634Y-122918634D01*
X161806581Y-122689621D01*
X161946238Y-122428341D01*
X162032238Y-122144836D01*
X162054000Y-121923884D01*
X162054000Y-120076116D01*
X162032238Y-119855164D01*
X161946238Y-119571659D01*
X161854485Y-119400000D01*
X167644772Y-119400000D01*
X167644772Y-121200000D01*
X167649676Y-121249793D01*
X167664200Y-121297672D01*
X167687786Y-121341797D01*
X167719527Y-121380473D01*
X167758203Y-121412214D01*
X167802328Y-121435800D01*
X167850207Y-121450324D01*
X167900000Y-121455228D01*
X169700000Y-121455228D01*
X169749793Y-121450324D01*
X169797672Y-121435800D01*
X169841797Y-121412214D01*
X169880473Y-121380473D01*
X169912214Y-121341797D01*
X169935800Y-121297672D01*
X169950324Y-121249793D01*
X169955228Y-121200000D01*
X169955228Y-119400000D01*
X169950324Y-119350207D01*
X169935800Y-119302328D01*
X169912214Y-119258203D01*
X169880473Y-119219527D01*
X169841797Y-119187786D01*
X169797672Y-119164200D01*
X169749793Y-119149676D01*
X169700000Y-119144772D01*
X167900000Y-119144772D01*
X167850207Y-119149676D01*
X167802328Y-119164200D01*
X167758203Y-119187786D01*
X167719527Y-119219527D01*
X167687786Y-119258203D01*
X167664200Y-119302328D01*
X167649676Y-119350207D01*
X167644772Y-119400000D01*
X161854485Y-119400000D01*
X161806581Y-119310379D01*
X161618634Y-119081366D01*
X161389621Y-118893419D01*
X161128341Y-118753762D01*
X160844836Y-118667762D01*
X160550000Y-118638723D01*
X160255165Y-118667762D01*
X159971660Y-118753762D01*
X159710380Y-118893419D01*
X159481367Y-119081366D01*
X159293420Y-119310379D01*
X159153763Y-119571659D01*
X159067763Y-119855164D01*
X159046000Y-120076116D01*
X157727626Y-120076116D01*
X157619016Y-119813911D01*
X157344984Y-119403793D01*
X156996207Y-119055016D01*
X156586089Y-118780984D01*
X156130390Y-118592227D01*
X155646622Y-118496000D01*
X155153378Y-118496000D01*
X154669610Y-118592227D01*
X154213911Y-118780984D01*
X153803793Y-119055016D01*
X153455016Y-119403793D01*
X153180984Y-119813911D01*
X152992227Y-120269610D01*
X152896000Y-120753378D01*
X143904000Y-120753378D01*
X143807773Y-120269610D01*
X143619016Y-119813911D01*
X143344984Y-119403793D01*
X142996207Y-119055016D01*
X142586089Y-118780984D01*
X142130390Y-118592227D01*
X141646622Y-118496000D01*
X141153378Y-118496000D01*
X140669610Y-118592227D01*
X140213911Y-118780984D01*
X139803793Y-119055016D01*
X139455016Y-119403793D01*
X139180984Y-119813911D01*
X138992227Y-120269610D01*
X138896000Y-120753378D01*
X137754000Y-120753378D01*
X137754000Y-120076116D01*
X137732238Y-119855164D01*
X137646238Y-119571659D01*
X137506581Y-119310379D01*
X137318634Y-119081366D01*
X137089621Y-118893419D01*
X136828341Y-118753762D01*
X136544836Y-118667762D01*
X136250000Y-118638723D01*
X135955165Y-118667762D01*
X135671660Y-118753762D01*
X135410380Y-118893419D01*
X135181367Y-119081366D01*
X134993420Y-119310379D01*
X134853763Y-119571659D01*
X134767763Y-119855164D01*
X134746000Y-120076116D01*
X134254000Y-120076116D01*
X134232238Y-119855164D01*
X134146238Y-119571659D01*
X134006581Y-119310379D01*
X133818634Y-119081366D01*
X133589621Y-118893419D01*
X133328341Y-118753762D01*
X133044836Y-118667762D01*
X132750000Y-118638723D01*
X132455165Y-118667762D01*
X132171660Y-118753762D01*
X131910380Y-118893419D01*
X131681367Y-119081366D01*
X131493420Y-119310379D01*
X131353763Y-119571659D01*
X131267763Y-119855164D01*
X131246000Y-120076116D01*
X129927626Y-120076116D01*
X129819016Y-119813911D01*
X129544984Y-119403793D01*
X129196207Y-119055016D01*
X128786089Y-118780984D01*
X128330390Y-118592227D01*
X127846622Y-118496000D01*
X127353378Y-118496000D01*
X126869610Y-118592227D01*
X126413911Y-118780984D01*
X126003793Y-119055016D01*
X125655016Y-119403793D01*
X125380984Y-119813911D01*
X125192227Y-120269610D01*
X125096000Y-120753378D01*
X116104000Y-120753378D01*
X116007773Y-120269610D01*
X115819016Y-119813911D01*
X115544984Y-119403793D01*
X115196207Y-119055016D01*
X114786089Y-118780984D01*
X114330390Y-118592227D01*
X113846622Y-118496000D01*
X113353378Y-118496000D01*
X112869610Y-118592227D01*
X112413911Y-118780984D01*
X112003793Y-119055016D01*
X111655016Y-119403793D01*
X111380984Y-119813911D01*
X111192227Y-120269610D01*
X111096000Y-120753378D01*
X109954000Y-120753378D01*
X109954000Y-120076116D01*
X109932238Y-119855164D01*
X109846238Y-119571659D01*
X109706581Y-119310379D01*
X109518634Y-119081366D01*
X109289621Y-118893419D01*
X109028341Y-118753762D01*
X108744836Y-118667762D01*
X108450000Y-118638723D01*
X108155165Y-118667762D01*
X107871660Y-118753762D01*
X107610380Y-118893419D01*
X107381367Y-119081366D01*
X107304000Y-119175638D01*
X107304000Y-115726869D01*
X116096000Y-115726869D01*
X116096000Y-116023131D01*
X116153798Y-116313701D01*
X116267173Y-116587411D01*
X116431767Y-116833744D01*
X116641256Y-117043233D01*
X116887589Y-117207827D01*
X117161299Y-117321202D01*
X117451869Y-117379000D01*
X117748131Y-117379000D01*
X118038701Y-117321202D01*
X118312411Y-117207827D01*
X118558744Y-117043233D01*
X118768233Y-116833744D01*
X118932827Y-116587411D01*
X119046202Y-116313701D01*
X119104000Y-116023131D01*
X119104000Y-115726869D01*
X130096000Y-115726869D01*
X130096000Y-116023131D01*
X130153798Y-116313701D01*
X130267173Y-116587411D01*
X130431767Y-116833744D01*
X130641256Y-117043233D01*
X130887589Y-117207827D01*
X131161299Y-117321202D01*
X131451869Y-117379000D01*
X131748131Y-117379000D01*
X132038701Y-117321202D01*
X132312411Y-117207827D01*
X132558744Y-117043233D01*
X132768233Y-116833744D01*
X132932827Y-116587411D01*
X133046202Y-116313701D01*
X133104000Y-116023131D01*
X133104000Y-115726869D01*
X143896000Y-115726869D01*
X143896000Y-116023131D01*
X143953798Y-116313701D01*
X144067173Y-116587411D01*
X144231767Y-116833744D01*
X144441256Y-117043233D01*
X144687589Y-117207827D01*
X144961299Y-117321202D01*
X145251869Y-117379000D01*
X145548131Y-117379000D01*
X145838701Y-117321202D01*
X146112411Y-117207827D01*
X146358744Y-117043233D01*
X146568233Y-116833744D01*
X146732827Y-116587411D01*
X146846202Y-116313701D01*
X146904000Y-116023131D01*
X146904000Y-115726869D01*
X157896000Y-115726869D01*
X157896000Y-116023131D01*
X157953798Y-116313701D01*
X158067173Y-116587411D01*
X158231767Y-116833744D01*
X158441256Y-117043233D01*
X158687589Y-117207827D01*
X158961299Y-117321202D01*
X159251869Y-117379000D01*
X159548131Y-117379000D01*
X159838701Y-117321202D01*
X160112411Y-117207827D01*
X160358744Y-117043233D01*
X160568233Y-116833744D01*
X160732827Y-116587411D01*
X160846202Y-116313701D01*
X160904000Y-116023131D01*
X160904000Y-115726869D01*
X160878765Y-115600000D01*
X162444772Y-115600000D01*
X162444772Y-117400000D01*
X162449676Y-117449793D01*
X162464200Y-117497672D01*
X162487786Y-117541797D01*
X162519527Y-117580473D01*
X162558203Y-117612214D01*
X162602328Y-117635800D01*
X162650207Y-117650324D01*
X162700000Y-117655228D01*
X164500000Y-117655228D01*
X164549793Y-117650324D01*
X164597672Y-117635800D01*
X164641797Y-117612214D01*
X164680473Y-117580473D01*
X164712214Y-117541797D01*
X164735800Y-117497672D01*
X164750324Y-117449793D01*
X164755228Y-117400000D01*
X164755228Y-115600000D01*
X164750324Y-115550207D01*
X164735800Y-115502328D01*
X164712214Y-115458203D01*
X164681385Y-115420638D01*
X164736609Y-115409653D01*
X164946624Y-115322662D01*
X165135632Y-115196371D01*
X165275806Y-115056197D01*
X165246000Y-115206039D01*
X165246000Y-115393961D01*
X165282662Y-115578272D01*
X165354576Y-115751888D01*
X165458980Y-115908140D01*
X165591860Y-116041020D01*
X165748112Y-116145424D01*
X165921728Y-116217338D01*
X166106039Y-116254000D01*
X166293961Y-116254000D01*
X166478272Y-116217338D01*
X166651888Y-116145424D01*
X166808140Y-116041020D01*
X166941020Y-115908140D01*
X167045424Y-115751888D01*
X167117338Y-115578272D01*
X167154000Y-115393961D01*
X167154000Y-115206039D01*
X167117338Y-115021728D01*
X167045424Y-114848112D01*
X166941020Y-114691860D01*
X166808140Y-114558980D01*
X166651888Y-114454576D01*
X166520130Y-114400000D01*
X167644772Y-114400000D01*
X167644772Y-116200000D01*
X167649676Y-116249793D01*
X167664200Y-116297672D01*
X167687786Y-116341797D01*
X167719527Y-116380473D01*
X167758203Y-116412214D01*
X167802328Y-116435800D01*
X167850207Y-116450324D01*
X167900000Y-116455228D01*
X169700000Y-116455228D01*
X169749793Y-116450324D01*
X169797672Y-116435800D01*
X169841797Y-116412214D01*
X169880473Y-116380473D01*
X169912214Y-116341797D01*
X169935800Y-116297672D01*
X169950324Y-116249793D01*
X169955228Y-116200000D01*
X169955228Y-114400000D01*
X169950324Y-114350207D01*
X169935800Y-114302328D01*
X169912214Y-114258203D01*
X169880473Y-114219527D01*
X169841797Y-114187786D01*
X169797672Y-114164200D01*
X169749793Y-114149676D01*
X169700000Y-114144772D01*
X167900000Y-114144772D01*
X167850207Y-114149676D01*
X167802328Y-114164200D01*
X167758203Y-114187786D01*
X167719527Y-114219527D01*
X167687786Y-114258203D01*
X167664200Y-114302328D01*
X167649676Y-114350207D01*
X167644772Y-114400000D01*
X166520130Y-114400000D01*
X166478272Y-114382662D01*
X166293961Y-114346000D01*
X166106039Y-114346000D01*
X165921728Y-114382662D01*
X165748112Y-114454576D01*
X165591860Y-114558980D01*
X165506416Y-114644424D01*
X165509653Y-114636609D01*
X165554000Y-114413659D01*
X165554000Y-114186341D01*
X165509653Y-113963391D01*
X165422662Y-113753376D01*
X165296371Y-113564368D01*
X165135632Y-113403629D01*
X164946624Y-113277338D01*
X164736609Y-113190347D01*
X164513659Y-113146000D01*
X164286341Y-113146000D01*
X164063391Y-113190347D01*
X163853376Y-113277338D01*
X163664368Y-113403629D01*
X163503629Y-113564368D01*
X163377338Y-113753376D01*
X163290347Y-113963391D01*
X163246000Y-114186341D01*
X163246000Y-114413659D01*
X163290347Y-114636609D01*
X163377338Y-114846624D01*
X163503629Y-115035632D01*
X163664368Y-115196371D01*
X163853376Y-115322662D01*
X163906754Y-115344772D01*
X162700000Y-115344772D01*
X162650207Y-115349676D01*
X162602328Y-115364200D01*
X162558203Y-115387786D01*
X162519527Y-115419527D01*
X162487786Y-115458203D01*
X162464200Y-115502328D01*
X162449676Y-115550207D01*
X162444772Y-115600000D01*
X160878765Y-115600000D01*
X160846202Y-115436299D01*
X160732827Y-115162589D01*
X160568233Y-114916256D01*
X160358744Y-114706767D01*
X160112411Y-114542173D01*
X159838701Y-114428798D01*
X159548131Y-114371000D01*
X159251869Y-114371000D01*
X158961299Y-114428798D01*
X158687589Y-114542173D01*
X158441256Y-114706767D01*
X158231767Y-114916256D01*
X158067173Y-115162589D01*
X157953798Y-115436299D01*
X157896000Y-115726869D01*
X146904000Y-115726869D01*
X146846202Y-115436299D01*
X146732827Y-115162589D01*
X146568233Y-114916256D01*
X146358744Y-114706767D01*
X146112411Y-114542173D01*
X145838701Y-114428798D01*
X145548131Y-114371000D01*
X145251869Y-114371000D01*
X144961299Y-114428798D01*
X144687589Y-114542173D01*
X144441256Y-114706767D01*
X144231767Y-114916256D01*
X144067173Y-115162589D01*
X143953798Y-115436299D01*
X143896000Y-115726869D01*
X133104000Y-115726869D01*
X133046202Y-115436299D01*
X132932827Y-115162589D01*
X132768233Y-114916256D01*
X132558744Y-114706767D01*
X132312411Y-114542173D01*
X132038701Y-114428798D01*
X131748131Y-114371000D01*
X131451869Y-114371000D01*
X131161299Y-114428798D01*
X130887589Y-114542173D01*
X130641256Y-114706767D01*
X130431767Y-114916256D01*
X130267173Y-115162589D01*
X130153798Y-115436299D01*
X130096000Y-115726869D01*
X119104000Y-115726869D01*
X119046202Y-115436299D01*
X118932827Y-115162589D01*
X118768233Y-114916256D01*
X118558744Y-114706767D01*
X118312411Y-114542173D01*
X118038701Y-114428798D01*
X117748131Y-114371000D01*
X117451869Y-114371000D01*
X117161299Y-114428798D01*
X116887589Y-114542173D01*
X116641256Y-114706767D01*
X116431767Y-114916256D01*
X116267173Y-115162589D01*
X116153798Y-115436299D01*
X116096000Y-115726869D01*
X107304000Y-115726869D01*
X107304000Y-114152468D01*
X160517426Y-114152468D01*
X160517426Y-114247532D01*
X160535972Y-114340769D01*
X160572352Y-114428597D01*
X160625166Y-114507640D01*
X160692386Y-114574860D01*
X160771429Y-114627674D01*
X160859257Y-114664054D01*
X160952494Y-114682600D01*
X161047558Y-114682600D01*
X161140795Y-114664054D01*
X161228623Y-114627674D01*
X161307666Y-114574860D01*
X161374886Y-114507640D01*
X161427700Y-114428597D01*
X161464080Y-114340769D01*
X161482626Y-114247532D01*
X161482626Y-114152468D01*
X161464080Y-114059231D01*
X161427700Y-113971403D01*
X161374886Y-113892360D01*
X161307666Y-113825140D01*
X161228623Y-113772326D01*
X161140795Y-113735946D01*
X161047558Y-113717400D01*
X160952494Y-113717400D01*
X160859257Y-113735946D01*
X160771429Y-113772326D01*
X160692386Y-113825140D01*
X160625166Y-113892360D01*
X160572352Y-113971403D01*
X160535972Y-114059231D01*
X160517426Y-114152468D01*
X107304000Y-114152468D01*
X107304000Y-112752468D01*
X168517400Y-112752468D01*
X168517400Y-112847532D01*
X168535946Y-112940769D01*
X168572326Y-113028597D01*
X168625140Y-113107640D01*
X168692360Y-113174860D01*
X168771403Y-113227674D01*
X168859231Y-113264054D01*
X168952468Y-113282600D01*
X169047532Y-113282600D01*
X169140769Y-113264054D01*
X169228597Y-113227674D01*
X169307640Y-113174860D01*
X169374860Y-113107640D01*
X169427674Y-113028597D01*
X169464054Y-112940769D01*
X169482600Y-112847532D01*
X169482600Y-112752468D01*
X169464054Y-112659231D01*
X169427674Y-112571403D01*
X169374860Y-112492360D01*
X169307640Y-112425140D01*
X169228597Y-112372326D01*
X169140769Y-112335946D01*
X169047532Y-112317400D01*
X168952468Y-112317400D01*
X168859231Y-112335946D01*
X168771403Y-112372326D01*
X168692360Y-112425140D01*
X168625140Y-112492360D01*
X168572326Y-112571403D01*
X168535946Y-112659231D01*
X168517400Y-112752468D01*
X107304000Y-112752468D01*
X107304000Y-110903148D01*
X116226457Y-110903148D01*
X116502627Y-111321118D01*
X117047557Y-111611649D01*
X117638696Y-111790287D01*
X118253328Y-111850168D01*
X118867831Y-111788990D01*
X119458592Y-111609103D01*
X119997373Y-111321118D01*
X120273543Y-110903148D01*
X140376457Y-110903148D01*
X140652627Y-111321118D01*
X141197557Y-111611649D01*
X141788696Y-111790287D01*
X142403328Y-111850168D01*
X143017831Y-111788990D01*
X143608592Y-111609103D01*
X144147373Y-111321118D01*
X144390955Y-110952468D01*
X161917400Y-110952468D01*
X161917400Y-111047532D01*
X161935946Y-111140769D01*
X161972326Y-111228597D01*
X162025140Y-111307640D01*
X162092360Y-111374860D01*
X162171403Y-111427674D01*
X162259231Y-111464054D01*
X162352468Y-111482600D01*
X162447532Y-111482600D01*
X162540769Y-111464054D01*
X162628597Y-111427674D01*
X162707640Y-111374860D01*
X162774860Y-111307640D01*
X162827674Y-111228597D01*
X162864054Y-111140769D01*
X162882600Y-111047532D01*
X162882600Y-110952468D01*
X165317400Y-110952468D01*
X165317400Y-111047532D01*
X165335946Y-111140769D01*
X165372326Y-111228597D01*
X165425140Y-111307640D01*
X165492360Y-111374860D01*
X165571403Y-111427674D01*
X165659231Y-111464054D01*
X165752468Y-111482600D01*
X165847532Y-111482600D01*
X165940769Y-111464054D01*
X166028597Y-111427674D01*
X166107640Y-111374860D01*
X166174860Y-111307640D01*
X166227674Y-111228597D01*
X166264054Y-111140769D01*
X166282600Y-111047532D01*
X166282600Y-110952468D01*
X166264054Y-110859231D01*
X166227674Y-110771403D01*
X166174860Y-110692360D01*
X166107640Y-110625140D01*
X166028597Y-110572326D01*
X165940769Y-110535946D01*
X165847532Y-110517400D01*
X165752468Y-110517400D01*
X165659231Y-110535946D01*
X165571403Y-110572326D01*
X165492360Y-110625140D01*
X165425140Y-110692360D01*
X165372326Y-110771403D01*
X165335946Y-110859231D01*
X165317400Y-110952468D01*
X162882600Y-110952468D01*
X162864054Y-110859231D01*
X162827674Y-110771403D01*
X162774860Y-110692360D01*
X162707640Y-110625140D01*
X162628597Y-110572326D01*
X162540769Y-110535946D01*
X162447532Y-110517400D01*
X162352468Y-110517400D01*
X162259231Y-110535946D01*
X162171403Y-110572326D01*
X162092360Y-110625140D01*
X162025140Y-110692360D01*
X161972326Y-110771403D01*
X161935946Y-110859231D01*
X161917400Y-110952468D01*
X144390955Y-110952468D01*
X144423543Y-110903148D01*
X142400000Y-108879605D01*
X140376457Y-110903148D01*
X120273543Y-110903148D01*
X118250000Y-108879605D01*
X116226457Y-110903148D01*
X107304000Y-110903148D01*
X107304000Y-108703328D01*
X115099832Y-108703328D01*
X115161010Y-109317831D01*
X115340897Y-109908592D01*
X115628882Y-110447373D01*
X116046852Y-110723543D01*
X118070395Y-108700000D01*
X118429605Y-108700000D01*
X120453148Y-110723543D01*
X120871118Y-110447373D01*
X121028347Y-110152468D01*
X133117400Y-110152468D01*
X133117400Y-110247532D01*
X133135946Y-110340769D01*
X133172326Y-110428597D01*
X133225140Y-110507640D01*
X133292360Y-110574860D01*
X133371403Y-110627674D01*
X133459231Y-110664054D01*
X133552468Y-110682600D01*
X133647532Y-110682600D01*
X133740769Y-110664054D01*
X133828597Y-110627674D01*
X133907640Y-110574860D01*
X133974860Y-110507640D01*
X134027674Y-110428597D01*
X134064054Y-110340769D01*
X134082600Y-110247532D01*
X134082600Y-110152468D01*
X136117400Y-110152468D01*
X136117400Y-110247532D01*
X136135946Y-110340769D01*
X136172326Y-110428597D01*
X136225140Y-110507640D01*
X136292360Y-110574860D01*
X136371403Y-110627674D01*
X136459231Y-110664054D01*
X136552468Y-110682600D01*
X136647532Y-110682600D01*
X136740769Y-110664054D01*
X136828597Y-110627674D01*
X136907640Y-110574860D01*
X136974860Y-110507640D01*
X137027674Y-110428597D01*
X137064054Y-110340769D01*
X137082600Y-110247532D01*
X137082600Y-110152468D01*
X137064054Y-110059231D01*
X137027674Y-109971403D01*
X136974860Y-109892360D01*
X136907640Y-109825140D01*
X136828597Y-109772326D01*
X136740769Y-109735946D01*
X136647532Y-109717400D01*
X136552468Y-109717400D01*
X136459231Y-109735946D01*
X136371403Y-109772326D01*
X136292360Y-109825140D01*
X136225140Y-109892360D01*
X136172326Y-109971403D01*
X136135946Y-110059231D01*
X136117400Y-110152468D01*
X134082600Y-110152468D01*
X134064054Y-110059231D01*
X134027674Y-109971403D01*
X133974860Y-109892360D01*
X133907640Y-109825140D01*
X133828597Y-109772326D01*
X133740769Y-109735946D01*
X133647532Y-109717400D01*
X133552468Y-109717400D01*
X133459231Y-109735946D01*
X133371403Y-109772326D01*
X133292360Y-109825140D01*
X133225140Y-109892360D01*
X133172326Y-109971403D01*
X133135946Y-110059231D01*
X133117400Y-110152468D01*
X121028347Y-110152468D01*
X121161649Y-109902443D01*
X121340287Y-109311304D01*
X121400168Y-108696672D01*
X121385812Y-108552468D01*
X133117400Y-108552468D01*
X133117400Y-108647532D01*
X133135946Y-108740769D01*
X133172326Y-108828597D01*
X133225140Y-108907640D01*
X133292360Y-108974860D01*
X133371403Y-109027674D01*
X133459231Y-109064054D01*
X133552468Y-109082600D01*
X133647532Y-109082600D01*
X133740769Y-109064054D01*
X133828597Y-109027674D01*
X133907640Y-108974860D01*
X133974860Y-108907640D01*
X134027674Y-108828597D01*
X134064054Y-108740769D01*
X134082600Y-108647532D01*
X134082600Y-108552468D01*
X136117400Y-108552468D01*
X136117400Y-108647532D01*
X136135946Y-108740769D01*
X136172326Y-108828597D01*
X136225140Y-108907640D01*
X136292360Y-108974860D01*
X136371403Y-109027674D01*
X136459231Y-109064054D01*
X136552468Y-109082600D01*
X136647532Y-109082600D01*
X136740769Y-109064054D01*
X136828597Y-109027674D01*
X136907640Y-108974860D01*
X136974860Y-108907640D01*
X137027674Y-108828597D01*
X137064054Y-108740769D01*
X137071501Y-108703328D01*
X139249832Y-108703328D01*
X139311010Y-109317831D01*
X139490897Y-109908592D01*
X139778882Y-110447373D01*
X140196852Y-110723543D01*
X142220395Y-108700000D01*
X142579605Y-108700000D01*
X144603148Y-110723543D01*
X145021118Y-110447373D01*
X145311649Y-109902443D01*
X145417408Y-109552468D01*
X145854021Y-109552468D01*
X145854021Y-109647532D01*
X145872567Y-109740769D01*
X145908947Y-109828597D01*
X145961761Y-109907640D01*
X146028981Y-109974860D01*
X146108024Y-110027674D01*
X146195852Y-110064054D01*
X146289089Y-110082600D01*
X146384153Y-110082600D01*
X146477390Y-110064054D01*
X146565218Y-110027674D01*
X146632315Y-109982842D01*
X146692217Y-110022866D01*
X146780045Y-110059246D01*
X146873282Y-110077792D01*
X146968346Y-110077792D01*
X147061583Y-110059246D01*
X147149411Y-110022866D01*
X147208188Y-109983593D01*
X147277734Y-110030062D01*
X147365562Y-110066442D01*
X147458799Y-110084988D01*
X147553863Y-110084988D01*
X147647100Y-110066442D01*
X147734928Y-110030062D01*
X147798156Y-109987815D01*
X147866816Y-110033692D01*
X147954644Y-110070072D01*
X148047881Y-110088618D01*
X148142945Y-110088618D01*
X148236182Y-110070072D01*
X148324010Y-110033692D01*
X148390787Y-109989074D01*
X148458741Y-110034479D01*
X148546569Y-110070859D01*
X148639806Y-110089405D01*
X148734870Y-110089405D01*
X148828107Y-110070859D01*
X148915935Y-110034479D01*
X148994978Y-109981665D01*
X149062198Y-109914445D01*
X149115012Y-109835402D01*
X149145078Y-109762816D01*
X149172326Y-109828597D01*
X149225140Y-109907640D01*
X149292360Y-109974860D01*
X149371403Y-110027674D01*
X149459231Y-110064054D01*
X149552468Y-110082600D01*
X149647532Y-110082600D01*
X149740769Y-110064054D01*
X149828597Y-110027674D01*
X149907640Y-109974860D01*
X149974860Y-109907640D01*
X150027674Y-109828597D01*
X150064054Y-109740769D01*
X150082600Y-109647532D01*
X150082600Y-109552468D01*
X157117400Y-109552468D01*
X157117400Y-109647532D01*
X157135946Y-109740769D01*
X157172326Y-109828597D01*
X157225140Y-109907640D01*
X157292360Y-109974860D01*
X157371403Y-110027674D01*
X157459231Y-110064054D01*
X157552468Y-110082600D01*
X157647532Y-110082600D01*
X157740769Y-110064054D01*
X157828597Y-110027674D01*
X157900000Y-109979965D01*
X157971403Y-110027674D01*
X158059231Y-110064054D01*
X158152468Y-110082600D01*
X158247532Y-110082600D01*
X158340769Y-110064054D01*
X158428597Y-110027674D01*
X158507640Y-109974860D01*
X158574860Y-109907640D01*
X158627674Y-109828597D01*
X158664054Y-109740769D01*
X158682600Y-109647532D01*
X158682600Y-109552468D01*
X158664054Y-109459231D01*
X158627674Y-109371403D01*
X158574860Y-109292360D01*
X158507640Y-109225140D01*
X158428597Y-109172326D01*
X158340769Y-109135946D01*
X158247532Y-109117400D01*
X158152468Y-109117400D01*
X158059231Y-109135946D01*
X157971403Y-109172326D01*
X157900000Y-109220035D01*
X157828597Y-109172326D01*
X157740769Y-109135946D01*
X157647532Y-109117400D01*
X157552468Y-109117400D01*
X157459231Y-109135946D01*
X157371403Y-109172326D01*
X157292360Y-109225140D01*
X157225140Y-109292360D01*
X157172326Y-109371403D01*
X157135946Y-109459231D01*
X157117400Y-109552468D01*
X150082600Y-109552468D01*
X150064054Y-109459231D01*
X150027674Y-109371403D01*
X149974860Y-109292360D01*
X149907640Y-109225140D01*
X149828597Y-109172326D01*
X149740769Y-109135946D01*
X149647532Y-109117400D01*
X149552468Y-109117400D01*
X149459231Y-109135946D01*
X149371403Y-109172326D01*
X149292360Y-109225140D01*
X149225140Y-109292360D01*
X149172326Y-109371403D01*
X149142260Y-109443989D01*
X149115012Y-109378208D01*
X149062198Y-109299165D01*
X148994978Y-109231945D01*
X148915935Y-109179131D01*
X148828107Y-109142751D01*
X148734870Y-109124205D01*
X148639806Y-109124205D01*
X148546569Y-109142751D01*
X148458741Y-109179131D01*
X148391964Y-109223749D01*
X148324010Y-109178344D01*
X148236182Y-109141964D01*
X148142945Y-109123418D01*
X148047881Y-109123418D01*
X147954644Y-109141964D01*
X147866816Y-109178344D01*
X147803588Y-109220591D01*
X147734928Y-109174714D01*
X147647100Y-109138334D01*
X147553863Y-109119788D01*
X147458799Y-109119788D01*
X147365562Y-109138334D01*
X147277734Y-109174714D01*
X147218957Y-109213987D01*
X147149411Y-109167518D01*
X147061583Y-109131138D01*
X146968346Y-109112592D01*
X146873282Y-109112592D01*
X146780045Y-109131138D01*
X146692217Y-109167518D01*
X146625120Y-109212350D01*
X146565218Y-109172326D01*
X146477390Y-109135946D01*
X146384153Y-109117400D01*
X146289089Y-109117400D01*
X146195852Y-109135946D01*
X146108024Y-109172326D01*
X146028981Y-109225140D01*
X145961761Y-109292360D01*
X145908947Y-109371403D01*
X145872567Y-109459231D01*
X145854021Y-109552468D01*
X145417408Y-109552468D01*
X145490287Y-109311304D01*
X145550168Y-108696672D01*
X145488990Y-108082169D01*
X145388596Y-107752468D01*
X161917400Y-107752468D01*
X161917400Y-107847532D01*
X161935946Y-107940769D01*
X161972326Y-108028597D01*
X162025140Y-108107640D01*
X162092360Y-108174860D01*
X162171403Y-108227674D01*
X162259231Y-108264054D01*
X162352468Y-108282600D01*
X162447532Y-108282600D01*
X162540769Y-108264054D01*
X162628597Y-108227674D01*
X162707640Y-108174860D01*
X162774860Y-108107640D01*
X162827674Y-108028597D01*
X162864054Y-107940769D01*
X162882600Y-107847532D01*
X162882600Y-107752468D01*
X163517400Y-107752468D01*
X163517400Y-107847532D01*
X163535946Y-107940769D01*
X163572326Y-108028597D01*
X163625140Y-108107640D01*
X163692360Y-108174860D01*
X163771403Y-108227674D01*
X163859231Y-108264054D01*
X163952468Y-108282600D01*
X164047532Y-108282600D01*
X164140769Y-108264054D01*
X164228597Y-108227674D01*
X164307640Y-108174860D01*
X164374860Y-108107640D01*
X164427674Y-108028597D01*
X164464054Y-107940769D01*
X164482600Y-107847532D01*
X164482600Y-107752468D01*
X165317400Y-107752468D01*
X165317400Y-107847532D01*
X165335946Y-107940769D01*
X165372326Y-108028597D01*
X165425140Y-108107640D01*
X165492360Y-108174860D01*
X165571403Y-108227674D01*
X165659231Y-108264054D01*
X165752468Y-108282600D01*
X165847532Y-108282600D01*
X165940769Y-108264054D01*
X166028597Y-108227674D01*
X166107640Y-108174860D01*
X166174860Y-108107640D01*
X166227674Y-108028597D01*
X166264054Y-107940769D01*
X166282600Y-107847532D01*
X166282600Y-107752468D01*
X166264054Y-107659231D01*
X166227674Y-107571403D01*
X166174860Y-107492360D01*
X166107640Y-107425140D01*
X166028597Y-107372326D01*
X165940769Y-107335946D01*
X165847532Y-107317400D01*
X165752468Y-107317400D01*
X165659231Y-107335946D01*
X165571403Y-107372326D01*
X165492360Y-107425140D01*
X165425140Y-107492360D01*
X165372326Y-107571403D01*
X165335946Y-107659231D01*
X165317400Y-107752468D01*
X164482600Y-107752468D01*
X164464054Y-107659231D01*
X164427674Y-107571403D01*
X164374860Y-107492360D01*
X164307640Y-107425140D01*
X164228597Y-107372326D01*
X164140769Y-107335946D01*
X164047532Y-107317400D01*
X163952468Y-107317400D01*
X163859231Y-107335946D01*
X163771403Y-107372326D01*
X163692360Y-107425140D01*
X163625140Y-107492360D01*
X163572326Y-107571403D01*
X163535946Y-107659231D01*
X163517400Y-107752468D01*
X162882600Y-107752468D01*
X162864054Y-107659231D01*
X162827674Y-107571403D01*
X162774860Y-107492360D01*
X162707640Y-107425140D01*
X162628597Y-107372326D01*
X162540769Y-107335946D01*
X162447532Y-107317400D01*
X162352468Y-107317400D01*
X162259231Y-107335946D01*
X162171403Y-107372326D01*
X162092360Y-107425140D01*
X162025140Y-107492360D01*
X161972326Y-107571403D01*
X161935946Y-107659231D01*
X161917400Y-107752468D01*
X145388596Y-107752468D01*
X145309103Y-107491408D01*
X145021118Y-106952627D01*
X144718187Y-106752468D01*
X156517400Y-106752468D01*
X156517400Y-106847532D01*
X156535946Y-106940769D01*
X156572326Y-107028597D01*
X156625140Y-107107640D01*
X156692360Y-107174860D01*
X156771403Y-107227674D01*
X156859231Y-107264054D01*
X156952468Y-107282600D01*
X157047532Y-107282600D01*
X157140769Y-107264054D01*
X157228597Y-107227674D01*
X157307640Y-107174860D01*
X157374860Y-107107640D01*
X157427674Y-107028597D01*
X157464054Y-106940769D01*
X157482600Y-106847532D01*
X157482600Y-106752468D01*
X157464054Y-106659231D01*
X157427674Y-106571403D01*
X157374860Y-106492360D01*
X157307640Y-106425140D01*
X157228597Y-106372326D01*
X157140769Y-106335946D01*
X157047532Y-106317400D01*
X156952468Y-106317400D01*
X156859231Y-106335946D01*
X156771403Y-106372326D01*
X156692360Y-106425140D01*
X156625140Y-106492360D01*
X156572326Y-106571403D01*
X156535946Y-106659231D01*
X156517400Y-106752468D01*
X144718187Y-106752468D01*
X144603148Y-106676457D01*
X142579605Y-108700000D01*
X142220395Y-108700000D01*
X140196852Y-106676457D01*
X139778882Y-106952627D01*
X139488351Y-107497557D01*
X139309713Y-108088696D01*
X139249832Y-108703328D01*
X137071501Y-108703328D01*
X137082600Y-108647532D01*
X137082600Y-108552468D01*
X137064054Y-108459231D01*
X137027674Y-108371403D01*
X136974860Y-108292360D01*
X136907640Y-108225140D01*
X136828597Y-108172326D01*
X136740769Y-108135946D01*
X136647532Y-108117400D01*
X136552468Y-108117400D01*
X136459231Y-108135946D01*
X136371403Y-108172326D01*
X136292360Y-108225140D01*
X136225140Y-108292360D01*
X136172326Y-108371403D01*
X136135946Y-108459231D01*
X136117400Y-108552468D01*
X134082600Y-108552468D01*
X134064054Y-108459231D01*
X134027674Y-108371403D01*
X133974860Y-108292360D01*
X133907640Y-108225140D01*
X133828597Y-108172326D01*
X133740769Y-108135946D01*
X133647532Y-108117400D01*
X133552468Y-108117400D01*
X133459231Y-108135946D01*
X133371403Y-108172326D01*
X133292360Y-108225140D01*
X133225140Y-108292360D01*
X133172326Y-108371403D01*
X133135946Y-108459231D01*
X133117400Y-108552468D01*
X121385812Y-108552468D01*
X121338990Y-108082169D01*
X121159103Y-107491408D01*
X120871118Y-106952627D01*
X120453148Y-106676457D01*
X118429605Y-108700000D01*
X118070395Y-108700000D01*
X116046852Y-106676457D01*
X115628882Y-106952627D01*
X115338351Y-107497557D01*
X115159713Y-108088696D01*
X115099832Y-108703328D01*
X107304000Y-108703328D01*
X107304000Y-106496852D01*
X116226457Y-106496852D01*
X118250000Y-108520395D01*
X120273543Y-106496852D01*
X140376457Y-106496852D01*
X142400000Y-108520395D01*
X144423543Y-106496852D01*
X144147373Y-106078882D01*
X143910267Y-105952468D01*
X153317400Y-105952468D01*
X153317400Y-106047532D01*
X153335946Y-106140769D01*
X153372326Y-106228597D01*
X153425140Y-106307640D01*
X153492360Y-106374860D01*
X153571403Y-106427674D01*
X153659231Y-106464054D01*
X153752468Y-106482600D01*
X153847532Y-106482600D01*
X153940769Y-106464054D01*
X154028597Y-106427674D01*
X154107640Y-106374860D01*
X154174860Y-106307640D01*
X154227674Y-106228597D01*
X154264054Y-106140769D01*
X154282600Y-106047532D01*
X154282600Y-106017994D01*
X159803810Y-106017994D01*
X159803810Y-106113058D01*
X159822356Y-106206295D01*
X159858736Y-106294123D01*
X159911550Y-106373166D01*
X159978770Y-106440386D01*
X160057813Y-106493200D01*
X160145641Y-106529580D01*
X160238878Y-106548126D01*
X160333942Y-106548126D01*
X160427179Y-106529580D01*
X160515007Y-106493200D01*
X160584477Y-106446782D01*
X160625140Y-106507640D01*
X160692360Y-106574860D01*
X160771403Y-106627674D01*
X160859231Y-106664054D01*
X160952468Y-106682600D01*
X161047532Y-106682600D01*
X161140769Y-106664054D01*
X161228597Y-106627674D01*
X161307640Y-106574860D01*
X161374860Y-106507640D01*
X161427674Y-106428597D01*
X161464054Y-106340769D01*
X161482600Y-106247532D01*
X161482600Y-106152468D01*
X161464054Y-106059231D01*
X161427674Y-105971403D01*
X161374860Y-105892360D01*
X161307640Y-105825140D01*
X161228597Y-105772326D01*
X161140769Y-105735946D01*
X161047532Y-105717400D01*
X160952468Y-105717400D01*
X160859231Y-105735946D01*
X160771403Y-105772326D01*
X160701933Y-105818744D01*
X160661270Y-105757886D01*
X160594050Y-105690666D01*
X160515007Y-105637852D01*
X160427179Y-105601472D01*
X160333942Y-105582926D01*
X160238878Y-105582926D01*
X160145641Y-105601472D01*
X160057813Y-105637852D01*
X159978770Y-105690666D01*
X159911550Y-105757886D01*
X159858736Y-105836929D01*
X159822356Y-105924757D01*
X159803810Y-106017994D01*
X154282600Y-106017994D01*
X154282600Y-105952468D01*
X154264054Y-105859231D01*
X154227674Y-105771403D01*
X154174860Y-105692360D01*
X154107640Y-105625140D01*
X154028597Y-105572326D01*
X153940769Y-105535946D01*
X153847532Y-105517400D01*
X153752468Y-105517400D01*
X153659231Y-105535946D01*
X153571403Y-105572326D01*
X153492360Y-105625140D01*
X153425140Y-105692360D01*
X153372326Y-105771403D01*
X153335946Y-105859231D01*
X153317400Y-105952468D01*
X143910267Y-105952468D01*
X143602443Y-105788351D01*
X143011304Y-105609713D01*
X142396672Y-105549832D01*
X141782169Y-105611010D01*
X141191408Y-105790897D01*
X140652627Y-106078882D01*
X140376457Y-106496852D01*
X120273543Y-106496852D01*
X119997373Y-106078882D01*
X119452443Y-105788351D01*
X118861304Y-105609713D01*
X118246672Y-105549832D01*
X117632169Y-105611010D01*
X117041408Y-105790897D01*
X116502627Y-106078882D01*
X116226457Y-106496852D01*
X107304000Y-106496852D01*
X107304000Y-104435468D01*
X151917400Y-104435468D01*
X151917400Y-104530532D01*
X151935946Y-104623769D01*
X151972326Y-104711597D01*
X152025140Y-104790640D01*
X152092360Y-104857860D01*
X152171403Y-104910674D01*
X152259231Y-104947054D01*
X152352468Y-104965600D01*
X152447532Y-104965600D01*
X152540769Y-104947054D01*
X152628597Y-104910674D01*
X152707640Y-104857860D01*
X152774860Y-104790640D01*
X152827674Y-104711597D01*
X152864054Y-104623769D01*
X152882600Y-104530532D01*
X152882600Y-104435468D01*
X152864054Y-104342231D01*
X152837367Y-104277803D01*
X152852328Y-104285800D01*
X152900207Y-104300324D01*
X152950000Y-104305228D01*
X154650000Y-104305228D01*
X154699793Y-104300324D01*
X154747672Y-104285800D01*
X154791797Y-104262214D01*
X154830473Y-104230473D01*
X154862214Y-104191797D01*
X154885800Y-104147672D01*
X154900324Y-104099793D01*
X154905228Y-104050000D01*
X154905228Y-102350000D01*
X154900324Y-102300207D01*
X154885800Y-102252328D01*
X154862214Y-102208203D01*
X154830473Y-102169527D01*
X154791797Y-102137786D01*
X154747672Y-102114200D01*
X154699793Y-102099676D01*
X154650000Y-102094772D01*
X152950000Y-102094772D01*
X152900207Y-102099676D01*
X152852328Y-102114200D01*
X152808203Y-102137786D01*
X152769527Y-102169527D01*
X152737786Y-102208203D01*
X152714200Y-102252328D01*
X152699676Y-102300207D01*
X152694772Y-102350000D01*
X152694772Y-104050000D01*
X152699676Y-104099793D01*
X152700827Y-104103588D01*
X152628597Y-104055326D01*
X152540769Y-104018946D01*
X152447532Y-104000400D01*
X152352468Y-104000400D01*
X152259231Y-104018946D01*
X152171403Y-104055326D01*
X152092360Y-104108140D01*
X152025140Y-104175360D01*
X151972326Y-104254403D01*
X151935946Y-104342231D01*
X151917400Y-104435468D01*
X107304000Y-104435468D01*
X107304000Y-101997002D01*
X163465578Y-101997002D01*
X163465578Y-102092066D01*
X163484124Y-102185303D01*
X163520504Y-102273131D01*
X163573318Y-102352174D01*
X163640538Y-102419394D01*
X163719581Y-102472208D01*
X163807409Y-102508588D01*
X163900646Y-102527134D01*
X163995710Y-102527134D01*
X164088947Y-102508588D01*
X164176775Y-102472208D01*
X164255818Y-102419394D01*
X164323038Y-102352174D01*
X164375852Y-102273131D01*
X164412232Y-102185303D01*
X164430778Y-102092066D01*
X164430778Y-101997002D01*
X164412232Y-101903765D01*
X164375852Y-101815937D01*
X164323038Y-101736894D01*
X164255818Y-101669674D01*
X164176775Y-101616860D01*
X164088947Y-101580480D01*
X163995710Y-101561934D01*
X163900646Y-101561934D01*
X163807409Y-101580480D01*
X163719581Y-101616860D01*
X163640538Y-101669674D01*
X163573318Y-101736894D01*
X163520504Y-101815937D01*
X163484124Y-101903765D01*
X163465578Y-101997002D01*
X107304000Y-101997002D01*
X107304000Y-100152468D01*
X134367678Y-100152468D01*
X134367678Y-100247532D01*
X134386224Y-100340769D01*
X134422604Y-100428597D01*
X134475418Y-100507640D01*
X134542638Y-100574860D01*
X134621681Y-100627674D01*
X134709509Y-100664054D01*
X134802746Y-100682600D01*
X134897810Y-100682600D01*
X134991047Y-100664054D01*
X135078875Y-100627674D01*
X135157918Y-100574860D01*
X135181513Y-100551265D01*
X152696000Y-100551265D01*
X152696000Y-100768735D01*
X152738426Y-100982025D01*
X152821648Y-101182940D01*
X152942467Y-101363759D01*
X153096241Y-101517533D01*
X153277060Y-101638352D01*
X153477975Y-101721574D01*
X153691265Y-101764000D01*
X153908735Y-101764000D01*
X154122025Y-101721574D01*
X154322940Y-101638352D01*
X154503759Y-101517533D01*
X154657533Y-101363759D01*
X154778352Y-101182940D01*
X154861574Y-100982025D01*
X154867452Y-100952470D01*
X163517400Y-100952470D01*
X163517400Y-101047534D01*
X163535946Y-101140771D01*
X163572326Y-101228599D01*
X163625140Y-101307642D01*
X163692360Y-101374862D01*
X163771403Y-101427676D01*
X163859231Y-101464056D01*
X163952468Y-101482602D01*
X164047532Y-101482602D01*
X164140769Y-101464056D01*
X164228597Y-101427676D01*
X164307640Y-101374862D01*
X164374860Y-101307642D01*
X164427674Y-101228599D01*
X164464054Y-101140771D01*
X164482600Y-101047534D01*
X164482600Y-100952470D01*
X164464054Y-100859233D01*
X164427674Y-100771405D01*
X164374860Y-100692362D01*
X164307640Y-100625142D01*
X164228597Y-100572328D01*
X164140769Y-100535948D01*
X164047532Y-100517402D01*
X163952468Y-100517402D01*
X163859231Y-100535948D01*
X163771403Y-100572328D01*
X163692360Y-100625142D01*
X163625140Y-100692362D01*
X163572326Y-100771405D01*
X163535946Y-100859233D01*
X163517400Y-100952470D01*
X154867452Y-100952470D01*
X154904000Y-100768735D01*
X154904000Y-100551265D01*
X154861574Y-100337975D01*
X154778352Y-100137060D01*
X154657533Y-99956241D01*
X154503759Y-99802467D01*
X154322940Y-99681648D01*
X154122025Y-99598426D01*
X153908735Y-99556000D01*
X153691265Y-99556000D01*
X153477975Y-99598426D01*
X153277060Y-99681648D01*
X153096241Y-99802467D01*
X152942467Y-99956241D01*
X152821648Y-100137060D01*
X152738426Y-100337975D01*
X152696000Y-100551265D01*
X135181513Y-100551265D01*
X135225138Y-100507640D01*
X135277952Y-100428597D01*
X135314332Y-100340769D01*
X135332878Y-100247532D01*
X135332878Y-100152468D01*
X135314332Y-100059231D01*
X135277952Y-99971403D01*
X135225138Y-99892360D01*
X135157918Y-99825140D01*
X135078875Y-99772326D01*
X134991047Y-99735946D01*
X134897810Y-99717400D01*
X134802746Y-99717400D01*
X134709509Y-99735946D01*
X134621681Y-99772326D01*
X134542638Y-99825140D01*
X134475418Y-99892360D01*
X134422604Y-99971403D01*
X134386224Y-100059231D01*
X134367678Y-100152468D01*
X107304000Y-100152468D01*
X107304000Y-99152468D01*
X138717400Y-99152468D01*
X138717400Y-99247532D01*
X138735946Y-99340769D01*
X138772326Y-99428597D01*
X138825140Y-99507640D01*
X138892360Y-99574860D01*
X138971403Y-99627674D01*
X139059231Y-99664054D01*
X139152468Y-99682600D01*
X139247532Y-99682600D01*
X139340769Y-99664054D01*
X139428597Y-99627674D01*
X139507640Y-99574860D01*
X139574860Y-99507640D01*
X139627674Y-99428597D01*
X139664054Y-99340769D01*
X139678236Y-99269468D01*
X155317400Y-99269468D01*
X155317400Y-99364532D01*
X155335946Y-99457769D01*
X155372326Y-99545597D01*
X155425140Y-99624640D01*
X155492360Y-99691860D01*
X155571403Y-99744674D01*
X155659231Y-99781054D01*
X155752468Y-99799600D01*
X155847532Y-99799600D01*
X155940769Y-99781054D01*
X156028597Y-99744674D01*
X156107640Y-99691860D01*
X156174860Y-99624640D01*
X156227674Y-99545597D01*
X156264054Y-99457769D01*
X156282600Y-99364532D01*
X156282600Y-99269468D01*
X157917400Y-99269468D01*
X157917400Y-99364532D01*
X157935946Y-99457769D01*
X157972326Y-99545597D01*
X158025140Y-99624640D01*
X158092360Y-99691860D01*
X158171403Y-99744674D01*
X158259231Y-99781054D01*
X158352468Y-99799600D01*
X158447532Y-99799600D01*
X158540769Y-99781054D01*
X158628597Y-99744674D01*
X158707640Y-99691860D01*
X158774860Y-99624640D01*
X158823083Y-99552468D01*
X161098290Y-99552468D01*
X161098290Y-99647532D01*
X161116836Y-99740769D01*
X161153216Y-99828597D01*
X161206030Y-99907640D01*
X161273250Y-99974860D01*
X161352293Y-100027674D01*
X161440121Y-100064054D01*
X161533358Y-100082600D01*
X161628422Y-100082600D01*
X161721659Y-100064054D01*
X161809487Y-100027674D01*
X161888530Y-99974860D01*
X161955750Y-99907640D01*
X162008564Y-99828597D01*
X162044944Y-99740769D01*
X162063490Y-99647532D01*
X162063490Y-99552468D01*
X162044944Y-99459231D01*
X162008564Y-99371403D01*
X161955750Y-99292360D01*
X161888530Y-99225140D01*
X161809487Y-99172326D01*
X161721659Y-99135946D01*
X161628422Y-99117400D01*
X161533358Y-99117400D01*
X161440121Y-99135946D01*
X161352293Y-99172326D01*
X161273250Y-99225140D01*
X161206030Y-99292360D01*
X161153216Y-99371403D01*
X161116836Y-99459231D01*
X161098290Y-99552468D01*
X158823083Y-99552468D01*
X158827674Y-99545597D01*
X158864054Y-99457769D01*
X158882600Y-99364532D01*
X158882600Y-99269468D01*
X158864054Y-99176231D01*
X158827674Y-99088403D01*
X158774860Y-99009360D01*
X158707640Y-98942140D01*
X158628597Y-98889326D01*
X158540769Y-98852946D01*
X158447532Y-98834400D01*
X158352468Y-98834400D01*
X158259231Y-98852946D01*
X158171403Y-98889326D01*
X158092360Y-98942140D01*
X158025140Y-99009360D01*
X157972326Y-99088403D01*
X157935946Y-99176231D01*
X157917400Y-99269468D01*
X156282600Y-99269468D01*
X156264054Y-99176231D01*
X156227674Y-99088403D01*
X156174860Y-99009360D01*
X156107640Y-98942140D01*
X156028597Y-98889326D01*
X155940769Y-98852946D01*
X155847532Y-98834400D01*
X155752468Y-98834400D01*
X155659231Y-98852946D01*
X155571403Y-98889326D01*
X155492360Y-98942140D01*
X155425140Y-99009360D01*
X155372326Y-99088403D01*
X155335946Y-99176231D01*
X155317400Y-99269468D01*
X139678236Y-99269468D01*
X139682600Y-99247532D01*
X139682600Y-99152468D01*
X139664054Y-99059231D01*
X139627674Y-98971403D01*
X139574860Y-98892360D01*
X139507640Y-98825140D01*
X139428597Y-98772326D01*
X139340769Y-98735946D01*
X139247532Y-98717400D01*
X139152468Y-98717400D01*
X139059231Y-98735946D01*
X138971403Y-98772326D01*
X138892360Y-98825140D01*
X138825140Y-98892360D01*
X138772326Y-98971403D01*
X138735946Y-99059231D01*
X138717400Y-99152468D01*
X107304000Y-99152468D01*
X107304000Y-97752468D01*
X136517400Y-97752468D01*
X136517400Y-97847532D01*
X136535946Y-97940769D01*
X136572326Y-98028597D01*
X136625140Y-98107640D01*
X136692360Y-98174860D01*
X136771403Y-98227674D01*
X136859231Y-98264054D01*
X136952468Y-98282600D01*
X137047532Y-98282600D01*
X137140769Y-98264054D01*
X137228597Y-98227674D01*
X137307640Y-98174860D01*
X137374860Y-98107640D01*
X137427674Y-98028597D01*
X137434853Y-98011265D01*
X152696000Y-98011265D01*
X152696000Y-98228735D01*
X152738426Y-98442025D01*
X152821648Y-98642940D01*
X152942467Y-98823759D01*
X153096241Y-98977533D01*
X153277060Y-99098352D01*
X153477975Y-99181574D01*
X153691265Y-99224000D01*
X153908735Y-99224000D01*
X154122025Y-99181574D01*
X154322940Y-99098352D01*
X154503759Y-98977533D01*
X154657533Y-98823759D01*
X154778352Y-98642940D01*
X154815826Y-98552468D01*
X159417400Y-98552468D01*
X159417400Y-98647532D01*
X159435946Y-98740769D01*
X159472326Y-98828597D01*
X159525140Y-98907640D01*
X159592360Y-98974860D01*
X159671403Y-99027674D01*
X159759231Y-99064054D01*
X159852468Y-99082600D01*
X159947532Y-99082600D01*
X160040769Y-99064054D01*
X160128597Y-99027674D01*
X160207640Y-98974860D01*
X160274860Y-98907640D01*
X160327674Y-98828597D01*
X160364054Y-98740769D01*
X160382600Y-98647532D01*
X160382600Y-98552468D01*
X160364054Y-98459231D01*
X160327674Y-98371403D01*
X160274860Y-98292360D01*
X160207640Y-98225140D01*
X160128597Y-98172326D01*
X160040769Y-98135946D01*
X159947532Y-98117400D01*
X159852468Y-98117400D01*
X159759231Y-98135946D01*
X159671403Y-98172326D01*
X159592360Y-98225140D01*
X159525140Y-98292360D01*
X159472326Y-98371403D01*
X159435946Y-98459231D01*
X159417400Y-98552468D01*
X154815826Y-98552468D01*
X154861574Y-98442025D01*
X154904000Y-98228735D01*
X154904000Y-98011265D01*
X154861574Y-97797975D01*
X154778352Y-97597060D01*
X154657533Y-97416241D01*
X154503759Y-97262467D01*
X154322940Y-97141648D01*
X154122025Y-97058426D01*
X153908735Y-97016000D01*
X153691265Y-97016000D01*
X153477975Y-97058426D01*
X153277060Y-97141648D01*
X153096241Y-97262467D01*
X152942467Y-97416241D01*
X152821648Y-97597060D01*
X152738426Y-97797975D01*
X152696000Y-98011265D01*
X137434853Y-98011265D01*
X137464054Y-97940769D01*
X137482600Y-97847532D01*
X137482600Y-97752468D01*
X137464054Y-97659231D01*
X137427674Y-97571403D01*
X137374860Y-97492360D01*
X137307640Y-97425140D01*
X137228597Y-97372326D01*
X137180657Y-97352468D01*
X145917400Y-97352468D01*
X145917400Y-97447532D01*
X145935946Y-97540769D01*
X145972326Y-97628597D01*
X146025140Y-97707640D01*
X146092360Y-97774860D01*
X146171403Y-97827674D01*
X146259231Y-97864054D01*
X146352468Y-97882600D01*
X146447532Y-97882600D01*
X146540769Y-97864054D01*
X146628597Y-97827674D01*
X146707640Y-97774860D01*
X146774860Y-97707640D01*
X146827674Y-97628597D01*
X146864054Y-97540769D01*
X146882600Y-97447532D01*
X146882600Y-97352468D01*
X146864054Y-97259231D01*
X146827674Y-97171403D01*
X146774860Y-97092360D01*
X146707640Y-97025140D01*
X146628597Y-96972326D01*
X146540769Y-96935946D01*
X146447532Y-96917400D01*
X146352468Y-96917400D01*
X146259231Y-96935946D01*
X146171403Y-96972326D01*
X146092360Y-97025140D01*
X146025140Y-97092360D01*
X145972326Y-97171403D01*
X145935946Y-97259231D01*
X145917400Y-97352468D01*
X137180657Y-97352468D01*
X137140769Y-97335946D01*
X137047532Y-97317400D01*
X136952468Y-97317400D01*
X136859231Y-97335946D01*
X136771403Y-97372326D01*
X136692360Y-97425140D01*
X136625140Y-97492360D01*
X136572326Y-97571403D01*
X136535946Y-97659231D01*
X136517400Y-97752468D01*
X107304000Y-97752468D01*
X107304000Y-96752468D01*
X134117400Y-96752468D01*
X134117400Y-96847532D01*
X134135946Y-96940769D01*
X134172326Y-97028597D01*
X134225140Y-97107640D01*
X134292360Y-97174860D01*
X134371403Y-97227674D01*
X134459231Y-97264054D01*
X134552468Y-97282600D01*
X134647532Y-97282600D01*
X134740769Y-97264054D01*
X134828597Y-97227674D01*
X134907640Y-97174860D01*
X134974860Y-97107640D01*
X135027674Y-97028597D01*
X135064054Y-96940769D01*
X135082600Y-96847532D01*
X135082600Y-96752468D01*
X138717400Y-96752468D01*
X138717400Y-96847532D01*
X138735946Y-96940769D01*
X138772326Y-97028597D01*
X138825140Y-97107640D01*
X138892360Y-97174860D01*
X138971403Y-97227674D01*
X139059231Y-97264054D01*
X139152468Y-97282600D01*
X139247532Y-97282600D01*
X139340769Y-97264054D01*
X139428597Y-97227674D01*
X139507640Y-97174860D01*
X139574860Y-97107640D01*
X139627674Y-97028597D01*
X139664054Y-96940769D01*
X139682600Y-96847532D01*
X139682600Y-96831347D01*
X147167144Y-96831347D01*
X147167144Y-96926411D01*
X147185690Y-97019648D01*
X147222070Y-97107476D01*
X147274884Y-97186519D01*
X147342104Y-97253739D01*
X147421147Y-97306553D01*
X147508975Y-97342933D01*
X147602212Y-97361479D01*
X147697276Y-97361479D01*
X147790513Y-97342933D01*
X147878341Y-97306553D01*
X147957384Y-97253739D01*
X148024604Y-97186519D01*
X148052967Y-97144069D01*
X148059231Y-97146664D01*
X148152468Y-97165210D01*
X148247532Y-97165210D01*
X148340769Y-97146664D01*
X148428597Y-97110284D01*
X148507640Y-97057470D01*
X148574860Y-96990250D01*
X148627674Y-96911207D01*
X148664054Y-96823379D01*
X148682600Y-96730142D01*
X148682600Y-96635078D01*
X148664054Y-96541841D01*
X148627674Y-96454013D01*
X148574860Y-96374970D01*
X148507640Y-96307750D01*
X148428597Y-96254936D01*
X148340769Y-96218556D01*
X148247532Y-96200010D01*
X148152468Y-96200010D01*
X148059231Y-96218556D01*
X147971403Y-96254936D01*
X147892360Y-96307750D01*
X147825140Y-96374970D01*
X147796777Y-96417420D01*
X147790513Y-96414825D01*
X147697276Y-96396279D01*
X147602212Y-96396279D01*
X147508975Y-96414825D01*
X147421147Y-96451205D01*
X147342104Y-96504019D01*
X147274884Y-96571239D01*
X147222070Y-96650282D01*
X147185690Y-96738110D01*
X147167144Y-96831347D01*
X139682600Y-96831347D01*
X139682600Y-96752468D01*
X139664054Y-96659231D01*
X139627674Y-96571403D01*
X139574860Y-96492360D01*
X139507640Y-96425140D01*
X139428597Y-96372326D01*
X139340769Y-96335946D01*
X139247532Y-96317400D01*
X139152468Y-96317400D01*
X139059231Y-96335946D01*
X138971403Y-96372326D01*
X138892360Y-96425140D01*
X138825140Y-96492360D01*
X138772326Y-96571403D01*
X138735946Y-96659231D01*
X138717400Y-96752468D01*
X135082600Y-96752468D01*
X135064054Y-96659231D01*
X135027674Y-96571403D01*
X134974860Y-96492360D01*
X134907640Y-96425140D01*
X134828597Y-96372326D01*
X134740769Y-96335946D01*
X134647532Y-96317400D01*
X134552468Y-96317400D01*
X134459231Y-96335946D01*
X134371403Y-96372326D01*
X134292360Y-96425140D01*
X134225140Y-96492360D01*
X134172326Y-96571403D01*
X134135946Y-96659231D01*
X134117400Y-96752468D01*
X107304000Y-96752468D01*
X107304000Y-95552468D01*
X126717400Y-95552468D01*
X126717400Y-95647532D01*
X126735946Y-95740769D01*
X126772326Y-95828597D01*
X126825140Y-95907640D01*
X126892360Y-95974860D01*
X126971403Y-96027674D01*
X127059231Y-96064054D01*
X127152468Y-96082600D01*
X127247532Y-96082600D01*
X127340769Y-96064054D01*
X127428597Y-96027674D01*
X127507640Y-95974860D01*
X127574860Y-95907640D01*
X127627674Y-95828597D01*
X127659208Y-95752468D01*
X132917400Y-95752468D01*
X132917400Y-95847532D01*
X132935946Y-95940769D01*
X132972326Y-96028597D01*
X133025140Y-96107640D01*
X133092360Y-96174860D01*
X133171403Y-96227674D01*
X133259231Y-96264054D01*
X133352468Y-96282600D01*
X133447532Y-96282600D01*
X133540769Y-96264054D01*
X133628597Y-96227674D01*
X133707640Y-96174860D01*
X133774860Y-96107640D01*
X133827674Y-96028597D01*
X133864054Y-95940769D01*
X133882600Y-95847532D01*
X133882600Y-95752468D01*
X133864054Y-95659231D01*
X133827674Y-95571403D01*
X133774860Y-95492360D01*
X133707640Y-95425140D01*
X133628597Y-95372326D01*
X133540769Y-95335946D01*
X133447532Y-95317400D01*
X133352468Y-95317400D01*
X133259231Y-95335946D01*
X133171403Y-95372326D01*
X133092360Y-95425140D01*
X133025140Y-95492360D01*
X132972326Y-95571403D01*
X132935946Y-95659231D01*
X132917400Y-95752468D01*
X127659208Y-95752468D01*
X127664054Y-95740769D01*
X127682600Y-95647532D01*
X127682600Y-95552468D01*
X127664054Y-95459231D01*
X127627674Y-95371403D01*
X127574860Y-95292360D01*
X127507640Y-95225140D01*
X127428597Y-95172326D01*
X127380555Y-95152426D01*
X146317400Y-95152426D01*
X146317400Y-95247490D01*
X146335946Y-95340727D01*
X146372326Y-95428555D01*
X146425140Y-95507598D01*
X146492360Y-95574818D01*
X146571403Y-95627632D01*
X146659231Y-95664012D01*
X146752468Y-95682558D01*
X146847532Y-95682558D01*
X146940769Y-95664012D01*
X147028597Y-95627632D01*
X147107640Y-95574818D01*
X147174860Y-95507598D01*
X147227674Y-95428555D01*
X147264054Y-95340727D01*
X147271963Y-95300966D01*
X147313242Y-95318065D01*
X147406479Y-95336611D01*
X147501543Y-95336611D01*
X147594780Y-95318065D01*
X147682608Y-95281685D01*
X147761651Y-95228871D01*
X147828871Y-95161651D01*
X147881685Y-95082608D01*
X147918065Y-94994780D01*
X147926482Y-94952462D01*
X154517400Y-94952462D01*
X154517400Y-95047526D01*
X154535946Y-95140763D01*
X154572326Y-95228591D01*
X154625140Y-95307634D01*
X154692360Y-95374854D01*
X154771403Y-95427668D01*
X154859231Y-95464048D01*
X154952468Y-95482594D01*
X155047532Y-95482594D01*
X155140769Y-95464048D01*
X155228597Y-95427668D01*
X155307640Y-95374854D01*
X155374860Y-95307634D01*
X155427674Y-95228591D01*
X155464054Y-95140763D01*
X155482600Y-95047526D01*
X155482600Y-94952462D01*
X155464054Y-94859225D01*
X155427674Y-94771397D01*
X155374860Y-94692354D01*
X155307640Y-94625134D01*
X155228597Y-94572320D01*
X155140769Y-94535940D01*
X155047532Y-94517394D01*
X154952468Y-94517394D01*
X154859231Y-94535940D01*
X154771403Y-94572320D01*
X154692360Y-94625134D01*
X154625140Y-94692354D01*
X154572326Y-94771397D01*
X154535946Y-94859225D01*
X154517400Y-94952462D01*
X147926482Y-94952462D01*
X147936611Y-94901543D01*
X147936611Y-94806479D01*
X147918065Y-94713242D01*
X147881685Y-94625414D01*
X147828871Y-94546371D01*
X147761651Y-94479151D01*
X147682608Y-94426337D01*
X147594780Y-94389957D01*
X147501543Y-94371411D01*
X147406479Y-94371411D01*
X147313242Y-94389957D01*
X147225414Y-94426337D01*
X147146371Y-94479151D01*
X147079151Y-94546371D01*
X147026337Y-94625414D01*
X146989957Y-94713242D01*
X146982048Y-94753003D01*
X146940769Y-94735904D01*
X146847532Y-94717358D01*
X146752468Y-94717358D01*
X146659231Y-94735904D01*
X146571403Y-94772284D01*
X146492360Y-94825098D01*
X146425140Y-94892318D01*
X146372326Y-94971361D01*
X146335946Y-95059189D01*
X146317400Y-95152426D01*
X127380555Y-95152426D01*
X127340769Y-95135946D01*
X127247532Y-95117400D01*
X127152468Y-95117400D01*
X127059231Y-95135946D01*
X126971403Y-95172326D01*
X126892360Y-95225140D01*
X126825140Y-95292360D01*
X126772326Y-95371403D01*
X126735946Y-95459231D01*
X126717400Y-95552468D01*
X107304000Y-95552468D01*
X107304000Y-93752468D01*
X126717400Y-93752468D01*
X126717400Y-93847532D01*
X126735946Y-93940769D01*
X126772326Y-94028597D01*
X126825140Y-94107640D01*
X126892360Y-94174860D01*
X126971403Y-94227674D01*
X127059231Y-94264054D01*
X127152468Y-94282600D01*
X127247532Y-94282600D01*
X127340769Y-94264054D01*
X127428597Y-94227674D01*
X127507640Y-94174860D01*
X127574860Y-94107640D01*
X127627674Y-94028597D01*
X127664054Y-93940769D01*
X127682600Y-93847532D01*
X127682600Y-93752468D01*
X127664054Y-93659231D01*
X127627674Y-93571403D01*
X127615023Y-93552468D01*
X132917400Y-93552468D01*
X132917400Y-93647532D01*
X132935946Y-93740769D01*
X132972326Y-93828597D01*
X133025140Y-93907640D01*
X133092360Y-93974860D01*
X133171403Y-94027674D01*
X133259231Y-94064054D01*
X133352468Y-94082600D01*
X133447532Y-94082600D01*
X133540769Y-94064054D01*
X133628597Y-94027674D01*
X133707640Y-93974860D01*
X133730032Y-93952468D01*
X162359140Y-93952468D01*
X162359140Y-94047532D01*
X162377686Y-94140769D01*
X162414066Y-94228597D01*
X162466880Y-94307640D01*
X162534100Y-94374860D01*
X162613143Y-94427674D01*
X162700971Y-94464054D01*
X162794208Y-94482600D01*
X162889272Y-94482600D01*
X162982509Y-94464054D01*
X163070337Y-94427674D01*
X163149380Y-94374860D01*
X163216600Y-94307640D01*
X163269414Y-94228597D01*
X163305794Y-94140769D01*
X163324340Y-94047532D01*
X163324340Y-93952468D01*
X163305794Y-93859231D01*
X163269414Y-93771403D01*
X163216600Y-93692360D01*
X163149380Y-93625140D01*
X163070337Y-93572326D01*
X162982509Y-93535946D01*
X162889272Y-93517400D01*
X162794208Y-93517400D01*
X162700971Y-93535946D01*
X162613143Y-93572326D01*
X162534100Y-93625140D01*
X162466880Y-93692360D01*
X162414066Y-93771403D01*
X162377686Y-93859231D01*
X162359140Y-93952468D01*
X133730032Y-93952468D01*
X133774860Y-93907640D01*
X133827674Y-93828597D01*
X133864054Y-93740769D01*
X133882600Y-93647532D01*
X133882600Y-93552468D01*
X133864054Y-93459231D01*
X133827674Y-93371403D01*
X133774860Y-93292360D01*
X133707640Y-93225140D01*
X133628597Y-93172326D01*
X133540769Y-93135946D01*
X133447532Y-93117400D01*
X133352468Y-93117400D01*
X133259231Y-93135946D01*
X133171403Y-93172326D01*
X133092360Y-93225140D01*
X133025140Y-93292360D01*
X132972326Y-93371403D01*
X132935946Y-93459231D01*
X132917400Y-93552468D01*
X127615023Y-93552468D01*
X127574860Y-93492360D01*
X127507640Y-93425140D01*
X127428597Y-93372326D01*
X127340769Y-93335946D01*
X127247532Y-93317400D01*
X127152468Y-93317400D01*
X127059231Y-93335946D01*
X126971403Y-93372326D01*
X126892360Y-93425140D01*
X126825140Y-93492360D01*
X126772326Y-93571403D01*
X126735946Y-93659231D01*
X126717400Y-93752468D01*
X107304000Y-93752468D01*
X107304000Y-92752468D01*
X156717400Y-92752468D01*
X156717400Y-92847532D01*
X156735946Y-92940769D01*
X156772326Y-93028597D01*
X156825140Y-93107640D01*
X156892360Y-93174860D01*
X156971403Y-93227674D01*
X157059231Y-93264054D01*
X157152468Y-93282600D01*
X157247532Y-93282600D01*
X157340769Y-93264054D01*
X157428597Y-93227674D01*
X157507640Y-93174860D01*
X157550902Y-93131598D01*
X161538270Y-93131598D01*
X161538270Y-93226662D01*
X161556816Y-93319899D01*
X161593196Y-93407727D01*
X161646010Y-93486770D01*
X161713230Y-93553990D01*
X161792273Y-93606804D01*
X161880101Y-93643184D01*
X161973338Y-93661730D01*
X162068402Y-93661730D01*
X162161639Y-93643184D01*
X162249467Y-93606804D01*
X162328510Y-93553990D01*
X162395730Y-93486770D01*
X162448544Y-93407727D01*
X162484924Y-93319899D01*
X162503470Y-93226662D01*
X162503470Y-93131598D01*
X162484924Y-93038361D01*
X162448544Y-92950533D01*
X162395730Y-92871490D01*
X162328510Y-92804270D01*
X162249467Y-92751456D01*
X162161639Y-92715076D01*
X162068402Y-92696530D01*
X161973338Y-92696530D01*
X161880101Y-92715076D01*
X161792273Y-92751456D01*
X161713230Y-92804270D01*
X161646010Y-92871490D01*
X161593196Y-92950533D01*
X161556816Y-93038361D01*
X161538270Y-93131598D01*
X157550902Y-93131598D01*
X157574860Y-93107640D01*
X157627674Y-93028597D01*
X157664054Y-92940769D01*
X157682600Y-92847532D01*
X157682600Y-92752468D01*
X157664054Y-92659231D01*
X157627674Y-92571403D01*
X157574860Y-92492360D01*
X157507640Y-92425140D01*
X157428597Y-92372326D01*
X157340769Y-92335946D01*
X157247532Y-92317400D01*
X157152468Y-92317400D01*
X157059231Y-92335946D01*
X156971403Y-92372326D01*
X156892360Y-92425140D01*
X156825140Y-92492360D01*
X156772326Y-92571403D01*
X156735946Y-92659231D01*
X156717400Y-92752468D01*
X107304000Y-92752468D01*
X107304000Y-92035468D01*
X161634400Y-92035468D01*
X161634400Y-92130532D01*
X161652946Y-92223769D01*
X161689326Y-92311597D01*
X161742140Y-92390640D01*
X161809360Y-92457860D01*
X161888403Y-92510674D01*
X161976231Y-92547054D01*
X162069468Y-92565600D01*
X162164532Y-92565600D01*
X162257769Y-92547054D01*
X162345597Y-92510674D01*
X162424640Y-92457860D01*
X162491860Y-92390640D01*
X162544674Y-92311597D01*
X162581054Y-92223769D01*
X162599600Y-92130532D01*
X162599600Y-92035468D01*
X162581054Y-91942231D01*
X162544674Y-91854403D01*
X162491860Y-91775360D01*
X162424640Y-91708140D01*
X162345597Y-91655326D01*
X162257769Y-91618946D01*
X162164532Y-91600400D01*
X162069468Y-91600400D01*
X161976231Y-91618946D01*
X161888403Y-91655326D01*
X161809360Y-91708140D01*
X161742140Y-91775360D01*
X161689326Y-91854403D01*
X161652946Y-91942231D01*
X161634400Y-92035468D01*
X107304000Y-92035468D01*
X107304000Y-86703148D01*
X116226457Y-86703148D01*
X116502627Y-87121118D01*
X117047557Y-87411649D01*
X117638696Y-87590287D01*
X118253328Y-87650168D01*
X118867831Y-87588990D01*
X119458592Y-87409103D01*
X119997373Y-87121118D01*
X120273543Y-86703148D01*
X140376457Y-86703148D01*
X140652627Y-87121118D01*
X141197557Y-87411649D01*
X141788696Y-87590287D01*
X142403328Y-87650168D01*
X143017831Y-87588990D01*
X143608592Y-87409103D01*
X144147373Y-87121118D01*
X144423543Y-86703148D01*
X144322863Y-86602468D01*
X168067400Y-86602468D01*
X168067400Y-86697532D01*
X168085946Y-86790769D01*
X168122326Y-86878597D01*
X168175140Y-86957640D01*
X168242360Y-87024860D01*
X168321403Y-87077674D01*
X168409231Y-87114054D01*
X168502468Y-87132600D01*
X168597532Y-87132600D01*
X168690769Y-87114054D01*
X168778597Y-87077674D01*
X168800000Y-87063373D01*
X168821403Y-87077674D01*
X168909231Y-87114054D01*
X169002468Y-87132600D01*
X169097532Y-87132600D01*
X169190769Y-87114054D01*
X169278597Y-87077674D01*
X169300000Y-87063373D01*
X169321403Y-87077674D01*
X169409231Y-87114054D01*
X169502468Y-87132600D01*
X169597532Y-87132600D01*
X169690769Y-87114054D01*
X169778597Y-87077674D01*
X169857640Y-87024860D01*
X169924860Y-86957640D01*
X169977674Y-86878597D01*
X170014054Y-86790769D01*
X170032600Y-86697532D01*
X170032600Y-86602468D01*
X170014054Y-86509231D01*
X169977674Y-86421403D01*
X169924860Y-86342360D01*
X169857640Y-86275140D01*
X169778597Y-86222326D01*
X169690769Y-86185946D01*
X169597532Y-86167400D01*
X169502468Y-86167400D01*
X169409231Y-86185946D01*
X169321403Y-86222326D01*
X169300000Y-86236627D01*
X169278597Y-86222326D01*
X169190769Y-86185946D01*
X169097532Y-86167400D01*
X169002468Y-86167400D01*
X168909231Y-86185946D01*
X168821403Y-86222326D01*
X168800000Y-86236627D01*
X168778597Y-86222326D01*
X168690769Y-86185946D01*
X168597532Y-86167400D01*
X168502468Y-86167400D01*
X168409231Y-86185946D01*
X168321403Y-86222326D01*
X168242360Y-86275140D01*
X168175140Y-86342360D01*
X168122326Y-86421403D01*
X168085946Y-86509231D01*
X168067400Y-86602468D01*
X144322863Y-86602468D01*
X142400000Y-84679605D01*
X140376457Y-86703148D01*
X120273543Y-86703148D01*
X118250000Y-84679605D01*
X116226457Y-86703148D01*
X107304000Y-86703148D01*
X107304000Y-84503328D01*
X115099832Y-84503328D01*
X115161010Y-85117831D01*
X115340897Y-85708592D01*
X115628882Y-86247373D01*
X116046852Y-86523543D01*
X118070395Y-84500000D01*
X118429605Y-84500000D01*
X120453148Y-86523543D01*
X120871118Y-86247373D01*
X121161649Y-85702443D01*
X121340287Y-85111304D01*
X121399519Y-84503328D01*
X139249832Y-84503328D01*
X139311010Y-85117831D01*
X139490897Y-85708592D01*
X139778882Y-86247373D01*
X140196852Y-86523543D01*
X142220395Y-84500000D01*
X142579605Y-84500000D01*
X144603148Y-86523543D01*
X145021118Y-86247373D01*
X145311649Y-85702443D01*
X145490287Y-85111304D01*
X145550168Y-84496672D01*
X145488990Y-83882169D01*
X145388596Y-83552468D01*
X150717400Y-83552468D01*
X150717400Y-83647532D01*
X150735946Y-83740769D01*
X150772326Y-83828597D01*
X150825140Y-83907640D01*
X150892360Y-83974860D01*
X150971403Y-84027674D01*
X151059231Y-84064054D01*
X151152468Y-84082600D01*
X151247532Y-84082600D01*
X151340769Y-84064054D01*
X151428597Y-84027674D01*
X151500013Y-83979956D01*
X151571429Y-84027674D01*
X151659257Y-84064054D01*
X151752494Y-84082600D01*
X151847558Y-84082600D01*
X151940795Y-84064054D01*
X152028623Y-84027674D01*
X152107666Y-83974860D01*
X152174886Y-83907640D01*
X152227700Y-83828597D01*
X152264080Y-83740769D01*
X152282626Y-83647532D01*
X152282626Y-83552468D01*
X152264080Y-83459231D01*
X152227700Y-83371403D01*
X152174886Y-83292360D01*
X152107666Y-83225140D01*
X152028623Y-83172326D01*
X151940795Y-83135946D01*
X151847558Y-83117400D01*
X151752494Y-83117400D01*
X151659257Y-83135946D01*
X151571429Y-83172326D01*
X151500013Y-83220044D01*
X151428597Y-83172326D01*
X151340769Y-83135946D01*
X151247532Y-83117400D01*
X151152468Y-83117400D01*
X151059231Y-83135946D01*
X150971403Y-83172326D01*
X150892360Y-83225140D01*
X150825140Y-83292360D01*
X150772326Y-83371403D01*
X150735946Y-83459231D01*
X150717400Y-83552468D01*
X145388596Y-83552468D01*
X145309103Y-83291408D01*
X145021118Y-82752627D01*
X144603148Y-82476457D01*
X142579605Y-84500000D01*
X142220395Y-84500000D01*
X140196852Y-82476457D01*
X139778882Y-82752627D01*
X139488351Y-83297557D01*
X139309713Y-83888696D01*
X139249832Y-84503328D01*
X121399519Y-84503328D01*
X121400168Y-84496672D01*
X121338990Y-83882169D01*
X121159103Y-83291408D01*
X120871118Y-82752627D01*
X120453148Y-82476457D01*
X118429605Y-84500000D01*
X118070395Y-84500000D01*
X116046852Y-82476457D01*
X115628882Y-82752627D01*
X115338351Y-83297557D01*
X115159713Y-83888696D01*
X115099832Y-84503328D01*
X107304000Y-84503328D01*
X107304000Y-82296852D01*
X116226457Y-82296852D01*
X118250000Y-84320395D01*
X120273543Y-82296852D01*
X140376457Y-82296852D01*
X142400000Y-84320395D01*
X144423543Y-82296852D01*
X144147373Y-81878882D01*
X143910267Y-81752468D01*
X169067400Y-81752468D01*
X169067400Y-81847532D01*
X169085946Y-81940769D01*
X169122326Y-82028597D01*
X169175140Y-82107640D01*
X169242360Y-82174860D01*
X169321403Y-82227674D01*
X169409231Y-82264054D01*
X169502468Y-82282600D01*
X169597532Y-82282600D01*
X169690769Y-82264054D01*
X169778597Y-82227674D01*
X169857640Y-82174860D01*
X169924860Y-82107640D01*
X169977674Y-82028597D01*
X170014054Y-81940769D01*
X170032600Y-81847532D01*
X170032600Y-81752468D01*
X170014054Y-81659231D01*
X169977674Y-81571403D01*
X169924860Y-81492360D01*
X169857640Y-81425140D01*
X169778597Y-81372326D01*
X169690769Y-81335946D01*
X169597532Y-81317400D01*
X169502468Y-81317400D01*
X169409231Y-81335946D01*
X169321403Y-81372326D01*
X169242360Y-81425140D01*
X169175140Y-81492360D01*
X169122326Y-81571403D01*
X169085946Y-81659231D01*
X169067400Y-81752468D01*
X143910267Y-81752468D01*
X143602443Y-81588351D01*
X143011304Y-81409713D01*
X142396672Y-81349832D01*
X141782169Y-81411010D01*
X141191408Y-81590897D01*
X140652627Y-81878882D01*
X140376457Y-82296852D01*
X120273543Y-82296852D01*
X119997373Y-81878882D01*
X119452443Y-81588351D01*
X118861304Y-81409713D01*
X118246672Y-81349832D01*
X117632169Y-81411010D01*
X117041408Y-81590897D01*
X116502627Y-81878882D01*
X116226457Y-82296852D01*
X107304000Y-82296852D01*
X107304000Y-80904000D01*
X171673000Y-80904000D01*
X171673000Y-125696000D01*
G04 #@! TA.AperFunction,Conductor*
D20*
G36*
X171673000Y-125696000D02*
G01*
X170236307Y-125696000D01*
X170250324Y-125649793D01*
X170255228Y-125600000D01*
X170255228Y-123800000D01*
X170250324Y-123750207D01*
X170235800Y-123702328D01*
X170212214Y-123658203D01*
X170180473Y-123619527D01*
X170141797Y-123587786D01*
X170097672Y-123564200D01*
X170049793Y-123549676D01*
X170000000Y-123544772D01*
X168200000Y-123544772D01*
X168150207Y-123549676D01*
X168102328Y-123564200D01*
X168058203Y-123587786D01*
X168019527Y-123619527D01*
X167987786Y-123658203D01*
X167964200Y-123702328D01*
X167949676Y-123750207D01*
X167944772Y-123800000D01*
X167944772Y-125600000D01*
X167949676Y-125649793D01*
X167963693Y-125696000D01*
X107304000Y-125696000D01*
X107304000Y-122824363D01*
X107381366Y-122918634D01*
X107610379Y-123106581D01*
X107871659Y-123246238D01*
X108155164Y-123332238D01*
X108450000Y-123361277D01*
X108744835Y-123332238D01*
X109028340Y-123246238D01*
X109289620Y-123106581D01*
X109518634Y-122918634D01*
X109706581Y-122689621D01*
X109846238Y-122428341D01*
X109932238Y-122144836D01*
X109954000Y-121923884D01*
X109954000Y-120753378D01*
X111096000Y-120753378D01*
X111096000Y-121246622D01*
X111192227Y-121730390D01*
X111380984Y-122186089D01*
X111655016Y-122596207D01*
X112003793Y-122944984D01*
X112413911Y-123219016D01*
X112869610Y-123407773D01*
X113353378Y-123504000D01*
X113846622Y-123504000D01*
X114330390Y-123407773D01*
X114786089Y-123219016D01*
X115196207Y-122944984D01*
X115544984Y-122596207D01*
X115819016Y-122186089D01*
X116007773Y-121730390D01*
X116104000Y-121246622D01*
X116104000Y-120753378D01*
X125096000Y-120753378D01*
X125096000Y-121246622D01*
X125192227Y-121730390D01*
X125380984Y-122186089D01*
X125655016Y-122596207D01*
X126003793Y-122944984D01*
X126413911Y-123219016D01*
X126869610Y-123407773D01*
X127353378Y-123504000D01*
X127846622Y-123504000D01*
X128330390Y-123407773D01*
X128786089Y-123219016D01*
X129196207Y-122944984D01*
X129544984Y-122596207D01*
X129819016Y-122186089D01*
X130007773Y-121730390D01*
X130104000Y-121246622D01*
X130104000Y-120753378D01*
X130007773Y-120269610D01*
X129927626Y-120076116D01*
X131246000Y-120076116D01*
X131246000Y-121923883D01*
X131267762Y-122144835D01*
X131353762Y-122428340D01*
X131493419Y-122689620D01*
X131681366Y-122918634D01*
X131910379Y-123106581D01*
X132171659Y-123246238D01*
X132455164Y-123332238D01*
X132750000Y-123361277D01*
X133044835Y-123332238D01*
X133328340Y-123246238D01*
X133589620Y-123106581D01*
X133818634Y-122918634D01*
X134006581Y-122689621D01*
X134146238Y-122428341D01*
X134232238Y-122144836D01*
X134254000Y-121923884D01*
X134254000Y-120076116D01*
X134746000Y-120076116D01*
X134746000Y-121923883D01*
X134767762Y-122144835D01*
X134853762Y-122428340D01*
X134993419Y-122689620D01*
X135181366Y-122918634D01*
X135410379Y-123106581D01*
X135671659Y-123246238D01*
X135955164Y-123332238D01*
X136250000Y-123361277D01*
X136544835Y-123332238D01*
X136828340Y-123246238D01*
X137089620Y-123106581D01*
X137318634Y-122918634D01*
X137506581Y-122689621D01*
X137646238Y-122428341D01*
X137732238Y-122144836D01*
X137754000Y-121923884D01*
X137754000Y-120753378D01*
X138896000Y-120753378D01*
X138896000Y-121246622D01*
X138992227Y-121730390D01*
X139180984Y-122186089D01*
X139455016Y-122596207D01*
X139803793Y-122944984D01*
X140213911Y-123219016D01*
X140669610Y-123407773D01*
X141153378Y-123504000D01*
X141646622Y-123504000D01*
X142130390Y-123407773D01*
X142586089Y-123219016D01*
X142996207Y-122944984D01*
X143344984Y-122596207D01*
X143619016Y-122186089D01*
X143807773Y-121730390D01*
X143904000Y-121246622D01*
X143904000Y-120753378D01*
X152896000Y-120753378D01*
X152896000Y-121246622D01*
X152992227Y-121730390D01*
X153180984Y-122186089D01*
X153455016Y-122596207D01*
X153803793Y-122944984D01*
X154213911Y-123219016D01*
X154669610Y-123407773D01*
X155153378Y-123504000D01*
X155646622Y-123504000D01*
X155666731Y-123500000D01*
X162844772Y-123500000D01*
X162844772Y-125300000D01*
X162849676Y-125349793D01*
X162864200Y-125397672D01*
X162887786Y-125441797D01*
X162919527Y-125480473D01*
X162958203Y-125512214D01*
X163002328Y-125535800D01*
X163050207Y-125550324D01*
X163100000Y-125555228D01*
X164900000Y-125555228D01*
X164949793Y-125550324D01*
X164997672Y-125535800D01*
X165041797Y-125512214D01*
X165080473Y-125480473D01*
X165112214Y-125441797D01*
X165135800Y-125397672D01*
X165150324Y-125349793D01*
X165155228Y-125300000D01*
X165155228Y-123500000D01*
X165150324Y-123450207D01*
X165135800Y-123402328D01*
X165112214Y-123358203D01*
X165080473Y-123319527D01*
X165041797Y-123287786D01*
X164997672Y-123264200D01*
X164949793Y-123249676D01*
X164900000Y-123244772D01*
X163100000Y-123244772D01*
X163050207Y-123249676D01*
X163002328Y-123264200D01*
X162958203Y-123287786D01*
X162919527Y-123319527D01*
X162887786Y-123358203D01*
X162864200Y-123402328D01*
X162849676Y-123450207D01*
X162844772Y-123500000D01*
X155666731Y-123500000D01*
X156130390Y-123407773D01*
X156586089Y-123219016D01*
X156996207Y-122944984D01*
X157344984Y-122596207D01*
X157619016Y-122186089D01*
X157807773Y-121730390D01*
X157904000Y-121246622D01*
X157904000Y-120753378D01*
X157807773Y-120269610D01*
X157727626Y-120076116D01*
X159046000Y-120076116D01*
X159046000Y-121923883D01*
X159067762Y-122144835D01*
X159153762Y-122428340D01*
X159293419Y-122689620D01*
X159481366Y-122918634D01*
X159710379Y-123106581D01*
X159971659Y-123246238D01*
X160255164Y-123332238D01*
X160550000Y-123361277D01*
X160844835Y-123332238D01*
X161128340Y-123246238D01*
X161389620Y-123106581D01*
X161618634Y-122918634D01*
X161806581Y-122689621D01*
X161946238Y-122428341D01*
X162032238Y-122144836D01*
X162054000Y-121923884D01*
X162054000Y-120076116D01*
X162032238Y-119855164D01*
X161946238Y-119571659D01*
X161854485Y-119400000D01*
X167644772Y-119400000D01*
X167644772Y-121200000D01*
X167649676Y-121249793D01*
X167664200Y-121297672D01*
X167687786Y-121341797D01*
X167719527Y-121380473D01*
X167758203Y-121412214D01*
X167802328Y-121435800D01*
X167850207Y-121450324D01*
X167900000Y-121455228D01*
X169700000Y-121455228D01*
X169749793Y-121450324D01*
X169797672Y-121435800D01*
X169841797Y-121412214D01*
X169880473Y-121380473D01*
X169912214Y-121341797D01*
X169935800Y-121297672D01*
X169950324Y-121249793D01*
X169955228Y-121200000D01*
X169955228Y-119400000D01*
X169950324Y-119350207D01*
X169935800Y-119302328D01*
X169912214Y-119258203D01*
X169880473Y-119219527D01*
X169841797Y-119187786D01*
X169797672Y-119164200D01*
X169749793Y-119149676D01*
X169700000Y-119144772D01*
X167900000Y-119144772D01*
X167850207Y-119149676D01*
X167802328Y-119164200D01*
X167758203Y-119187786D01*
X167719527Y-119219527D01*
X167687786Y-119258203D01*
X167664200Y-119302328D01*
X167649676Y-119350207D01*
X167644772Y-119400000D01*
X161854485Y-119400000D01*
X161806581Y-119310379D01*
X161618634Y-119081366D01*
X161389621Y-118893419D01*
X161128341Y-118753762D01*
X160844836Y-118667762D01*
X160550000Y-118638723D01*
X160255165Y-118667762D01*
X159971660Y-118753762D01*
X159710380Y-118893419D01*
X159481367Y-119081366D01*
X159293420Y-119310379D01*
X159153763Y-119571659D01*
X159067763Y-119855164D01*
X159046000Y-120076116D01*
X157727626Y-120076116D01*
X157619016Y-119813911D01*
X157344984Y-119403793D01*
X156996207Y-119055016D01*
X156586089Y-118780984D01*
X156130390Y-118592227D01*
X155646622Y-118496000D01*
X155153378Y-118496000D01*
X154669610Y-118592227D01*
X154213911Y-118780984D01*
X153803793Y-119055016D01*
X153455016Y-119403793D01*
X153180984Y-119813911D01*
X152992227Y-120269610D01*
X152896000Y-120753378D01*
X143904000Y-120753378D01*
X143807773Y-120269610D01*
X143619016Y-119813911D01*
X143344984Y-119403793D01*
X142996207Y-119055016D01*
X142586089Y-118780984D01*
X142130390Y-118592227D01*
X141646622Y-118496000D01*
X141153378Y-118496000D01*
X140669610Y-118592227D01*
X140213911Y-118780984D01*
X139803793Y-119055016D01*
X139455016Y-119403793D01*
X139180984Y-119813911D01*
X138992227Y-120269610D01*
X138896000Y-120753378D01*
X137754000Y-120753378D01*
X137754000Y-120076116D01*
X137732238Y-119855164D01*
X137646238Y-119571659D01*
X137506581Y-119310379D01*
X137318634Y-119081366D01*
X137089621Y-118893419D01*
X136828341Y-118753762D01*
X136544836Y-118667762D01*
X136250000Y-118638723D01*
X135955165Y-118667762D01*
X135671660Y-118753762D01*
X135410380Y-118893419D01*
X135181367Y-119081366D01*
X134993420Y-119310379D01*
X134853763Y-119571659D01*
X134767763Y-119855164D01*
X134746000Y-120076116D01*
X134254000Y-120076116D01*
X134232238Y-119855164D01*
X134146238Y-119571659D01*
X134006581Y-119310379D01*
X133818634Y-119081366D01*
X133589621Y-118893419D01*
X133328341Y-118753762D01*
X133044836Y-118667762D01*
X132750000Y-118638723D01*
X132455165Y-118667762D01*
X132171660Y-118753762D01*
X131910380Y-118893419D01*
X131681367Y-119081366D01*
X131493420Y-119310379D01*
X131353763Y-119571659D01*
X131267763Y-119855164D01*
X131246000Y-120076116D01*
X129927626Y-120076116D01*
X129819016Y-119813911D01*
X129544984Y-119403793D01*
X129196207Y-119055016D01*
X128786089Y-118780984D01*
X128330390Y-118592227D01*
X127846622Y-118496000D01*
X127353378Y-118496000D01*
X126869610Y-118592227D01*
X126413911Y-118780984D01*
X126003793Y-119055016D01*
X125655016Y-119403793D01*
X125380984Y-119813911D01*
X125192227Y-120269610D01*
X125096000Y-120753378D01*
X116104000Y-120753378D01*
X116007773Y-120269610D01*
X115819016Y-119813911D01*
X115544984Y-119403793D01*
X115196207Y-119055016D01*
X114786089Y-118780984D01*
X114330390Y-118592227D01*
X113846622Y-118496000D01*
X113353378Y-118496000D01*
X112869610Y-118592227D01*
X112413911Y-118780984D01*
X112003793Y-119055016D01*
X111655016Y-119403793D01*
X111380984Y-119813911D01*
X111192227Y-120269610D01*
X111096000Y-120753378D01*
X109954000Y-120753378D01*
X109954000Y-120076116D01*
X109932238Y-119855164D01*
X109846238Y-119571659D01*
X109706581Y-119310379D01*
X109518634Y-119081366D01*
X109289621Y-118893419D01*
X109028341Y-118753762D01*
X108744836Y-118667762D01*
X108450000Y-118638723D01*
X108155165Y-118667762D01*
X107871660Y-118753762D01*
X107610380Y-118893419D01*
X107381367Y-119081366D01*
X107304000Y-119175638D01*
X107304000Y-115726869D01*
X116096000Y-115726869D01*
X116096000Y-116023131D01*
X116153798Y-116313701D01*
X116267173Y-116587411D01*
X116431767Y-116833744D01*
X116641256Y-117043233D01*
X116887589Y-117207827D01*
X117161299Y-117321202D01*
X117451869Y-117379000D01*
X117748131Y-117379000D01*
X118038701Y-117321202D01*
X118312411Y-117207827D01*
X118558744Y-117043233D01*
X118768233Y-116833744D01*
X118932827Y-116587411D01*
X119046202Y-116313701D01*
X119104000Y-116023131D01*
X119104000Y-115726869D01*
X130096000Y-115726869D01*
X130096000Y-116023131D01*
X130153798Y-116313701D01*
X130267173Y-116587411D01*
X130431767Y-116833744D01*
X130641256Y-117043233D01*
X130887589Y-117207827D01*
X131161299Y-117321202D01*
X131451869Y-117379000D01*
X131748131Y-117379000D01*
X132038701Y-117321202D01*
X132312411Y-117207827D01*
X132558744Y-117043233D01*
X132768233Y-116833744D01*
X132932827Y-116587411D01*
X133046202Y-116313701D01*
X133104000Y-116023131D01*
X133104000Y-115726869D01*
X143896000Y-115726869D01*
X143896000Y-116023131D01*
X143953798Y-116313701D01*
X144067173Y-116587411D01*
X144231767Y-116833744D01*
X144441256Y-117043233D01*
X144687589Y-117207827D01*
X144961299Y-117321202D01*
X145251869Y-117379000D01*
X145548131Y-117379000D01*
X145838701Y-117321202D01*
X146112411Y-117207827D01*
X146358744Y-117043233D01*
X146568233Y-116833744D01*
X146732827Y-116587411D01*
X146846202Y-116313701D01*
X146904000Y-116023131D01*
X146904000Y-115726869D01*
X157896000Y-115726869D01*
X157896000Y-116023131D01*
X157953798Y-116313701D01*
X158067173Y-116587411D01*
X158231767Y-116833744D01*
X158441256Y-117043233D01*
X158687589Y-117207827D01*
X158961299Y-117321202D01*
X159251869Y-117379000D01*
X159548131Y-117379000D01*
X159838701Y-117321202D01*
X160112411Y-117207827D01*
X160358744Y-117043233D01*
X160568233Y-116833744D01*
X160732827Y-116587411D01*
X160846202Y-116313701D01*
X160904000Y-116023131D01*
X160904000Y-115726869D01*
X160878765Y-115600000D01*
X162444772Y-115600000D01*
X162444772Y-117400000D01*
X162449676Y-117449793D01*
X162464200Y-117497672D01*
X162487786Y-117541797D01*
X162519527Y-117580473D01*
X162558203Y-117612214D01*
X162602328Y-117635800D01*
X162650207Y-117650324D01*
X162700000Y-117655228D01*
X164500000Y-117655228D01*
X164549793Y-117650324D01*
X164597672Y-117635800D01*
X164641797Y-117612214D01*
X164680473Y-117580473D01*
X164712214Y-117541797D01*
X164735800Y-117497672D01*
X164750324Y-117449793D01*
X164755228Y-117400000D01*
X164755228Y-115600000D01*
X164750324Y-115550207D01*
X164735800Y-115502328D01*
X164712214Y-115458203D01*
X164681385Y-115420638D01*
X164736609Y-115409653D01*
X164946624Y-115322662D01*
X165135632Y-115196371D01*
X165275806Y-115056197D01*
X165246000Y-115206039D01*
X165246000Y-115393961D01*
X165282662Y-115578272D01*
X165354576Y-115751888D01*
X165458980Y-115908140D01*
X165591860Y-116041020D01*
X165748112Y-116145424D01*
X165921728Y-116217338D01*
X166106039Y-116254000D01*
X166293961Y-116254000D01*
X166478272Y-116217338D01*
X166651888Y-116145424D01*
X166808140Y-116041020D01*
X166941020Y-115908140D01*
X167045424Y-115751888D01*
X167117338Y-115578272D01*
X167154000Y-115393961D01*
X167154000Y-115206039D01*
X167117338Y-115021728D01*
X167045424Y-114848112D01*
X166941020Y-114691860D01*
X166808140Y-114558980D01*
X166651888Y-114454576D01*
X166520130Y-114400000D01*
X167644772Y-114400000D01*
X167644772Y-116200000D01*
X167649676Y-116249793D01*
X167664200Y-116297672D01*
X167687786Y-116341797D01*
X167719527Y-116380473D01*
X167758203Y-116412214D01*
X167802328Y-116435800D01*
X167850207Y-116450324D01*
X167900000Y-116455228D01*
X169700000Y-116455228D01*
X169749793Y-116450324D01*
X169797672Y-116435800D01*
X169841797Y-116412214D01*
X169880473Y-116380473D01*
X169912214Y-116341797D01*
X169935800Y-116297672D01*
X169950324Y-116249793D01*
X169955228Y-116200000D01*
X169955228Y-114400000D01*
X169950324Y-114350207D01*
X169935800Y-114302328D01*
X169912214Y-114258203D01*
X169880473Y-114219527D01*
X169841797Y-114187786D01*
X169797672Y-114164200D01*
X169749793Y-114149676D01*
X169700000Y-114144772D01*
X167900000Y-114144772D01*
X167850207Y-114149676D01*
X167802328Y-114164200D01*
X167758203Y-114187786D01*
X167719527Y-114219527D01*
X167687786Y-114258203D01*
X167664200Y-114302328D01*
X167649676Y-114350207D01*
X167644772Y-114400000D01*
X166520130Y-114400000D01*
X166478272Y-114382662D01*
X166293961Y-114346000D01*
X166106039Y-114346000D01*
X165921728Y-114382662D01*
X165748112Y-114454576D01*
X165591860Y-114558980D01*
X165506416Y-114644424D01*
X165509653Y-114636609D01*
X165554000Y-114413659D01*
X165554000Y-114186341D01*
X165509653Y-113963391D01*
X165422662Y-113753376D01*
X165296371Y-113564368D01*
X165135632Y-113403629D01*
X164946624Y-113277338D01*
X164736609Y-113190347D01*
X164513659Y-113146000D01*
X164286341Y-113146000D01*
X164063391Y-113190347D01*
X163853376Y-113277338D01*
X163664368Y-113403629D01*
X163503629Y-113564368D01*
X163377338Y-113753376D01*
X163290347Y-113963391D01*
X163246000Y-114186341D01*
X163246000Y-114413659D01*
X163290347Y-114636609D01*
X163377338Y-114846624D01*
X163503629Y-115035632D01*
X163664368Y-115196371D01*
X163853376Y-115322662D01*
X163906754Y-115344772D01*
X162700000Y-115344772D01*
X162650207Y-115349676D01*
X162602328Y-115364200D01*
X162558203Y-115387786D01*
X162519527Y-115419527D01*
X162487786Y-115458203D01*
X162464200Y-115502328D01*
X162449676Y-115550207D01*
X162444772Y-115600000D01*
X160878765Y-115600000D01*
X160846202Y-115436299D01*
X160732827Y-115162589D01*
X160568233Y-114916256D01*
X160358744Y-114706767D01*
X160112411Y-114542173D01*
X159838701Y-114428798D01*
X159548131Y-114371000D01*
X159251869Y-114371000D01*
X158961299Y-114428798D01*
X158687589Y-114542173D01*
X158441256Y-114706767D01*
X158231767Y-114916256D01*
X158067173Y-115162589D01*
X157953798Y-115436299D01*
X157896000Y-115726869D01*
X146904000Y-115726869D01*
X146846202Y-115436299D01*
X146732827Y-115162589D01*
X146568233Y-114916256D01*
X146358744Y-114706767D01*
X146112411Y-114542173D01*
X145838701Y-114428798D01*
X145548131Y-114371000D01*
X145251869Y-114371000D01*
X144961299Y-114428798D01*
X144687589Y-114542173D01*
X144441256Y-114706767D01*
X144231767Y-114916256D01*
X144067173Y-115162589D01*
X143953798Y-115436299D01*
X143896000Y-115726869D01*
X133104000Y-115726869D01*
X133046202Y-115436299D01*
X132932827Y-115162589D01*
X132768233Y-114916256D01*
X132558744Y-114706767D01*
X132312411Y-114542173D01*
X132038701Y-114428798D01*
X131748131Y-114371000D01*
X131451869Y-114371000D01*
X131161299Y-114428798D01*
X130887589Y-114542173D01*
X130641256Y-114706767D01*
X130431767Y-114916256D01*
X130267173Y-115162589D01*
X130153798Y-115436299D01*
X130096000Y-115726869D01*
X119104000Y-115726869D01*
X119046202Y-115436299D01*
X118932827Y-115162589D01*
X118768233Y-114916256D01*
X118558744Y-114706767D01*
X118312411Y-114542173D01*
X118038701Y-114428798D01*
X117748131Y-114371000D01*
X117451869Y-114371000D01*
X117161299Y-114428798D01*
X116887589Y-114542173D01*
X116641256Y-114706767D01*
X116431767Y-114916256D01*
X116267173Y-115162589D01*
X116153798Y-115436299D01*
X116096000Y-115726869D01*
X107304000Y-115726869D01*
X107304000Y-114152468D01*
X160517426Y-114152468D01*
X160517426Y-114247532D01*
X160535972Y-114340769D01*
X160572352Y-114428597D01*
X160625166Y-114507640D01*
X160692386Y-114574860D01*
X160771429Y-114627674D01*
X160859257Y-114664054D01*
X160952494Y-114682600D01*
X161047558Y-114682600D01*
X161140795Y-114664054D01*
X161228623Y-114627674D01*
X161307666Y-114574860D01*
X161374886Y-114507640D01*
X161427700Y-114428597D01*
X161464080Y-114340769D01*
X161482626Y-114247532D01*
X161482626Y-114152468D01*
X161464080Y-114059231D01*
X161427700Y-113971403D01*
X161374886Y-113892360D01*
X161307666Y-113825140D01*
X161228623Y-113772326D01*
X161140795Y-113735946D01*
X161047558Y-113717400D01*
X160952494Y-113717400D01*
X160859257Y-113735946D01*
X160771429Y-113772326D01*
X160692386Y-113825140D01*
X160625166Y-113892360D01*
X160572352Y-113971403D01*
X160535972Y-114059231D01*
X160517426Y-114152468D01*
X107304000Y-114152468D01*
X107304000Y-112752468D01*
X168517400Y-112752468D01*
X168517400Y-112847532D01*
X168535946Y-112940769D01*
X168572326Y-113028597D01*
X168625140Y-113107640D01*
X168692360Y-113174860D01*
X168771403Y-113227674D01*
X168859231Y-113264054D01*
X168952468Y-113282600D01*
X169047532Y-113282600D01*
X169140769Y-113264054D01*
X169228597Y-113227674D01*
X169307640Y-113174860D01*
X169374860Y-113107640D01*
X169427674Y-113028597D01*
X169464054Y-112940769D01*
X169482600Y-112847532D01*
X169482600Y-112752468D01*
X169464054Y-112659231D01*
X169427674Y-112571403D01*
X169374860Y-112492360D01*
X169307640Y-112425140D01*
X169228597Y-112372326D01*
X169140769Y-112335946D01*
X169047532Y-112317400D01*
X168952468Y-112317400D01*
X168859231Y-112335946D01*
X168771403Y-112372326D01*
X168692360Y-112425140D01*
X168625140Y-112492360D01*
X168572326Y-112571403D01*
X168535946Y-112659231D01*
X168517400Y-112752468D01*
X107304000Y-112752468D01*
X107304000Y-110903148D01*
X116226457Y-110903148D01*
X116502627Y-111321118D01*
X117047557Y-111611649D01*
X117638696Y-111790287D01*
X118253328Y-111850168D01*
X118867831Y-111788990D01*
X119458592Y-111609103D01*
X119997373Y-111321118D01*
X120273543Y-110903148D01*
X140376457Y-110903148D01*
X140652627Y-111321118D01*
X141197557Y-111611649D01*
X141788696Y-111790287D01*
X142403328Y-111850168D01*
X143017831Y-111788990D01*
X143608592Y-111609103D01*
X144147373Y-111321118D01*
X144390955Y-110952468D01*
X161917400Y-110952468D01*
X161917400Y-111047532D01*
X161935946Y-111140769D01*
X161972326Y-111228597D01*
X162025140Y-111307640D01*
X162092360Y-111374860D01*
X162171403Y-111427674D01*
X162259231Y-111464054D01*
X162352468Y-111482600D01*
X162447532Y-111482600D01*
X162540769Y-111464054D01*
X162628597Y-111427674D01*
X162707640Y-111374860D01*
X162774860Y-111307640D01*
X162827674Y-111228597D01*
X162864054Y-111140769D01*
X162882600Y-111047532D01*
X162882600Y-110952468D01*
X165317400Y-110952468D01*
X165317400Y-111047532D01*
X165335946Y-111140769D01*
X165372326Y-111228597D01*
X165425140Y-111307640D01*
X165492360Y-111374860D01*
X165571403Y-111427674D01*
X165659231Y-111464054D01*
X165752468Y-111482600D01*
X165847532Y-111482600D01*
X165940769Y-111464054D01*
X166028597Y-111427674D01*
X166107640Y-111374860D01*
X166174860Y-111307640D01*
X166227674Y-111228597D01*
X166264054Y-111140769D01*
X166282600Y-111047532D01*
X166282600Y-110952468D01*
X166264054Y-110859231D01*
X166227674Y-110771403D01*
X166174860Y-110692360D01*
X166107640Y-110625140D01*
X166028597Y-110572326D01*
X165940769Y-110535946D01*
X165847532Y-110517400D01*
X165752468Y-110517400D01*
X165659231Y-110535946D01*
X165571403Y-110572326D01*
X165492360Y-110625140D01*
X165425140Y-110692360D01*
X165372326Y-110771403D01*
X165335946Y-110859231D01*
X165317400Y-110952468D01*
X162882600Y-110952468D01*
X162864054Y-110859231D01*
X162827674Y-110771403D01*
X162774860Y-110692360D01*
X162707640Y-110625140D01*
X162628597Y-110572326D01*
X162540769Y-110535946D01*
X162447532Y-110517400D01*
X162352468Y-110517400D01*
X162259231Y-110535946D01*
X162171403Y-110572326D01*
X162092360Y-110625140D01*
X162025140Y-110692360D01*
X161972326Y-110771403D01*
X161935946Y-110859231D01*
X161917400Y-110952468D01*
X144390955Y-110952468D01*
X144423543Y-110903148D01*
X142400000Y-108879605D01*
X140376457Y-110903148D01*
X120273543Y-110903148D01*
X118250000Y-108879605D01*
X116226457Y-110903148D01*
X107304000Y-110903148D01*
X107304000Y-108703328D01*
X115099832Y-108703328D01*
X115161010Y-109317831D01*
X115340897Y-109908592D01*
X115628882Y-110447373D01*
X116046852Y-110723543D01*
X118070395Y-108700000D01*
X118429605Y-108700000D01*
X120453148Y-110723543D01*
X120871118Y-110447373D01*
X121028347Y-110152468D01*
X133117400Y-110152468D01*
X133117400Y-110247532D01*
X133135946Y-110340769D01*
X133172326Y-110428597D01*
X133225140Y-110507640D01*
X133292360Y-110574860D01*
X133371403Y-110627674D01*
X133459231Y-110664054D01*
X133552468Y-110682600D01*
X133647532Y-110682600D01*
X133740769Y-110664054D01*
X133828597Y-110627674D01*
X133907640Y-110574860D01*
X133974860Y-110507640D01*
X134027674Y-110428597D01*
X134064054Y-110340769D01*
X134082600Y-110247532D01*
X134082600Y-110152468D01*
X136117400Y-110152468D01*
X136117400Y-110247532D01*
X136135946Y-110340769D01*
X136172326Y-110428597D01*
X136225140Y-110507640D01*
X136292360Y-110574860D01*
X136371403Y-110627674D01*
X136459231Y-110664054D01*
X136552468Y-110682600D01*
X136647532Y-110682600D01*
X136740769Y-110664054D01*
X136828597Y-110627674D01*
X136907640Y-110574860D01*
X136974860Y-110507640D01*
X137027674Y-110428597D01*
X137064054Y-110340769D01*
X137082600Y-110247532D01*
X137082600Y-110152468D01*
X137064054Y-110059231D01*
X137027674Y-109971403D01*
X136974860Y-109892360D01*
X136907640Y-109825140D01*
X136828597Y-109772326D01*
X136740769Y-109735946D01*
X136647532Y-109717400D01*
X136552468Y-109717400D01*
X136459231Y-109735946D01*
X136371403Y-109772326D01*
X136292360Y-109825140D01*
X136225140Y-109892360D01*
X136172326Y-109971403D01*
X136135946Y-110059231D01*
X136117400Y-110152468D01*
X134082600Y-110152468D01*
X134064054Y-110059231D01*
X134027674Y-109971403D01*
X133974860Y-109892360D01*
X133907640Y-109825140D01*
X133828597Y-109772326D01*
X133740769Y-109735946D01*
X133647532Y-109717400D01*
X133552468Y-109717400D01*
X133459231Y-109735946D01*
X133371403Y-109772326D01*
X133292360Y-109825140D01*
X133225140Y-109892360D01*
X133172326Y-109971403D01*
X133135946Y-110059231D01*
X133117400Y-110152468D01*
X121028347Y-110152468D01*
X121161649Y-109902443D01*
X121340287Y-109311304D01*
X121400168Y-108696672D01*
X121385812Y-108552468D01*
X133117400Y-108552468D01*
X133117400Y-108647532D01*
X133135946Y-108740769D01*
X133172326Y-108828597D01*
X133225140Y-108907640D01*
X133292360Y-108974860D01*
X133371403Y-109027674D01*
X133459231Y-109064054D01*
X133552468Y-109082600D01*
X133647532Y-109082600D01*
X133740769Y-109064054D01*
X133828597Y-109027674D01*
X133907640Y-108974860D01*
X133974860Y-108907640D01*
X134027674Y-108828597D01*
X134064054Y-108740769D01*
X134082600Y-108647532D01*
X134082600Y-108552468D01*
X136117400Y-108552468D01*
X136117400Y-108647532D01*
X136135946Y-108740769D01*
X136172326Y-108828597D01*
X136225140Y-108907640D01*
X136292360Y-108974860D01*
X136371403Y-109027674D01*
X136459231Y-109064054D01*
X136552468Y-109082600D01*
X136647532Y-109082600D01*
X136740769Y-109064054D01*
X136828597Y-109027674D01*
X136907640Y-108974860D01*
X136974860Y-108907640D01*
X137027674Y-108828597D01*
X137064054Y-108740769D01*
X137071501Y-108703328D01*
X139249832Y-108703328D01*
X139311010Y-109317831D01*
X139490897Y-109908592D01*
X139778882Y-110447373D01*
X140196852Y-110723543D01*
X142220395Y-108700000D01*
X142579605Y-108700000D01*
X144603148Y-110723543D01*
X145021118Y-110447373D01*
X145311649Y-109902443D01*
X145417408Y-109552468D01*
X145854021Y-109552468D01*
X145854021Y-109647532D01*
X145872567Y-109740769D01*
X145908947Y-109828597D01*
X145961761Y-109907640D01*
X146028981Y-109974860D01*
X146108024Y-110027674D01*
X146195852Y-110064054D01*
X146289089Y-110082600D01*
X146384153Y-110082600D01*
X146477390Y-110064054D01*
X146565218Y-110027674D01*
X146632315Y-109982842D01*
X146692217Y-110022866D01*
X146780045Y-110059246D01*
X146873282Y-110077792D01*
X146968346Y-110077792D01*
X147061583Y-110059246D01*
X147149411Y-110022866D01*
X147208188Y-109983593D01*
X147277734Y-110030062D01*
X147365562Y-110066442D01*
X147458799Y-110084988D01*
X147553863Y-110084988D01*
X147647100Y-110066442D01*
X147734928Y-110030062D01*
X147798156Y-109987815D01*
X147866816Y-110033692D01*
X147954644Y-110070072D01*
X148047881Y-110088618D01*
X148142945Y-110088618D01*
X148236182Y-110070072D01*
X148324010Y-110033692D01*
X148390787Y-109989074D01*
X148458741Y-110034479D01*
X148546569Y-110070859D01*
X148639806Y-110089405D01*
X148734870Y-110089405D01*
X148828107Y-110070859D01*
X148915935Y-110034479D01*
X148994978Y-109981665D01*
X149062198Y-109914445D01*
X149115012Y-109835402D01*
X149145078Y-109762816D01*
X149172326Y-109828597D01*
X149225140Y-109907640D01*
X149292360Y-109974860D01*
X149371403Y-110027674D01*
X149459231Y-110064054D01*
X149552468Y-110082600D01*
X149647532Y-110082600D01*
X149740769Y-110064054D01*
X149828597Y-110027674D01*
X149907640Y-109974860D01*
X149974860Y-109907640D01*
X150027674Y-109828597D01*
X150064054Y-109740769D01*
X150082600Y-109647532D01*
X150082600Y-109552468D01*
X157117400Y-109552468D01*
X157117400Y-109647532D01*
X157135946Y-109740769D01*
X157172326Y-109828597D01*
X157225140Y-109907640D01*
X157292360Y-109974860D01*
X157371403Y-110027674D01*
X157459231Y-110064054D01*
X157552468Y-110082600D01*
X157647532Y-110082600D01*
X157740769Y-110064054D01*
X157828597Y-110027674D01*
X157900000Y-109979965D01*
X157971403Y-110027674D01*
X158059231Y-110064054D01*
X158152468Y-110082600D01*
X158247532Y-110082600D01*
X158340769Y-110064054D01*
X158428597Y-110027674D01*
X158507640Y-109974860D01*
X158574860Y-109907640D01*
X158627674Y-109828597D01*
X158664054Y-109740769D01*
X158682600Y-109647532D01*
X158682600Y-109552468D01*
X158664054Y-109459231D01*
X158627674Y-109371403D01*
X158574860Y-109292360D01*
X158507640Y-109225140D01*
X158428597Y-109172326D01*
X158340769Y-109135946D01*
X158247532Y-109117400D01*
X158152468Y-109117400D01*
X158059231Y-109135946D01*
X157971403Y-109172326D01*
X157900000Y-109220035D01*
X157828597Y-109172326D01*
X157740769Y-109135946D01*
X157647532Y-109117400D01*
X157552468Y-109117400D01*
X157459231Y-109135946D01*
X157371403Y-109172326D01*
X157292360Y-109225140D01*
X157225140Y-109292360D01*
X157172326Y-109371403D01*
X157135946Y-109459231D01*
X157117400Y-109552468D01*
X150082600Y-109552468D01*
X150064054Y-109459231D01*
X150027674Y-109371403D01*
X149974860Y-109292360D01*
X149907640Y-109225140D01*
X149828597Y-109172326D01*
X149740769Y-109135946D01*
X149647532Y-109117400D01*
X149552468Y-109117400D01*
X149459231Y-109135946D01*
X149371403Y-109172326D01*
X149292360Y-109225140D01*
X149225140Y-109292360D01*
X149172326Y-109371403D01*
X149142260Y-109443989D01*
X149115012Y-109378208D01*
X149062198Y-109299165D01*
X148994978Y-109231945D01*
X148915935Y-109179131D01*
X148828107Y-109142751D01*
X148734870Y-109124205D01*
X148639806Y-109124205D01*
X148546569Y-109142751D01*
X148458741Y-109179131D01*
X148391964Y-109223749D01*
X148324010Y-109178344D01*
X148236182Y-109141964D01*
X148142945Y-109123418D01*
X148047881Y-109123418D01*
X147954644Y-109141964D01*
X147866816Y-109178344D01*
X147803588Y-109220591D01*
X147734928Y-109174714D01*
X147647100Y-109138334D01*
X147553863Y-109119788D01*
X147458799Y-109119788D01*
X147365562Y-109138334D01*
X147277734Y-109174714D01*
X147218957Y-109213987D01*
X147149411Y-109167518D01*
X147061583Y-109131138D01*
X146968346Y-109112592D01*
X146873282Y-109112592D01*
X146780045Y-109131138D01*
X146692217Y-109167518D01*
X146625120Y-109212350D01*
X146565218Y-109172326D01*
X146477390Y-109135946D01*
X146384153Y-109117400D01*
X146289089Y-109117400D01*
X146195852Y-109135946D01*
X146108024Y-109172326D01*
X146028981Y-109225140D01*
X145961761Y-109292360D01*
X145908947Y-109371403D01*
X145872567Y-109459231D01*
X145854021Y-109552468D01*
X145417408Y-109552468D01*
X145490287Y-109311304D01*
X145550168Y-108696672D01*
X145488990Y-108082169D01*
X145388596Y-107752468D01*
X161917400Y-107752468D01*
X161917400Y-107847532D01*
X161935946Y-107940769D01*
X161972326Y-108028597D01*
X162025140Y-108107640D01*
X162092360Y-108174860D01*
X162171403Y-108227674D01*
X162259231Y-108264054D01*
X162352468Y-108282600D01*
X162447532Y-108282600D01*
X162540769Y-108264054D01*
X162628597Y-108227674D01*
X162707640Y-108174860D01*
X162774860Y-108107640D01*
X162827674Y-108028597D01*
X162864054Y-107940769D01*
X162882600Y-107847532D01*
X162882600Y-107752468D01*
X163517400Y-107752468D01*
X163517400Y-107847532D01*
X163535946Y-107940769D01*
X163572326Y-108028597D01*
X163625140Y-108107640D01*
X163692360Y-108174860D01*
X163771403Y-108227674D01*
X163859231Y-108264054D01*
X163952468Y-108282600D01*
X164047532Y-108282600D01*
X164140769Y-108264054D01*
X164228597Y-108227674D01*
X164307640Y-108174860D01*
X164374860Y-108107640D01*
X164427674Y-108028597D01*
X164464054Y-107940769D01*
X164482600Y-107847532D01*
X164482600Y-107752468D01*
X165317400Y-107752468D01*
X165317400Y-107847532D01*
X165335946Y-107940769D01*
X165372326Y-108028597D01*
X165425140Y-108107640D01*
X165492360Y-108174860D01*
X165571403Y-108227674D01*
X165659231Y-108264054D01*
X165752468Y-108282600D01*
X165847532Y-108282600D01*
X165940769Y-108264054D01*
X166028597Y-108227674D01*
X166107640Y-108174860D01*
X166174860Y-108107640D01*
X166227674Y-108028597D01*
X166264054Y-107940769D01*
X166282600Y-107847532D01*
X166282600Y-107752468D01*
X166264054Y-107659231D01*
X166227674Y-107571403D01*
X166174860Y-107492360D01*
X166107640Y-107425140D01*
X166028597Y-107372326D01*
X165940769Y-107335946D01*
X165847532Y-107317400D01*
X165752468Y-107317400D01*
X165659231Y-107335946D01*
X165571403Y-107372326D01*
X165492360Y-107425140D01*
X165425140Y-107492360D01*
X165372326Y-107571403D01*
X165335946Y-107659231D01*
X165317400Y-107752468D01*
X164482600Y-107752468D01*
X164464054Y-107659231D01*
X164427674Y-107571403D01*
X164374860Y-107492360D01*
X164307640Y-107425140D01*
X164228597Y-107372326D01*
X164140769Y-107335946D01*
X164047532Y-107317400D01*
X163952468Y-107317400D01*
X163859231Y-107335946D01*
X163771403Y-107372326D01*
X163692360Y-107425140D01*
X163625140Y-107492360D01*
X163572326Y-107571403D01*
X163535946Y-107659231D01*
X163517400Y-107752468D01*
X162882600Y-107752468D01*
X162864054Y-107659231D01*
X162827674Y-107571403D01*
X162774860Y-107492360D01*
X162707640Y-107425140D01*
X162628597Y-107372326D01*
X162540769Y-107335946D01*
X162447532Y-107317400D01*
X162352468Y-107317400D01*
X162259231Y-107335946D01*
X162171403Y-107372326D01*
X162092360Y-107425140D01*
X162025140Y-107492360D01*
X161972326Y-107571403D01*
X161935946Y-107659231D01*
X161917400Y-107752468D01*
X145388596Y-107752468D01*
X145309103Y-107491408D01*
X145021118Y-106952627D01*
X144718187Y-106752468D01*
X156517400Y-106752468D01*
X156517400Y-106847532D01*
X156535946Y-106940769D01*
X156572326Y-107028597D01*
X156625140Y-107107640D01*
X156692360Y-107174860D01*
X156771403Y-107227674D01*
X156859231Y-107264054D01*
X156952468Y-107282600D01*
X157047532Y-107282600D01*
X157140769Y-107264054D01*
X157228597Y-107227674D01*
X157307640Y-107174860D01*
X157374860Y-107107640D01*
X157427674Y-107028597D01*
X157464054Y-106940769D01*
X157482600Y-106847532D01*
X157482600Y-106752468D01*
X157464054Y-106659231D01*
X157427674Y-106571403D01*
X157374860Y-106492360D01*
X157307640Y-106425140D01*
X157228597Y-106372326D01*
X157140769Y-106335946D01*
X157047532Y-106317400D01*
X156952468Y-106317400D01*
X156859231Y-106335946D01*
X156771403Y-106372326D01*
X156692360Y-106425140D01*
X156625140Y-106492360D01*
X156572326Y-106571403D01*
X156535946Y-106659231D01*
X156517400Y-106752468D01*
X144718187Y-106752468D01*
X144603148Y-106676457D01*
X142579605Y-108700000D01*
X142220395Y-108700000D01*
X140196852Y-106676457D01*
X139778882Y-106952627D01*
X139488351Y-107497557D01*
X139309713Y-108088696D01*
X139249832Y-108703328D01*
X137071501Y-108703328D01*
X137082600Y-108647532D01*
X137082600Y-108552468D01*
X137064054Y-108459231D01*
X137027674Y-108371403D01*
X136974860Y-108292360D01*
X136907640Y-108225140D01*
X136828597Y-108172326D01*
X136740769Y-108135946D01*
X136647532Y-108117400D01*
X136552468Y-108117400D01*
X136459231Y-108135946D01*
X136371403Y-108172326D01*
X136292360Y-108225140D01*
X136225140Y-108292360D01*
X136172326Y-108371403D01*
X136135946Y-108459231D01*
X136117400Y-108552468D01*
X134082600Y-108552468D01*
X134064054Y-108459231D01*
X134027674Y-108371403D01*
X133974860Y-108292360D01*
X133907640Y-108225140D01*
X133828597Y-108172326D01*
X133740769Y-108135946D01*
X133647532Y-108117400D01*
X133552468Y-108117400D01*
X133459231Y-108135946D01*
X133371403Y-108172326D01*
X133292360Y-108225140D01*
X133225140Y-108292360D01*
X133172326Y-108371403D01*
X133135946Y-108459231D01*
X133117400Y-108552468D01*
X121385812Y-108552468D01*
X121338990Y-108082169D01*
X121159103Y-107491408D01*
X120871118Y-106952627D01*
X120453148Y-106676457D01*
X118429605Y-108700000D01*
X118070395Y-108700000D01*
X116046852Y-106676457D01*
X115628882Y-106952627D01*
X115338351Y-107497557D01*
X115159713Y-108088696D01*
X115099832Y-108703328D01*
X107304000Y-108703328D01*
X107304000Y-106496852D01*
X116226457Y-106496852D01*
X118250000Y-108520395D01*
X120273543Y-106496852D01*
X140376457Y-106496852D01*
X142400000Y-108520395D01*
X144423543Y-106496852D01*
X144147373Y-106078882D01*
X143910267Y-105952468D01*
X153317400Y-105952468D01*
X153317400Y-106047532D01*
X153335946Y-106140769D01*
X153372326Y-106228597D01*
X153425140Y-106307640D01*
X153492360Y-106374860D01*
X153571403Y-106427674D01*
X153659231Y-106464054D01*
X153752468Y-106482600D01*
X153847532Y-106482600D01*
X153940769Y-106464054D01*
X154028597Y-106427674D01*
X154107640Y-106374860D01*
X154174860Y-106307640D01*
X154227674Y-106228597D01*
X154264054Y-106140769D01*
X154282600Y-106047532D01*
X154282600Y-106017994D01*
X159803810Y-106017994D01*
X159803810Y-106113058D01*
X159822356Y-106206295D01*
X159858736Y-106294123D01*
X159911550Y-106373166D01*
X159978770Y-106440386D01*
X160057813Y-106493200D01*
X160145641Y-106529580D01*
X160238878Y-106548126D01*
X160333942Y-106548126D01*
X160427179Y-106529580D01*
X160515007Y-106493200D01*
X160584477Y-106446782D01*
X160625140Y-106507640D01*
X160692360Y-106574860D01*
X160771403Y-106627674D01*
X160859231Y-106664054D01*
X160952468Y-106682600D01*
X161047532Y-106682600D01*
X161140769Y-106664054D01*
X161228597Y-106627674D01*
X161307640Y-106574860D01*
X161374860Y-106507640D01*
X161427674Y-106428597D01*
X161464054Y-106340769D01*
X161482600Y-106247532D01*
X161482600Y-106152468D01*
X161464054Y-106059231D01*
X161427674Y-105971403D01*
X161374860Y-105892360D01*
X161307640Y-105825140D01*
X161228597Y-105772326D01*
X161140769Y-105735946D01*
X161047532Y-105717400D01*
X160952468Y-105717400D01*
X160859231Y-105735946D01*
X160771403Y-105772326D01*
X160701933Y-105818744D01*
X160661270Y-105757886D01*
X160594050Y-105690666D01*
X160515007Y-105637852D01*
X160427179Y-105601472D01*
X160333942Y-105582926D01*
X160238878Y-105582926D01*
X160145641Y-105601472D01*
X160057813Y-105637852D01*
X159978770Y-105690666D01*
X159911550Y-105757886D01*
X159858736Y-105836929D01*
X159822356Y-105924757D01*
X159803810Y-106017994D01*
X154282600Y-106017994D01*
X154282600Y-105952468D01*
X154264054Y-105859231D01*
X154227674Y-105771403D01*
X154174860Y-105692360D01*
X154107640Y-105625140D01*
X154028597Y-105572326D01*
X153940769Y-105535946D01*
X153847532Y-105517400D01*
X153752468Y-105517400D01*
X153659231Y-105535946D01*
X153571403Y-105572326D01*
X153492360Y-105625140D01*
X153425140Y-105692360D01*
X153372326Y-105771403D01*
X153335946Y-105859231D01*
X153317400Y-105952468D01*
X143910267Y-105952468D01*
X143602443Y-105788351D01*
X143011304Y-105609713D01*
X142396672Y-105549832D01*
X141782169Y-105611010D01*
X141191408Y-105790897D01*
X140652627Y-106078882D01*
X140376457Y-106496852D01*
X120273543Y-106496852D01*
X119997373Y-106078882D01*
X119452443Y-105788351D01*
X118861304Y-105609713D01*
X118246672Y-105549832D01*
X117632169Y-105611010D01*
X117041408Y-105790897D01*
X116502627Y-106078882D01*
X116226457Y-106496852D01*
X107304000Y-106496852D01*
X107304000Y-104435468D01*
X151917400Y-104435468D01*
X151917400Y-104530532D01*
X151935946Y-104623769D01*
X151972326Y-104711597D01*
X152025140Y-104790640D01*
X152092360Y-104857860D01*
X152171403Y-104910674D01*
X152259231Y-104947054D01*
X152352468Y-104965600D01*
X152447532Y-104965600D01*
X152540769Y-104947054D01*
X152628597Y-104910674D01*
X152707640Y-104857860D01*
X152774860Y-104790640D01*
X152827674Y-104711597D01*
X152864054Y-104623769D01*
X152882600Y-104530532D01*
X152882600Y-104435468D01*
X152864054Y-104342231D01*
X152837367Y-104277803D01*
X152852328Y-104285800D01*
X152900207Y-104300324D01*
X152950000Y-104305228D01*
X154650000Y-104305228D01*
X154699793Y-104300324D01*
X154747672Y-104285800D01*
X154791797Y-104262214D01*
X154830473Y-104230473D01*
X154862214Y-104191797D01*
X154885800Y-104147672D01*
X154900324Y-104099793D01*
X154905228Y-104050000D01*
X154905228Y-102350000D01*
X154900324Y-102300207D01*
X154885800Y-102252328D01*
X154862214Y-102208203D01*
X154830473Y-102169527D01*
X154791797Y-102137786D01*
X154747672Y-102114200D01*
X154699793Y-102099676D01*
X154650000Y-102094772D01*
X152950000Y-102094772D01*
X152900207Y-102099676D01*
X152852328Y-102114200D01*
X152808203Y-102137786D01*
X152769527Y-102169527D01*
X152737786Y-102208203D01*
X152714200Y-102252328D01*
X152699676Y-102300207D01*
X152694772Y-102350000D01*
X152694772Y-104050000D01*
X152699676Y-104099793D01*
X152700827Y-104103588D01*
X152628597Y-104055326D01*
X152540769Y-104018946D01*
X152447532Y-104000400D01*
X152352468Y-104000400D01*
X152259231Y-104018946D01*
X152171403Y-104055326D01*
X152092360Y-104108140D01*
X152025140Y-104175360D01*
X151972326Y-104254403D01*
X151935946Y-104342231D01*
X151917400Y-104435468D01*
X107304000Y-104435468D01*
X107304000Y-101997002D01*
X163465578Y-101997002D01*
X163465578Y-102092066D01*
X163484124Y-102185303D01*
X163520504Y-102273131D01*
X163573318Y-102352174D01*
X163640538Y-102419394D01*
X163719581Y-102472208D01*
X163807409Y-102508588D01*
X163900646Y-102527134D01*
X163995710Y-102527134D01*
X164088947Y-102508588D01*
X164176775Y-102472208D01*
X164255818Y-102419394D01*
X164323038Y-102352174D01*
X164375852Y-102273131D01*
X164412232Y-102185303D01*
X164430778Y-102092066D01*
X164430778Y-101997002D01*
X164412232Y-101903765D01*
X164375852Y-101815937D01*
X164323038Y-101736894D01*
X164255818Y-101669674D01*
X164176775Y-101616860D01*
X164088947Y-101580480D01*
X163995710Y-101561934D01*
X163900646Y-101561934D01*
X163807409Y-101580480D01*
X163719581Y-101616860D01*
X163640538Y-101669674D01*
X163573318Y-101736894D01*
X163520504Y-101815937D01*
X163484124Y-101903765D01*
X163465578Y-101997002D01*
X107304000Y-101997002D01*
X107304000Y-100152468D01*
X134367678Y-100152468D01*
X134367678Y-100247532D01*
X134386224Y-100340769D01*
X134422604Y-100428597D01*
X134475418Y-100507640D01*
X134542638Y-100574860D01*
X134621681Y-100627674D01*
X134709509Y-100664054D01*
X134802746Y-100682600D01*
X134897810Y-100682600D01*
X134991047Y-100664054D01*
X135078875Y-100627674D01*
X135157918Y-100574860D01*
X135181513Y-100551265D01*
X152696000Y-100551265D01*
X152696000Y-100768735D01*
X152738426Y-100982025D01*
X152821648Y-101182940D01*
X152942467Y-101363759D01*
X153096241Y-101517533D01*
X153277060Y-101638352D01*
X153477975Y-101721574D01*
X153691265Y-101764000D01*
X153908735Y-101764000D01*
X154122025Y-101721574D01*
X154322940Y-101638352D01*
X154503759Y-101517533D01*
X154657533Y-101363759D01*
X154778352Y-101182940D01*
X154861574Y-100982025D01*
X154867452Y-100952470D01*
X163517400Y-100952470D01*
X163517400Y-101047534D01*
X163535946Y-101140771D01*
X163572326Y-101228599D01*
X163625140Y-101307642D01*
X163692360Y-101374862D01*
X163771403Y-101427676D01*
X163859231Y-101464056D01*
X163952468Y-101482602D01*
X164047532Y-101482602D01*
X164140769Y-101464056D01*
X164228597Y-101427676D01*
X164307640Y-101374862D01*
X164374860Y-101307642D01*
X164427674Y-101228599D01*
X164464054Y-101140771D01*
X164482600Y-101047534D01*
X164482600Y-100952470D01*
X164464054Y-100859233D01*
X164427674Y-100771405D01*
X164374860Y-100692362D01*
X164307640Y-100625142D01*
X164228597Y-100572328D01*
X164140769Y-100535948D01*
X164047532Y-100517402D01*
X163952468Y-100517402D01*
X163859231Y-100535948D01*
X163771403Y-100572328D01*
X163692360Y-100625142D01*
X163625140Y-100692362D01*
X163572326Y-100771405D01*
X163535946Y-100859233D01*
X163517400Y-100952470D01*
X154867452Y-100952470D01*
X154904000Y-100768735D01*
X154904000Y-100551265D01*
X154861574Y-100337975D01*
X154778352Y-100137060D01*
X154657533Y-99956241D01*
X154503759Y-99802467D01*
X154322940Y-99681648D01*
X154122025Y-99598426D01*
X153908735Y-99556000D01*
X153691265Y-99556000D01*
X153477975Y-99598426D01*
X153277060Y-99681648D01*
X153096241Y-99802467D01*
X152942467Y-99956241D01*
X152821648Y-100137060D01*
X152738426Y-100337975D01*
X152696000Y-100551265D01*
X135181513Y-100551265D01*
X135225138Y-100507640D01*
X135277952Y-100428597D01*
X135314332Y-100340769D01*
X135332878Y-100247532D01*
X135332878Y-100152468D01*
X135314332Y-100059231D01*
X135277952Y-99971403D01*
X135225138Y-99892360D01*
X135157918Y-99825140D01*
X135078875Y-99772326D01*
X134991047Y-99735946D01*
X134897810Y-99717400D01*
X134802746Y-99717400D01*
X134709509Y-99735946D01*
X134621681Y-99772326D01*
X134542638Y-99825140D01*
X134475418Y-99892360D01*
X134422604Y-99971403D01*
X134386224Y-100059231D01*
X134367678Y-100152468D01*
X107304000Y-100152468D01*
X107304000Y-99152468D01*
X138717400Y-99152468D01*
X138717400Y-99247532D01*
X138735946Y-99340769D01*
X138772326Y-99428597D01*
X138825140Y-99507640D01*
X138892360Y-99574860D01*
X138971403Y-99627674D01*
X139059231Y-99664054D01*
X139152468Y-99682600D01*
X139247532Y-99682600D01*
X139340769Y-99664054D01*
X139428597Y-99627674D01*
X139507640Y-99574860D01*
X139574860Y-99507640D01*
X139627674Y-99428597D01*
X139664054Y-99340769D01*
X139678236Y-99269468D01*
X155317400Y-99269468D01*
X155317400Y-99364532D01*
X155335946Y-99457769D01*
X155372326Y-99545597D01*
X155425140Y-99624640D01*
X155492360Y-99691860D01*
X155571403Y-99744674D01*
X155659231Y-99781054D01*
X155752468Y-99799600D01*
X155847532Y-99799600D01*
X155940769Y-99781054D01*
X156028597Y-99744674D01*
X156107640Y-99691860D01*
X156174860Y-99624640D01*
X156227674Y-99545597D01*
X156264054Y-99457769D01*
X156282600Y-99364532D01*
X156282600Y-99269468D01*
X157917400Y-99269468D01*
X157917400Y-99364532D01*
X157935946Y-99457769D01*
X157972326Y-99545597D01*
X158025140Y-99624640D01*
X158092360Y-99691860D01*
X158171403Y-99744674D01*
X158259231Y-99781054D01*
X158352468Y-99799600D01*
X158447532Y-99799600D01*
X158540769Y-99781054D01*
X158628597Y-99744674D01*
X158707640Y-99691860D01*
X158774860Y-99624640D01*
X158823083Y-99552468D01*
X161098290Y-99552468D01*
X161098290Y-99647532D01*
X161116836Y-99740769D01*
X161153216Y-99828597D01*
X161206030Y-99907640D01*
X161273250Y-99974860D01*
X161352293Y-100027674D01*
X161440121Y-100064054D01*
X161533358Y-100082600D01*
X161628422Y-100082600D01*
X161721659Y-100064054D01*
X161809487Y-100027674D01*
X161888530Y-99974860D01*
X161955750Y-99907640D01*
X162008564Y-99828597D01*
X162044944Y-99740769D01*
X162063490Y-99647532D01*
X162063490Y-99552468D01*
X162044944Y-99459231D01*
X162008564Y-99371403D01*
X161955750Y-99292360D01*
X161888530Y-99225140D01*
X161809487Y-99172326D01*
X161721659Y-99135946D01*
X161628422Y-99117400D01*
X161533358Y-99117400D01*
X161440121Y-99135946D01*
X161352293Y-99172326D01*
X161273250Y-99225140D01*
X161206030Y-99292360D01*
X161153216Y-99371403D01*
X161116836Y-99459231D01*
X161098290Y-99552468D01*
X158823083Y-99552468D01*
X158827674Y-99545597D01*
X158864054Y-99457769D01*
X158882600Y-99364532D01*
X158882600Y-99269468D01*
X158864054Y-99176231D01*
X158827674Y-99088403D01*
X158774860Y-99009360D01*
X158707640Y-98942140D01*
X158628597Y-98889326D01*
X158540769Y-98852946D01*
X158447532Y-98834400D01*
X158352468Y-98834400D01*
X158259231Y-98852946D01*
X158171403Y-98889326D01*
X158092360Y-98942140D01*
X158025140Y-99009360D01*
X157972326Y-99088403D01*
X157935946Y-99176231D01*
X157917400Y-99269468D01*
X156282600Y-99269468D01*
X156264054Y-99176231D01*
X156227674Y-99088403D01*
X156174860Y-99009360D01*
X156107640Y-98942140D01*
X156028597Y-98889326D01*
X155940769Y-98852946D01*
X155847532Y-98834400D01*
X155752468Y-98834400D01*
X155659231Y-98852946D01*
X155571403Y-98889326D01*
X155492360Y-98942140D01*
X155425140Y-99009360D01*
X155372326Y-99088403D01*
X155335946Y-99176231D01*
X155317400Y-99269468D01*
X139678236Y-99269468D01*
X139682600Y-99247532D01*
X139682600Y-99152468D01*
X139664054Y-99059231D01*
X139627674Y-98971403D01*
X139574860Y-98892360D01*
X139507640Y-98825140D01*
X139428597Y-98772326D01*
X139340769Y-98735946D01*
X139247532Y-98717400D01*
X139152468Y-98717400D01*
X139059231Y-98735946D01*
X138971403Y-98772326D01*
X138892360Y-98825140D01*
X138825140Y-98892360D01*
X138772326Y-98971403D01*
X138735946Y-99059231D01*
X138717400Y-99152468D01*
X107304000Y-99152468D01*
X107304000Y-97752468D01*
X136517400Y-97752468D01*
X136517400Y-97847532D01*
X136535946Y-97940769D01*
X136572326Y-98028597D01*
X136625140Y-98107640D01*
X136692360Y-98174860D01*
X136771403Y-98227674D01*
X136859231Y-98264054D01*
X136952468Y-98282600D01*
X137047532Y-98282600D01*
X137140769Y-98264054D01*
X137228597Y-98227674D01*
X137307640Y-98174860D01*
X137374860Y-98107640D01*
X137427674Y-98028597D01*
X137434853Y-98011265D01*
X152696000Y-98011265D01*
X152696000Y-98228735D01*
X152738426Y-98442025D01*
X152821648Y-98642940D01*
X152942467Y-98823759D01*
X153096241Y-98977533D01*
X153277060Y-99098352D01*
X153477975Y-99181574D01*
X153691265Y-99224000D01*
X153908735Y-99224000D01*
X154122025Y-99181574D01*
X154322940Y-99098352D01*
X154503759Y-98977533D01*
X154657533Y-98823759D01*
X154778352Y-98642940D01*
X154815826Y-98552468D01*
X159417400Y-98552468D01*
X159417400Y-98647532D01*
X159435946Y-98740769D01*
X159472326Y-98828597D01*
X159525140Y-98907640D01*
X159592360Y-98974860D01*
X159671403Y-99027674D01*
X159759231Y-99064054D01*
X159852468Y-99082600D01*
X159947532Y-99082600D01*
X160040769Y-99064054D01*
X160128597Y-99027674D01*
X160207640Y-98974860D01*
X160274860Y-98907640D01*
X160327674Y-98828597D01*
X160364054Y-98740769D01*
X160382600Y-98647532D01*
X160382600Y-98552468D01*
X160364054Y-98459231D01*
X160327674Y-98371403D01*
X160274860Y-98292360D01*
X160207640Y-98225140D01*
X160128597Y-98172326D01*
X160040769Y-98135946D01*
X159947532Y-98117400D01*
X159852468Y-98117400D01*
X159759231Y-98135946D01*
X159671403Y-98172326D01*
X159592360Y-98225140D01*
X159525140Y-98292360D01*
X159472326Y-98371403D01*
X159435946Y-98459231D01*
X159417400Y-98552468D01*
X154815826Y-98552468D01*
X154861574Y-98442025D01*
X154904000Y-98228735D01*
X154904000Y-98011265D01*
X154861574Y-97797975D01*
X154778352Y-97597060D01*
X154657533Y-97416241D01*
X154503759Y-97262467D01*
X154322940Y-97141648D01*
X154122025Y-97058426D01*
X153908735Y-97016000D01*
X153691265Y-97016000D01*
X153477975Y-97058426D01*
X153277060Y-97141648D01*
X153096241Y-97262467D01*
X152942467Y-97416241D01*
X152821648Y-97597060D01*
X152738426Y-97797975D01*
X152696000Y-98011265D01*
X137434853Y-98011265D01*
X137464054Y-97940769D01*
X137482600Y-97847532D01*
X137482600Y-97752468D01*
X137464054Y-97659231D01*
X137427674Y-97571403D01*
X137374860Y-97492360D01*
X137307640Y-97425140D01*
X137228597Y-97372326D01*
X137180657Y-97352468D01*
X145917400Y-97352468D01*
X145917400Y-97447532D01*
X145935946Y-97540769D01*
X145972326Y-97628597D01*
X146025140Y-97707640D01*
X146092360Y-97774860D01*
X146171403Y-97827674D01*
X146259231Y-97864054D01*
X146352468Y-97882600D01*
X146447532Y-97882600D01*
X146540769Y-97864054D01*
X146628597Y-97827674D01*
X146707640Y-97774860D01*
X146774860Y-97707640D01*
X146827674Y-97628597D01*
X146864054Y-97540769D01*
X146882600Y-97447532D01*
X146882600Y-97352468D01*
X146864054Y-97259231D01*
X146827674Y-97171403D01*
X146774860Y-97092360D01*
X146707640Y-97025140D01*
X146628597Y-96972326D01*
X146540769Y-96935946D01*
X146447532Y-96917400D01*
X146352468Y-96917400D01*
X146259231Y-96935946D01*
X146171403Y-96972326D01*
X146092360Y-97025140D01*
X146025140Y-97092360D01*
X145972326Y-97171403D01*
X145935946Y-97259231D01*
X145917400Y-97352468D01*
X137180657Y-97352468D01*
X137140769Y-97335946D01*
X137047532Y-97317400D01*
X136952468Y-97317400D01*
X136859231Y-97335946D01*
X136771403Y-97372326D01*
X136692360Y-97425140D01*
X136625140Y-97492360D01*
X136572326Y-97571403D01*
X136535946Y-97659231D01*
X136517400Y-97752468D01*
X107304000Y-97752468D01*
X107304000Y-96752468D01*
X134117400Y-96752468D01*
X134117400Y-96847532D01*
X134135946Y-96940769D01*
X134172326Y-97028597D01*
X134225140Y-97107640D01*
X134292360Y-97174860D01*
X134371403Y-97227674D01*
X134459231Y-97264054D01*
X134552468Y-97282600D01*
X134647532Y-97282600D01*
X134740769Y-97264054D01*
X134828597Y-97227674D01*
X134907640Y-97174860D01*
X134974860Y-97107640D01*
X135027674Y-97028597D01*
X135064054Y-96940769D01*
X135082600Y-96847532D01*
X135082600Y-96752468D01*
X138717400Y-96752468D01*
X138717400Y-96847532D01*
X138735946Y-96940769D01*
X138772326Y-97028597D01*
X138825140Y-97107640D01*
X138892360Y-97174860D01*
X138971403Y-97227674D01*
X139059231Y-97264054D01*
X139152468Y-97282600D01*
X139247532Y-97282600D01*
X139340769Y-97264054D01*
X139428597Y-97227674D01*
X139507640Y-97174860D01*
X139574860Y-97107640D01*
X139627674Y-97028597D01*
X139664054Y-96940769D01*
X139682600Y-96847532D01*
X139682600Y-96831347D01*
X147167144Y-96831347D01*
X147167144Y-96926411D01*
X147185690Y-97019648D01*
X147222070Y-97107476D01*
X147274884Y-97186519D01*
X147342104Y-97253739D01*
X147421147Y-97306553D01*
X147508975Y-97342933D01*
X147602212Y-97361479D01*
X147697276Y-97361479D01*
X147790513Y-97342933D01*
X147878341Y-97306553D01*
X147957384Y-97253739D01*
X148024604Y-97186519D01*
X148052967Y-97144069D01*
X148059231Y-97146664D01*
X148152468Y-97165210D01*
X148247532Y-97165210D01*
X148340769Y-97146664D01*
X148428597Y-97110284D01*
X148507640Y-97057470D01*
X148574860Y-96990250D01*
X148627674Y-96911207D01*
X148664054Y-96823379D01*
X148682600Y-96730142D01*
X148682600Y-96635078D01*
X148664054Y-96541841D01*
X148627674Y-96454013D01*
X148574860Y-96374970D01*
X148507640Y-96307750D01*
X148428597Y-96254936D01*
X148340769Y-96218556D01*
X148247532Y-96200010D01*
X148152468Y-96200010D01*
X148059231Y-96218556D01*
X147971403Y-96254936D01*
X147892360Y-96307750D01*
X147825140Y-96374970D01*
X147796777Y-96417420D01*
X147790513Y-96414825D01*
X147697276Y-96396279D01*
X147602212Y-96396279D01*
X147508975Y-96414825D01*
X147421147Y-96451205D01*
X147342104Y-96504019D01*
X147274884Y-96571239D01*
X147222070Y-96650282D01*
X147185690Y-96738110D01*
X147167144Y-96831347D01*
X139682600Y-96831347D01*
X139682600Y-96752468D01*
X139664054Y-96659231D01*
X139627674Y-96571403D01*
X139574860Y-96492360D01*
X139507640Y-96425140D01*
X139428597Y-96372326D01*
X139340769Y-96335946D01*
X139247532Y-96317400D01*
X139152468Y-96317400D01*
X139059231Y-96335946D01*
X138971403Y-96372326D01*
X138892360Y-96425140D01*
X138825140Y-96492360D01*
X138772326Y-96571403D01*
X138735946Y-96659231D01*
X138717400Y-96752468D01*
X135082600Y-96752468D01*
X135064054Y-96659231D01*
X135027674Y-96571403D01*
X134974860Y-96492360D01*
X134907640Y-96425140D01*
X134828597Y-96372326D01*
X134740769Y-96335946D01*
X134647532Y-96317400D01*
X134552468Y-96317400D01*
X134459231Y-96335946D01*
X134371403Y-96372326D01*
X134292360Y-96425140D01*
X134225140Y-96492360D01*
X134172326Y-96571403D01*
X134135946Y-96659231D01*
X134117400Y-96752468D01*
X107304000Y-96752468D01*
X107304000Y-95552468D01*
X126717400Y-95552468D01*
X126717400Y-95647532D01*
X126735946Y-95740769D01*
X126772326Y-95828597D01*
X126825140Y-95907640D01*
X126892360Y-95974860D01*
X126971403Y-96027674D01*
X127059231Y-96064054D01*
X127152468Y-96082600D01*
X127247532Y-96082600D01*
X127340769Y-96064054D01*
X127428597Y-96027674D01*
X127507640Y-95974860D01*
X127574860Y-95907640D01*
X127627674Y-95828597D01*
X127659208Y-95752468D01*
X132917400Y-95752468D01*
X132917400Y-95847532D01*
X132935946Y-95940769D01*
X132972326Y-96028597D01*
X133025140Y-96107640D01*
X133092360Y-96174860D01*
X133171403Y-96227674D01*
X133259231Y-96264054D01*
X133352468Y-96282600D01*
X133447532Y-96282600D01*
X133540769Y-96264054D01*
X133628597Y-96227674D01*
X133707640Y-96174860D01*
X133774860Y-96107640D01*
X133827674Y-96028597D01*
X133864054Y-95940769D01*
X133882600Y-95847532D01*
X133882600Y-95752468D01*
X133864054Y-95659231D01*
X133827674Y-95571403D01*
X133774860Y-95492360D01*
X133707640Y-95425140D01*
X133628597Y-95372326D01*
X133540769Y-95335946D01*
X133447532Y-95317400D01*
X133352468Y-95317400D01*
X133259231Y-95335946D01*
X133171403Y-95372326D01*
X133092360Y-95425140D01*
X133025140Y-95492360D01*
X132972326Y-95571403D01*
X132935946Y-95659231D01*
X132917400Y-95752468D01*
X127659208Y-95752468D01*
X127664054Y-95740769D01*
X127682600Y-95647532D01*
X127682600Y-95552468D01*
X127664054Y-95459231D01*
X127627674Y-95371403D01*
X127574860Y-95292360D01*
X127507640Y-95225140D01*
X127428597Y-95172326D01*
X127380555Y-95152426D01*
X146317400Y-95152426D01*
X146317400Y-95247490D01*
X146335946Y-95340727D01*
X146372326Y-95428555D01*
X146425140Y-95507598D01*
X146492360Y-95574818D01*
X146571403Y-95627632D01*
X146659231Y-95664012D01*
X146752468Y-95682558D01*
X146847532Y-95682558D01*
X146940769Y-95664012D01*
X147028597Y-95627632D01*
X147107640Y-95574818D01*
X147174860Y-95507598D01*
X147227674Y-95428555D01*
X147264054Y-95340727D01*
X147271963Y-95300966D01*
X147313242Y-95318065D01*
X147406479Y-95336611D01*
X147501543Y-95336611D01*
X147594780Y-95318065D01*
X147682608Y-95281685D01*
X147761651Y-95228871D01*
X147828871Y-95161651D01*
X147881685Y-95082608D01*
X147918065Y-94994780D01*
X147926482Y-94952462D01*
X154517400Y-94952462D01*
X154517400Y-95047526D01*
X154535946Y-95140763D01*
X154572326Y-95228591D01*
X154625140Y-95307634D01*
X154692360Y-95374854D01*
X154771403Y-95427668D01*
X154859231Y-95464048D01*
X154952468Y-95482594D01*
X155047532Y-95482594D01*
X155140769Y-95464048D01*
X155228597Y-95427668D01*
X155307640Y-95374854D01*
X155374860Y-95307634D01*
X155427674Y-95228591D01*
X155464054Y-95140763D01*
X155482600Y-95047526D01*
X155482600Y-94952462D01*
X155464054Y-94859225D01*
X155427674Y-94771397D01*
X155374860Y-94692354D01*
X155307640Y-94625134D01*
X155228597Y-94572320D01*
X155140769Y-94535940D01*
X155047532Y-94517394D01*
X154952468Y-94517394D01*
X154859231Y-94535940D01*
X154771403Y-94572320D01*
X154692360Y-94625134D01*
X154625140Y-94692354D01*
X154572326Y-94771397D01*
X154535946Y-94859225D01*
X154517400Y-94952462D01*
X147926482Y-94952462D01*
X147936611Y-94901543D01*
X147936611Y-94806479D01*
X147918065Y-94713242D01*
X147881685Y-94625414D01*
X147828871Y-94546371D01*
X147761651Y-94479151D01*
X147682608Y-94426337D01*
X147594780Y-94389957D01*
X147501543Y-94371411D01*
X147406479Y-94371411D01*
X147313242Y-94389957D01*
X147225414Y-94426337D01*
X147146371Y-94479151D01*
X147079151Y-94546371D01*
X147026337Y-94625414D01*
X146989957Y-94713242D01*
X146982048Y-94753003D01*
X146940769Y-94735904D01*
X146847532Y-94717358D01*
X146752468Y-94717358D01*
X146659231Y-94735904D01*
X146571403Y-94772284D01*
X146492360Y-94825098D01*
X146425140Y-94892318D01*
X146372326Y-94971361D01*
X146335946Y-95059189D01*
X146317400Y-95152426D01*
X127380555Y-95152426D01*
X127340769Y-95135946D01*
X127247532Y-95117400D01*
X127152468Y-95117400D01*
X127059231Y-95135946D01*
X126971403Y-95172326D01*
X126892360Y-95225140D01*
X126825140Y-95292360D01*
X126772326Y-95371403D01*
X126735946Y-95459231D01*
X126717400Y-95552468D01*
X107304000Y-95552468D01*
X107304000Y-93752468D01*
X126717400Y-93752468D01*
X126717400Y-93847532D01*
X126735946Y-93940769D01*
X126772326Y-94028597D01*
X126825140Y-94107640D01*
X126892360Y-94174860D01*
X126971403Y-94227674D01*
X127059231Y-94264054D01*
X127152468Y-94282600D01*
X127247532Y-94282600D01*
X127340769Y-94264054D01*
X127428597Y-94227674D01*
X127507640Y-94174860D01*
X127574860Y-94107640D01*
X127627674Y-94028597D01*
X127664054Y-93940769D01*
X127682600Y-93847532D01*
X127682600Y-93752468D01*
X127664054Y-93659231D01*
X127627674Y-93571403D01*
X127615023Y-93552468D01*
X132917400Y-93552468D01*
X132917400Y-93647532D01*
X132935946Y-93740769D01*
X132972326Y-93828597D01*
X133025140Y-93907640D01*
X133092360Y-93974860D01*
X133171403Y-94027674D01*
X133259231Y-94064054D01*
X133352468Y-94082600D01*
X133447532Y-94082600D01*
X133540769Y-94064054D01*
X133628597Y-94027674D01*
X133707640Y-93974860D01*
X133730032Y-93952468D01*
X162359140Y-93952468D01*
X162359140Y-94047532D01*
X162377686Y-94140769D01*
X162414066Y-94228597D01*
X162466880Y-94307640D01*
X162534100Y-94374860D01*
X162613143Y-94427674D01*
X162700971Y-94464054D01*
X162794208Y-94482600D01*
X162889272Y-94482600D01*
X162982509Y-94464054D01*
X163070337Y-94427674D01*
X163149380Y-94374860D01*
X163216600Y-94307640D01*
X163269414Y-94228597D01*
X163305794Y-94140769D01*
X163324340Y-94047532D01*
X163324340Y-93952468D01*
X163305794Y-93859231D01*
X163269414Y-93771403D01*
X163216600Y-93692360D01*
X163149380Y-93625140D01*
X163070337Y-93572326D01*
X162982509Y-93535946D01*
X162889272Y-93517400D01*
X162794208Y-93517400D01*
X162700971Y-93535946D01*
X162613143Y-93572326D01*
X162534100Y-93625140D01*
X162466880Y-93692360D01*
X162414066Y-93771403D01*
X162377686Y-93859231D01*
X162359140Y-93952468D01*
X133730032Y-93952468D01*
X133774860Y-93907640D01*
X133827674Y-93828597D01*
X133864054Y-93740769D01*
X133882600Y-93647532D01*
X133882600Y-93552468D01*
X133864054Y-93459231D01*
X133827674Y-93371403D01*
X133774860Y-93292360D01*
X133707640Y-93225140D01*
X133628597Y-93172326D01*
X133540769Y-93135946D01*
X133447532Y-93117400D01*
X133352468Y-93117400D01*
X133259231Y-93135946D01*
X133171403Y-93172326D01*
X133092360Y-93225140D01*
X133025140Y-93292360D01*
X132972326Y-93371403D01*
X132935946Y-93459231D01*
X132917400Y-93552468D01*
X127615023Y-93552468D01*
X127574860Y-93492360D01*
X127507640Y-93425140D01*
X127428597Y-93372326D01*
X127340769Y-93335946D01*
X127247532Y-93317400D01*
X127152468Y-93317400D01*
X127059231Y-93335946D01*
X126971403Y-93372326D01*
X126892360Y-93425140D01*
X126825140Y-93492360D01*
X126772326Y-93571403D01*
X126735946Y-93659231D01*
X126717400Y-93752468D01*
X107304000Y-93752468D01*
X107304000Y-92752468D01*
X156717400Y-92752468D01*
X156717400Y-92847532D01*
X156735946Y-92940769D01*
X156772326Y-93028597D01*
X156825140Y-93107640D01*
X156892360Y-93174860D01*
X156971403Y-93227674D01*
X157059231Y-93264054D01*
X157152468Y-93282600D01*
X157247532Y-93282600D01*
X157340769Y-93264054D01*
X157428597Y-93227674D01*
X157507640Y-93174860D01*
X157550902Y-93131598D01*
X161538270Y-93131598D01*
X161538270Y-93226662D01*
X161556816Y-93319899D01*
X161593196Y-93407727D01*
X161646010Y-93486770D01*
X161713230Y-93553990D01*
X161792273Y-93606804D01*
X161880101Y-93643184D01*
X161973338Y-93661730D01*
X162068402Y-93661730D01*
X162161639Y-93643184D01*
X162249467Y-93606804D01*
X162328510Y-93553990D01*
X162395730Y-93486770D01*
X162448544Y-93407727D01*
X162484924Y-93319899D01*
X162503470Y-93226662D01*
X162503470Y-93131598D01*
X162484924Y-93038361D01*
X162448544Y-92950533D01*
X162395730Y-92871490D01*
X162328510Y-92804270D01*
X162249467Y-92751456D01*
X162161639Y-92715076D01*
X162068402Y-92696530D01*
X161973338Y-92696530D01*
X161880101Y-92715076D01*
X161792273Y-92751456D01*
X161713230Y-92804270D01*
X161646010Y-92871490D01*
X161593196Y-92950533D01*
X161556816Y-93038361D01*
X161538270Y-93131598D01*
X157550902Y-93131598D01*
X157574860Y-93107640D01*
X157627674Y-93028597D01*
X157664054Y-92940769D01*
X157682600Y-92847532D01*
X157682600Y-92752468D01*
X157664054Y-92659231D01*
X157627674Y-92571403D01*
X157574860Y-92492360D01*
X157507640Y-92425140D01*
X157428597Y-92372326D01*
X157340769Y-92335946D01*
X157247532Y-92317400D01*
X157152468Y-92317400D01*
X157059231Y-92335946D01*
X156971403Y-92372326D01*
X156892360Y-92425140D01*
X156825140Y-92492360D01*
X156772326Y-92571403D01*
X156735946Y-92659231D01*
X156717400Y-92752468D01*
X107304000Y-92752468D01*
X107304000Y-92035468D01*
X161634400Y-92035468D01*
X161634400Y-92130532D01*
X161652946Y-92223769D01*
X161689326Y-92311597D01*
X161742140Y-92390640D01*
X161809360Y-92457860D01*
X161888403Y-92510674D01*
X161976231Y-92547054D01*
X162069468Y-92565600D01*
X162164532Y-92565600D01*
X162257769Y-92547054D01*
X162345597Y-92510674D01*
X162424640Y-92457860D01*
X162491860Y-92390640D01*
X162544674Y-92311597D01*
X162581054Y-92223769D01*
X162599600Y-92130532D01*
X162599600Y-92035468D01*
X162581054Y-91942231D01*
X162544674Y-91854403D01*
X162491860Y-91775360D01*
X162424640Y-91708140D01*
X162345597Y-91655326D01*
X162257769Y-91618946D01*
X162164532Y-91600400D01*
X162069468Y-91600400D01*
X161976231Y-91618946D01*
X161888403Y-91655326D01*
X161809360Y-91708140D01*
X161742140Y-91775360D01*
X161689326Y-91854403D01*
X161652946Y-91942231D01*
X161634400Y-92035468D01*
X107304000Y-92035468D01*
X107304000Y-86703148D01*
X116226457Y-86703148D01*
X116502627Y-87121118D01*
X117047557Y-87411649D01*
X117638696Y-87590287D01*
X118253328Y-87650168D01*
X118867831Y-87588990D01*
X119458592Y-87409103D01*
X119997373Y-87121118D01*
X120273543Y-86703148D01*
X140376457Y-86703148D01*
X140652627Y-87121118D01*
X141197557Y-87411649D01*
X141788696Y-87590287D01*
X142403328Y-87650168D01*
X143017831Y-87588990D01*
X143608592Y-87409103D01*
X144147373Y-87121118D01*
X144423543Y-86703148D01*
X144322863Y-86602468D01*
X168067400Y-86602468D01*
X168067400Y-86697532D01*
X168085946Y-86790769D01*
X168122326Y-86878597D01*
X168175140Y-86957640D01*
X168242360Y-87024860D01*
X168321403Y-87077674D01*
X168409231Y-87114054D01*
X168502468Y-87132600D01*
X168597532Y-87132600D01*
X168690769Y-87114054D01*
X168778597Y-87077674D01*
X168800000Y-87063373D01*
X168821403Y-87077674D01*
X168909231Y-87114054D01*
X169002468Y-87132600D01*
X169097532Y-87132600D01*
X169190769Y-87114054D01*
X169278597Y-87077674D01*
X169300000Y-87063373D01*
X169321403Y-87077674D01*
X169409231Y-87114054D01*
X169502468Y-87132600D01*
X169597532Y-87132600D01*
X169690769Y-87114054D01*
X169778597Y-87077674D01*
X169857640Y-87024860D01*
X169924860Y-86957640D01*
X169977674Y-86878597D01*
X170014054Y-86790769D01*
X170032600Y-86697532D01*
X170032600Y-86602468D01*
X170014054Y-86509231D01*
X169977674Y-86421403D01*
X169924860Y-86342360D01*
X169857640Y-86275140D01*
X169778597Y-86222326D01*
X169690769Y-86185946D01*
X169597532Y-86167400D01*
X169502468Y-86167400D01*
X169409231Y-86185946D01*
X169321403Y-86222326D01*
X169300000Y-86236627D01*
X169278597Y-86222326D01*
X169190769Y-86185946D01*
X169097532Y-86167400D01*
X169002468Y-86167400D01*
X168909231Y-86185946D01*
X168821403Y-86222326D01*
X168800000Y-86236627D01*
X168778597Y-86222326D01*
X168690769Y-86185946D01*
X168597532Y-86167400D01*
X168502468Y-86167400D01*
X168409231Y-86185946D01*
X168321403Y-86222326D01*
X168242360Y-86275140D01*
X168175140Y-86342360D01*
X168122326Y-86421403D01*
X168085946Y-86509231D01*
X168067400Y-86602468D01*
X144322863Y-86602468D01*
X142400000Y-84679605D01*
X140376457Y-86703148D01*
X120273543Y-86703148D01*
X118250000Y-84679605D01*
X116226457Y-86703148D01*
X107304000Y-86703148D01*
X107304000Y-84503328D01*
X115099832Y-84503328D01*
X115161010Y-85117831D01*
X115340897Y-85708592D01*
X115628882Y-86247373D01*
X116046852Y-86523543D01*
X118070395Y-84500000D01*
X118429605Y-84500000D01*
X120453148Y-86523543D01*
X120871118Y-86247373D01*
X121161649Y-85702443D01*
X121340287Y-85111304D01*
X121399519Y-84503328D01*
X139249832Y-84503328D01*
X139311010Y-85117831D01*
X139490897Y-85708592D01*
X139778882Y-86247373D01*
X140196852Y-86523543D01*
X142220395Y-84500000D01*
X142579605Y-84500000D01*
X144603148Y-86523543D01*
X145021118Y-86247373D01*
X145311649Y-85702443D01*
X145490287Y-85111304D01*
X145550168Y-84496672D01*
X145488990Y-83882169D01*
X145388596Y-83552468D01*
X150717400Y-83552468D01*
X150717400Y-83647532D01*
X150735946Y-83740769D01*
X150772326Y-83828597D01*
X150825140Y-83907640D01*
X150892360Y-83974860D01*
X150971403Y-84027674D01*
X151059231Y-84064054D01*
X151152468Y-84082600D01*
X151247532Y-84082600D01*
X151340769Y-84064054D01*
X151428597Y-84027674D01*
X151500013Y-83979956D01*
X151571429Y-84027674D01*
X151659257Y-84064054D01*
X151752494Y-84082600D01*
X151847558Y-84082600D01*
X151940795Y-84064054D01*
X152028623Y-84027674D01*
X152107666Y-83974860D01*
X152174886Y-83907640D01*
X152227700Y-83828597D01*
X152264080Y-83740769D01*
X152282626Y-83647532D01*
X152282626Y-83552468D01*
X152264080Y-83459231D01*
X152227700Y-83371403D01*
X152174886Y-83292360D01*
X152107666Y-83225140D01*
X152028623Y-83172326D01*
X151940795Y-83135946D01*
X151847558Y-83117400D01*
X151752494Y-83117400D01*
X151659257Y-83135946D01*
X151571429Y-83172326D01*
X151500013Y-83220044D01*
X151428597Y-83172326D01*
X151340769Y-83135946D01*
X151247532Y-83117400D01*
X151152468Y-83117400D01*
X151059231Y-83135946D01*
X150971403Y-83172326D01*
X150892360Y-83225140D01*
X150825140Y-83292360D01*
X150772326Y-83371403D01*
X150735946Y-83459231D01*
X150717400Y-83552468D01*
X145388596Y-83552468D01*
X145309103Y-83291408D01*
X145021118Y-82752627D01*
X144603148Y-82476457D01*
X142579605Y-84500000D01*
X142220395Y-84500000D01*
X140196852Y-82476457D01*
X139778882Y-82752627D01*
X139488351Y-83297557D01*
X139309713Y-83888696D01*
X139249832Y-84503328D01*
X121399519Y-84503328D01*
X121400168Y-84496672D01*
X121338990Y-83882169D01*
X121159103Y-83291408D01*
X120871118Y-82752627D01*
X120453148Y-82476457D01*
X118429605Y-84500000D01*
X118070395Y-84500000D01*
X116046852Y-82476457D01*
X115628882Y-82752627D01*
X115338351Y-83297557D01*
X115159713Y-83888696D01*
X115099832Y-84503328D01*
X107304000Y-84503328D01*
X107304000Y-82296852D01*
X116226457Y-82296852D01*
X118250000Y-84320395D01*
X120273543Y-82296852D01*
X140376457Y-82296852D01*
X142400000Y-84320395D01*
X144423543Y-82296852D01*
X144147373Y-81878882D01*
X143910267Y-81752468D01*
X169067400Y-81752468D01*
X169067400Y-81847532D01*
X169085946Y-81940769D01*
X169122326Y-82028597D01*
X169175140Y-82107640D01*
X169242360Y-82174860D01*
X169321403Y-82227674D01*
X169409231Y-82264054D01*
X169502468Y-82282600D01*
X169597532Y-82282600D01*
X169690769Y-82264054D01*
X169778597Y-82227674D01*
X169857640Y-82174860D01*
X169924860Y-82107640D01*
X169977674Y-82028597D01*
X170014054Y-81940769D01*
X170032600Y-81847532D01*
X170032600Y-81752468D01*
X170014054Y-81659231D01*
X169977674Y-81571403D01*
X169924860Y-81492360D01*
X169857640Y-81425140D01*
X169778597Y-81372326D01*
X169690769Y-81335946D01*
X169597532Y-81317400D01*
X169502468Y-81317400D01*
X169409231Y-81335946D01*
X169321403Y-81372326D01*
X169242360Y-81425140D01*
X169175140Y-81492360D01*
X169122326Y-81571403D01*
X169085946Y-81659231D01*
X169067400Y-81752468D01*
X143910267Y-81752468D01*
X143602443Y-81588351D01*
X143011304Y-81409713D01*
X142396672Y-81349832D01*
X141782169Y-81411010D01*
X141191408Y-81590897D01*
X140652627Y-81878882D01*
X140376457Y-82296852D01*
X120273543Y-82296852D01*
X119997373Y-81878882D01*
X119452443Y-81588351D01*
X118861304Y-81409713D01*
X118246672Y-81349832D01*
X117632169Y-81411010D01*
X117041408Y-81590897D01*
X116502627Y-81878882D01*
X116226457Y-82296852D01*
X107304000Y-82296852D01*
X107304000Y-80904000D01*
X171673000Y-80904000D01*
X171673000Y-125696000D01*
G37*
G04 #@! TD.AperFunction*
M02*
