G04 #@! TF.GenerationSoftware,KiCad,Pcbnew,(5.1.8)-1*
G04 #@! TF.CreationDate,2021-01-26T22:47:04-05:00*
G04 #@! TF.ProjectId,kimchi_ulid,6b696d63-6869-45f7-956c-69642e6b6963,v0.1*
G04 #@! TF.SameCoordinates,Original*
G04 #@! TF.FileFunction,Soldermask,Bot*
G04 #@! TF.FilePolarity,Negative*
%FSLAX46Y46*%
G04 Gerber Fmt 4.6, Leading zero omitted, Abs format (unit mm)*
G04 Created by KiCad (PCBNEW (5.1.8)-1) date 2021-01-26 22:47:04*
%MOMM*%
%LPD*%
G01*
G04 APERTURE LIST*
G04 #@! TA.AperFunction,Profile*
%ADD10C,0.100000*%
G04 #@! TD*
%ADD11O,1.801600X1.801600*%
%ADD12C,1.501600*%
%ADD13C,1.901600*%
%ADD14C,2.601600*%
%ADD15O,2.601600X4.301600*%
%ADD16C,4.601600*%
%ADD17C,5.101600*%
%ADD18C,0.100000*%
G04 APERTURE END LIST*
D10*
X172000000Y-80600000D02*
X107000000Y-80600000D01*
X107000000Y-126000000D02*
X172000000Y-126000000D01*
X107000000Y-80600000D02*
X107000000Y-126000000D01*
X172000000Y-126000000D02*
X172000000Y-80600000D01*
X172000000Y-80600000D02*
X107000000Y-80600000D01*
X107000000Y-126000000D02*
X172000000Y-126000000D01*
X107000000Y-80600000D02*
X107000000Y-126000000D01*
X172000000Y-126000000D02*
X172000000Y-80600000D01*
G36*
G01*
X154700800Y-102350000D02*
X154700800Y-104050000D01*
G75*
G02*
X154650000Y-104100800I-50800J0D01*
G01*
X152950000Y-104100800D01*
G75*
G02*
X152899200Y-104050000I0J50800D01*
G01*
X152899200Y-102350000D01*
G75*
G02*
X152950000Y-102299200I50800J0D01*
G01*
X154650000Y-102299200D01*
G75*
G02*
X154700800Y-102350000I0J-50800D01*
G01*
G37*
D11*
X153800000Y-100660000D03*
X153800000Y-98120000D03*
D12*
X166200000Y-115300000D03*
G36*
G01*
X169700000Y-116250800D02*
X167900000Y-116250800D01*
G75*
G02*
X167849200Y-116200000I0J50800D01*
G01*
X167849200Y-114400000D01*
G75*
G02*
X167900000Y-114349200I50800J0D01*
G01*
X169700000Y-114349200D01*
G75*
G02*
X169750800Y-114400000I0J-50800D01*
G01*
X169750800Y-116200000D01*
G75*
G02*
X169700000Y-116250800I-50800J0D01*
G01*
G37*
D13*
X164400000Y-114300000D03*
G36*
G01*
X164500000Y-117450800D02*
X162700000Y-117450800D01*
G75*
G02*
X162649200Y-117400000I0J50800D01*
G01*
X162649200Y-115600000D01*
G75*
G02*
X162700000Y-115549200I50800J0D01*
G01*
X164500000Y-115549200D01*
G75*
G02*
X164550800Y-115600000I0J-50800D01*
G01*
X164550800Y-117400000D01*
G75*
G02*
X164500000Y-117450800I-50800J0D01*
G01*
G37*
G36*
G01*
X169700000Y-121250800D02*
X167900000Y-121250800D01*
G75*
G02*
X167849200Y-121200000I0J50800D01*
G01*
X167849200Y-119400000D01*
G75*
G02*
X167900000Y-119349200I50800J0D01*
G01*
X169700000Y-119349200D01*
G75*
G02*
X169750800Y-119400000I0J-50800D01*
G01*
X169750800Y-121200000D01*
G75*
G02*
X169700000Y-121250800I-50800J0D01*
G01*
G37*
G36*
G01*
X164900000Y-125350800D02*
X163100000Y-125350800D01*
G75*
G02*
X163049200Y-125300000I0J50800D01*
G01*
X163049200Y-123500000D01*
G75*
G02*
X163100000Y-123449200I50800J0D01*
G01*
X164900000Y-123449200D01*
G75*
G02*
X164950800Y-123500000I0J-50800D01*
G01*
X164950800Y-125300000D01*
G75*
G02*
X164900000Y-125350800I-50800J0D01*
G01*
G37*
G36*
G01*
X170000000Y-125650800D02*
X168200000Y-125650800D01*
G75*
G02*
X168149200Y-125600000I0J50800D01*
G01*
X168149200Y-123800000D01*
G75*
G02*
X168200000Y-123749200I50800J0D01*
G01*
X170000000Y-123749200D01*
G75*
G02*
X170050800Y-123800000I0J-50800D01*
G01*
X170050800Y-125600000D01*
G75*
G02*
X170000000Y-125650800I-50800J0D01*
G01*
G37*
D14*
X131600000Y-115875000D03*
X117600000Y-115875000D03*
D15*
X108450000Y-121000000D03*
X132750000Y-121000000D03*
D16*
X113600000Y-121000000D03*
X127600000Y-121000000D03*
D14*
X159400000Y-115875000D03*
X145400000Y-115875000D03*
D15*
X136250000Y-121000000D03*
X160550000Y-121000000D03*
D16*
X141400000Y-121000000D03*
X155400000Y-121000000D03*
D17*
X142400000Y-108700000D03*
X142400000Y-84500000D03*
X118250000Y-108700000D03*
X118250000Y-84500000D03*
G36*
G01*
X148650800Y-110010000D02*
X148650800Y-111510000D01*
G75*
G02*
X148600000Y-111560800I-50800J0D01*
G01*
X148400000Y-111560800D01*
G75*
G02*
X148349200Y-111510000I0J50800D01*
G01*
X148349200Y-110010000D01*
G75*
G02*
X148400000Y-109959200I50800J0D01*
G01*
X148600000Y-109959200D01*
G75*
G02*
X148650800Y-110010000I0J-50800D01*
G01*
G37*
G36*
G01*
X149050800Y-110010000D02*
X149050800Y-111510000D01*
G75*
G02*
X149000000Y-111560800I-50800J0D01*
G01*
X148800000Y-111560800D01*
G75*
G02*
X148749200Y-111510000I0J50800D01*
G01*
X148749200Y-110010000D01*
G75*
G02*
X148800000Y-109959200I50800J0D01*
G01*
X149000000Y-109959200D01*
G75*
G02*
X149050800Y-110010000I0J-50800D01*
G01*
G37*
G36*
G01*
X149450800Y-110010000D02*
X149450800Y-111510000D01*
G75*
G02*
X149400000Y-111560800I-50800J0D01*
G01*
X149200000Y-111560800D01*
G75*
G02*
X149149200Y-111510000I0J50800D01*
G01*
X149149200Y-110010000D01*
G75*
G02*
X149200000Y-109959200I50800J0D01*
G01*
X149400000Y-109959200D01*
G75*
G02*
X149450800Y-110010000I0J-50800D01*
G01*
G37*
G36*
G01*
X149850800Y-110010000D02*
X149850800Y-111510000D01*
G75*
G02*
X149800000Y-111560800I-50800J0D01*
G01*
X149600000Y-111560800D01*
G75*
G02*
X149549200Y-111510000I0J50800D01*
G01*
X149549200Y-110010000D01*
G75*
G02*
X149600000Y-109959200I50800J0D01*
G01*
X149800000Y-109959200D01*
G75*
G02*
X149850800Y-110010000I0J-50800D01*
G01*
G37*
G36*
G01*
X150250800Y-110010000D02*
X150250800Y-111510000D01*
G75*
G02*
X150200000Y-111560800I-50800J0D01*
G01*
X150000000Y-111560800D01*
G75*
G02*
X149949200Y-111510000I0J50800D01*
G01*
X149949200Y-110010000D01*
G75*
G02*
X150000000Y-109959200I50800J0D01*
G01*
X150200000Y-109959200D01*
G75*
G02*
X150250800Y-110010000I0J-50800D01*
G01*
G37*
G36*
G01*
X146650800Y-107690000D02*
X146650800Y-109190000D01*
G75*
G02*
X146600000Y-109240800I-50800J0D01*
G01*
X146400000Y-109240800D01*
G75*
G02*
X146349200Y-109190000I0J50800D01*
G01*
X146349200Y-107690000D01*
G75*
G02*
X146400000Y-107639200I50800J0D01*
G01*
X146600000Y-107639200D01*
G75*
G02*
X146650800Y-107690000I0J-50800D01*
G01*
G37*
G36*
G01*
X150650800Y-110010000D02*
X150650800Y-111510000D01*
G75*
G02*
X150600000Y-111560800I-50800J0D01*
G01*
X150400000Y-111560800D01*
G75*
G02*
X150349200Y-111510000I0J50800D01*
G01*
X150349200Y-110010000D01*
G75*
G02*
X150400000Y-109959200I50800J0D01*
G01*
X150600000Y-109959200D01*
G75*
G02*
X150650800Y-110010000I0J-50800D01*
G01*
G37*
G36*
G01*
X147050800Y-107690000D02*
X147050800Y-109190000D01*
G75*
G02*
X147000000Y-109240800I-50800J0D01*
G01*
X146800000Y-109240800D01*
G75*
G02*
X146749200Y-109190000I0J50800D01*
G01*
X146749200Y-107690000D01*
G75*
G02*
X146800000Y-107639200I50800J0D01*
G01*
X147000000Y-107639200D01*
G75*
G02*
X147050800Y-107690000I0J-50800D01*
G01*
G37*
G36*
G01*
X151050800Y-110010000D02*
X151050800Y-111510000D01*
G75*
G02*
X151000000Y-111560800I-50800J0D01*
G01*
X150800000Y-111560800D01*
G75*
G02*
X150749200Y-111510000I0J50800D01*
G01*
X150749200Y-110010000D01*
G75*
G02*
X150800000Y-109959200I50800J0D01*
G01*
X151000000Y-109959200D01*
G75*
G02*
X151050800Y-110010000I0J-50800D01*
G01*
G37*
G36*
G01*
X147450800Y-107690000D02*
X147450800Y-109190000D01*
G75*
G02*
X147400000Y-109240800I-50800J0D01*
G01*
X147200000Y-109240800D01*
G75*
G02*
X147149200Y-109190000I0J50800D01*
G01*
X147149200Y-107690000D01*
G75*
G02*
X147200000Y-107639200I50800J0D01*
G01*
X147400000Y-107639200D01*
G75*
G02*
X147450800Y-107690000I0J-50800D01*
G01*
G37*
G36*
G01*
X151450800Y-110010000D02*
X151450800Y-111510000D01*
G75*
G02*
X151400000Y-111560800I-50800J0D01*
G01*
X151200000Y-111560800D01*
G75*
G02*
X151149200Y-111510000I0J50800D01*
G01*
X151149200Y-110010000D01*
G75*
G02*
X151200000Y-109959200I50800J0D01*
G01*
X151400000Y-109959200D01*
G75*
G02*
X151450800Y-110010000I0J-50800D01*
G01*
G37*
G36*
G01*
X147850800Y-107690000D02*
X147850800Y-109190000D01*
G75*
G02*
X147800000Y-109240800I-50800J0D01*
G01*
X147600000Y-109240800D01*
G75*
G02*
X147549200Y-109190000I0J50800D01*
G01*
X147549200Y-107690000D01*
G75*
G02*
X147600000Y-107639200I50800J0D01*
G01*
X147800000Y-107639200D01*
G75*
G02*
X147850800Y-107690000I0J-50800D01*
G01*
G37*
G36*
G01*
X151850800Y-110010000D02*
X151850800Y-111510000D01*
G75*
G02*
X151800000Y-111560800I-50800J0D01*
G01*
X151600000Y-111560800D01*
G75*
G02*
X151549200Y-111510000I0J50800D01*
G01*
X151549200Y-110010000D01*
G75*
G02*
X151600000Y-109959200I50800J0D01*
G01*
X151800000Y-109959200D01*
G75*
G02*
X151850800Y-110010000I0J-50800D01*
G01*
G37*
G36*
G01*
X148250800Y-107690000D02*
X148250800Y-109190000D01*
G75*
G02*
X148200000Y-109240800I-50800J0D01*
G01*
X148000000Y-109240800D01*
G75*
G02*
X147949200Y-109190000I0J50800D01*
G01*
X147949200Y-107690000D01*
G75*
G02*
X148000000Y-107639200I50800J0D01*
G01*
X148200000Y-107639200D01*
G75*
G02*
X148250800Y-107690000I0J-50800D01*
G01*
G37*
G36*
G01*
X152250800Y-110010000D02*
X152250800Y-111510000D01*
G75*
G02*
X152200000Y-111560800I-50800J0D01*
G01*
X152000000Y-111560800D01*
G75*
G02*
X151949200Y-111510000I0J50800D01*
G01*
X151949200Y-110010000D01*
G75*
G02*
X152000000Y-109959200I50800J0D01*
G01*
X152200000Y-109959200D01*
G75*
G02*
X152250800Y-110010000I0J-50800D01*
G01*
G37*
G36*
G01*
X148650800Y-107690000D02*
X148650800Y-109190000D01*
G75*
G02*
X148600000Y-109240800I-50800J0D01*
G01*
X148400000Y-109240800D01*
G75*
G02*
X148349200Y-109190000I0J50800D01*
G01*
X148349200Y-107690000D01*
G75*
G02*
X148400000Y-107639200I50800J0D01*
G01*
X148600000Y-107639200D01*
G75*
G02*
X148650800Y-107690000I0J-50800D01*
G01*
G37*
G36*
G01*
X152650800Y-110010000D02*
X152650800Y-111510000D01*
G75*
G02*
X152600000Y-111560800I-50800J0D01*
G01*
X152400000Y-111560800D01*
G75*
G02*
X152349200Y-111510000I0J50800D01*
G01*
X152349200Y-110010000D01*
G75*
G02*
X152400000Y-109959200I50800J0D01*
G01*
X152600000Y-109959200D01*
G75*
G02*
X152650800Y-110010000I0J-50800D01*
G01*
G37*
G36*
G01*
X149050800Y-107690000D02*
X149050800Y-109190000D01*
G75*
G02*
X149000000Y-109240800I-50800J0D01*
G01*
X148800000Y-109240800D01*
G75*
G02*
X148749200Y-109190000I0J50800D01*
G01*
X148749200Y-107690000D01*
G75*
G02*
X148800000Y-107639200I50800J0D01*
G01*
X149000000Y-107639200D01*
G75*
G02*
X149050800Y-107690000I0J-50800D01*
G01*
G37*
G36*
G01*
X153050800Y-110010000D02*
X153050800Y-111510000D01*
G75*
G02*
X153000000Y-111560800I-50800J0D01*
G01*
X152800000Y-111560800D01*
G75*
G02*
X152749200Y-111510000I0J50800D01*
G01*
X152749200Y-110010000D01*
G75*
G02*
X152800000Y-109959200I50800J0D01*
G01*
X153000000Y-109959200D01*
G75*
G02*
X153050800Y-110010000I0J-50800D01*
G01*
G37*
G36*
G01*
X149450800Y-107690000D02*
X149450800Y-109190000D01*
G75*
G02*
X149400000Y-109240800I-50800J0D01*
G01*
X149200000Y-109240800D01*
G75*
G02*
X149149200Y-109190000I0J50800D01*
G01*
X149149200Y-107690000D01*
G75*
G02*
X149200000Y-107639200I50800J0D01*
G01*
X149400000Y-107639200D01*
G75*
G02*
X149450800Y-107690000I0J-50800D01*
G01*
G37*
G36*
G01*
X153450800Y-110010000D02*
X153450800Y-111510000D01*
G75*
G02*
X153400000Y-111560800I-50800J0D01*
G01*
X153200000Y-111560800D01*
G75*
G02*
X153149200Y-111510000I0J50800D01*
G01*
X153149200Y-110010000D01*
G75*
G02*
X153200000Y-109959200I50800J0D01*
G01*
X153400000Y-109959200D01*
G75*
G02*
X153450800Y-110010000I0J-50800D01*
G01*
G37*
G36*
G01*
X149850800Y-107690000D02*
X149850800Y-109190000D01*
G75*
G02*
X149800000Y-109240800I-50800J0D01*
G01*
X149600000Y-109240800D01*
G75*
G02*
X149549200Y-109190000I0J50800D01*
G01*
X149549200Y-107690000D01*
G75*
G02*
X149600000Y-107639200I50800J0D01*
G01*
X149800000Y-107639200D01*
G75*
G02*
X149850800Y-107690000I0J-50800D01*
G01*
G37*
G36*
G01*
X153850800Y-110010000D02*
X153850800Y-111510000D01*
G75*
G02*
X153800000Y-111560800I-50800J0D01*
G01*
X153600000Y-111560800D01*
G75*
G02*
X153549200Y-111510000I0J50800D01*
G01*
X153549200Y-110010000D01*
G75*
G02*
X153600000Y-109959200I50800J0D01*
G01*
X153800000Y-109959200D01*
G75*
G02*
X153850800Y-110010000I0J-50800D01*
G01*
G37*
G36*
G01*
X150250800Y-107690000D02*
X150250800Y-109190000D01*
G75*
G02*
X150200000Y-109240800I-50800J0D01*
G01*
X150000000Y-109240800D01*
G75*
G02*
X149949200Y-109190000I0J50800D01*
G01*
X149949200Y-107690000D01*
G75*
G02*
X150000000Y-107639200I50800J0D01*
G01*
X150200000Y-107639200D01*
G75*
G02*
X150250800Y-107690000I0J-50800D01*
G01*
G37*
G36*
G01*
X154250800Y-110010000D02*
X154250800Y-111510000D01*
G75*
G02*
X154200000Y-111560800I-50800J0D01*
G01*
X154000000Y-111560800D01*
G75*
G02*
X153949200Y-111510000I0J50800D01*
G01*
X153949200Y-110010000D01*
G75*
G02*
X154000000Y-109959200I50800J0D01*
G01*
X154200000Y-109959200D01*
G75*
G02*
X154250800Y-110010000I0J-50800D01*
G01*
G37*
G36*
G01*
X150650800Y-107690000D02*
X150650800Y-109190000D01*
G75*
G02*
X150600000Y-109240800I-50800J0D01*
G01*
X150400000Y-109240800D01*
G75*
G02*
X150349200Y-109190000I0J50800D01*
G01*
X150349200Y-107690000D01*
G75*
G02*
X150400000Y-107639200I50800J0D01*
G01*
X150600000Y-107639200D01*
G75*
G02*
X150650800Y-107690000I0J-50800D01*
G01*
G37*
G36*
G01*
X154650800Y-110010000D02*
X154650800Y-111510000D01*
G75*
G02*
X154600000Y-111560800I-50800J0D01*
G01*
X154400000Y-111560800D01*
G75*
G02*
X154349200Y-111510000I0J50800D01*
G01*
X154349200Y-110010000D01*
G75*
G02*
X154400000Y-109959200I50800J0D01*
G01*
X154600000Y-109959200D01*
G75*
G02*
X154650800Y-110010000I0J-50800D01*
G01*
G37*
G36*
G01*
X151050800Y-107690000D02*
X151050800Y-109190000D01*
G75*
G02*
X151000000Y-109240800I-50800J0D01*
G01*
X150800000Y-109240800D01*
G75*
G02*
X150749200Y-109190000I0J50800D01*
G01*
X150749200Y-107690000D01*
G75*
G02*
X150800000Y-107639200I50800J0D01*
G01*
X151000000Y-107639200D01*
G75*
G02*
X151050800Y-107690000I0J-50800D01*
G01*
G37*
G36*
G01*
X155050800Y-110010000D02*
X155050800Y-111510000D01*
G75*
G02*
X155000000Y-111560800I-50800J0D01*
G01*
X154800000Y-111560800D01*
G75*
G02*
X154749200Y-111510000I0J50800D01*
G01*
X154749200Y-110010000D01*
G75*
G02*
X154800000Y-109959200I50800J0D01*
G01*
X155000000Y-109959200D01*
G75*
G02*
X155050800Y-110010000I0J-50800D01*
G01*
G37*
G36*
G01*
X151450800Y-107690000D02*
X151450800Y-109190000D01*
G75*
G02*
X151400000Y-109240800I-50800J0D01*
G01*
X151200000Y-109240800D01*
G75*
G02*
X151149200Y-109190000I0J50800D01*
G01*
X151149200Y-107690000D01*
G75*
G02*
X151200000Y-107639200I50800J0D01*
G01*
X151400000Y-107639200D01*
G75*
G02*
X151450800Y-107690000I0J-50800D01*
G01*
G37*
G36*
G01*
X155450800Y-110010000D02*
X155450800Y-111510000D01*
G75*
G02*
X155400000Y-111560800I-50800J0D01*
G01*
X155200000Y-111560800D01*
G75*
G02*
X155149200Y-111510000I0J50800D01*
G01*
X155149200Y-110010000D01*
G75*
G02*
X155200000Y-109959200I50800J0D01*
G01*
X155400000Y-109959200D01*
G75*
G02*
X155450800Y-110010000I0J-50800D01*
G01*
G37*
G36*
G01*
X151850800Y-107690000D02*
X151850800Y-109190000D01*
G75*
G02*
X151800000Y-109240800I-50800J0D01*
G01*
X151600000Y-109240800D01*
G75*
G02*
X151549200Y-109190000I0J50800D01*
G01*
X151549200Y-107690000D01*
G75*
G02*
X151600000Y-107639200I50800J0D01*
G01*
X151800000Y-107639200D01*
G75*
G02*
X151850800Y-107690000I0J-50800D01*
G01*
G37*
G36*
G01*
X155850800Y-110010000D02*
X155850800Y-111510000D01*
G75*
G02*
X155800000Y-111560800I-50800J0D01*
G01*
X155600000Y-111560800D01*
G75*
G02*
X155549200Y-111510000I0J50800D01*
G01*
X155549200Y-110010000D01*
G75*
G02*
X155600000Y-109959200I50800J0D01*
G01*
X155800000Y-109959200D01*
G75*
G02*
X155850800Y-110010000I0J-50800D01*
G01*
G37*
G36*
G01*
X152250800Y-107690000D02*
X152250800Y-109190000D01*
G75*
G02*
X152200000Y-109240800I-50800J0D01*
G01*
X152000000Y-109240800D01*
G75*
G02*
X151949200Y-109190000I0J50800D01*
G01*
X151949200Y-107690000D01*
G75*
G02*
X152000000Y-107639200I50800J0D01*
G01*
X152200000Y-107639200D01*
G75*
G02*
X152250800Y-107690000I0J-50800D01*
G01*
G37*
G36*
G01*
X156250800Y-110010000D02*
X156250800Y-111510000D01*
G75*
G02*
X156200000Y-111560800I-50800J0D01*
G01*
X156000000Y-111560800D01*
G75*
G02*
X155949200Y-111510000I0J50800D01*
G01*
X155949200Y-110010000D01*
G75*
G02*
X156000000Y-109959200I50800J0D01*
G01*
X156200000Y-109959200D01*
G75*
G02*
X156250800Y-110010000I0J-50800D01*
G01*
G37*
G36*
G01*
X152650800Y-107690000D02*
X152650800Y-109190000D01*
G75*
G02*
X152600000Y-109240800I-50800J0D01*
G01*
X152400000Y-109240800D01*
G75*
G02*
X152349200Y-109190000I0J50800D01*
G01*
X152349200Y-107690000D01*
G75*
G02*
X152400000Y-107639200I50800J0D01*
G01*
X152600000Y-107639200D01*
G75*
G02*
X152650800Y-107690000I0J-50800D01*
G01*
G37*
G36*
G01*
X156650800Y-110010000D02*
X156650800Y-111510000D01*
G75*
G02*
X156600000Y-111560800I-50800J0D01*
G01*
X156400000Y-111560800D01*
G75*
G02*
X156349200Y-111510000I0J50800D01*
G01*
X156349200Y-110010000D01*
G75*
G02*
X156400000Y-109959200I50800J0D01*
G01*
X156600000Y-109959200D01*
G75*
G02*
X156650800Y-110010000I0J-50800D01*
G01*
G37*
G36*
G01*
X153050800Y-107690000D02*
X153050800Y-109190000D01*
G75*
G02*
X153000000Y-109240800I-50800J0D01*
G01*
X152800000Y-109240800D01*
G75*
G02*
X152749200Y-109190000I0J50800D01*
G01*
X152749200Y-107690000D01*
G75*
G02*
X152800000Y-107639200I50800J0D01*
G01*
X153000000Y-107639200D01*
G75*
G02*
X153050800Y-107690000I0J-50800D01*
G01*
G37*
G36*
G01*
X157050800Y-110010000D02*
X157050800Y-111510000D01*
G75*
G02*
X157000000Y-111560800I-50800J0D01*
G01*
X156800000Y-111560800D01*
G75*
G02*
X156749200Y-111510000I0J50800D01*
G01*
X156749200Y-110010000D01*
G75*
G02*
X156800000Y-109959200I50800J0D01*
G01*
X157000000Y-109959200D01*
G75*
G02*
X157050800Y-110010000I0J-50800D01*
G01*
G37*
G36*
G01*
X153450800Y-107690000D02*
X153450800Y-109190000D01*
G75*
G02*
X153400000Y-109240800I-50800J0D01*
G01*
X153200000Y-109240800D01*
G75*
G02*
X153149200Y-109190000I0J50800D01*
G01*
X153149200Y-107690000D01*
G75*
G02*
X153200000Y-107639200I50800J0D01*
G01*
X153400000Y-107639200D01*
G75*
G02*
X153450800Y-107690000I0J-50800D01*
G01*
G37*
G36*
G01*
X157450800Y-110010000D02*
X157450800Y-111510000D01*
G75*
G02*
X157400000Y-111560800I-50800J0D01*
G01*
X157200000Y-111560800D01*
G75*
G02*
X157149200Y-111510000I0J50800D01*
G01*
X157149200Y-110010000D01*
G75*
G02*
X157200000Y-109959200I50800J0D01*
G01*
X157400000Y-109959200D01*
G75*
G02*
X157450800Y-110010000I0J-50800D01*
G01*
G37*
G36*
G01*
X153850800Y-107690000D02*
X153850800Y-109190000D01*
G75*
G02*
X153800000Y-109240800I-50800J0D01*
G01*
X153600000Y-109240800D01*
G75*
G02*
X153549200Y-109190000I0J50800D01*
G01*
X153549200Y-107690000D01*
G75*
G02*
X153600000Y-107639200I50800J0D01*
G01*
X153800000Y-107639200D01*
G75*
G02*
X153850800Y-107690000I0J-50800D01*
G01*
G37*
G36*
G01*
X157850800Y-110010000D02*
X157850800Y-111510000D01*
G75*
G02*
X157800000Y-111560800I-50800J0D01*
G01*
X157600000Y-111560800D01*
G75*
G02*
X157549200Y-111510000I0J50800D01*
G01*
X157549200Y-110010000D01*
G75*
G02*
X157600000Y-109959200I50800J0D01*
G01*
X157800000Y-109959200D01*
G75*
G02*
X157850800Y-110010000I0J-50800D01*
G01*
G37*
G36*
G01*
X154250800Y-107690000D02*
X154250800Y-109190000D01*
G75*
G02*
X154200000Y-109240800I-50800J0D01*
G01*
X154000000Y-109240800D01*
G75*
G02*
X153949200Y-109190000I0J50800D01*
G01*
X153949200Y-107690000D01*
G75*
G02*
X154000000Y-107639200I50800J0D01*
G01*
X154200000Y-107639200D01*
G75*
G02*
X154250800Y-107690000I0J-50800D01*
G01*
G37*
G36*
G01*
X158250800Y-110010000D02*
X158250800Y-111510000D01*
G75*
G02*
X158200000Y-111560800I-50800J0D01*
G01*
X158000000Y-111560800D01*
G75*
G02*
X157949200Y-111510000I0J50800D01*
G01*
X157949200Y-110010000D01*
G75*
G02*
X158000000Y-109959200I50800J0D01*
G01*
X158200000Y-109959200D01*
G75*
G02*
X158250800Y-110010000I0J-50800D01*
G01*
G37*
G36*
G01*
X154650800Y-107690000D02*
X154650800Y-109190000D01*
G75*
G02*
X154600000Y-109240800I-50800J0D01*
G01*
X154400000Y-109240800D01*
G75*
G02*
X154349200Y-109190000I0J50800D01*
G01*
X154349200Y-107690000D01*
G75*
G02*
X154400000Y-107639200I50800J0D01*
G01*
X154600000Y-107639200D01*
G75*
G02*
X154650800Y-107690000I0J-50800D01*
G01*
G37*
G36*
G01*
X146650800Y-110010000D02*
X146650800Y-111510000D01*
G75*
G02*
X146600000Y-111560800I-50800J0D01*
G01*
X146400000Y-111560800D01*
G75*
G02*
X146349200Y-111510000I0J50800D01*
G01*
X146349200Y-110010000D01*
G75*
G02*
X146400000Y-109959200I50800J0D01*
G01*
X146600000Y-109959200D01*
G75*
G02*
X146650800Y-110010000I0J-50800D01*
G01*
G37*
G36*
G01*
X155050800Y-107690000D02*
X155050800Y-109190000D01*
G75*
G02*
X155000000Y-109240800I-50800J0D01*
G01*
X154800000Y-109240800D01*
G75*
G02*
X154749200Y-109190000I0J50800D01*
G01*
X154749200Y-107690000D01*
G75*
G02*
X154800000Y-107639200I50800J0D01*
G01*
X155000000Y-107639200D01*
G75*
G02*
X155050800Y-107690000I0J-50800D01*
G01*
G37*
G36*
G01*
X147050800Y-110010000D02*
X147050800Y-111510000D01*
G75*
G02*
X147000000Y-111560800I-50800J0D01*
G01*
X146800000Y-111560800D01*
G75*
G02*
X146749200Y-111510000I0J50800D01*
G01*
X146749200Y-110010000D01*
G75*
G02*
X146800000Y-109959200I50800J0D01*
G01*
X147000000Y-109959200D01*
G75*
G02*
X147050800Y-110010000I0J-50800D01*
G01*
G37*
G36*
G01*
X155450800Y-107690000D02*
X155450800Y-109190000D01*
G75*
G02*
X155400000Y-109240800I-50800J0D01*
G01*
X155200000Y-109240800D01*
G75*
G02*
X155149200Y-109190000I0J50800D01*
G01*
X155149200Y-107690000D01*
G75*
G02*
X155200000Y-107639200I50800J0D01*
G01*
X155400000Y-107639200D01*
G75*
G02*
X155450800Y-107690000I0J-50800D01*
G01*
G37*
G36*
G01*
X147450800Y-110010000D02*
X147450800Y-111510000D01*
G75*
G02*
X147400000Y-111560800I-50800J0D01*
G01*
X147200000Y-111560800D01*
G75*
G02*
X147149200Y-111510000I0J50800D01*
G01*
X147149200Y-110010000D01*
G75*
G02*
X147200000Y-109959200I50800J0D01*
G01*
X147400000Y-109959200D01*
G75*
G02*
X147450800Y-110010000I0J-50800D01*
G01*
G37*
G36*
G01*
X155850800Y-107690000D02*
X155850800Y-109190000D01*
G75*
G02*
X155800000Y-109240800I-50800J0D01*
G01*
X155600000Y-109240800D01*
G75*
G02*
X155549200Y-109190000I0J50800D01*
G01*
X155549200Y-107690000D01*
G75*
G02*
X155600000Y-107639200I50800J0D01*
G01*
X155800000Y-107639200D01*
G75*
G02*
X155850800Y-107690000I0J-50800D01*
G01*
G37*
G36*
G01*
X147850800Y-110010000D02*
X147850800Y-111510000D01*
G75*
G02*
X147800000Y-111560800I-50800J0D01*
G01*
X147600000Y-111560800D01*
G75*
G02*
X147549200Y-111510000I0J50800D01*
G01*
X147549200Y-110010000D01*
G75*
G02*
X147600000Y-109959200I50800J0D01*
G01*
X147800000Y-109959200D01*
G75*
G02*
X147850800Y-110010000I0J-50800D01*
G01*
G37*
G36*
G01*
X156250800Y-107690000D02*
X156250800Y-109190000D01*
G75*
G02*
X156200000Y-109240800I-50800J0D01*
G01*
X156000000Y-109240800D01*
G75*
G02*
X155949200Y-109190000I0J50800D01*
G01*
X155949200Y-107690000D01*
G75*
G02*
X156000000Y-107639200I50800J0D01*
G01*
X156200000Y-107639200D01*
G75*
G02*
X156250800Y-107690000I0J-50800D01*
G01*
G37*
G36*
G01*
X148250800Y-110010000D02*
X148250800Y-111510000D01*
G75*
G02*
X148200000Y-111560800I-50800J0D01*
G01*
X148000000Y-111560800D01*
G75*
G02*
X147949200Y-111510000I0J50800D01*
G01*
X147949200Y-110010000D01*
G75*
G02*
X148000000Y-109959200I50800J0D01*
G01*
X148200000Y-109959200D01*
G75*
G02*
X148250800Y-110010000I0J-50800D01*
G01*
G37*
G36*
G01*
X156650800Y-107690000D02*
X156650800Y-109190000D01*
G75*
G02*
X156600000Y-109240800I-50800J0D01*
G01*
X156400000Y-109240800D01*
G75*
G02*
X156349200Y-109190000I0J50800D01*
G01*
X156349200Y-107690000D01*
G75*
G02*
X156400000Y-107639200I50800J0D01*
G01*
X156600000Y-107639200D01*
G75*
G02*
X156650800Y-107690000I0J-50800D01*
G01*
G37*
G36*
G01*
X157050800Y-107690000D02*
X157050800Y-109190000D01*
G75*
G02*
X157000000Y-109240800I-50800J0D01*
G01*
X156800000Y-109240800D01*
G75*
G02*
X156749200Y-109190000I0J50800D01*
G01*
X156749200Y-107690000D01*
G75*
G02*
X156800000Y-107639200I50800J0D01*
G01*
X157000000Y-107639200D01*
G75*
G02*
X157050800Y-107690000I0J-50800D01*
G01*
G37*
G36*
G01*
X157450800Y-107690000D02*
X157450800Y-109190000D01*
G75*
G02*
X157400000Y-109240800I-50800J0D01*
G01*
X157200000Y-109240800D01*
G75*
G02*
X157149200Y-109190000I0J50800D01*
G01*
X157149200Y-107690000D01*
G75*
G02*
X157200000Y-107639200I50800J0D01*
G01*
X157400000Y-107639200D01*
G75*
G02*
X157450800Y-107690000I0J-50800D01*
G01*
G37*
G36*
G01*
X157850800Y-107690000D02*
X157850800Y-109190000D01*
G75*
G02*
X157800000Y-109240800I-50800J0D01*
G01*
X157600000Y-109240800D01*
G75*
G02*
X157549200Y-109190000I0J50800D01*
G01*
X157549200Y-107690000D01*
G75*
G02*
X157600000Y-107639200I50800J0D01*
G01*
X157800000Y-107639200D01*
G75*
G02*
X157850800Y-107690000I0J-50800D01*
G01*
G37*
G36*
G01*
X158250800Y-107690000D02*
X158250800Y-109190000D01*
G75*
G02*
X158200000Y-109240800I-50800J0D01*
G01*
X158000000Y-109240800D01*
G75*
G02*
X157949200Y-109190000I0J50800D01*
G01*
X157949200Y-107690000D01*
G75*
G02*
X158000000Y-107639200I50800J0D01*
G01*
X158200000Y-107639200D01*
G75*
G02*
X158250800Y-107690000I0J-50800D01*
G01*
G37*
G36*
G01*
X148650800Y-84010000D02*
X148650800Y-85510000D01*
G75*
G02*
X148600000Y-85560800I-50800J0D01*
G01*
X148400000Y-85560800D01*
G75*
G02*
X148349200Y-85510000I0J50800D01*
G01*
X148349200Y-84010000D01*
G75*
G02*
X148400000Y-83959200I50800J0D01*
G01*
X148600000Y-83959200D01*
G75*
G02*
X148650800Y-84010000I0J-50800D01*
G01*
G37*
G36*
G01*
X149050800Y-84010000D02*
X149050800Y-85510000D01*
G75*
G02*
X149000000Y-85560800I-50800J0D01*
G01*
X148800000Y-85560800D01*
G75*
G02*
X148749200Y-85510000I0J50800D01*
G01*
X148749200Y-84010000D01*
G75*
G02*
X148800000Y-83959200I50800J0D01*
G01*
X149000000Y-83959200D01*
G75*
G02*
X149050800Y-84010000I0J-50800D01*
G01*
G37*
G36*
G01*
X149450800Y-84010000D02*
X149450800Y-85510000D01*
G75*
G02*
X149400000Y-85560800I-50800J0D01*
G01*
X149200000Y-85560800D01*
G75*
G02*
X149149200Y-85510000I0J50800D01*
G01*
X149149200Y-84010000D01*
G75*
G02*
X149200000Y-83959200I50800J0D01*
G01*
X149400000Y-83959200D01*
G75*
G02*
X149450800Y-84010000I0J-50800D01*
G01*
G37*
G36*
G01*
X149850800Y-84010000D02*
X149850800Y-85510000D01*
G75*
G02*
X149800000Y-85560800I-50800J0D01*
G01*
X149600000Y-85560800D01*
G75*
G02*
X149549200Y-85510000I0J50800D01*
G01*
X149549200Y-84010000D01*
G75*
G02*
X149600000Y-83959200I50800J0D01*
G01*
X149800000Y-83959200D01*
G75*
G02*
X149850800Y-84010000I0J-50800D01*
G01*
G37*
G36*
G01*
X150250800Y-84010000D02*
X150250800Y-85510000D01*
G75*
G02*
X150200000Y-85560800I-50800J0D01*
G01*
X150000000Y-85560800D01*
G75*
G02*
X149949200Y-85510000I0J50800D01*
G01*
X149949200Y-84010000D01*
G75*
G02*
X150000000Y-83959200I50800J0D01*
G01*
X150200000Y-83959200D01*
G75*
G02*
X150250800Y-84010000I0J-50800D01*
G01*
G37*
G36*
G01*
X146650800Y-81690000D02*
X146650800Y-83190000D01*
G75*
G02*
X146600000Y-83240800I-50800J0D01*
G01*
X146400000Y-83240800D01*
G75*
G02*
X146349200Y-83190000I0J50800D01*
G01*
X146349200Y-81690000D01*
G75*
G02*
X146400000Y-81639200I50800J0D01*
G01*
X146600000Y-81639200D01*
G75*
G02*
X146650800Y-81690000I0J-50800D01*
G01*
G37*
G36*
G01*
X150650800Y-84010000D02*
X150650800Y-85510000D01*
G75*
G02*
X150600000Y-85560800I-50800J0D01*
G01*
X150400000Y-85560800D01*
G75*
G02*
X150349200Y-85510000I0J50800D01*
G01*
X150349200Y-84010000D01*
G75*
G02*
X150400000Y-83959200I50800J0D01*
G01*
X150600000Y-83959200D01*
G75*
G02*
X150650800Y-84010000I0J-50800D01*
G01*
G37*
G36*
G01*
X147050800Y-81690000D02*
X147050800Y-83190000D01*
G75*
G02*
X147000000Y-83240800I-50800J0D01*
G01*
X146800000Y-83240800D01*
G75*
G02*
X146749200Y-83190000I0J50800D01*
G01*
X146749200Y-81690000D01*
G75*
G02*
X146800000Y-81639200I50800J0D01*
G01*
X147000000Y-81639200D01*
G75*
G02*
X147050800Y-81690000I0J-50800D01*
G01*
G37*
G36*
G01*
X151050800Y-84010000D02*
X151050800Y-85510000D01*
G75*
G02*
X151000000Y-85560800I-50800J0D01*
G01*
X150800000Y-85560800D01*
G75*
G02*
X150749200Y-85510000I0J50800D01*
G01*
X150749200Y-84010000D01*
G75*
G02*
X150800000Y-83959200I50800J0D01*
G01*
X151000000Y-83959200D01*
G75*
G02*
X151050800Y-84010000I0J-50800D01*
G01*
G37*
G36*
G01*
X147450800Y-81690000D02*
X147450800Y-83190000D01*
G75*
G02*
X147400000Y-83240800I-50800J0D01*
G01*
X147200000Y-83240800D01*
G75*
G02*
X147149200Y-83190000I0J50800D01*
G01*
X147149200Y-81690000D01*
G75*
G02*
X147200000Y-81639200I50800J0D01*
G01*
X147400000Y-81639200D01*
G75*
G02*
X147450800Y-81690000I0J-50800D01*
G01*
G37*
G36*
G01*
X151450800Y-84010000D02*
X151450800Y-85510000D01*
G75*
G02*
X151400000Y-85560800I-50800J0D01*
G01*
X151200000Y-85560800D01*
G75*
G02*
X151149200Y-85510000I0J50800D01*
G01*
X151149200Y-84010000D01*
G75*
G02*
X151200000Y-83959200I50800J0D01*
G01*
X151400000Y-83959200D01*
G75*
G02*
X151450800Y-84010000I0J-50800D01*
G01*
G37*
G36*
G01*
X147850800Y-81690000D02*
X147850800Y-83190000D01*
G75*
G02*
X147800000Y-83240800I-50800J0D01*
G01*
X147600000Y-83240800D01*
G75*
G02*
X147549200Y-83190000I0J50800D01*
G01*
X147549200Y-81690000D01*
G75*
G02*
X147600000Y-81639200I50800J0D01*
G01*
X147800000Y-81639200D01*
G75*
G02*
X147850800Y-81690000I0J-50800D01*
G01*
G37*
G36*
G01*
X151850800Y-84010000D02*
X151850800Y-85510000D01*
G75*
G02*
X151800000Y-85560800I-50800J0D01*
G01*
X151600000Y-85560800D01*
G75*
G02*
X151549200Y-85510000I0J50800D01*
G01*
X151549200Y-84010000D01*
G75*
G02*
X151600000Y-83959200I50800J0D01*
G01*
X151800000Y-83959200D01*
G75*
G02*
X151850800Y-84010000I0J-50800D01*
G01*
G37*
G36*
G01*
X148250800Y-81690000D02*
X148250800Y-83190000D01*
G75*
G02*
X148200000Y-83240800I-50800J0D01*
G01*
X148000000Y-83240800D01*
G75*
G02*
X147949200Y-83190000I0J50800D01*
G01*
X147949200Y-81690000D01*
G75*
G02*
X148000000Y-81639200I50800J0D01*
G01*
X148200000Y-81639200D01*
G75*
G02*
X148250800Y-81690000I0J-50800D01*
G01*
G37*
G36*
G01*
X152250800Y-84010000D02*
X152250800Y-85510000D01*
G75*
G02*
X152200000Y-85560800I-50800J0D01*
G01*
X152000000Y-85560800D01*
G75*
G02*
X151949200Y-85510000I0J50800D01*
G01*
X151949200Y-84010000D01*
G75*
G02*
X152000000Y-83959200I50800J0D01*
G01*
X152200000Y-83959200D01*
G75*
G02*
X152250800Y-84010000I0J-50800D01*
G01*
G37*
G36*
G01*
X148650800Y-81690000D02*
X148650800Y-83190000D01*
G75*
G02*
X148600000Y-83240800I-50800J0D01*
G01*
X148400000Y-83240800D01*
G75*
G02*
X148349200Y-83190000I0J50800D01*
G01*
X148349200Y-81690000D01*
G75*
G02*
X148400000Y-81639200I50800J0D01*
G01*
X148600000Y-81639200D01*
G75*
G02*
X148650800Y-81690000I0J-50800D01*
G01*
G37*
G36*
G01*
X152650800Y-84010000D02*
X152650800Y-85510000D01*
G75*
G02*
X152600000Y-85560800I-50800J0D01*
G01*
X152400000Y-85560800D01*
G75*
G02*
X152349200Y-85510000I0J50800D01*
G01*
X152349200Y-84010000D01*
G75*
G02*
X152400000Y-83959200I50800J0D01*
G01*
X152600000Y-83959200D01*
G75*
G02*
X152650800Y-84010000I0J-50800D01*
G01*
G37*
G36*
G01*
X149050800Y-81690000D02*
X149050800Y-83190000D01*
G75*
G02*
X149000000Y-83240800I-50800J0D01*
G01*
X148800000Y-83240800D01*
G75*
G02*
X148749200Y-83190000I0J50800D01*
G01*
X148749200Y-81690000D01*
G75*
G02*
X148800000Y-81639200I50800J0D01*
G01*
X149000000Y-81639200D01*
G75*
G02*
X149050800Y-81690000I0J-50800D01*
G01*
G37*
G36*
G01*
X153050800Y-84010000D02*
X153050800Y-85510000D01*
G75*
G02*
X153000000Y-85560800I-50800J0D01*
G01*
X152800000Y-85560800D01*
G75*
G02*
X152749200Y-85510000I0J50800D01*
G01*
X152749200Y-84010000D01*
G75*
G02*
X152800000Y-83959200I50800J0D01*
G01*
X153000000Y-83959200D01*
G75*
G02*
X153050800Y-84010000I0J-50800D01*
G01*
G37*
G36*
G01*
X149450800Y-81690000D02*
X149450800Y-83190000D01*
G75*
G02*
X149400000Y-83240800I-50800J0D01*
G01*
X149200000Y-83240800D01*
G75*
G02*
X149149200Y-83190000I0J50800D01*
G01*
X149149200Y-81690000D01*
G75*
G02*
X149200000Y-81639200I50800J0D01*
G01*
X149400000Y-81639200D01*
G75*
G02*
X149450800Y-81690000I0J-50800D01*
G01*
G37*
G36*
G01*
X153450800Y-84010000D02*
X153450800Y-85510000D01*
G75*
G02*
X153400000Y-85560800I-50800J0D01*
G01*
X153200000Y-85560800D01*
G75*
G02*
X153149200Y-85510000I0J50800D01*
G01*
X153149200Y-84010000D01*
G75*
G02*
X153200000Y-83959200I50800J0D01*
G01*
X153400000Y-83959200D01*
G75*
G02*
X153450800Y-84010000I0J-50800D01*
G01*
G37*
G36*
G01*
X149850800Y-81690000D02*
X149850800Y-83190000D01*
G75*
G02*
X149800000Y-83240800I-50800J0D01*
G01*
X149600000Y-83240800D01*
G75*
G02*
X149549200Y-83190000I0J50800D01*
G01*
X149549200Y-81690000D01*
G75*
G02*
X149600000Y-81639200I50800J0D01*
G01*
X149800000Y-81639200D01*
G75*
G02*
X149850800Y-81690000I0J-50800D01*
G01*
G37*
G36*
G01*
X153850800Y-84010000D02*
X153850800Y-85510000D01*
G75*
G02*
X153800000Y-85560800I-50800J0D01*
G01*
X153600000Y-85560800D01*
G75*
G02*
X153549200Y-85510000I0J50800D01*
G01*
X153549200Y-84010000D01*
G75*
G02*
X153600000Y-83959200I50800J0D01*
G01*
X153800000Y-83959200D01*
G75*
G02*
X153850800Y-84010000I0J-50800D01*
G01*
G37*
G36*
G01*
X150250800Y-81690000D02*
X150250800Y-83190000D01*
G75*
G02*
X150200000Y-83240800I-50800J0D01*
G01*
X150000000Y-83240800D01*
G75*
G02*
X149949200Y-83190000I0J50800D01*
G01*
X149949200Y-81690000D01*
G75*
G02*
X150000000Y-81639200I50800J0D01*
G01*
X150200000Y-81639200D01*
G75*
G02*
X150250800Y-81690000I0J-50800D01*
G01*
G37*
G36*
G01*
X154250800Y-84010000D02*
X154250800Y-85510000D01*
G75*
G02*
X154200000Y-85560800I-50800J0D01*
G01*
X154000000Y-85560800D01*
G75*
G02*
X153949200Y-85510000I0J50800D01*
G01*
X153949200Y-84010000D01*
G75*
G02*
X154000000Y-83959200I50800J0D01*
G01*
X154200000Y-83959200D01*
G75*
G02*
X154250800Y-84010000I0J-50800D01*
G01*
G37*
G36*
G01*
X150650800Y-81690000D02*
X150650800Y-83190000D01*
G75*
G02*
X150600000Y-83240800I-50800J0D01*
G01*
X150400000Y-83240800D01*
G75*
G02*
X150349200Y-83190000I0J50800D01*
G01*
X150349200Y-81690000D01*
G75*
G02*
X150400000Y-81639200I50800J0D01*
G01*
X150600000Y-81639200D01*
G75*
G02*
X150650800Y-81690000I0J-50800D01*
G01*
G37*
G36*
G01*
X154650800Y-84010000D02*
X154650800Y-85510000D01*
G75*
G02*
X154600000Y-85560800I-50800J0D01*
G01*
X154400000Y-85560800D01*
G75*
G02*
X154349200Y-85510000I0J50800D01*
G01*
X154349200Y-84010000D01*
G75*
G02*
X154400000Y-83959200I50800J0D01*
G01*
X154600000Y-83959200D01*
G75*
G02*
X154650800Y-84010000I0J-50800D01*
G01*
G37*
G36*
G01*
X151050800Y-81690000D02*
X151050800Y-83190000D01*
G75*
G02*
X151000000Y-83240800I-50800J0D01*
G01*
X150800000Y-83240800D01*
G75*
G02*
X150749200Y-83190000I0J50800D01*
G01*
X150749200Y-81690000D01*
G75*
G02*
X150800000Y-81639200I50800J0D01*
G01*
X151000000Y-81639200D01*
G75*
G02*
X151050800Y-81690000I0J-50800D01*
G01*
G37*
G36*
G01*
X155050800Y-84010000D02*
X155050800Y-85510000D01*
G75*
G02*
X155000000Y-85560800I-50800J0D01*
G01*
X154800000Y-85560800D01*
G75*
G02*
X154749200Y-85510000I0J50800D01*
G01*
X154749200Y-84010000D01*
G75*
G02*
X154800000Y-83959200I50800J0D01*
G01*
X155000000Y-83959200D01*
G75*
G02*
X155050800Y-84010000I0J-50800D01*
G01*
G37*
G36*
G01*
X151450800Y-81690000D02*
X151450800Y-83190000D01*
G75*
G02*
X151400000Y-83240800I-50800J0D01*
G01*
X151200000Y-83240800D01*
G75*
G02*
X151149200Y-83190000I0J50800D01*
G01*
X151149200Y-81690000D01*
G75*
G02*
X151200000Y-81639200I50800J0D01*
G01*
X151400000Y-81639200D01*
G75*
G02*
X151450800Y-81690000I0J-50800D01*
G01*
G37*
G36*
G01*
X155450800Y-84010000D02*
X155450800Y-85510000D01*
G75*
G02*
X155400000Y-85560800I-50800J0D01*
G01*
X155200000Y-85560800D01*
G75*
G02*
X155149200Y-85510000I0J50800D01*
G01*
X155149200Y-84010000D01*
G75*
G02*
X155200000Y-83959200I50800J0D01*
G01*
X155400000Y-83959200D01*
G75*
G02*
X155450800Y-84010000I0J-50800D01*
G01*
G37*
G36*
G01*
X151850800Y-81690000D02*
X151850800Y-83190000D01*
G75*
G02*
X151800000Y-83240800I-50800J0D01*
G01*
X151600000Y-83240800D01*
G75*
G02*
X151549200Y-83190000I0J50800D01*
G01*
X151549200Y-81690000D01*
G75*
G02*
X151600000Y-81639200I50800J0D01*
G01*
X151800000Y-81639200D01*
G75*
G02*
X151850800Y-81690000I0J-50800D01*
G01*
G37*
G36*
G01*
X155850800Y-84010000D02*
X155850800Y-85510000D01*
G75*
G02*
X155800000Y-85560800I-50800J0D01*
G01*
X155600000Y-85560800D01*
G75*
G02*
X155549200Y-85510000I0J50800D01*
G01*
X155549200Y-84010000D01*
G75*
G02*
X155600000Y-83959200I50800J0D01*
G01*
X155800000Y-83959200D01*
G75*
G02*
X155850800Y-84010000I0J-50800D01*
G01*
G37*
G36*
G01*
X152250800Y-81690000D02*
X152250800Y-83190000D01*
G75*
G02*
X152200000Y-83240800I-50800J0D01*
G01*
X152000000Y-83240800D01*
G75*
G02*
X151949200Y-83190000I0J50800D01*
G01*
X151949200Y-81690000D01*
G75*
G02*
X152000000Y-81639200I50800J0D01*
G01*
X152200000Y-81639200D01*
G75*
G02*
X152250800Y-81690000I0J-50800D01*
G01*
G37*
G36*
G01*
X156250800Y-84010000D02*
X156250800Y-85510000D01*
G75*
G02*
X156200000Y-85560800I-50800J0D01*
G01*
X156000000Y-85560800D01*
G75*
G02*
X155949200Y-85510000I0J50800D01*
G01*
X155949200Y-84010000D01*
G75*
G02*
X156000000Y-83959200I50800J0D01*
G01*
X156200000Y-83959200D01*
G75*
G02*
X156250800Y-84010000I0J-50800D01*
G01*
G37*
G36*
G01*
X152650800Y-81690000D02*
X152650800Y-83190000D01*
G75*
G02*
X152600000Y-83240800I-50800J0D01*
G01*
X152400000Y-83240800D01*
G75*
G02*
X152349200Y-83190000I0J50800D01*
G01*
X152349200Y-81690000D01*
G75*
G02*
X152400000Y-81639200I50800J0D01*
G01*
X152600000Y-81639200D01*
G75*
G02*
X152650800Y-81690000I0J-50800D01*
G01*
G37*
G36*
G01*
X156650800Y-84010000D02*
X156650800Y-85510000D01*
G75*
G02*
X156600000Y-85560800I-50800J0D01*
G01*
X156400000Y-85560800D01*
G75*
G02*
X156349200Y-85510000I0J50800D01*
G01*
X156349200Y-84010000D01*
G75*
G02*
X156400000Y-83959200I50800J0D01*
G01*
X156600000Y-83959200D01*
G75*
G02*
X156650800Y-84010000I0J-50800D01*
G01*
G37*
G36*
G01*
X153050800Y-81690000D02*
X153050800Y-83190000D01*
G75*
G02*
X153000000Y-83240800I-50800J0D01*
G01*
X152800000Y-83240800D01*
G75*
G02*
X152749200Y-83190000I0J50800D01*
G01*
X152749200Y-81690000D01*
G75*
G02*
X152800000Y-81639200I50800J0D01*
G01*
X153000000Y-81639200D01*
G75*
G02*
X153050800Y-81690000I0J-50800D01*
G01*
G37*
G36*
G01*
X157050800Y-84010000D02*
X157050800Y-85510000D01*
G75*
G02*
X157000000Y-85560800I-50800J0D01*
G01*
X156800000Y-85560800D01*
G75*
G02*
X156749200Y-85510000I0J50800D01*
G01*
X156749200Y-84010000D01*
G75*
G02*
X156800000Y-83959200I50800J0D01*
G01*
X157000000Y-83959200D01*
G75*
G02*
X157050800Y-84010000I0J-50800D01*
G01*
G37*
G36*
G01*
X153450800Y-81690000D02*
X153450800Y-83190000D01*
G75*
G02*
X153400000Y-83240800I-50800J0D01*
G01*
X153200000Y-83240800D01*
G75*
G02*
X153149200Y-83190000I0J50800D01*
G01*
X153149200Y-81690000D01*
G75*
G02*
X153200000Y-81639200I50800J0D01*
G01*
X153400000Y-81639200D01*
G75*
G02*
X153450800Y-81690000I0J-50800D01*
G01*
G37*
G36*
G01*
X157450800Y-84010000D02*
X157450800Y-85510000D01*
G75*
G02*
X157400000Y-85560800I-50800J0D01*
G01*
X157200000Y-85560800D01*
G75*
G02*
X157149200Y-85510000I0J50800D01*
G01*
X157149200Y-84010000D01*
G75*
G02*
X157200000Y-83959200I50800J0D01*
G01*
X157400000Y-83959200D01*
G75*
G02*
X157450800Y-84010000I0J-50800D01*
G01*
G37*
G36*
G01*
X153850800Y-81690000D02*
X153850800Y-83190000D01*
G75*
G02*
X153800000Y-83240800I-50800J0D01*
G01*
X153600000Y-83240800D01*
G75*
G02*
X153549200Y-83190000I0J50800D01*
G01*
X153549200Y-81690000D01*
G75*
G02*
X153600000Y-81639200I50800J0D01*
G01*
X153800000Y-81639200D01*
G75*
G02*
X153850800Y-81690000I0J-50800D01*
G01*
G37*
G36*
G01*
X157850800Y-84010000D02*
X157850800Y-85510000D01*
G75*
G02*
X157800000Y-85560800I-50800J0D01*
G01*
X157600000Y-85560800D01*
G75*
G02*
X157549200Y-85510000I0J50800D01*
G01*
X157549200Y-84010000D01*
G75*
G02*
X157600000Y-83959200I50800J0D01*
G01*
X157800000Y-83959200D01*
G75*
G02*
X157850800Y-84010000I0J-50800D01*
G01*
G37*
G36*
G01*
X154250800Y-81690000D02*
X154250800Y-83190000D01*
G75*
G02*
X154200000Y-83240800I-50800J0D01*
G01*
X154000000Y-83240800D01*
G75*
G02*
X153949200Y-83190000I0J50800D01*
G01*
X153949200Y-81690000D01*
G75*
G02*
X154000000Y-81639200I50800J0D01*
G01*
X154200000Y-81639200D01*
G75*
G02*
X154250800Y-81690000I0J-50800D01*
G01*
G37*
G36*
G01*
X158250800Y-84010000D02*
X158250800Y-85510000D01*
G75*
G02*
X158200000Y-85560800I-50800J0D01*
G01*
X158000000Y-85560800D01*
G75*
G02*
X157949200Y-85510000I0J50800D01*
G01*
X157949200Y-84010000D01*
G75*
G02*
X158000000Y-83959200I50800J0D01*
G01*
X158200000Y-83959200D01*
G75*
G02*
X158250800Y-84010000I0J-50800D01*
G01*
G37*
G36*
G01*
X154650800Y-81690000D02*
X154650800Y-83190000D01*
G75*
G02*
X154600000Y-83240800I-50800J0D01*
G01*
X154400000Y-83240800D01*
G75*
G02*
X154349200Y-83190000I0J50800D01*
G01*
X154349200Y-81690000D01*
G75*
G02*
X154400000Y-81639200I50800J0D01*
G01*
X154600000Y-81639200D01*
G75*
G02*
X154650800Y-81690000I0J-50800D01*
G01*
G37*
G36*
G01*
X146650800Y-84010000D02*
X146650800Y-85510000D01*
G75*
G02*
X146600000Y-85560800I-50800J0D01*
G01*
X146400000Y-85560800D01*
G75*
G02*
X146349200Y-85510000I0J50800D01*
G01*
X146349200Y-84010000D01*
G75*
G02*
X146400000Y-83959200I50800J0D01*
G01*
X146600000Y-83959200D01*
G75*
G02*
X146650800Y-84010000I0J-50800D01*
G01*
G37*
G36*
G01*
X155050800Y-81690000D02*
X155050800Y-83190000D01*
G75*
G02*
X155000000Y-83240800I-50800J0D01*
G01*
X154800000Y-83240800D01*
G75*
G02*
X154749200Y-83190000I0J50800D01*
G01*
X154749200Y-81690000D01*
G75*
G02*
X154800000Y-81639200I50800J0D01*
G01*
X155000000Y-81639200D01*
G75*
G02*
X155050800Y-81690000I0J-50800D01*
G01*
G37*
G36*
G01*
X147050800Y-84010000D02*
X147050800Y-85510000D01*
G75*
G02*
X147000000Y-85560800I-50800J0D01*
G01*
X146800000Y-85560800D01*
G75*
G02*
X146749200Y-85510000I0J50800D01*
G01*
X146749200Y-84010000D01*
G75*
G02*
X146800000Y-83959200I50800J0D01*
G01*
X147000000Y-83959200D01*
G75*
G02*
X147050800Y-84010000I0J-50800D01*
G01*
G37*
G36*
G01*
X155450800Y-81690000D02*
X155450800Y-83190000D01*
G75*
G02*
X155400000Y-83240800I-50800J0D01*
G01*
X155200000Y-83240800D01*
G75*
G02*
X155149200Y-83190000I0J50800D01*
G01*
X155149200Y-81690000D01*
G75*
G02*
X155200000Y-81639200I50800J0D01*
G01*
X155400000Y-81639200D01*
G75*
G02*
X155450800Y-81690000I0J-50800D01*
G01*
G37*
G36*
G01*
X147450800Y-84010000D02*
X147450800Y-85510000D01*
G75*
G02*
X147400000Y-85560800I-50800J0D01*
G01*
X147200000Y-85560800D01*
G75*
G02*
X147149200Y-85510000I0J50800D01*
G01*
X147149200Y-84010000D01*
G75*
G02*
X147200000Y-83959200I50800J0D01*
G01*
X147400000Y-83959200D01*
G75*
G02*
X147450800Y-84010000I0J-50800D01*
G01*
G37*
G36*
G01*
X155850800Y-81690000D02*
X155850800Y-83190000D01*
G75*
G02*
X155800000Y-83240800I-50800J0D01*
G01*
X155600000Y-83240800D01*
G75*
G02*
X155549200Y-83190000I0J50800D01*
G01*
X155549200Y-81690000D01*
G75*
G02*
X155600000Y-81639200I50800J0D01*
G01*
X155800000Y-81639200D01*
G75*
G02*
X155850800Y-81690000I0J-50800D01*
G01*
G37*
G36*
G01*
X147850800Y-84010000D02*
X147850800Y-85510000D01*
G75*
G02*
X147800000Y-85560800I-50800J0D01*
G01*
X147600000Y-85560800D01*
G75*
G02*
X147549200Y-85510000I0J50800D01*
G01*
X147549200Y-84010000D01*
G75*
G02*
X147600000Y-83959200I50800J0D01*
G01*
X147800000Y-83959200D01*
G75*
G02*
X147850800Y-84010000I0J-50800D01*
G01*
G37*
G36*
G01*
X156250800Y-81690000D02*
X156250800Y-83190000D01*
G75*
G02*
X156200000Y-83240800I-50800J0D01*
G01*
X156000000Y-83240800D01*
G75*
G02*
X155949200Y-83190000I0J50800D01*
G01*
X155949200Y-81690000D01*
G75*
G02*
X156000000Y-81639200I50800J0D01*
G01*
X156200000Y-81639200D01*
G75*
G02*
X156250800Y-81690000I0J-50800D01*
G01*
G37*
G36*
G01*
X148250800Y-84010000D02*
X148250800Y-85510000D01*
G75*
G02*
X148200000Y-85560800I-50800J0D01*
G01*
X148000000Y-85560800D01*
G75*
G02*
X147949200Y-85510000I0J50800D01*
G01*
X147949200Y-84010000D01*
G75*
G02*
X148000000Y-83959200I50800J0D01*
G01*
X148200000Y-83959200D01*
G75*
G02*
X148250800Y-84010000I0J-50800D01*
G01*
G37*
G36*
G01*
X156650800Y-81690000D02*
X156650800Y-83190000D01*
G75*
G02*
X156600000Y-83240800I-50800J0D01*
G01*
X156400000Y-83240800D01*
G75*
G02*
X156349200Y-83190000I0J50800D01*
G01*
X156349200Y-81690000D01*
G75*
G02*
X156400000Y-81639200I50800J0D01*
G01*
X156600000Y-81639200D01*
G75*
G02*
X156650800Y-81690000I0J-50800D01*
G01*
G37*
G36*
G01*
X157050800Y-81690000D02*
X157050800Y-83190000D01*
G75*
G02*
X157000000Y-83240800I-50800J0D01*
G01*
X156800000Y-83240800D01*
G75*
G02*
X156749200Y-83190000I0J50800D01*
G01*
X156749200Y-81690000D01*
G75*
G02*
X156800000Y-81639200I50800J0D01*
G01*
X157000000Y-81639200D01*
G75*
G02*
X157050800Y-81690000I0J-50800D01*
G01*
G37*
G36*
G01*
X157450800Y-81690000D02*
X157450800Y-83190000D01*
G75*
G02*
X157400000Y-83240800I-50800J0D01*
G01*
X157200000Y-83240800D01*
G75*
G02*
X157149200Y-83190000I0J50800D01*
G01*
X157149200Y-81690000D01*
G75*
G02*
X157200000Y-81639200I50800J0D01*
G01*
X157400000Y-81639200D01*
G75*
G02*
X157450800Y-81690000I0J-50800D01*
G01*
G37*
G36*
G01*
X157850800Y-81690000D02*
X157850800Y-83190000D01*
G75*
G02*
X157800000Y-83240800I-50800J0D01*
G01*
X157600000Y-83240800D01*
G75*
G02*
X157549200Y-83190000I0J50800D01*
G01*
X157549200Y-81690000D01*
G75*
G02*
X157600000Y-81639200I50800J0D01*
G01*
X157800000Y-81639200D01*
G75*
G02*
X157850800Y-81690000I0J-50800D01*
G01*
G37*
G36*
G01*
X158250800Y-81690000D02*
X158250800Y-83190000D01*
G75*
G02*
X158200000Y-83240800I-50800J0D01*
G01*
X158000000Y-83240800D01*
G75*
G02*
X157949200Y-83190000I0J50800D01*
G01*
X157949200Y-81690000D01*
G75*
G02*
X158000000Y-81639200I50800J0D01*
G01*
X158200000Y-81639200D01*
G75*
G02*
X158250800Y-81690000I0J-50800D01*
G01*
G37*
G36*
G01*
X169530001Y-84830800D02*
X168069999Y-84830800D01*
G75*
G02*
X168019200Y-84780001I0J50799D01*
G01*
X168019200Y-83419999D01*
G75*
G02*
X168069999Y-83369200I50799J0D01*
G01*
X169530001Y-83369200D01*
G75*
G02*
X169580800Y-83419999I0J-50799D01*
G01*
X169580800Y-84780001D01*
G75*
G02*
X169530001Y-84830800I-50799J0D01*
G01*
G37*
G36*
G01*
X169700000Y-83025800D02*
X169400000Y-83025800D01*
G75*
G02*
X169349200Y-82975000I0J50800D01*
G01*
X169349200Y-82225000D01*
G75*
G02*
X169400000Y-82174200I50800J0D01*
G01*
X169700000Y-82174200D01*
G75*
G02*
X169750800Y-82225000I0J-50800D01*
G01*
X169750800Y-82975000D01*
G75*
G02*
X169700000Y-83025800I-50800J0D01*
G01*
G37*
G36*
G01*
X169200000Y-83025800D02*
X168900000Y-83025800D01*
G75*
G02*
X168849200Y-82975000I0J50800D01*
G01*
X168849200Y-82225000D01*
G75*
G02*
X168900000Y-82174200I50800J0D01*
G01*
X169200000Y-82174200D01*
G75*
G02*
X169250800Y-82225000I0J-50800D01*
G01*
X169250800Y-82975000D01*
G75*
G02*
X169200000Y-83025800I-50800J0D01*
G01*
G37*
G36*
G01*
X168700000Y-83025800D02*
X168400000Y-83025800D01*
G75*
G02*
X168349200Y-82975000I0J50800D01*
G01*
X168349200Y-82225000D01*
G75*
G02*
X168400000Y-82174200I50800J0D01*
G01*
X168700000Y-82174200D01*
G75*
G02*
X168750800Y-82225000I0J-50800D01*
G01*
X168750800Y-82975000D01*
G75*
G02*
X168700000Y-83025800I-50800J0D01*
G01*
G37*
G36*
G01*
X168200000Y-83025800D02*
X167900000Y-83025800D01*
G75*
G02*
X167849200Y-82975000I0J50800D01*
G01*
X167849200Y-82225000D01*
G75*
G02*
X167900000Y-82174200I50800J0D01*
G01*
X168200000Y-82174200D01*
G75*
G02*
X168250800Y-82225000I0J-50800D01*
G01*
X168250800Y-82975000D01*
G75*
G02*
X168200000Y-83025800I-50800J0D01*
G01*
G37*
G36*
G01*
X168200000Y-86025800D02*
X167900000Y-86025800D01*
G75*
G02*
X167849200Y-85975000I0J50800D01*
G01*
X167849200Y-85225000D01*
G75*
G02*
X167900000Y-85174200I50800J0D01*
G01*
X168200000Y-85174200D01*
G75*
G02*
X168250800Y-85225000I0J-50800D01*
G01*
X168250800Y-85975000D01*
G75*
G02*
X168200000Y-86025800I-50800J0D01*
G01*
G37*
G36*
G01*
X168700000Y-86025800D02*
X168400000Y-86025800D01*
G75*
G02*
X168349200Y-85975000I0J50800D01*
G01*
X168349200Y-85225000D01*
G75*
G02*
X168400000Y-85174200I50800J0D01*
G01*
X168700000Y-85174200D01*
G75*
G02*
X168750800Y-85225000I0J-50800D01*
G01*
X168750800Y-85975000D01*
G75*
G02*
X168700000Y-86025800I-50800J0D01*
G01*
G37*
G36*
G01*
X169200000Y-86025800D02*
X168900000Y-86025800D01*
G75*
G02*
X168849200Y-85975000I0J50800D01*
G01*
X168849200Y-85225000D01*
G75*
G02*
X168900000Y-85174200I50800J0D01*
G01*
X169200000Y-85174200D01*
G75*
G02*
X169250800Y-85225000I0J-50800D01*
G01*
X169250800Y-85975000D01*
G75*
G02*
X169200000Y-86025800I-50800J0D01*
G01*
G37*
G36*
G01*
X169700000Y-86025800D02*
X169400000Y-86025800D01*
G75*
G02*
X169349200Y-85975000I0J50800D01*
G01*
X169349200Y-85225000D01*
G75*
G02*
X169400000Y-85174200I50800J0D01*
G01*
X169700000Y-85174200D01*
G75*
G02*
X169750800Y-85225000I0J-50800D01*
G01*
X169750800Y-85975000D01*
G75*
G02*
X169700000Y-86025800I-50800J0D01*
G01*
G37*
D18*
G36*
X157950932Y-109958200D02*
G01*
X157951200Y-109959200D01*
X157951200Y-111560800D01*
X157950200Y-111562532D01*
X157949200Y-111562800D01*
X157850800Y-111562800D01*
X157849068Y-111561800D01*
X157848800Y-111560800D01*
X157848800Y-109961200D01*
X157551200Y-109961200D01*
X157551200Y-111560800D01*
X157550200Y-111562532D01*
X157549200Y-111562800D01*
X157450800Y-111562800D01*
X157449068Y-111561800D01*
X157448800Y-111560800D01*
X157448800Y-109961200D01*
X157151200Y-109961200D01*
X157151200Y-111560800D01*
X157150200Y-111562532D01*
X157149200Y-111562800D01*
X157050800Y-111562800D01*
X157049068Y-111561800D01*
X157048800Y-111560800D01*
X157048800Y-109961200D01*
X156751200Y-109961200D01*
X156751200Y-111560800D01*
X156750200Y-111562532D01*
X156749200Y-111562800D01*
X156650800Y-111562800D01*
X156649068Y-111561800D01*
X156648800Y-111560800D01*
X156648800Y-109961200D01*
X156351200Y-109961200D01*
X156351200Y-111560800D01*
X156350200Y-111562532D01*
X156349200Y-111562800D01*
X156250800Y-111562800D01*
X156249068Y-111561800D01*
X156248800Y-111560800D01*
X156248800Y-109961200D01*
X155951200Y-109961200D01*
X155951200Y-111560800D01*
X155950200Y-111562532D01*
X155949200Y-111562800D01*
X155850800Y-111562800D01*
X155849068Y-111561800D01*
X155848800Y-111560800D01*
X155848800Y-109961200D01*
X155551200Y-109961200D01*
X155551200Y-111560800D01*
X155550200Y-111562532D01*
X155549200Y-111562800D01*
X155450800Y-111562800D01*
X155449068Y-111561800D01*
X155448800Y-111560800D01*
X155448800Y-109961200D01*
X155151200Y-109961200D01*
X155151200Y-111560800D01*
X155150200Y-111562532D01*
X155149200Y-111562800D01*
X155050800Y-111562800D01*
X155049068Y-111561800D01*
X155048800Y-111560800D01*
X155048800Y-109961200D01*
X154751200Y-109961200D01*
X154751200Y-111560800D01*
X154750200Y-111562532D01*
X154749200Y-111562800D01*
X154650800Y-111562800D01*
X154649068Y-111561800D01*
X154648800Y-111560800D01*
X154648800Y-109961200D01*
X154351200Y-109961200D01*
X154351200Y-111560800D01*
X154350200Y-111562532D01*
X154349200Y-111562800D01*
X154250800Y-111562800D01*
X154249068Y-111561800D01*
X154248800Y-111560800D01*
X154248800Y-109961200D01*
X153951200Y-109961200D01*
X153951200Y-111560800D01*
X153950200Y-111562532D01*
X153949200Y-111562800D01*
X153850800Y-111562800D01*
X153849068Y-111561800D01*
X153848800Y-111560800D01*
X153848800Y-109961200D01*
X153551200Y-109961200D01*
X153551200Y-111560800D01*
X153550200Y-111562532D01*
X153549200Y-111562800D01*
X153450800Y-111562800D01*
X153449068Y-111561800D01*
X153448800Y-111560800D01*
X153448800Y-109961200D01*
X153151200Y-109961200D01*
X153151200Y-111560800D01*
X153150200Y-111562532D01*
X153149200Y-111562800D01*
X153050800Y-111562800D01*
X153049068Y-111561800D01*
X153048800Y-111560800D01*
X153048800Y-109961200D01*
X152751200Y-109961200D01*
X152751200Y-111560800D01*
X152750200Y-111562532D01*
X152749200Y-111562800D01*
X152650800Y-111562800D01*
X152649068Y-111561800D01*
X152648800Y-111560800D01*
X152648800Y-109961200D01*
X152351200Y-109961200D01*
X152351200Y-111560800D01*
X152350200Y-111562532D01*
X152349200Y-111562800D01*
X152250800Y-111562800D01*
X152249068Y-111561800D01*
X152248800Y-111560800D01*
X152248800Y-109961200D01*
X151951200Y-109961200D01*
X151951200Y-111560800D01*
X151950200Y-111562532D01*
X151949200Y-111562800D01*
X151850800Y-111562800D01*
X151849068Y-111561800D01*
X151848800Y-111560800D01*
X151848800Y-109961200D01*
X151551200Y-109961200D01*
X151551200Y-111560800D01*
X151550200Y-111562532D01*
X151549200Y-111562800D01*
X151450800Y-111562800D01*
X151449068Y-111561800D01*
X151448800Y-111560800D01*
X151448800Y-109961200D01*
X151151200Y-109961200D01*
X151151200Y-111560800D01*
X151150200Y-111562532D01*
X151149200Y-111562800D01*
X151050800Y-111562800D01*
X151049068Y-111561800D01*
X151048800Y-111560800D01*
X151048800Y-109961200D01*
X150751200Y-109961200D01*
X150751200Y-111560800D01*
X150750200Y-111562532D01*
X150749200Y-111562800D01*
X150650800Y-111562800D01*
X150649068Y-111561800D01*
X150648800Y-111560800D01*
X150648800Y-109961200D01*
X150351200Y-109961200D01*
X150351200Y-111560800D01*
X150350200Y-111562532D01*
X150349200Y-111562800D01*
X150250800Y-111562800D01*
X150249068Y-111561800D01*
X150248800Y-111560800D01*
X150248800Y-109961200D01*
X149951200Y-109961200D01*
X149951200Y-111560800D01*
X149950200Y-111562532D01*
X149949200Y-111562800D01*
X149850800Y-111562800D01*
X149849068Y-111561800D01*
X149848800Y-111560800D01*
X149848800Y-109961200D01*
X149551200Y-109961200D01*
X149551200Y-111560800D01*
X149550200Y-111562532D01*
X149549200Y-111562800D01*
X149450800Y-111562800D01*
X149449068Y-111561800D01*
X149448800Y-111560800D01*
X149448800Y-109961200D01*
X149151200Y-109961200D01*
X149151200Y-111560800D01*
X149150200Y-111562532D01*
X149149200Y-111562800D01*
X149050800Y-111562800D01*
X149049068Y-111561800D01*
X149048800Y-111560800D01*
X149048800Y-109961200D01*
X148751200Y-109961200D01*
X148751200Y-111560800D01*
X148750200Y-111562532D01*
X148749200Y-111562800D01*
X148650800Y-111562800D01*
X148649068Y-111561800D01*
X148648800Y-111560800D01*
X148648800Y-109961200D01*
X148351200Y-109961200D01*
X148351200Y-111560800D01*
X148350200Y-111562532D01*
X148349200Y-111562800D01*
X148250800Y-111562800D01*
X148249068Y-111561800D01*
X148248800Y-111560800D01*
X148248800Y-109961200D01*
X147951200Y-109961200D01*
X147951200Y-111560800D01*
X147950200Y-111562532D01*
X147949200Y-111562800D01*
X147850800Y-111562800D01*
X147849068Y-111561800D01*
X147848800Y-111560800D01*
X147848800Y-109961200D01*
X147551200Y-109961200D01*
X147551200Y-111560800D01*
X147550200Y-111562532D01*
X147549200Y-111562800D01*
X147450800Y-111562800D01*
X147449068Y-111561800D01*
X147448800Y-111560800D01*
X147448800Y-109961200D01*
X147151200Y-109961200D01*
X147151200Y-111560800D01*
X147150200Y-111562532D01*
X147149200Y-111562800D01*
X147050800Y-111562800D01*
X147049068Y-111561800D01*
X147048800Y-111560800D01*
X147048800Y-109961200D01*
X146751200Y-109961200D01*
X146751200Y-111560800D01*
X146750200Y-111562532D01*
X146749200Y-111562800D01*
X146650800Y-111562800D01*
X146649068Y-111561800D01*
X146648800Y-111560800D01*
X146648800Y-109959200D01*
X146649800Y-109957468D01*
X146650800Y-109957200D01*
X157949200Y-109957200D01*
X157950932Y-109958200D01*
G37*
G36*
X157950932Y-107638200D02*
G01*
X157951200Y-107639200D01*
X157951200Y-109240800D01*
X157950200Y-109242532D01*
X157949200Y-109242800D01*
X157850800Y-109242800D01*
X157849068Y-109241800D01*
X157848800Y-109240800D01*
X157848800Y-107641200D01*
X157551200Y-107641200D01*
X157551200Y-109240800D01*
X157550200Y-109242532D01*
X157549200Y-109242800D01*
X157450800Y-109242800D01*
X157449068Y-109241800D01*
X157448800Y-109240800D01*
X157448800Y-107641200D01*
X157151200Y-107641200D01*
X157151200Y-109240800D01*
X157150200Y-109242532D01*
X157149200Y-109242800D01*
X157050800Y-109242800D01*
X157049068Y-109241800D01*
X157048800Y-109240800D01*
X157048800Y-107641200D01*
X156751200Y-107641200D01*
X156751200Y-109240800D01*
X156750200Y-109242532D01*
X156749200Y-109242800D01*
X156650800Y-109242800D01*
X156649068Y-109241800D01*
X156648800Y-109240800D01*
X156648800Y-107641200D01*
X156351200Y-107641200D01*
X156351200Y-109240800D01*
X156350200Y-109242532D01*
X156349200Y-109242800D01*
X156250800Y-109242800D01*
X156249068Y-109241800D01*
X156248800Y-109240800D01*
X156248800Y-107641200D01*
X155951200Y-107641200D01*
X155951200Y-109240800D01*
X155950200Y-109242532D01*
X155949200Y-109242800D01*
X155850800Y-109242800D01*
X155849068Y-109241800D01*
X155848800Y-109240800D01*
X155848800Y-107641200D01*
X155551200Y-107641200D01*
X155551200Y-109240800D01*
X155550200Y-109242532D01*
X155549200Y-109242800D01*
X155450800Y-109242800D01*
X155449068Y-109241800D01*
X155448800Y-109240800D01*
X155448800Y-107641200D01*
X155151200Y-107641200D01*
X155151200Y-109240800D01*
X155150200Y-109242532D01*
X155149200Y-109242800D01*
X155050800Y-109242800D01*
X155049068Y-109241800D01*
X155048800Y-109240800D01*
X155048800Y-107641200D01*
X154751200Y-107641200D01*
X154751200Y-109240800D01*
X154750200Y-109242532D01*
X154749200Y-109242800D01*
X154650800Y-109242800D01*
X154649068Y-109241800D01*
X154648800Y-109240800D01*
X154648800Y-107641200D01*
X154351200Y-107641200D01*
X154351200Y-109240800D01*
X154350200Y-109242532D01*
X154349200Y-109242800D01*
X154250800Y-109242800D01*
X154249068Y-109241800D01*
X154248800Y-109240800D01*
X154248800Y-107641200D01*
X153951200Y-107641200D01*
X153951200Y-109240800D01*
X153950200Y-109242532D01*
X153949200Y-109242800D01*
X153850800Y-109242800D01*
X153849068Y-109241800D01*
X153848800Y-109240800D01*
X153848800Y-107641200D01*
X153551200Y-107641200D01*
X153551200Y-109240800D01*
X153550200Y-109242532D01*
X153549200Y-109242800D01*
X153450800Y-109242800D01*
X153449068Y-109241800D01*
X153448800Y-109240800D01*
X153448800Y-107641200D01*
X153151200Y-107641200D01*
X153151200Y-109240800D01*
X153150200Y-109242532D01*
X153149200Y-109242800D01*
X153050800Y-109242800D01*
X153049068Y-109241800D01*
X153048800Y-109240800D01*
X153048800Y-107641200D01*
X152751200Y-107641200D01*
X152751200Y-109240800D01*
X152750200Y-109242532D01*
X152749200Y-109242800D01*
X152650800Y-109242800D01*
X152649068Y-109241800D01*
X152648800Y-109240800D01*
X152648800Y-107641200D01*
X152351200Y-107641200D01*
X152351200Y-109240800D01*
X152350200Y-109242532D01*
X152349200Y-109242800D01*
X152250800Y-109242800D01*
X152249068Y-109241800D01*
X152248800Y-109240800D01*
X152248800Y-107641200D01*
X151951200Y-107641200D01*
X151951200Y-109240800D01*
X151950200Y-109242532D01*
X151949200Y-109242800D01*
X151850800Y-109242800D01*
X151849068Y-109241800D01*
X151848800Y-109240800D01*
X151848800Y-107641200D01*
X151551200Y-107641200D01*
X151551200Y-109240800D01*
X151550200Y-109242532D01*
X151549200Y-109242800D01*
X151450800Y-109242800D01*
X151449068Y-109241800D01*
X151448800Y-109240800D01*
X151448800Y-107641200D01*
X151151200Y-107641200D01*
X151151200Y-109240800D01*
X151150200Y-109242532D01*
X151149200Y-109242800D01*
X151050800Y-109242800D01*
X151049068Y-109241800D01*
X151048800Y-109240800D01*
X151048800Y-107641200D01*
X150751200Y-107641200D01*
X150751200Y-109240800D01*
X150750200Y-109242532D01*
X150749200Y-109242800D01*
X150650800Y-109242800D01*
X150649068Y-109241800D01*
X150648800Y-109240800D01*
X150648800Y-107641200D01*
X150351200Y-107641200D01*
X150351200Y-109240800D01*
X150350200Y-109242532D01*
X150349200Y-109242800D01*
X150250800Y-109242800D01*
X150249068Y-109241800D01*
X150248800Y-109240800D01*
X150248800Y-107641200D01*
X149951200Y-107641200D01*
X149951200Y-109240800D01*
X149950200Y-109242532D01*
X149949200Y-109242800D01*
X149850800Y-109242800D01*
X149849068Y-109241800D01*
X149848800Y-109240800D01*
X149848800Y-107641200D01*
X149551200Y-107641200D01*
X149551200Y-109240800D01*
X149550200Y-109242532D01*
X149549200Y-109242800D01*
X149450800Y-109242800D01*
X149449068Y-109241800D01*
X149448800Y-109240800D01*
X149448800Y-107641200D01*
X149151200Y-107641200D01*
X149151200Y-109240800D01*
X149150200Y-109242532D01*
X149149200Y-109242800D01*
X149050800Y-109242800D01*
X149049068Y-109241800D01*
X149048800Y-109240800D01*
X149048800Y-107641200D01*
X148751200Y-107641200D01*
X148751200Y-109240800D01*
X148750200Y-109242532D01*
X148749200Y-109242800D01*
X148650800Y-109242800D01*
X148649068Y-109241800D01*
X148648800Y-109240800D01*
X148648800Y-107641200D01*
X148351200Y-107641200D01*
X148351200Y-109240800D01*
X148350200Y-109242532D01*
X148349200Y-109242800D01*
X148250800Y-109242800D01*
X148249068Y-109241800D01*
X148248800Y-109240800D01*
X148248800Y-107641200D01*
X147951200Y-107641200D01*
X147951200Y-109240800D01*
X147950200Y-109242532D01*
X147949200Y-109242800D01*
X147850800Y-109242800D01*
X147849068Y-109241800D01*
X147848800Y-109240800D01*
X147848800Y-107641200D01*
X147551200Y-107641200D01*
X147551200Y-109240800D01*
X147550200Y-109242532D01*
X147549200Y-109242800D01*
X147450800Y-109242800D01*
X147449068Y-109241800D01*
X147448800Y-109240800D01*
X147448800Y-107641200D01*
X147151200Y-107641200D01*
X147151200Y-109240800D01*
X147150200Y-109242532D01*
X147149200Y-109242800D01*
X147050800Y-109242800D01*
X147049068Y-109241800D01*
X147048800Y-109240800D01*
X147048800Y-107641200D01*
X146751200Y-107641200D01*
X146751200Y-109240800D01*
X146750200Y-109242532D01*
X146749200Y-109242800D01*
X146650800Y-109242800D01*
X146649068Y-109241800D01*
X146648800Y-109240800D01*
X146648800Y-107639200D01*
X146649800Y-107637468D01*
X146650800Y-107637200D01*
X157949200Y-107637200D01*
X157950932Y-107638200D01*
G37*
G36*
X169350932Y-85173200D02*
G01*
X169351200Y-85174200D01*
X169351200Y-86025800D01*
X169350200Y-86027532D01*
X169349200Y-86027800D01*
X169250800Y-86027800D01*
X169249068Y-86026800D01*
X169248800Y-86025800D01*
X169248800Y-85176200D01*
X168851200Y-85176200D01*
X168851200Y-86025800D01*
X168850200Y-86027532D01*
X168849200Y-86027800D01*
X168750800Y-86027800D01*
X168749068Y-86026800D01*
X168748800Y-86025800D01*
X168748800Y-85176200D01*
X168351200Y-85176200D01*
X168351200Y-86025800D01*
X168350200Y-86027532D01*
X168349200Y-86027800D01*
X168250800Y-86027800D01*
X168249068Y-86026800D01*
X168248800Y-86025800D01*
X168248800Y-85174200D01*
X168249800Y-85172468D01*
X168250800Y-85172200D01*
X169349200Y-85172200D01*
X169350932Y-85173200D01*
G37*
G36*
X157950932Y-83958200D02*
G01*
X157951200Y-83959200D01*
X157951200Y-85560800D01*
X157950200Y-85562532D01*
X157949200Y-85562800D01*
X157850800Y-85562800D01*
X157849068Y-85561800D01*
X157848800Y-85560800D01*
X157848800Y-83961200D01*
X157551200Y-83961200D01*
X157551200Y-85560800D01*
X157550200Y-85562532D01*
X157549200Y-85562800D01*
X157450800Y-85562800D01*
X157449068Y-85561800D01*
X157448800Y-85560800D01*
X157448800Y-83961200D01*
X157151200Y-83961200D01*
X157151200Y-85560800D01*
X157150200Y-85562532D01*
X157149200Y-85562800D01*
X157050800Y-85562800D01*
X157049068Y-85561800D01*
X157048800Y-85560800D01*
X157048800Y-83961200D01*
X156751200Y-83961200D01*
X156751200Y-85560800D01*
X156750200Y-85562532D01*
X156749200Y-85562800D01*
X156650800Y-85562800D01*
X156649068Y-85561800D01*
X156648800Y-85560800D01*
X156648800Y-83961200D01*
X156351200Y-83961200D01*
X156351200Y-85560800D01*
X156350200Y-85562532D01*
X156349200Y-85562800D01*
X156250800Y-85562800D01*
X156249068Y-85561800D01*
X156248800Y-85560800D01*
X156248800Y-83961200D01*
X155951200Y-83961200D01*
X155951200Y-85560800D01*
X155950200Y-85562532D01*
X155949200Y-85562800D01*
X155850800Y-85562800D01*
X155849068Y-85561800D01*
X155848800Y-85560800D01*
X155848800Y-83961200D01*
X155551200Y-83961200D01*
X155551200Y-85560800D01*
X155550200Y-85562532D01*
X155549200Y-85562800D01*
X155450800Y-85562800D01*
X155449068Y-85561800D01*
X155448800Y-85560800D01*
X155448800Y-83961200D01*
X155151200Y-83961200D01*
X155151200Y-85560800D01*
X155150200Y-85562532D01*
X155149200Y-85562800D01*
X155050800Y-85562800D01*
X155049068Y-85561800D01*
X155048800Y-85560800D01*
X155048800Y-83961200D01*
X154751200Y-83961200D01*
X154751200Y-85560800D01*
X154750200Y-85562532D01*
X154749200Y-85562800D01*
X154650800Y-85562800D01*
X154649068Y-85561800D01*
X154648800Y-85560800D01*
X154648800Y-83961200D01*
X154351200Y-83961200D01*
X154351200Y-85560800D01*
X154350200Y-85562532D01*
X154349200Y-85562800D01*
X154250800Y-85562800D01*
X154249068Y-85561800D01*
X154248800Y-85560800D01*
X154248800Y-83961200D01*
X153951200Y-83961200D01*
X153951200Y-85560800D01*
X153950200Y-85562532D01*
X153949200Y-85562800D01*
X153850800Y-85562800D01*
X153849068Y-85561800D01*
X153848800Y-85560800D01*
X153848800Y-83961200D01*
X153551200Y-83961200D01*
X153551200Y-85560800D01*
X153550200Y-85562532D01*
X153549200Y-85562800D01*
X153450800Y-85562800D01*
X153449068Y-85561800D01*
X153448800Y-85560800D01*
X153448800Y-83961200D01*
X153151200Y-83961200D01*
X153151200Y-85560800D01*
X153150200Y-85562532D01*
X153149200Y-85562800D01*
X153050800Y-85562800D01*
X153049068Y-85561800D01*
X153048800Y-85560800D01*
X153048800Y-83961200D01*
X152751200Y-83961200D01*
X152751200Y-85560800D01*
X152750200Y-85562532D01*
X152749200Y-85562800D01*
X152650800Y-85562800D01*
X152649068Y-85561800D01*
X152648800Y-85560800D01*
X152648800Y-83961200D01*
X152351200Y-83961200D01*
X152351200Y-85560800D01*
X152350200Y-85562532D01*
X152349200Y-85562800D01*
X152250800Y-85562800D01*
X152249068Y-85561800D01*
X152248800Y-85560800D01*
X152248800Y-83961200D01*
X151951200Y-83961200D01*
X151951200Y-85560800D01*
X151950200Y-85562532D01*
X151949200Y-85562800D01*
X151850800Y-85562800D01*
X151849068Y-85561800D01*
X151848800Y-85560800D01*
X151848800Y-83961200D01*
X151551200Y-83961200D01*
X151551200Y-85560800D01*
X151550200Y-85562532D01*
X151549200Y-85562800D01*
X151450800Y-85562800D01*
X151449068Y-85561800D01*
X151448800Y-85560800D01*
X151448800Y-83961200D01*
X151151200Y-83961200D01*
X151151200Y-85560800D01*
X151150200Y-85562532D01*
X151149200Y-85562800D01*
X151050800Y-85562800D01*
X151049068Y-85561800D01*
X151048800Y-85560800D01*
X151048800Y-83961200D01*
X150751200Y-83961200D01*
X150751200Y-85560800D01*
X150750200Y-85562532D01*
X150749200Y-85562800D01*
X150650800Y-85562800D01*
X150649068Y-85561800D01*
X150648800Y-85560800D01*
X150648800Y-83961200D01*
X150351200Y-83961200D01*
X150351200Y-85560800D01*
X150350200Y-85562532D01*
X150349200Y-85562800D01*
X150250800Y-85562800D01*
X150249068Y-85561800D01*
X150248800Y-85560800D01*
X150248800Y-83961200D01*
X149951200Y-83961200D01*
X149951200Y-85560800D01*
X149950200Y-85562532D01*
X149949200Y-85562800D01*
X149850800Y-85562800D01*
X149849068Y-85561800D01*
X149848800Y-85560800D01*
X149848800Y-83961200D01*
X149551200Y-83961200D01*
X149551200Y-85560800D01*
X149550200Y-85562532D01*
X149549200Y-85562800D01*
X149450800Y-85562800D01*
X149449068Y-85561800D01*
X149448800Y-85560800D01*
X149448800Y-83961200D01*
X149151200Y-83961200D01*
X149151200Y-85560800D01*
X149150200Y-85562532D01*
X149149200Y-85562800D01*
X149050800Y-85562800D01*
X149049068Y-85561800D01*
X149048800Y-85560800D01*
X149048800Y-83961200D01*
X148751200Y-83961200D01*
X148751200Y-85560800D01*
X148750200Y-85562532D01*
X148749200Y-85562800D01*
X148650800Y-85562800D01*
X148649068Y-85561800D01*
X148648800Y-85560800D01*
X148648800Y-83961200D01*
X148351200Y-83961200D01*
X148351200Y-85560800D01*
X148350200Y-85562532D01*
X148349200Y-85562800D01*
X148250800Y-85562800D01*
X148249068Y-85561800D01*
X148248800Y-85560800D01*
X148248800Y-83961200D01*
X147951200Y-83961200D01*
X147951200Y-85560800D01*
X147950200Y-85562532D01*
X147949200Y-85562800D01*
X147850800Y-85562800D01*
X147849068Y-85561800D01*
X147848800Y-85560800D01*
X147848800Y-83961200D01*
X147551200Y-83961200D01*
X147551200Y-85560800D01*
X147550200Y-85562532D01*
X147549200Y-85562800D01*
X147450800Y-85562800D01*
X147449068Y-85561800D01*
X147448800Y-85560800D01*
X147448800Y-83961200D01*
X147151200Y-83961200D01*
X147151200Y-85560800D01*
X147150200Y-85562532D01*
X147149200Y-85562800D01*
X147050800Y-85562800D01*
X147049068Y-85561800D01*
X147048800Y-85560800D01*
X147048800Y-83961200D01*
X146751200Y-83961200D01*
X146751200Y-85560800D01*
X146750200Y-85562532D01*
X146749200Y-85562800D01*
X146650800Y-85562800D01*
X146649068Y-85561800D01*
X146648800Y-85560800D01*
X146648800Y-83959200D01*
X146649800Y-83957468D01*
X146650800Y-83957200D01*
X157949200Y-83957200D01*
X157950932Y-83958200D01*
G37*
G36*
X157950932Y-81638200D02*
G01*
X157951200Y-81639200D01*
X157951200Y-83240800D01*
X157950200Y-83242532D01*
X157949200Y-83242800D01*
X157850800Y-83242800D01*
X157849068Y-83241800D01*
X157848800Y-83240800D01*
X157848800Y-81641200D01*
X157551200Y-81641200D01*
X157551200Y-83240800D01*
X157550200Y-83242532D01*
X157549200Y-83242800D01*
X157450800Y-83242800D01*
X157449068Y-83241800D01*
X157448800Y-83240800D01*
X157448800Y-81641200D01*
X157151200Y-81641200D01*
X157151200Y-83240800D01*
X157150200Y-83242532D01*
X157149200Y-83242800D01*
X157050800Y-83242800D01*
X157049068Y-83241800D01*
X157048800Y-83240800D01*
X157048800Y-81641200D01*
X156751200Y-81641200D01*
X156751200Y-83240800D01*
X156750200Y-83242532D01*
X156749200Y-83242800D01*
X156650800Y-83242800D01*
X156649068Y-83241800D01*
X156648800Y-83240800D01*
X156648800Y-81641200D01*
X156351200Y-81641200D01*
X156351200Y-83240800D01*
X156350200Y-83242532D01*
X156349200Y-83242800D01*
X156250800Y-83242800D01*
X156249068Y-83241800D01*
X156248800Y-83240800D01*
X156248800Y-81641200D01*
X155951200Y-81641200D01*
X155951200Y-83240800D01*
X155950200Y-83242532D01*
X155949200Y-83242800D01*
X155850800Y-83242800D01*
X155849068Y-83241800D01*
X155848800Y-83240800D01*
X155848800Y-81641200D01*
X155551200Y-81641200D01*
X155551200Y-83240800D01*
X155550200Y-83242532D01*
X155549200Y-83242800D01*
X155450800Y-83242800D01*
X155449068Y-83241800D01*
X155448800Y-83240800D01*
X155448800Y-81641200D01*
X155151200Y-81641200D01*
X155151200Y-83240800D01*
X155150200Y-83242532D01*
X155149200Y-83242800D01*
X155050800Y-83242800D01*
X155049068Y-83241800D01*
X155048800Y-83240800D01*
X155048800Y-81641200D01*
X154751200Y-81641200D01*
X154751200Y-83240800D01*
X154750200Y-83242532D01*
X154749200Y-83242800D01*
X154650800Y-83242800D01*
X154649068Y-83241800D01*
X154648800Y-83240800D01*
X154648800Y-81641200D01*
X154351200Y-81641200D01*
X154351200Y-83240800D01*
X154350200Y-83242532D01*
X154349200Y-83242800D01*
X154250800Y-83242800D01*
X154249068Y-83241800D01*
X154248800Y-83240800D01*
X154248800Y-81641200D01*
X153951200Y-81641200D01*
X153951200Y-83240800D01*
X153950200Y-83242532D01*
X153949200Y-83242800D01*
X153850800Y-83242800D01*
X153849068Y-83241800D01*
X153848800Y-83240800D01*
X153848800Y-81641200D01*
X153551200Y-81641200D01*
X153551200Y-83240800D01*
X153550200Y-83242532D01*
X153549200Y-83242800D01*
X153450800Y-83242800D01*
X153449068Y-83241800D01*
X153448800Y-83240800D01*
X153448800Y-81641200D01*
X153151200Y-81641200D01*
X153151200Y-83240800D01*
X153150200Y-83242532D01*
X153149200Y-83242800D01*
X153050800Y-83242800D01*
X153049068Y-83241800D01*
X153048800Y-83240800D01*
X153048800Y-81641200D01*
X152751200Y-81641200D01*
X152751200Y-83240800D01*
X152750200Y-83242532D01*
X152749200Y-83242800D01*
X152650800Y-83242800D01*
X152649068Y-83241800D01*
X152648800Y-83240800D01*
X152648800Y-81641200D01*
X152351200Y-81641200D01*
X152351200Y-83240800D01*
X152350200Y-83242532D01*
X152349200Y-83242800D01*
X152250800Y-83242800D01*
X152249068Y-83241800D01*
X152248800Y-83240800D01*
X152248800Y-81641200D01*
X151951200Y-81641200D01*
X151951200Y-83240800D01*
X151950200Y-83242532D01*
X151949200Y-83242800D01*
X151850800Y-83242800D01*
X151849068Y-83241800D01*
X151848800Y-83240800D01*
X151848800Y-81641200D01*
X151551200Y-81641200D01*
X151551200Y-83240800D01*
X151550200Y-83242532D01*
X151549200Y-83242800D01*
X151450800Y-83242800D01*
X151449068Y-83241800D01*
X151448800Y-83240800D01*
X151448800Y-81641200D01*
X151151200Y-81641200D01*
X151151200Y-83240800D01*
X151150200Y-83242532D01*
X151149200Y-83242800D01*
X151050800Y-83242800D01*
X151049068Y-83241800D01*
X151048800Y-83240800D01*
X151048800Y-81641200D01*
X150751200Y-81641200D01*
X150751200Y-83240800D01*
X150750200Y-83242532D01*
X150749200Y-83242800D01*
X150650800Y-83242800D01*
X150649068Y-83241800D01*
X150648800Y-83240800D01*
X150648800Y-81641200D01*
X150351200Y-81641200D01*
X150351200Y-83240800D01*
X150350200Y-83242532D01*
X150349200Y-83242800D01*
X150250800Y-83242800D01*
X150249068Y-83241800D01*
X150248800Y-83240800D01*
X150248800Y-81641200D01*
X149951200Y-81641200D01*
X149951200Y-83240800D01*
X149950200Y-83242532D01*
X149949200Y-83242800D01*
X149850800Y-83242800D01*
X149849068Y-83241800D01*
X149848800Y-83240800D01*
X149848800Y-81641200D01*
X149551200Y-81641200D01*
X149551200Y-83240800D01*
X149550200Y-83242532D01*
X149549200Y-83242800D01*
X149450800Y-83242800D01*
X149449068Y-83241800D01*
X149448800Y-83240800D01*
X149448800Y-81641200D01*
X149151200Y-81641200D01*
X149151200Y-83240800D01*
X149150200Y-83242532D01*
X149149200Y-83242800D01*
X149050800Y-83242800D01*
X149049068Y-83241800D01*
X149048800Y-83240800D01*
X149048800Y-81641200D01*
X148751200Y-81641200D01*
X148751200Y-83240800D01*
X148750200Y-83242532D01*
X148749200Y-83242800D01*
X148650800Y-83242800D01*
X148649068Y-83241800D01*
X148648800Y-83240800D01*
X148648800Y-81641200D01*
X148351200Y-81641200D01*
X148351200Y-83240800D01*
X148350200Y-83242532D01*
X148349200Y-83242800D01*
X148250800Y-83242800D01*
X148249068Y-83241800D01*
X148248800Y-83240800D01*
X148248800Y-81641200D01*
X147951200Y-81641200D01*
X147951200Y-83240800D01*
X147950200Y-83242532D01*
X147949200Y-83242800D01*
X147850800Y-83242800D01*
X147849068Y-83241800D01*
X147848800Y-83240800D01*
X147848800Y-81641200D01*
X147551200Y-81641200D01*
X147551200Y-83240800D01*
X147550200Y-83242532D01*
X147549200Y-83242800D01*
X147450800Y-83242800D01*
X147449068Y-83241800D01*
X147448800Y-83240800D01*
X147448800Y-81641200D01*
X147151200Y-81641200D01*
X147151200Y-83240800D01*
X147150200Y-83242532D01*
X147149200Y-83242800D01*
X147050800Y-83242800D01*
X147049068Y-83241800D01*
X147048800Y-83240800D01*
X147048800Y-81641200D01*
X146751200Y-81641200D01*
X146751200Y-83240800D01*
X146750200Y-83242532D01*
X146749200Y-83242800D01*
X146650800Y-83242800D01*
X146649068Y-83241800D01*
X146648800Y-83240800D01*
X146648800Y-81639200D01*
X146649800Y-81637468D01*
X146650800Y-81637200D01*
X157949200Y-81637200D01*
X157950932Y-81638200D01*
G37*
G36*
X169350932Y-82173200D02*
G01*
X169351200Y-82174200D01*
X169351200Y-83025800D01*
X169350200Y-83027532D01*
X169349200Y-83027800D01*
X169250800Y-83027800D01*
X169249068Y-83026800D01*
X169248800Y-83025800D01*
X169248800Y-82176200D01*
X168851200Y-82176200D01*
X168851200Y-83025800D01*
X168850200Y-83027532D01*
X168849200Y-83027800D01*
X168750800Y-83027800D01*
X168749068Y-83026800D01*
X168748800Y-83025800D01*
X168748800Y-82176200D01*
X168351200Y-82176200D01*
X168351200Y-83025800D01*
X168350200Y-83027532D01*
X168349200Y-83027800D01*
X168250800Y-83027800D01*
X168249068Y-83026800D01*
X168248800Y-83025800D01*
X168248800Y-82174200D01*
X168249800Y-82172468D01*
X168250800Y-82172200D01*
X169349200Y-82172200D01*
X169350932Y-82173200D01*
G37*
M02*
