G04 #@! TF.GenerationSoftware,KiCad,Pcbnew,(5.1.8)-1*
G04 #@! TF.CreationDate,2021-01-26T22:47:04-05:00*
G04 #@! TF.ProjectId,kimchi_ulid,6b696d63-6869-45f7-956c-69642e6b6963,v0.1*
G04 #@! TF.SameCoordinates,Original*
G04 #@! TF.FileFunction,Legend,Top*
G04 #@! TF.FilePolarity,Positive*
%FSLAX46Y46*%
G04 Gerber Fmt 4.6, Leading zero omitted, Abs format (unit mm)*
G04 Created by KiCad (PCBNEW (5.1.8)-1) date 2021-01-26 22:47:04*
%MOMM*%
%LPD*%
G01*
G04 APERTURE LIST*
%ADD10C,0.150000*%
%ADD11C,0.250000*%
G04 #@! TA.AperFunction,Profile*
%ADD12C,0.100000*%
G04 #@! TD*
%ADD13C,0.010000*%
%ADD14C,0.120000*%
%ADD15C,0.152400*%
%ADD16C,0.200000*%
%ADD17C,0.100000*%
%ADD18C,0.350000*%
G04 APERTURE END LIST*
D10*
X150061904Y-82052380D02*
X150061904Y-81052380D01*
X150633333Y-82052380D02*
X150204761Y-81480952D01*
X150633333Y-81052380D02*
X150061904Y-81623809D01*
X151061904Y-82052380D02*
X151061904Y-81385714D01*
X151061904Y-81052380D02*
X151014285Y-81100000D01*
X151061904Y-81147619D01*
X151109523Y-81100000D01*
X151061904Y-81052380D01*
X151061904Y-81147619D01*
X151538095Y-82052380D02*
X151538095Y-81385714D01*
X151538095Y-81480952D02*
X151585714Y-81433333D01*
X151680952Y-81385714D01*
X151823809Y-81385714D01*
X151919047Y-81433333D01*
X151966666Y-81528571D01*
X151966666Y-82052380D01*
X151966666Y-81528571D02*
X152014285Y-81433333D01*
X152109523Y-81385714D01*
X152252380Y-81385714D01*
X152347619Y-81433333D01*
X152395238Y-81528571D01*
X152395238Y-82052380D01*
X153300000Y-82004761D02*
X153204761Y-82052380D01*
X153014285Y-82052380D01*
X152919047Y-82004761D01*
X152871428Y-81957142D01*
X152823809Y-81861904D01*
X152823809Y-81576190D01*
X152871428Y-81480952D01*
X152919047Y-81433333D01*
X153014285Y-81385714D01*
X153204761Y-81385714D01*
X153300000Y-81433333D01*
X153728571Y-82052380D02*
X153728571Y-81052380D01*
X154157142Y-82052380D02*
X154157142Y-81528571D01*
X154109523Y-81433333D01*
X154014285Y-81385714D01*
X153871428Y-81385714D01*
X153776190Y-81433333D01*
X153728571Y-81480952D01*
X154633333Y-82052380D02*
X154633333Y-81385714D01*
X154633333Y-81052380D02*
X154585714Y-81100000D01*
X154633333Y-81147619D01*
X154680952Y-81100000D01*
X154633333Y-81052380D01*
X154633333Y-81147619D01*
X155109523Y-81671428D02*
X155871428Y-81671428D01*
X156347619Y-82052380D02*
X156347619Y-81052380D01*
X156347619Y-81528571D02*
X156919047Y-81528571D01*
X156919047Y-82052380D02*
X156919047Y-81052380D01*
X157395238Y-82052380D02*
X157395238Y-81385714D01*
X157395238Y-81052380D02*
X157347619Y-81100000D01*
X157395238Y-81147619D01*
X157442857Y-81100000D01*
X157395238Y-81052380D01*
X157395238Y-81147619D01*
X158204761Y-81528571D02*
X157871428Y-81528571D01*
X157871428Y-82052380D02*
X157871428Y-81052380D01*
X158347619Y-81052380D01*
X158728571Y-82052380D02*
X158728571Y-81385714D01*
X158728571Y-81052380D02*
X158680952Y-81100000D01*
X158728571Y-81147619D01*
X158776190Y-81100000D01*
X158728571Y-81052380D01*
X158728571Y-81147619D01*
X159204761Y-81671428D02*
X159966666Y-81671428D01*
X160919047Y-82052380D02*
X160442857Y-82052380D01*
X160442857Y-81052380D01*
X161252380Y-82052380D02*
X161252380Y-81385714D01*
X161252380Y-81052380D02*
X161204761Y-81100000D01*
X161252380Y-81147619D01*
X161300000Y-81100000D01*
X161252380Y-81052380D01*
X161252380Y-81147619D01*
X162157142Y-82052380D02*
X162157142Y-81052380D01*
X162157142Y-82004761D02*
X162061904Y-82052380D01*
X161871428Y-82052380D01*
X161776190Y-82004761D01*
X161728571Y-81957142D01*
X161680952Y-81861904D01*
X161680952Y-81576190D01*
X161728571Y-81480952D01*
X161776190Y-81433333D01*
X161871428Y-81385714D01*
X162061904Y-81385714D01*
X162157142Y-81433333D01*
X163300000Y-81385714D02*
X163538095Y-82052380D01*
X163776190Y-81385714D01*
X164347619Y-81052380D02*
X164442857Y-81052380D01*
X164538095Y-81100000D01*
X164585714Y-81147619D01*
X164633333Y-81242857D01*
X164680952Y-81433333D01*
X164680952Y-81671428D01*
X164633333Y-81861904D01*
X164585714Y-81957142D01*
X164538095Y-82004761D01*
X164442857Y-82052380D01*
X164347619Y-82052380D01*
X164252380Y-82004761D01*
X164204761Y-81957142D01*
X164157142Y-81861904D01*
X164109523Y-81671428D01*
X164109523Y-81433333D01*
X164157142Y-81242857D01*
X164204761Y-81147619D01*
X164252380Y-81100000D01*
X164347619Y-81052380D01*
X165109523Y-81957142D02*
X165157142Y-82004761D01*
X165109523Y-82052380D01*
X165061904Y-82004761D01*
X165109523Y-81957142D01*
X165109523Y-82052380D01*
X166109523Y-82052380D02*
X165538095Y-82052380D01*
X165823809Y-82052380D02*
X165823809Y-81052380D01*
X165728571Y-81195238D01*
X165633333Y-81290476D01*
X165538095Y-81338095D01*
X166966666Y-82052380D02*
X166966666Y-81528571D01*
X166919047Y-81433333D01*
X166823809Y-81385714D01*
X166633333Y-81385714D01*
X166538095Y-81433333D01*
X166966666Y-82004761D02*
X166871428Y-82052380D01*
X166633333Y-82052380D01*
X166538095Y-82004761D01*
X166490476Y-81909523D01*
X166490476Y-81814285D01*
X166538095Y-81719047D01*
X166633333Y-81671428D01*
X166871428Y-81671428D01*
X166966666Y-81623809D01*
X168157142Y-81147619D02*
X168204761Y-81100000D01*
X168300000Y-81052380D01*
X168538095Y-81052380D01*
X168633333Y-81100000D01*
X168680952Y-81147619D01*
X168728571Y-81242857D01*
X168728571Y-81338095D01*
X168680952Y-81480952D01*
X168109523Y-82052380D01*
X168728571Y-82052380D01*
X169347619Y-81052380D02*
X169442857Y-81052380D01*
X169538095Y-81100000D01*
X169585714Y-81147619D01*
X169633333Y-81242857D01*
X169680952Y-81433333D01*
X169680952Y-81671428D01*
X169633333Y-81861904D01*
X169585714Y-81957142D01*
X169538095Y-82004761D01*
X169442857Y-82052380D01*
X169347619Y-82052380D01*
X169252380Y-82004761D01*
X169204761Y-81957142D01*
X169157142Y-81861904D01*
X169109523Y-81671428D01*
X169109523Y-81433333D01*
X169157142Y-81242857D01*
X169204761Y-81147619D01*
X169252380Y-81100000D01*
X169347619Y-81052380D01*
X170061904Y-81147619D02*
X170109523Y-81100000D01*
X170204761Y-81052380D01*
X170442857Y-81052380D01*
X170538095Y-81100000D01*
X170585714Y-81147619D01*
X170633333Y-81242857D01*
X170633333Y-81338095D01*
X170585714Y-81480952D01*
X170014285Y-82052380D01*
X170633333Y-82052380D01*
X171252380Y-81052380D02*
X171347619Y-81052380D01*
X171442857Y-81100000D01*
X171490476Y-81147619D01*
X171538095Y-81242857D01*
X171585714Y-81433333D01*
X171585714Y-81671428D01*
X171538095Y-81861904D01*
X171490476Y-81957142D01*
X171442857Y-82004761D01*
X171347619Y-82052380D01*
X171252380Y-82052380D01*
X171157142Y-82004761D01*
X171109523Y-81957142D01*
X171061904Y-81861904D01*
X171014285Y-81671428D01*
X171014285Y-81433333D01*
X171061904Y-81242857D01*
X171109523Y-81147619D01*
X171157142Y-81100000D01*
X171252380Y-81052380D01*
D11*
X107595238Y-113404761D02*
X107738095Y-113452380D01*
X107976190Y-113452380D01*
X108071428Y-113404761D01*
X108119047Y-113357142D01*
X108166666Y-113261904D01*
X108166666Y-113166666D01*
X108119047Y-113071428D01*
X108071428Y-113023809D01*
X107976190Y-112976190D01*
X107785714Y-112928571D01*
X107690476Y-112880952D01*
X107642857Y-112833333D01*
X107595238Y-112738095D01*
X107595238Y-112642857D01*
X107642857Y-112547619D01*
X107690476Y-112500000D01*
X107785714Y-112452380D01*
X108023809Y-112452380D01*
X108166666Y-112500000D01*
X108452380Y-112452380D02*
X109023809Y-112452380D01*
X108738095Y-113452380D02*
X108738095Y-112452380D01*
X109357142Y-112928571D02*
X109690476Y-112928571D01*
X109833333Y-113452380D02*
X109357142Y-113452380D01*
X109357142Y-112452380D01*
X109833333Y-112452380D01*
X110833333Y-113452380D02*
X110500000Y-112976190D01*
X110261904Y-113452380D02*
X110261904Y-112452380D01*
X110642857Y-112452380D01*
X110738095Y-112500000D01*
X110785714Y-112547619D01*
X110833333Y-112642857D01*
X110833333Y-112785714D01*
X110785714Y-112880952D01*
X110738095Y-112928571D01*
X110642857Y-112976190D01*
X110261904Y-112976190D01*
X111261904Y-112928571D02*
X111595238Y-112928571D01*
X111738095Y-113452380D02*
X111261904Y-113452380D01*
X111261904Y-112452380D01*
X111738095Y-112452380D01*
X112357142Y-112452380D02*
X112547619Y-112452380D01*
X112642857Y-112500000D01*
X112738095Y-112595238D01*
X112785714Y-112785714D01*
X112785714Y-113119047D01*
X112738095Y-113309523D01*
X112642857Y-113404761D01*
X112547619Y-113452380D01*
X112357142Y-113452380D01*
X112261904Y-113404761D01*
X112166666Y-113309523D01*
X112119047Y-113119047D01*
X112119047Y-112785714D01*
X112166666Y-112595238D01*
X112261904Y-112500000D01*
X112357142Y-112452380D01*
X114166666Y-112452380D02*
X114357142Y-112452380D01*
X114452380Y-112500000D01*
X114547619Y-112595238D01*
X114595238Y-112785714D01*
X114595238Y-113119047D01*
X114547619Y-113309523D01*
X114452380Y-113404761D01*
X114357142Y-113452380D01*
X114166666Y-113452380D01*
X114071428Y-113404761D01*
X113976190Y-113309523D01*
X113928571Y-113119047D01*
X113928571Y-112785714D01*
X113976190Y-112595238D01*
X114071428Y-112500000D01*
X114166666Y-112452380D01*
X115023809Y-112452380D02*
X115023809Y-113261904D01*
X115071428Y-113357142D01*
X115119047Y-113404761D01*
X115214285Y-113452380D01*
X115404761Y-113452380D01*
X115500000Y-113404761D01*
X115547619Y-113357142D01*
X115595238Y-113261904D01*
X115595238Y-112452380D01*
X115928571Y-112452380D02*
X116500000Y-112452380D01*
X116214285Y-113452380D02*
X116214285Y-112452380D01*
X155061904Y-113404761D02*
X155204761Y-113452380D01*
X155442857Y-113452380D01*
X155538095Y-113404761D01*
X155585714Y-113357142D01*
X155633333Y-113261904D01*
X155633333Y-113166666D01*
X155585714Y-113071428D01*
X155538095Y-113023809D01*
X155442857Y-112976190D01*
X155252380Y-112928571D01*
X155157142Y-112880952D01*
X155109523Y-112833333D01*
X155061904Y-112738095D01*
X155061904Y-112642857D01*
X155109523Y-112547619D01*
X155157142Y-112500000D01*
X155252380Y-112452380D01*
X155490476Y-112452380D01*
X155633333Y-112500000D01*
X155919047Y-112452380D02*
X156490476Y-112452380D01*
X156204761Y-113452380D02*
X156204761Y-112452380D01*
X156823809Y-112928571D02*
X157157142Y-112928571D01*
X157300000Y-113452380D02*
X156823809Y-113452380D01*
X156823809Y-112452380D01*
X157300000Y-112452380D01*
X158300000Y-113452380D02*
X157966666Y-112976190D01*
X157728571Y-113452380D02*
X157728571Y-112452380D01*
X158109523Y-112452380D01*
X158204761Y-112500000D01*
X158252380Y-112547619D01*
X158300000Y-112642857D01*
X158300000Y-112785714D01*
X158252380Y-112880952D01*
X158204761Y-112928571D01*
X158109523Y-112976190D01*
X157728571Y-112976190D01*
X158728571Y-112928571D02*
X159061904Y-112928571D01*
X159204761Y-113452380D02*
X158728571Y-113452380D01*
X158728571Y-112452380D01*
X159204761Y-112452380D01*
X159823809Y-112452380D02*
X160014285Y-112452380D01*
X160109523Y-112500000D01*
X160204761Y-112595238D01*
X160252380Y-112785714D01*
X160252380Y-113119047D01*
X160204761Y-113309523D01*
X160109523Y-113404761D01*
X160014285Y-113452380D01*
X159823809Y-113452380D01*
X159728571Y-113404761D01*
X159633333Y-113309523D01*
X159585714Y-113119047D01*
X159585714Y-112785714D01*
X159633333Y-112595238D01*
X159728571Y-112500000D01*
X159823809Y-112452380D01*
X161442857Y-113452380D02*
X161442857Y-112452380D01*
X161919047Y-113452380D02*
X161919047Y-112452380D01*
X162490476Y-113452380D01*
X162490476Y-112452380D01*
X171452380Y-122976190D02*
X170452380Y-122976190D01*
X170928571Y-122976190D02*
X170928571Y-122404761D01*
X171452380Y-122404761D02*
X170452380Y-122404761D01*
X170928571Y-121928571D02*
X170928571Y-121595238D01*
X171452380Y-121452380D02*
X171452380Y-121928571D01*
X170452380Y-121928571D01*
X170452380Y-121452380D01*
X171166666Y-121071428D02*
X171166666Y-120595238D01*
X171452380Y-121166666D02*
X170452380Y-120833333D01*
X171452380Y-120500000D01*
X171452380Y-120166666D02*
X170452380Y-120166666D01*
X170452380Y-119928571D01*
X170500000Y-119785714D01*
X170595238Y-119690476D01*
X170690476Y-119642857D01*
X170880952Y-119595238D01*
X171023809Y-119595238D01*
X171214285Y-119642857D01*
X171309523Y-119690476D01*
X171404761Y-119785714D01*
X171452380Y-119928571D01*
X171452380Y-120166666D01*
X171404761Y-119214285D02*
X171452380Y-119071428D01*
X171452380Y-118833333D01*
X171404761Y-118738095D01*
X171357142Y-118690476D01*
X171261904Y-118642857D01*
X171166666Y-118642857D01*
X171071428Y-118690476D01*
X171023809Y-118738095D01*
X170976190Y-118833333D01*
X170928571Y-119023809D01*
X170880952Y-119119047D01*
X170833333Y-119166666D01*
X170738095Y-119214285D01*
X170642857Y-119214285D01*
X170547619Y-119166666D01*
X170500000Y-119119047D01*
X170452380Y-119023809D01*
X170452380Y-118785714D01*
X170500000Y-118642857D01*
X170928571Y-118214285D02*
X170928571Y-117880952D01*
X171452380Y-117738095D02*
X171452380Y-118214285D01*
X170452380Y-118214285D01*
X170452380Y-117738095D01*
X170452380Y-117452380D02*
X170452380Y-116880952D01*
X171452380Y-117166666D02*
X170452380Y-117166666D01*
D12*
X172000000Y-80600000D02*
X107000000Y-80600000D01*
X107000000Y-126000000D02*
X172000000Y-126000000D01*
X107000000Y-80600000D02*
X107000000Y-126000000D01*
X172000000Y-126000000D02*
X172000000Y-80600000D01*
D13*
G36*
X111583039Y-98796713D02*
G01*
X111714092Y-98799363D01*
X111817363Y-98805114D01*
X111904356Y-98815057D01*
X111986577Y-98830283D01*
X112075529Y-98851884D01*
X112116655Y-98862846D01*
X112481829Y-98986637D01*
X112822337Y-99152712D01*
X113134830Y-99358686D01*
X113415961Y-99602174D01*
X113662381Y-99880793D01*
X113782868Y-100049607D01*
X113953053Y-100348245D01*
X114087839Y-100669871D01*
X114184834Y-101005002D01*
X114241644Y-101344157D01*
X114255876Y-101677851D01*
X114242914Y-101872098D01*
X114175760Y-102259332D01*
X114064203Y-102624460D01*
X113910149Y-102964953D01*
X113715500Y-103278282D01*
X113482164Y-103561920D01*
X113212044Y-103813337D01*
X112907046Y-104030003D01*
X112569074Y-104209392D01*
X112441400Y-104263680D01*
X112200991Y-104342900D01*
X111932519Y-104402883D01*
X111653571Y-104441190D01*
X111381733Y-104455387D01*
X111141321Y-104443798D01*
X110756403Y-104376763D01*
X110393538Y-104264215D01*
X110054215Y-104107088D01*
X109739923Y-103906321D01*
X109452149Y-103662849D01*
X109192383Y-103377609D01*
X108983733Y-103085900D01*
X108905848Y-102946956D01*
X108825624Y-102774652D01*
X108749982Y-102585578D01*
X108685844Y-102396323D01*
X108663073Y-102317350D01*
X108638058Y-102220071D01*
X108620097Y-102134304D01*
X108608025Y-102048136D01*
X108600675Y-101949650D01*
X108596882Y-101826931D01*
X108595479Y-101668062D01*
X108595373Y-101625400D01*
X108595815Y-101593663D01*
X108866235Y-101593663D01*
X108905922Y-101687651D01*
X108908744Y-101692328D01*
X108942454Y-101735819D01*
X108990609Y-101773145D01*
X109061116Y-101807858D01*
X109161878Y-101843509D01*
X109300799Y-101883648D01*
X109383334Y-101905547D01*
X109484389Y-101932942D01*
X109547378Y-101955287D01*
X109583583Y-101979596D01*
X109604283Y-102012884D01*
X109617378Y-102051075D01*
X109645588Y-102142990D01*
X109421856Y-102374259D01*
X109301838Y-102505939D01*
X109222064Y-102613865D01*
X109181143Y-102703388D01*
X109177684Y-102779860D01*
X109210295Y-102848632D01*
X109277585Y-102915055D01*
X109280628Y-102917464D01*
X109329676Y-102948664D01*
X109385217Y-102965168D01*
X109456520Y-102966700D01*
X109552852Y-102952983D01*
X109683480Y-102923743D01*
X109765246Y-102903034D01*
X110029815Y-102834469D01*
X110166527Y-102971181D01*
X110097463Y-103246903D01*
X110062024Y-103393651D01*
X110040457Y-103501024D01*
X110032465Y-103578431D01*
X110037752Y-103635280D01*
X110056019Y-103680982D01*
X110082535Y-103719371D01*
X110153658Y-103789973D01*
X110229260Y-103822182D01*
X110313691Y-103814835D01*
X110411301Y-103766775D01*
X110526440Y-103676841D01*
X110636340Y-103571688D01*
X110845815Y-103359173D01*
X110942707Y-103383766D01*
X111039599Y-103408360D01*
X111109316Y-103666230D01*
X111151792Y-103816707D01*
X111187833Y-103925800D01*
X111221439Y-104001839D01*
X111256614Y-104053157D01*
X111297357Y-104088085D01*
X111317769Y-104100239D01*
X111406937Y-104134668D01*
X111488548Y-104129645D01*
X111535297Y-104111984D01*
X111598829Y-104059925D01*
X111659471Y-103968409D01*
X111710574Y-103848636D01*
X111729762Y-103784400D01*
X111767114Y-103642091D01*
X111795744Y-103541080D01*
X111819480Y-103473443D01*
X111842151Y-103431250D01*
X111867584Y-103406577D01*
X111899607Y-103391497D01*
X111923190Y-103383874D01*
X112013344Y-103356205D01*
X112211484Y-103557567D01*
X112344451Y-103683998D01*
X112455908Y-103768925D01*
X112550933Y-103814133D01*
X112634602Y-103821405D01*
X112711992Y-103792526D01*
X112764861Y-103752018D01*
X112807248Y-103701113D01*
X112830279Y-103638208D01*
X112834143Y-103554910D01*
X112819027Y-103442824D01*
X112785119Y-103293556D01*
X112775917Y-103257807D01*
X112701426Y-102972514D01*
X112764879Y-102904048D01*
X112828332Y-102835581D01*
X113118202Y-102906279D01*
X113289330Y-102943760D01*
X113415644Y-102961868D01*
X113495135Y-102960644D01*
X113588328Y-102920190D01*
X113653164Y-102846688D01*
X113683905Y-102752577D01*
X113674816Y-102650296D01*
X113657786Y-102607980D01*
X113628907Y-102567717D01*
X113572573Y-102501675D01*
X113497500Y-102419742D01*
X113429638Y-102349223D01*
X113229703Y-102145947D01*
X113258086Y-102053468D01*
X113272552Y-102011741D01*
X113292029Y-101982019D01*
X113326273Y-101958779D01*
X113385043Y-101936502D01*
X113478093Y-101909667D01*
X113543384Y-101892047D01*
X113658780Y-101859456D01*
X113762461Y-101827259D01*
X113840201Y-101800019D01*
X113869720Y-101787322D01*
X113941602Y-101726726D01*
X113995188Y-101639124D01*
X114016200Y-101547921D01*
X113993343Y-101480223D01*
X113931988Y-101409462D01*
X113842955Y-101344748D01*
X113737068Y-101295190D01*
X113703281Y-101284541D01*
X113591324Y-101253405D01*
X113471202Y-101220017D01*
X113419886Y-101205760D01*
X113338061Y-101179699D01*
X113291894Y-101152424D01*
X113267123Y-101113304D01*
X113258063Y-101085110D01*
X113249824Y-101046317D01*
X113253323Y-101012122D01*
X113274134Y-100973087D01*
X113317832Y-100919771D01*
X113389989Y-100842735D01*
X113418972Y-100812600D01*
X113500846Y-100725800D01*
X113573024Y-100645917D01*
X113625626Y-100584058D01*
X113644295Y-100559298D01*
X113680925Y-100464140D01*
X113681056Y-100358847D01*
X113645700Y-100264241D01*
X113628850Y-100241658D01*
X113575163Y-100194547D01*
X113508911Y-100168338D01*
X113422015Y-100162752D01*
X113306396Y-100177507D01*
X113153974Y-100212322D01*
X113111037Y-100223626D01*
X112828175Y-100299489D01*
X112770871Y-100221982D01*
X112713567Y-100144474D01*
X112783780Y-99870378D01*
X112821095Y-99708587D01*
X112838893Y-99589652D01*
X112837738Y-99509762D01*
X112837252Y-99507041D01*
X112796534Y-99410414D01*
X112722341Y-99345403D01*
X112624192Y-99316566D01*
X112511607Y-99328459D01*
X112483730Y-99337791D01*
X112440666Y-99364759D01*
X112372101Y-99419536D01*
X112288117Y-99493674D01*
X112213858Y-99563924D01*
X112123909Y-99650957D01*
X112061235Y-99707654D01*
X112016983Y-99739387D01*
X111982298Y-99751531D01*
X111948326Y-99749459D01*
X111919891Y-99742335D01*
X111861449Y-99718763D01*
X111827820Y-99678272D01*
X111805736Y-99611452D01*
X111753755Y-99419291D01*
X111707207Y-99271452D01*
X111663461Y-99162100D01*
X111619885Y-99085399D01*
X111573848Y-99035516D01*
X111535297Y-99011815D01*
X111457173Y-98986632D01*
X111385887Y-98994299D01*
X111337071Y-99013561D01*
X111280053Y-99052264D01*
X111230179Y-99116655D01*
X111183896Y-99213587D01*
X111137657Y-99349916D01*
X111107617Y-99456615D01*
X111076371Y-99571395D01*
X111052516Y-99646801D01*
X111030538Y-99692594D01*
X111004927Y-99718534D01*
X110970172Y-99734382D01*
X110946531Y-99741913D01*
X110854052Y-99770296D01*
X110650776Y-99570361D01*
X110563242Y-99486560D01*
X110483671Y-99414506D01*
X110421949Y-99362917D01*
X110392019Y-99342213D01*
X110290012Y-99314724D01*
X110190962Y-99329470D01*
X110107309Y-99380714D01*
X110051490Y-99462720D01*
X110039355Y-99504864D01*
X110038311Y-99586069D01*
X110056837Y-99713460D01*
X110094654Y-99885627D01*
X110166287Y-100179327D01*
X110095912Y-100239799D01*
X110025537Y-100300270D01*
X109742328Y-100224391D01*
X109584633Y-100185774D01*
X109465661Y-100166413D01*
X109377055Y-100166490D01*
X109310454Y-100186187D01*
X109257500Y-100225686D01*
X109248568Y-100235138D01*
X109196391Y-100310303D01*
X109178177Y-100387826D01*
X109195778Y-100473010D01*
X109251048Y-100571158D01*
X109345839Y-100687572D01*
X109441694Y-100787773D01*
X109644632Y-100990711D01*
X109612074Y-101084754D01*
X109594317Y-101130018D01*
X109571497Y-101161024D01*
X109532629Y-101184250D01*
X109466729Y-101206171D01*
X109362813Y-101233265D01*
X109358273Y-101234407D01*
X109212747Y-101272766D01*
X109107183Y-101305912D01*
X109031659Y-101338244D01*
X108976254Y-101374161D01*
X108931048Y-101418065D01*
X108922985Y-101427443D01*
X108871697Y-101511125D01*
X108866235Y-101593663D01*
X108595815Y-101593663D01*
X108598587Y-101394869D01*
X108610858Y-101200628D01*
X108634756Y-101028578D01*
X108672855Y-100864624D01*
X108727727Y-100694669D01*
X108798287Y-100513476D01*
X108929028Y-100248650D01*
X109099781Y-99984083D01*
X109301081Y-99731552D01*
X109523462Y-99502834D01*
X109757459Y-99309705D01*
X109777106Y-99295643D01*
X109953347Y-99184577D01*
X110161338Y-99075171D01*
X110382512Y-98976065D01*
X110598299Y-98895897D01*
X110705634Y-98863635D01*
X110801596Y-98838840D01*
X110885580Y-98820937D01*
X110969128Y-98808821D01*
X111063784Y-98801391D01*
X111181088Y-98797543D01*
X111332585Y-98796173D01*
X111412700Y-98796072D01*
X111583039Y-98796713D01*
G37*
X111583039Y-98796713D02*
X111714092Y-98799363D01*
X111817363Y-98805114D01*
X111904356Y-98815057D01*
X111986577Y-98830283D01*
X112075529Y-98851884D01*
X112116655Y-98862846D01*
X112481829Y-98986637D01*
X112822337Y-99152712D01*
X113134830Y-99358686D01*
X113415961Y-99602174D01*
X113662381Y-99880793D01*
X113782868Y-100049607D01*
X113953053Y-100348245D01*
X114087839Y-100669871D01*
X114184834Y-101005002D01*
X114241644Y-101344157D01*
X114255876Y-101677851D01*
X114242914Y-101872098D01*
X114175760Y-102259332D01*
X114064203Y-102624460D01*
X113910149Y-102964953D01*
X113715500Y-103278282D01*
X113482164Y-103561920D01*
X113212044Y-103813337D01*
X112907046Y-104030003D01*
X112569074Y-104209392D01*
X112441400Y-104263680D01*
X112200991Y-104342900D01*
X111932519Y-104402883D01*
X111653571Y-104441190D01*
X111381733Y-104455387D01*
X111141321Y-104443798D01*
X110756403Y-104376763D01*
X110393538Y-104264215D01*
X110054215Y-104107088D01*
X109739923Y-103906321D01*
X109452149Y-103662849D01*
X109192383Y-103377609D01*
X108983733Y-103085900D01*
X108905848Y-102946956D01*
X108825624Y-102774652D01*
X108749982Y-102585578D01*
X108685844Y-102396323D01*
X108663073Y-102317350D01*
X108638058Y-102220071D01*
X108620097Y-102134304D01*
X108608025Y-102048136D01*
X108600675Y-101949650D01*
X108596882Y-101826931D01*
X108595479Y-101668062D01*
X108595373Y-101625400D01*
X108595815Y-101593663D01*
X108866235Y-101593663D01*
X108905922Y-101687651D01*
X108908744Y-101692328D01*
X108942454Y-101735819D01*
X108990609Y-101773145D01*
X109061116Y-101807858D01*
X109161878Y-101843509D01*
X109300799Y-101883648D01*
X109383334Y-101905547D01*
X109484389Y-101932942D01*
X109547378Y-101955287D01*
X109583583Y-101979596D01*
X109604283Y-102012884D01*
X109617378Y-102051075D01*
X109645588Y-102142990D01*
X109421856Y-102374259D01*
X109301838Y-102505939D01*
X109222064Y-102613865D01*
X109181143Y-102703388D01*
X109177684Y-102779860D01*
X109210295Y-102848632D01*
X109277585Y-102915055D01*
X109280628Y-102917464D01*
X109329676Y-102948664D01*
X109385217Y-102965168D01*
X109456520Y-102966700D01*
X109552852Y-102952983D01*
X109683480Y-102923743D01*
X109765246Y-102903034D01*
X110029815Y-102834469D01*
X110166527Y-102971181D01*
X110097463Y-103246903D01*
X110062024Y-103393651D01*
X110040457Y-103501024D01*
X110032465Y-103578431D01*
X110037752Y-103635280D01*
X110056019Y-103680982D01*
X110082535Y-103719371D01*
X110153658Y-103789973D01*
X110229260Y-103822182D01*
X110313691Y-103814835D01*
X110411301Y-103766775D01*
X110526440Y-103676841D01*
X110636340Y-103571688D01*
X110845815Y-103359173D01*
X110942707Y-103383766D01*
X111039599Y-103408360D01*
X111109316Y-103666230D01*
X111151792Y-103816707D01*
X111187833Y-103925800D01*
X111221439Y-104001839D01*
X111256614Y-104053157D01*
X111297357Y-104088085D01*
X111317769Y-104100239D01*
X111406937Y-104134668D01*
X111488548Y-104129645D01*
X111535297Y-104111984D01*
X111598829Y-104059925D01*
X111659471Y-103968409D01*
X111710574Y-103848636D01*
X111729762Y-103784400D01*
X111767114Y-103642091D01*
X111795744Y-103541080D01*
X111819480Y-103473443D01*
X111842151Y-103431250D01*
X111867584Y-103406577D01*
X111899607Y-103391497D01*
X111923190Y-103383874D01*
X112013344Y-103356205D01*
X112211484Y-103557567D01*
X112344451Y-103683998D01*
X112455908Y-103768925D01*
X112550933Y-103814133D01*
X112634602Y-103821405D01*
X112711992Y-103792526D01*
X112764861Y-103752018D01*
X112807248Y-103701113D01*
X112830279Y-103638208D01*
X112834143Y-103554910D01*
X112819027Y-103442824D01*
X112785119Y-103293556D01*
X112775917Y-103257807D01*
X112701426Y-102972514D01*
X112764879Y-102904048D01*
X112828332Y-102835581D01*
X113118202Y-102906279D01*
X113289330Y-102943760D01*
X113415644Y-102961868D01*
X113495135Y-102960644D01*
X113588328Y-102920190D01*
X113653164Y-102846688D01*
X113683905Y-102752577D01*
X113674816Y-102650296D01*
X113657786Y-102607980D01*
X113628907Y-102567717D01*
X113572573Y-102501675D01*
X113497500Y-102419742D01*
X113429638Y-102349223D01*
X113229703Y-102145947D01*
X113258086Y-102053468D01*
X113272552Y-102011741D01*
X113292029Y-101982019D01*
X113326273Y-101958779D01*
X113385043Y-101936502D01*
X113478093Y-101909667D01*
X113543384Y-101892047D01*
X113658780Y-101859456D01*
X113762461Y-101827259D01*
X113840201Y-101800019D01*
X113869720Y-101787322D01*
X113941602Y-101726726D01*
X113995188Y-101639124D01*
X114016200Y-101547921D01*
X113993343Y-101480223D01*
X113931988Y-101409462D01*
X113842955Y-101344748D01*
X113737068Y-101295190D01*
X113703281Y-101284541D01*
X113591324Y-101253405D01*
X113471202Y-101220017D01*
X113419886Y-101205760D01*
X113338061Y-101179699D01*
X113291894Y-101152424D01*
X113267123Y-101113304D01*
X113258063Y-101085110D01*
X113249824Y-101046317D01*
X113253323Y-101012122D01*
X113274134Y-100973087D01*
X113317832Y-100919771D01*
X113389989Y-100842735D01*
X113418972Y-100812600D01*
X113500846Y-100725800D01*
X113573024Y-100645917D01*
X113625626Y-100584058D01*
X113644295Y-100559298D01*
X113680925Y-100464140D01*
X113681056Y-100358847D01*
X113645700Y-100264241D01*
X113628850Y-100241658D01*
X113575163Y-100194547D01*
X113508911Y-100168338D01*
X113422015Y-100162752D01*
X113306396Y-100177507D01*
X113153974Y-100212322D01*
X113111037Y-100223626D01*
X112828175Y-100299489D01*
X112770871Y-100221982D01*
X112713567Y-100144474D01*
X112783780Y-99870378D01*
X112821095Y-99708587D01*
X112838893Y-99589652D01*
X112837738Y-99509762D01*
X112837252Y-99507041D01*
X112796534Y-99410414D01*
X112722341Y-99345403D01*
X112624192Y-99316566D01*
X112511607Y-99328459D01*
X112483730Y-99337791D01*
X112440666Y-99364759D01*
X112372101Y-99419536D01*
X112288117Y-99493674D01*
X112213858Y-99563924D01*
X112123909Y-99650957D01*
X112061235Y-99707654D01*
X112016983Y-99739387D01*
X111982298Y-99751531D01*
X111948326Y-99749459D01*
X111919891Y-99742335D01*
X111861449Y-99718763D01*
X111827820Y-99678272D01*
X111805736Y-99611452D01*
X111753755Y-99419291D01*
X111707207Y-99271452D01*
X111663461Y-99162100D01*
X111619885Y-99085399D01*
X111573848Y-99035516D01*
X111535297Y-99011815D01*
X111457173Y-98986632D01*
X111385887Y-98994299D01*
X111337071Y-99013561D01*
X111280053Y-99052264D01*
X111230179Y-99116655D01*
X111183896Y-99213587D01*
X111137657Y-99349916D01*
X111107617Y-99456615D01*
X111076371Y-99571395D01*
X111052516Y-99646801D01*
X111030538Y-99692594D01*
X111004927Y-99718534D01*
X110970172Y-99734382D01*
X110946531Y-99741913D01*
X110854052Y-99770296D01*
X110650776Y-99570361D01*
X110563242Y-99486560D01*
X110483671Y-99414506D01*
X110421949Y-99362917D01*
X110392019Y-99342213D01*
X110290012Y-99314724D01*
X110190962Y-99329470D01*
X110107309Y-99380714D01*
X110051490Y-99462720D01*
X110039355Y-99504864D01*
X110038311Y-99586069D01*
X110056837Y-99713460D01*
X110094654Y-99885627D01*
X110166287Y-100179327D01*
X110095912Y-100239799D01*
X110025537Y-100300270D01*
X109742328Y-100224391D01*
X109584633Y-100185774D01*
X109465661Y-100166413D01*
X109377055Y-100166490D01*
X109310454Y-100186187D01*
X109257500Y-100225686D01*
X109248568Y-100235138D01*
X109196391Y-100310303D01*
X109178177Y-100387826D01*
X109195778Y-100473010D01*
X109251048Y-100571158D01*
X109345839Y-100687572D01*
X109441694Y-100787773D01*
X109644632Y-100990711D01*
X109612074Y-101084754D01*
X109594317Y-101130018D01*
X109571497Y-101161024D01*
X109532629Y-101184250D01*
X109466729Y-101206171D01*
X109362813Y-101233265D01*
X109358273Y-101234407D01*
X109212747Y-101272766D01*
X109107183Y-101305912D01*
X109031659Y-101338244D01*
X108976254Y-101374161D01*
X108931048Y-101418065D01*
X108922985Y-101427443D01*
X108871697Y-101511125D01*
X108866235Y-101593663D01*
X108595815Y-101593663D01*
X108598587Y-101394869D01*
X108610858Y-101200628D01*
X108634756Y-101028578D01*
X108672855Y-100864624D01*
X108727727Y-100694669D01*
X108798287Y-100513476D01*
X108929028Y-100248650D01*
X109099781Y-99984083D01*
X109301081Y-99731552D01*
X109523462Y-99502834D01*
X109757459Y-99309705D01*
X109777106Y-99295643D01*
X109953347Y-99184577D01*
X110161338Y-99075171D01*
X110382512Y-98976065D01*
X110598299Y-98895897D01*
X110705634Y-98863635D01*
X110801596Y-98838840D01*
X110885580Y-98820937D01*
X110969128Y-98808821D01*
X111063784Y-98801391D01*
X111181088Y-98797543D01*
X111332585Y-98796173D01*
X111412700Y-98796072D01*
X111583039Y-98796713D01*
G36*
X111690633Y-100198582D02*
G01*
X111778636Y-100216710D01*
X112015123Y-100297606D01*
X112229976Y-100420573D01*
X112418639Y-100579841D01*
X112576555Y-100769636D01*
X112699165Y-100984188D01*
X112781913Y-101217725D01*
X112820243Y-101464473D01*
X112822400Y-101538716D01*
X112797925Y-101787608D01*
X112727530Y-102024956D01*
X112615763Y-102245038D01*
X112467168Y-102442132D01*
X112286292Y-102610517D01*
X112077681Y-102744470D01*
X111845881Y-102838270D01*
X111774910Y-102857158D01*
X111637060Y-102879611D01*
X111477828Y-102890359D01*
X111322570Y-102888453D01*
X111222200Y-102877852D01*
X110994775Y-102815096D01*
X110779211Y-102708556D01*
X110582341Y-102564783D01*
X110411000Y-102390326D01*
X110272022Y-102191737D01*
X110172242Y-101975563D01*
X110132669Y-101833699D01*
X110102510Y-101570059D01*
X110121322Y-101311856D01*
X110187514Y-101064428D01*
X110299491Y-100833113D01*
X110455664Y-100623249D01*
X110511000Y-100565168D01*
X110713376Y-100398056D01*
X110935868Y-100276924D01*
X111175135Y-100202688D01*
X111427836Y-100176268D01*
X111690633Y-100198582D01*
G37*
X111690633Y-100198582D02*
X111778636Y-100216710D01*
X112015123Y-100297606D01*
X112229976Y-100420573D01*
X112418639Y-100579841D01*
X112576555Y-100769636D01*
X112699165Y-100984188D01*
X112781913Y-101217725D01*
X112820243Y-101464473D01*
X112822400Y-101538716D01*
X112797925Y-101787608D01*
X112727530Y-102024956D01*
X112615763Y-102245038D01*
X112467168Y-102442132D01*
X112286292Y-102610517D01*
X112077681Y-102744470D01*
X111845881Y-102838270D01*
X111774910Y-102857158D01*
X111637060Y-102879611D01*
X111477828Y-102890359D01*
X111322570Y-102888453D01*
X111222200Y-102877852D01*
X110994775Y-102815096D01*
X110779211Y-102708556D01*
X110582341Y-102564783D01*
X110411000Y-102390326D01*
X110272022Y-102191737D01*
X110172242Y-101975563D01*
X110132669Y-101833699D01*
X110102510Y-101570059D01*
X110121322Y-101311856D01*
X110187514Y-101064428D01*
X110299491Y-100833113D01*
X110455664Y-100623249D01*
X110511000Y-100565168D01*
X110713376Y-100398056D01*
X110935868Y-100276924D01*
X111175135Y-100202688D01*
X111427836Y-100176268D01*
X111690633Y-100198582D01*
G36*
X112110045Y-96871454D02*
G01*
X112155179Y-96940251D01*
X112161722Y-97013410D01*
X112132671Y-97087364D01*
X112071020Y-97158546D01*
X111979763Y-97223388D01*
X111861895Y-97278324D01*
X111736833Y-97316043D01*
X111641668Y-97331436D01*
X111519099Y-97341354D01*
X111383730Y-97345565D01*
X111250165Y-97343837D01*
X111133006Y-97335940D01*
X111068611Y-97326624D01*
X110934848Y-97289185D01*
X110821634Y-97236134D01*
X110732361Y-97171544D01*
X110670418Y-97099491D01*
X110639195Y-97024050D01*
X110642081Y-96949294D01*
X110682467Y-96879300D01*
X110689954Y-96871454D01*
X110741909Y-96819500D01*
X112058091Y-96819500D01*
X112110045Y-96871454D01*
G37*
X112110045Y-96871454D02*
X112155179Y-96940251D01*
X112161722Y-97013410D01*
X112132671Y-97087364D01*
X112071020Y-97158546D01*
X111979763Y-97223388D01*
X111861895Y-97278324D01*
X111736833Y-97316043D01*
X111641668Y-97331436D01*
X111519099Y-97341354D01*
X111383730Y-97345565D01*
X111250165Y-97343837D01*
X111133006Y-97335940D01*
X111068611Y-97326624D01*
X110934848Y-97289185D01*
X110821634Y-97236134D01*
X110732361Y-97171544D01*
X110670418Y-97099491D01*
X110639195Y-97024050D01*
X110642081Y-96949294D01*
X110682467Y-96879300D01*
X110689954Y-96871454D01*
X110741909Y-96819500D01*
X112058091Y-96819500D01*
X112110045Y-96871454D01*
G36*
X112562513Y-96278166D02*
G01*
X112622102Y-96358951D01*
X112642386Y-96446321D01*
X112622100Y-96534340D01*
X112618598Y-96541404D01*
X112603788Y-96569560D01*
X112588548Y-96593325D01*
X112569381Y-96613065D01*
X112542793Y-96629149D01*
X112505289Y-96641943D01*
X112453375Y-96651816D01*
X112383555Y-96659135D01*
X112292334Y-96664266D01*
X112176218Y-96667579D01*
X112031711Y-96669440D01*
X111855319Y-96670217D01*
X111643546Y-96670277D01*
X111395759Y-96669991D01*
X111186016Y-96669357D01*
X110988103Y-96668046D01*
X110806258Y-96666135D01*
X110644718Y-96663703D01*
X110507719Y-96660828D01*
X110399498Y-96657587D01*
X110324291Y-96654059D01*
X110286335Y-96650320D01*
X110283592Y-96649556D01*
X110240934Y-96619149D01*
X110198184Y-96569423D01*
X110192622Y-96560940D01*
X110159977Y-96473347D01*
X110168536Y-96384859D01*
X110217557Y-96300307D01*
X110235598Y-96280799D01*
X110300147Y-96216250D01*
X112497887Y-96216250D01*
X112562513Y-96278166D01*
G37*
X112562513Y-96278166D02*
X112622102Y-96358951D01*
X112642386Y-96446321D01*
X112622100Y-96534340D01*
X112618598Y-96541404D01*
X112603788Y-96569560D01*
X112588548Y-96593325D01*
X112569381Y-96613065D01*
X112542793Y-96629149D01*
X112505289Y-96641943D01*
X112453375Y-96651816D01*
X112383555Y-96659135D01*
X112292334Y-96664266D01*
X112176218Y-96667579D01*
X112031711Y-96669440D01*
X111855319Y-96670217D01*
X111643546Y-96670277D01*
X111395759Y-96669991D01*
X111186016Y-96669357D01*
X110988103Y-96668046D01*
X110806258Y-96666135D01*
X110644718Y-96663703D01*
X110507719Y-96660828D01*
X110399498Y-96657587D01*
X110324291Y-96654059D01*
X110286335Y-96650320D01*
X110283592Y-96649556D01*
X110240934Y-96619149D01*
X110198184Y-96569423D01*
X110192622Y-96560940D01*
X110159977Y-96473347D01*
X110168536Y-96384859D01*
X110217557Y-96300307D01*
X110235598Y-96280799D01*
X110300147Y-96216250D01*
X112497887Y-96216250D01*
X112562513Y-96278166D01*
G36*
X112561748Y-95663600D02*
G01*
X112620728Y-95743902D01*
X112642017Y-95829965D01*
X112626043Y-95913613D01*
X112573231Y-95986669D01*
X112543707Y-96009875D01*
X112473239Y-96057500D01*
X111402161Y-96057421D01*
X111161425Y-96057348D01*
X110959359Y-96057079D01*
X110792297Y-96056478D01*
X110656577Y-96055407D01*
X110548534Y-96053732D01*
X110464505Y-96051315D01*
X110400824Y-96048022D01*
X110353829Y-96043716D01*
X110319855Y-96038261D01*
X110295239Y-96031520D01*
X110276315Y-96023359D01*
X110261764Y-96015078D01*
X110192901Y-95951895D01*
X110159722Y-95873411D01*
X110162805Y-95787983D01*
X110202729Y-95703967D01*
X110237487Y-95664332D01*
X110302113Y-95602417D01*
X112497887Y-95602417D01*
X112561748Y-95663600D01*
G37*
X112561748Y-95663600D02*
X112620728Y-95743902D01*
X112642017Y-95829965D01*
X112626043Y-95913613D01*
X112573231Y-95986669D01*
X112543707Y-96009875D01*
X112473239Y-96057500D01*
X111402161Y-96057421D01*
X111161425Y-96057348D01*
X110959359Y-96057079D01*
X110792297Y-96056478D01*
X110656577Y-96055407D01*
X110548534Y-96053732D01*
X110464505Y-96051315D01*
X110400824Y-96048022D01*
X110353829Y-96043716D01*
X110319855Y-96038261D01*
X110295239Y-96031520D01*
X110276315Y-96023359D01*
X110261764Y-96015078D01*
X110192901Y-95951895D01*
X110159722Y-95873411D01*
X110162805Y-95787983D01*
X110202729Y-95703967D01*
X110237487Y-95664332D01*
X110302113Y-95602417D01*
X112497887Y-95602417D01*
X112561748Y-95663600D01*
G36*
X111564400Y-89056084D02*
G01*
X111672601Y-89061812D01*
X111738667Y-89068777D01*
X111833917Y-89083083D01*
X111844500Y-89368374D01*
X111848993Y-89482980D01*
X111853476Y-89562272D01*
X111859429Y-89613244D01*
X111868333Y-89642888D01*
X111881670Y-89658197D01*
X111900921Y-89666166D01*
X111908000Y-89668151D01*
X112078776Y-89714753D01*
X112212714Y-89750929D01*
X112313739Y-89777679D01*
X112385774Y-89796003D01*
X112432745Y-89806903D01*
X112458574Y-89811378D01*
X112467009Y-89810718D01*
X112479706Y-89790386D01*
X112509288Y-89740690D01*
X112551455Y-89668917D01*
X112601904Y-89582352D01*
X112606213Y-89574929D01*
X112657932Y-89487149D01*
X112702819Y-89413430D01*
X112736268Y-89361167D01*
X112753671Y-89337757D01*
X112754173Y-89337388D01*
X112783680Y-89340393D01*
X112841614Y-89362845D01*
X112921141Y-89400769D01*
X113015422Y-89450192D01*
X113117622Y-89507141D01*
X113220904Y-89567641D01*
X113318432Y-89627719D01*
X113403369Y-89683402D01*
X113468877Y-89730715D01*
X113508122Y-89765684D01*
X113516318Y-89780380D01*
X113506075Y-89806287D01*
X113478356Y-89860898D01*
X113437256Y-89936493D01*
X113386870Y-90025352D01*
X113380949Y-90035583D01*
X113245928Y-90268417D01*
X113464150Y-90488372D01*
X113540578Y-90567566D01*
X113603953Y-90637384D01*
X113649241Y-90691947D01*
X113671408Y-90725375D01*
X113672577Y-90731789D01*
X113652364Y-90751637D01*
X113600329Y-90789259D01*
X113515346Y-90845390D01*
X113396287Y-90920768D01*
X113242023Y-91016131D01*
X113174470Y-91057438D01*
X113095469Y-91105625D01*
X112972693Y-90986182D01*
X112862595Y-90882290D01*
X112766689Y-90800501D01*
X112671704Y-90730697D01*
X112564370Y-90662764D01*
X112496862Y-90623444D01*
X112272318Y-90509282D01*
X112050647Y-90427002D01*
X111821097Y-90373849D01*
X111572911Y-90347070D01*
X111399864Y-90342500D01*
X111096268Y-90359115D01*
X110814262Y-90410135D01*
X110549076Y-90497320D01*
X110295935Y-90622431D01*
X110050067Y-90787230D01*
X109927672Y-90885653D01*
X109768339Y-91040780D01*
X109616039Y-91226481D01*
X109478667Y-91431006D01*
X109364116Y-91642604D01*
X109280405Y-91849147D01*
X109249465Y-91959173D01*
X109219527Y-92093407D01*
X109192944Y-92238099D01*
X109172069Y-92379500D01*
X109159251Y-92503863D01*
X109156333Y-92574413D01*
X109169894Y-92778253D01*
X109208283Y-92999803D01*
X109268056Y-93225261D01*
X109345771Y-93440825D01*
X109404642Y-93569828D01*
X109447721Y-93652621D01*
X109491144Y-93728502D01*
X109539986Y-93804914D01*
X109599320Y-93889301D01*
X109674222Y-93989106D01*
X109769767Y-94111771D01*
X109801917Y-94152500D01*
X109918463Y-94301376D01*
X110010808Y-94424997D01*
X110081936Y-94530554D01*
X110134834Y-94625242D01*
X110172486Y-94716252D01*
X110197879Y-94810779D01*
X110213997Y-94916015D01*
X110223827Y-95039153D01*
X110230248Y-95184470D01*
X110241918Y-95507357D01*
X110143457Y-95655428D01*
X110096772Y-95722963D01*
X110057947Y-95774229D01*
X110033356Y-95800983D01*
X110029289Y-95803031D01*
X110004908Y-95793712D01*
X109951824Y-95768977D01*
X109878849Y-95733028D01*
X109824602Y-95705472D01*
X109713410Y-95645957D01*
X109603131Y-95582697D01*
X109500006Y-95519742D01*
X109410271Y-95461142D01*
X109340168Y-95410948D01*
X109295934Y-95373209D01*
X109283333Y-95354079D01*
X109293482Y-95326052D01*
X109321095Y-95269904D01*
X109361922Y-95193852D01*
X109410333Y-95108490D01*
X109459759Y-95022130D01*
X109500199Y-94948983D01*
X109527457Y-94896819D01*
X109537333Y-94873474D01*
X109523235Y-94853343D01*
X109484442Y-94809024D01*
X109426206Y-94746249D01*
X109353781Y-94670751D01*
X109319227Y-94635441D01*
X109101122Y-94413872D01*
X108869991Y-94547769D01*
X108780120Y-94598708D01*
X108702285Y-94640731D01*
X108644369Y-94669726D01*
X108614260Y-94681581D01*
X108613191Y-94681667D01*
X108588062Y-94663938D01*
X108548032Y-94615324D01*
X108497090Y-94542679D01*
X108439227Y-94452859D01*
X108378432Y-94352719D01*
X108318695Y-94249114D01*
X108264005Y-94148900D01*
X108218351Y-94058931D01*
X108185724Y-93986065D01*
X108170113Y-93937155D01*
X108170870Y-93921630D01*
X108192436Y-93904936D01*
X108243496Y-93872023D01*
X108316675Y-93827475D01*
X108404598Y-93775876D01*
X108415035Y-93769862D01*
X108503197Y-93717012D01*
X108576098Y-93669231D01*
X108626727Y-93631415D01*
X108648072Y-93608459D01*
X108648333Y-93606947D01*
X108638816Y-93565451D01*
X108626564Y-93537540D01*
X108612850Y-93501329D01*
X108592190Y-93433998D01*
X108567523Y-93345592D01*
X108544872Y-93258474D01*
X108484950Y-93020083D01*
X108204825Y-93016336D01*
X108099948Y-93013952D01*
X108010773Y-93010072D01*
X107945614Y-93005195D01*
X107912783Y-92999819D01*
X107910809Y-92998709D01*
X107904470Y-92972133D01*
X107899144Y-92911586D01*
X107894927Y-92825418D01*
X107891917Y-92721983D01*
X107890211Y-92609632D01*
X107889907Y-92496717D01*
X107891102Y-92391590D01*
X107893893Y-92302603D01*
X107898379Y-92238107D01*
X107901678Y-92215750D01*
X107919884Y-92131083D01*
X108486570Y-92109917D01*
X108524869Y-91951167D01*
X108551607Y-91846982D01*
X108583009Y-91734135D01*
X108608617Y-91648881D01*
X108629866Y-91577528D01*
X108643294Y-91523942D01*
X108646245Y-91498842D01*
X108645908Y-91498350D01*
X108625352Y-91485685D01*
X108575637Y-91456539D01*
X108504405Y-91415355D01*
X108426083Y-91370456D01*
X108339081Y-91319817D01*
X108264142Y-91274450D01*
X108209925Y-91239707D01*
X108186300Y-91222240D01*
X108176449Y-91203639D01*
X108179323Y-91173136D01*
X108197181Y-91123609D01*
X108232278Y-91047935D01*
X108257908Y-90996253D01*
X108309729Y-90897801D01*
X108367954Y-90794940D01*
X108428298Y-90694372D01*
X108486474Y-90602803D01*
X108538195Y-90526935D01*
X108579176Y-90473473D01*
X108605130Y-90449121D01*
X108608233Y-90448333D01*
X108633494Y-90458375D01*
X108687636Y-90485811D01*
X108763034Y-90526608D01*
X108852058Y-90576731D01*
X108864371Y-90583801D01*
X109099784Y-90719268D01*
X109551722Y-90269624D01*
X109417528Y-90038736D01*
X109366544Y-89949405D01*
X109324465Y-89872605D01*
X109295393Y-89816049D01*
X109283431Y-89787451D01*
X109283333Y-89786466D01*
X109288736Y-89769169D01*
X109308558Y-89746815D01*
X109348220Y-89715051D01*
X109413145Y-89669522D01*
X109505583Y-89607960D01*
X109585753Y-89558132D01*
X109677720Y-89505566D01*
X109773733Y-89454131D01*
X109866045Y-89407694D01*
X109946906Y-89370120D01*
X110008568Y-89345277D01*
X110043280Y-89337032D01*
X110046712Y-89337935D01*
X110063067Y-89359405D01*
X110095500Y-89410479D01*
X110139489Y-89483776D01*
X110190513Y-89571916D01*
X110196530Y-89582499D01*
X110253676Y-89681190D01*
X110295572Y-89747647D01*
X110326423Y-89787233D01*
X110350432Y-89805313D01*
X110371804Y-89807251D01*
X110372562Y-89807091D01*
X110411550Y-89797009D01*
X110479203Y-89778085D01*
X110563648Y-89753669D01*
X110603326Y-89741972D01*
X110690994Y-89717253D01*
X110766903Y-89698175D01*
X110819368Y-89687578D01*
X110832259Y-89686333D01*
X110885720Y-89676298D01*
X110914558Y-89664422D01*
X110931221Y-89652108D01*
X110942656Y-89631355D01*
X110949830Y-89594972D01*
X110953713Y-89535773D01*
X110955272Y-89446567D01*
X110955500Y-89360520D01*
X110955500Y-89078530D01*
X111085605Y-89064932D01*
X111185526Y-89057799D01*
X111307524Y-89053999D01*
X111438262Y-89053454D01*
X111564400Y-89056084D01*
G37*
X111564400Y-89056084D02*
X111672601Y-89061812D01*
X111738667Y-89068777D01*
X111833917Y-89083083D01*
X111844500Y-89368374D01*
X111848993Y-89482980D01*
X111853476Y-89562272D01*
X111859429Y-89613244D01*
X111868333Y-89642888D01*
X111881670Y-89658197D01*
X111900921Y-89666166D01*
X111908000Y-89668151D01*
X112078776Y-89714753D01*
X112212714Y-89750929D01*
X112313739Y-89777679D01*
X112385774Y-89796003D01*
X112432745Y-89806903D01*
X112458574Y-89811378D01*
X112467009Y-89810718D01*
X112479706Y-89790386D01*
X112509288Y-89740690D01*
X112551455Y-89668917D01*
X112601904Y-89582352D01*
X112606213Y-89574929D01*
X112657932Y-89487149D01*
X112702819Y-89413430D01*
X112736268Y-89361167D01*
X112753671Y-89337757D01*
X112754173Y-89337388D01*
X112783680Y-89340393D01*
X112841614Y-89362845D01*
X112921141Y-89400769D01*
X113015422Y-89450192D01*
X113117622Y-89507141D01*
X113220904Y-89567641D01*
X113318432Y-89627719D01*
X113403369Y-89683402D01*
X113468877Y-89730715D01*
X113508122Y-89765684D01*
X113516318Y-89780380D01*
X113506075Y-89806287D01*
X113478356Y-89860898D01*
X113437256Y-89936493D01*
X113386870Y-90025352D01*
X113380949Y-90035583D01*
X113245928Y-90268417D01*
X113464150Y-90488372D01*
X113540578Y-90567566D01*
X113603953Y-90637384D01*
X113649241Y-90691947D01*
X113671408Y-90725375D01*
X113672577Y-90731789D01*
X113652364Y-90751637D01*
X113600329Y-90789259D01*
X113515346Y-90845390D01*
X113396287Y-90920768D01*
X113242023Y-91016131D01*
X113174470Y-91057438D01*
X113095469Y-91105625D01*
X112972693Y-90986182D01*
X112862595Y-90882290D01*
X112766689Y-90800501D01*
X112671704Y-90730697D01*
X112564370Y-90662764D01*
X112496862Y-90623444D01*
X112272318Y-90509282D01*
X112050647Y-90427002D01*
X111821097Y-90373849D01*
X111572911Y-90347070D01*
X111399864Y-90342500D01*
X111096268Y-90359115D01*
X110814262Y-90410135D01*
X110549076Y-90497320D01*
X110295935Y-90622431D01*
X110050067Y-90787230D01*
X109927672Y-90885653D01*
X109768339Y-91040780D01*
X109616039Y-91226481D01*
X109478667Y-91431006D01*
X109364116Y-91642604D01*
X109280405Y-91849147D01*
X109249465Y-91959173D01*
X109219527Y-92093407D01*
X109192944Y-92238099D01*
X109172069Y-92379500D01*
X109159251Y-92503863D01*
X109156333Y-92574413D01*
X109169894Y-92778253D01*
X109208283Y-92999803D01*
X109268056Y-93225261D01*
X109345771Y-93440825D01*
X109404642Y-93569828D01*
X109447721Y-93652621D01*
X109491144Y-93728502D01*
X109539986Y-93804914D01*
X109599320Y-93889301D01*
X109674222Y-93989106D01*
X109769767Y-94111771D01*
X109801917Y-94152500D01*
X109918463Y-94301376D01*
X110010808Y-94424997D01*
X110081936Y-94530554D01*
X110134834Y-94625242D01*
X110172486Y-94716252D01*
X110197879Y-94810779D01*
X110213997Y-94916015D01*
X110223827Y-95039153D01*
X110230248Y-95184470D01*
X110241918Y-95507357D01*
X110143457Y-95655428D01*
X110096772Y-95722963D01*
X110057947Y-95774229D01*
X110033356Y-95800983D01*
X110029289Y-95803031D01*
X110004908Y-95793712D01*
X109951824Y-95768977D01*
X109878849Y-95733028D01*
X109824602Y-95705472D01*
X109713410Y-95645957D01*
X109603131Y-95582697D01*
X109500006Y-95519742D01*
X109410271Y-95461142D01*
X109340168Y-95410948D01*
X109295934Y-95373209D01*
X109283333Y-95354079D01*
X109293482Y-95326052D01*
X109321095Y-95269904D01*
X109361922Y-95193852D01*
X109410333Y-95108490D01*
X109459759Y-95022130D01*
X109500199Y-94948983D01*
X109527457Y-94896819D01*
X109537333Y-94873474D01*
X109523235Y-94853343D01*
X109484442Y-94809024D01*
X109426206Y-94746249D01*
X109353781Y-94670751D01*
X109319227Y-94635441D01*
X109101122Y-94413872D01*
X108869991Y-94547769D01*
X108780120Y-94598708D01*
X108702285Y-94640731D01*
X108644369Y-94669726D01*
X108614260Y-94681581D01*
X108613191Y-94681667D01*
X108588062Y-94663938D01*
X108548032Y-94615324D01*
X108497090Y-94542679D01*
X108439227Y-94452859D01*
X108378432Y-94352719D01*
X108318695Y-94249114D01*
X108264005Y-94148900D01*
X108218351Y-94058931D01*
X108185724Y-93986065D01*
X108170113Y-93937155D01*
X108170870Y-93921630D01*
X108192436Y-93904936D01*
X108243496Y-93872023D01*
X108316675Y-93827475D01*
X108404598Y-93775876D01*
X108415035Y-93769862D01*
X108503197Y-93717012D01*
X108576098Y-93669231D01*
X108626727Y-93631415D01*
X108648072Y-93608459D01*
X108648333Y-93606947D01*
X108638816Y-93565451D01*
X108626564Y-93537540D01*
X108612850Y-93501329D01*
X108592190Y-93433998D01*
X108567523Y-93345592D01*
X108544872Y-93258474D01*
X108484950Y-93020083D01*
X108204825Y-93016336D01*
X108099948Y-93013952D01*
X108010773Y-93010072D01*
X107945614Y-93005195D01*
X107912783Y-92999819D01*
X107910809Y-92998709D01*
X107904470Y-92972133D01*
X107899144Y-92911586D01*
X107894927Y-92825418D01*
X107891917Y-92721983D01*
X107890211Y-92609632D01*
X107889907Y-92496717D01*
X107891102Y-92391590D01*
X107893893Y-92302603D01*
X107898379Y-92238107D01*
X107901678Y-92215750D01*
X107919884Y-92131083D01*
X108486570Y-92109917D01*
X108524869Y-91951167D01*
X108551607Y-91846982D01*
X108583009Y-91734135D01*
X108608617Y-91648881D01*
X108629866Y-91577528D01*
X108643294Y-91523942D01*
X108646245Y-91498842D01*
X108645908Y-91498350D01*
X108625352Y-91485685D01*
X108575637Y-91456539D01*
X108504405Y-91415355D01*
X108426083Y-91370456D01*
X108339081Y-91319817D01*
X108264142Y-91274450D01*
X108209925Y-91239707D01*
X108186300Y-91222240D01*
X108176449Y-91203639D01*
X108179323Y-91173136D01*
X108197181Y-91123609D01*
X108232278Y-91047935D01*
X108257908Y-90996253D01*
X108309729Y-90897801D01*
X108367954Y-90794940D01*
X108428298Y-90694372D01*
X108486474Y-90602803D01*
X108538195Y-90526935D01*
X108579176Y-90473473D01*
X108605130Y-90449121D01*
X108608233Y-90448333D01*
X108633494Y-90458375D01*
X108687636Y-90485811D01*
X108763034Y-90526608D01*
X108852058Y-90576731D01*
X108864371Y-90583801D01*
X109099784Y-90719268D01*
X109551722Y-90269624D01*
X109417528Y-90038736D01*
X109366544Y-89949405D01*
X109324465Y-89872605D01*
X109295393Y-89816049D01*
X109283431Y-89787451D01*
X109283333Y-89786466D01*
X109288736Y-89769169D01*
X109308558Y-89746815D01*
X109348220Y-89715051D01*
X109413145Y-89669522D01*
X109505583Y-89607960D01*
X109585753Y-89558132D01*
X109677720Y-89505566D01*
X109773733Y-89454131D01*
X109866045Y-89407694D01*
X109946906Y-89370120D01*
X110008568Y-89345277D01*
X110043280Y-89337032D01*
X110046712Y-89337935D01*
X110063067Y-89359405D01*
X110095500Y-89410479D01*
X110139489Y-89483776D01*
X110190513Y-89571916D01*
X110196530Y-89582499D01*
X110253676Y-89681190D01*
X110295572Y-89747647D01*
X110326423Y-89787233D01*
X110350432Y-89805313D01*
X110371804Y-89807251D01*
X110372562Y-89807091D01*
X110411550Y-89797009D01*
X110479203Y-89778085D01*
X110563648Y-89753669D01*
X110603326Y-89741972D01*
X110690994Y-89717253D01*
X110766903Y-89698175D01*
X110819368Y-89687578D01*
X110832259Y-89686333D01*
X110885720Y-89676298D01*
X110914558Y-89664422D01*
X110931221Y-89652108D01*
X110942656Y-89631355D01*
X110949830Y-89594972D01*
X110953713Y-89535773D01*
X110955272Y-89446567D01*
X110955500Y-89360520D01*
X110955500Y-89078530D01*
X111085605Y-89064932D01*
X111185526Y-89057799D01*
X111307524Y-89053999D01*
X111438262Y-89053454D01*
X111564400Y-89056084D01*
G36*
X113445384Y-92120513D02*
G01*
X113716915Y-92120597D01*
X113951557Y-92120820D01*
X114152030Y-92121248D01*
X114321056Y-92121950D01*
X114461358Y-92122992D01*
X114575655Y-92124443D01*
X114666671Y-92126368D01*
X114737126Y-92128837D01*
X114789743Y-92131915D01*
X114827243Y-92135671D01*
X114852347Y-92140172D01*
X114867778Y-92145484D01*
X114876256Y-92151677D01*
X114880504Y-92158816D01*
X114882213Y-92163768D01*
X114887652Y-92202391D01*
X114891887Y-92274229D01*
X114894897Y-92370279D01*
X114896663Y-92481538D01*
X114897166Y-92599006D01*
X114896387Y-92713679D01*
X114894305Y-92816555D01*
X114890901Y-92898632D01*
X114886156Y-92950909D01*
X114883939Y-92961269D01*
X114875704Y-92980419D01*
X114860685Y-92993729D01*
X114831779Y-93002480D01*
X114781880Y-93007951D01*
X114703886Y-93011424D01*
X114590690Y-93014176D01*
X114590241Y-93014186D01*
X114311616Y-93020083D01*
X114241711Y-93284667D01*
X114214323Y-93388237D01*
X114190048Y-93479871D01*
X114171364Y-93550222D01*
X114160750Y-93589943D01*
X114160218Y-93591908D01*
X114160419Y-93614019D01*
X114177145Y-93638016D01*
X114216064Y-93668579D01*
X114282841Y-93710391D01*
X114352350Y-93750658D01*
X114463447Y-93813233D01*
X114542361Y-93859482D01*
X114592230Y-93896417D01*
X114616190Y-93931051D01*
X114617379Y-93970396D01*
X114598934Y-94021465D01*
X114563992Y-94091269D01*
X114532376Y-94153079D01*
X114471434Y-94269170D01*
X114407496Y-94381757D01*
X114344539Y-94484739D01*
X114286545Y-94572017D01*
X114237494Y-94637490D01*
X114201365Y-94675058D01*
X114187508Y-94681667D01*
X114159985Y-94671538D01*
X114103990Y-94643896D01*
X114027444Y-94602859D01*
X113938266Y-94552544D01*
X113930273Y-94547922D01*
X113699406Y-94414178D01*
X113481036Y-94634141D01*
X113403853Y-94713049D01*
X113338649Y-94781928D01*
X113290711Y-94835016D01*
X113265329Y-94866550D01*
X113262667Y-94872022D01*
X113272747Y-94896345D01*
X113300184Y-94949269D01*
X113340773Y-95022962D01*
X113389667Y-95108490D01*
X113439246Y-95195823D01*
X113479765Y-95271030D01*
X113506984Y-95325970D01*
X113516667Y-95352267D01*
X113499118Y-95376180D01*
X113450795Y-95415971D01*
X113378179Y-95467420D01*
X113287753Y-95526306D01*
X113185999Y-95588406D01*
X113079399Y-95649501D01*
X112974436Y-95705368D01*
X112974408Y-95705382D01*
X112892953Y-95746320D01*
X112826399Y-95778884D01*
X112783174Y-95799002D01*
X112771314Y-95803500D01*
X112751446Y-95789324D01*
X112730010Y-95766458D01*
X112701824Y-95728434D01*
X112661905Y-95669258D01*
X112631480Y-95621730D01*
X112602378Y-95573353D01*
X112583191Y-95532266D01*
X112571889Y-95487828D01*
X112566442Y-95429397D01*
X112564819Y-95346332D01*
X112564859Y-95272480D01*
X112569171Y-95079446D01*
X112581522Y-94921643D01*
X112602865Y-94792569D01*
X112634155Y-94685717D01*
X112659536Y-94626610D01*
X112691406Y-94571823D01*
X112744426Y-94492163D01*
X112812989Y-94395566D01*
X112891488Y-94289966D01*
X112960027Y-94201349D01*
X113072682Y-94057076D01*
X113162714Y-93938143D01*
X113234874Y-93837596D01*
X113293908Y-93748477D01*
X113344566Y-93663834D01*
X113391596Y-93576710D01*
X113406686Y-93547107D01*
X113447508Y-93458855D01*
X113487244Y-93360405D01*
X113522849Y-93261004D01*
X113551277Y-93169898D01*
X113569480Y-93096335D01*
X113574413Y-93049563D01*
X113572953Y-93042398D01*
X113566054Y-93035055D01*
X113549220Y-93028900D01*
X113519069Y-93023832D01*
X113472218Y-93019748D01*
X113405285Y-93016545D01*
X113314887Y-93014121D01*
X113197640Y-93012373D01*
X113050164Y-93011199D01*
X112869075Y-93010497D01*
X112650990Y-93010164D01*
X112506773Y-93010099D01*
X112298970Y-93010059D01*
X112103710Y-93010013D01*
X111925144Y-93009963D01*
X111767425Y-93009912D01*
X111634704Y-93009860D01*
X111531132Y-93009808D01*
X111460862Y-93009759D01*
X111428044Y-93009714D01*
X111426458Y-93009707D01*
X111417187Y-92999786D01*
X111410190Y-92967431D01*
X111405220Y-92908510D01*
X111402033Y-92818890D01*
X111400381Y-92694437D01*
X111400000Y-92565000D01*
X111400000Y-92120500D01*
X113134240Y-92120500D01*
X113445384Y-92120513D01*
G37*
X113445384Y-92120513D02*
X113716915Y-92120597D01*
X113951557Y-92120820D01*
X114152030Y-92121248D01*
X114321056Y-92121950D01*
X114461358Y-92122992D01*
X114575655Y-92124443D01*
X114666671Y-92126368D01*
X114737126Y-92128837D01*
X114789743Y-92131915D01*
X114827243Y-92135671D01*
X114852347Y-92140172D01*
X114867778Y-92145484D01*
X114876256Y-92151677D01*
X114880504Y-92158816D01*
X114882213Y-92163768D01*
X114887652Y-92202391D01*
X114891887Y-92274229D01*
X114894897Y-92370279D01*
X114896663Y-92481538D01*
X114897166Y-92599006D01*
X114896387Y-92713679D01*
X114894305Y-92816555D01*
X114890901Y-92898632D01*
X114886156Y-92950909D01*
X114883939Y-92961269D01*
X114875704Y-92980419D01*
X114860685Y-92993729D01*
X114831779Y-93002480D01*
X114781880Y-93007951D01*
X114703886Y-93011424D01*
X114590690Y-93014176D01*
X114590241Y-93014186D01*
X114311616Y-93020083D01*
X114241711Y-93284667D01*
X114214323Y-93388237D01*
X114190048Y-93479871D01*
X114171364Y-93550222D01*
X114160750Y-93589943D01*
X114160218Y-93591908D01*
X114160419Y-93614019D01*
X114177145Y-93638016D01*
X114216064Y-93668579D01*
X114282841Y-93710391D01*
X114352350Y-93750658D01*
X114463447Y-93813233D01*
X114542361Y-93859482D01*
X114592230Y-93896417D01*
X114616190Y-93931051D01*
X114617379Y-93970396D01*
X114598934Y-94021465D01*
X114563992Y-94091269D01*
X114532376Y-94153079D01*
X114471434Y-94269170D01*
X114407496Y-94381757D01*
X114344539Y-94484739D01*
X114286545Y-94572017D01*
X114237494Y-94637490D01*
X114201365Y-94675058D01*
X114187508Y-94681667D01*
X114159985Y-94671538D01*
X114103990Y-94643896D01*
X114027444Y-94602859D01*
X113938266Y-94552544D01*
X113930273Y-94547922D01*
X113699406Y-94414178D01*
X113481036Y-94634141D01*
X113403853Y-94713049D01*
X113338649Y-94781928D01*
X113290711Y-94835016D01*
X113265329Y-94866550D01*
X113262667Y-94872022D01*
X113272747Y-94896345D01*
X113300184Y-94949269D01*
X113340773Y-95022962D01*
X113389667Y-95108490D01*
X113439246Y-95195823D01*
X113479765Y-95271030D01*
X113506984Y-95325970D01*
X113516667Y-95352267D01*
X113499118Y-95376180D01*
X113450795Y-95415971D01*
X113378179Y-95467420D01*
X113287753Y-95526306D01*
X113185999Y-95588406D01*
X113079399Y-95649501D01*
X112974436Y-95705368D01*
X112974408Y-95705382D01*
X112892953Y-95746320D01*
X112826399Y-95778884D01*
X112783174Y-95799002D01*
X112771314Y-95803500D01*
X112751446Y-95789324D01*
X112730010Y-95766458D01*
X112701824Y-95728434D01*
X112661905Y-95669258D01*
X112631480Y-95621730D01*
X112602378Y-95573353D01*
X112583191Y-95532266D01*
X112571889Y-95487828D01*
X112566442Y-95429397D01*
X112564819Y-95346332D01*
X112564859Y-95272480D01*
X112569171Y-95079446D01*
X112581522Y-94921643D01*
X112602865Y-94792569D01*
X112634155Y-94685717D01*
X112659536Y-94626610D01*
X112691406Y-94571823D01*
X112744426Y-94492163D01*
X112812989Y-94395566D01*
X112891488Y-94289966D01*
X112960027Y-94201349D01*
X113072682Y-94057076D01*
X113162714Y-93938143D01*
X113234874Y-93837596D01*
X113293908Y-93748477D01*
X113344566Y-93663834D01*
X113391596Y-93576710D01*
X113406686Y-93547107D01*
X113447508Y-93458855D01*
X113487244Y-93360405D01*
X113522849Y-93261004D01*
X113551277Y-93169898D01*
X113569480Y-93096335D01*
X113574413Y-93049563D01*
X113572953Y-93042398D01*
X113566054Y-93035055D01*
X113549220Y-93028900D01*
X113519069Y-93023832D01*
X113472218Y-93019748D01*
X113405285Y-93016545D01*
X113314887Y-93014121D01*
X113197640Y-93012373D01*
X113050164Y-93011199D01*
X112869075Y-93010497D01*
X112650990Y-93010164D01*
X112506773Y-93010099D01*
X112298970Y-93010059D01*
X112103710Y-93010013D01*
X111925144Y-93009963D01*
X111767425Y-93009912D01*
X111634704Y-93009860D01*
X111531132Y-93009808D01*
X111460862Y-93009759D01*
X111428044Y-93009714D01*
X111426458Y-93009707D01*
X111417187Y-92999786D01*
X111410190Y-92967431D01*
X111405220Y-92908510D01*
X111402033Y-92818890D01*
X111400381Y-92694437D01*
X111400000Y-92565000D01*
X111400000Y-92120500D01*
X113134240Y-92120500D01*
X113445384Y-92120513D01*
G36*
X111797664Y-90540526D02*
G01*
X112071045Y-90613862D01*
X112330567Y-90724403D01*
X112573541Y-90870571D01*
X112797278Y-91050789D01*
X112999089Y-91263480D01*
X113176284Y-91507067D01*
X113303825Y-91733773D01*
X113355131Y-91840520D01*
X113385555Y-91915640D01*
X113394913Y-91964434D01*
X113383023Y-91992204D01*
X113349701Y-92004250D01*
X113294765Y-92005873D01*
X113294417Y-92005863D01*
X113264838Y-92002114D01*
X113239534Y-91988330D01*
X113213029Y-91957890D01*
X113179844Y-91904168D01*
X113134504Y-91820543D01*
X113122801Y-91798325D01*
X112963815Y-91535115D01*
X112781939Y-91306095D01*
X112578384Y-91112128D01*
X112354364Y-90954077D01*
X112111090Y-90832807D01*
X111849775Y-90749179D01*
X111588086Y-90705597D01*
X111303234Y-90698209D01*
X111027164Y-90732071D01*
X110761636Y-90806686D01*
X110508408Y-90921558D01*
X110269239Y-91076190D01*
X110265724Y-91078842D01*
X110054842Y-91264163D01*
X109876872Y-91475877D01*
X109732554Y-91712860D01*
X109622628Y-91973993D01*
X109578899Y-92120511D01*
X109541524Y-92326586D01*
X109528727Y-92551365D01*
X109540378Y-92779178D01*
X109576345Y-92994354D01*
X109586571Y-93034964D01*
X109623581Y-93160942D01*
X109665711Y-93277131D01*
X109716497Y-93389616D01*
X109779475Y-93504477D01*
X109858183Y-93627797D01*
X109956157Y-93765660D01*
X110076934Y-93924147D01*
X110177715Y-94051586D01*
X110251839Y-94146796D01*
X110322470Y-94241920D01*
X110381991Y-94326422D01*
X110422781Y-94389762D01*
X110425163Y-94393871D01*
X110484746Y-94524390D01*
X110534331Y-94686520D01*
X110571303Y-94870186D01*
X110590467Y-95030917D01*
X110606250Y-95221417D01*
X112193750Y-95221417D01*
X112208974Y-95023388D01*
X112231611Y-94824788D01*
X112269390Y-94652719D01*
X112326851Y-94495858D01*
X112408531Y-94342883D01*
X112518968Y-94182471D01*
X112575011Y-94110167D01*
X112699037Y-93953262D01*
X112799401Y-93823486D01*
X112879752Y-93715620D01*
X112943735Y-93624445D01*
X112994998Y-93544742D01*
X113037188Y-93471292D01*
X113073952Y-93398877D01*
X113077940Y-93390500D01*
X113117515Y-93310291D01*
X113152809Y-93244872D01*
X113178577Y-93203693D01*
X113186417Y-93195032D01*
X113224720Y-93183149D01*
X113278491Y-93179628D01*
X113328624Y-93184283D01*
X113355884Y-93196711D01*
X113355169Y-93228369D01*
X113337256Y-93288916D01*
X113305332Y-93370138D01*
X113262588Y-93463823D01*
X113219098Y-93549041D01*
X113185309Y-93608644D01*
X113144611Y-93673445D01*
X113093568Y-93748210D01*
X113028745Y-93837707D01*
X112946707Y-93946704D01*
X112844019Y-94079968D01*
X112746561Y-94204870D01*
X112639392Y-94347022D01*
X112557490Y-94471172D01*
X112497109Y-94587537D01*
X112454500Y-94706328D01*
X112425916Y-94837762D01*
X112407608Y-94992051D01*
X112396869Y-95157917D01*
X112384250Y-95411917D01*
X111409028Y-95417417D01*
X111209785Y-95418238D01*
X111023612Y-95418419D01*
X110854767Y-95418000D01*
X110707507Y-95417018D01*
X110586088Y-95415510D01*
X110494767Y-95413515D01*
X110437801Y-95411072D01*
X110419487Y-95408598D01*
X110413033Y-95382252D01*
X110408090Y-95324204D01*
X110405424Y-95245079D01*
X110405167Y-95210078D01*
X110397243Y-95032960D01*
X110374891Y-94859717D01*
X110340239Y-94701784D01*
X110295416Y-94570598D01*
X110279988Y-94537541D01*
X110239753Y-94467913D01*
X110181732Y-94379692D01*
X110115292Y-94286763D01*
X110077367Y-94237167D01*
X109929895Y-94047650D01*
X109807325Y-93884632D01*
X109706560Y-93742860D01*
X109624504Y-93617080D01*
X109558059Y-93502040D01*
X109504129Y-93392485D01*
X109459618Y-93283164D01*
X109421428Y-93168822D01*
X109396642Y-93082411D01*
X109372936Y-92989929D01*
X109356782Y-92909739D01*
X109346812Y-92829358D01*
X109341656Y-92736299D01*
X109339947Y-92618079D01*
X109339914Y-92565000D01*
X109345315Y-92371064D01*
X109362865Y-92203327D01*
X109395585Y-92046651D01*
X109446498Y-91885898D01*
X109505080Y-91737720D01*
X109619818Y-91514365D01*
X109769689Y-91299060D01*
X109947492Y-91099806D01*
X110146028Y-90924605D01*
X110358095Y-90781458D01*
X110373417Y-90772757D01*
X110583447Y-90666872D01*
X110786941Y-90591043D01*
X110999490Y-90540464D01*
X111220083Y-90511772D01*
X111513114Y-90505970D01*
X111797664Y-90540526D01*
G37*
X111797664Y-90540526D02*
X112071045Y-90613862D01*
X112330567Y-90724403D01*
X112573541Y-90870571D01*
X112797278Y-91050789D01*
X112999089Y-91263480D01*
X113176284Y-91507067D01*
X113303825Y-91733773D01*
X113355131Y-91840520D01*
X113385555Y-91915640D01*
X113394913Y-91964434D01*
X113383023Y-91992204D01*
X113349701Y-92004250D01*
X113294765Y-92005873D01*
X113294417Y-92005863D01*
X113264838Y-92002114D01*
X113239534Y-91988330D01*
X113213029Y-91957890D01*
X113179844Y-91904168D01*
X113134504Y-91820543D01*
X113122801Y-91798325D01*
X112963815Y-91535115D01*
X112781939Y-91306095D01*
X112578384Y-91112128D01*
X112354364Y-90954077D01*
X112111090Y-90832807D01*
X111849775Y-90749179D01*
X111588086Y-90705597D01*
X111303234Y-90698209D01*
X111027164Y-90732071D01*
X110761636Y-90806686D01*
X110508408Y-90921558D01*
X110269239Y-91076190D01*
X110265724Y-91078842D01*
X110054842Y-91264163D01*
X109876872Y-91475877D01*
X109732554Y-91712860D01*
X109622628Y-91973993D01*
X109578899Y-92120511D01*
X109541524Y-92326586D01*
X109528727Y-92551365D01*
X109540378Y-92779178D01*
X109576345Y-92994354D01*
X109586571Y-93034964D01*
X109623581Y-93160942D01*
X109665711Y-93277131D01*
X109716497Y-93389616D01*
X109779475Y-93504477D01*
X109858183Y-93627797D01*
X109956157Y-93765660D01*
X110076934Y-93924147D01*
X110177715Y-94051586D01*
X110251839Y-94146796D01*
X110322470Y-94241920D01*
X110381991Y-94326422D01*
X110422781Y-94389762D01*
X110425163Y-94393871D01*
X110484746Y-94524390D01*
X110534331Y-94686520D01*
X110571303Y-94870186D01*
X110590467Y-95030917D01*
X110606250Y-95221417D01*
X112193750Y-95221417D01*
X112208974Y-95023388D01*
X112231611Y-94824788D01*
X112269390Y-94652719D01*
X112326851Y-94495858D01*
X112408531Y-94342883D01*
X112518968Y-94182471D01*
X112575011Y-94110167D01*
X112699037Y-93953262D01*
X112799401Y-93823486D01*
X112879752Y-93715620D01*
X112943735Y-93624445D01*
X112994998Y-93544742D01*
X113037188Y-93471292D01*
X113073952Y-93398877D01*
X113077940Y-93390500D01*
X113117515Y-93310291D01*
X113152809Y-93244872D01*
X113178577Y-93203693D01*
X113186417Y-93195032D01*
X113224720Y-93183149D01*
X113278491Y-93179628D01*
X113328624Y-93184283D01*
X113355884Y-93196711D01*
X113355169Y-93228369D01*
X113337256Y-93288916D01*
X113305332Y-93370138D01*
X113262588Y-93463823D01*
X113219098Y-93549041D01*
X113185309Y-93608644D01*
X113144611Y-93673445D01*
X113093568Y-93748210D01*
X113028745Y-93837707D01*
X112946707Y-93946704D01*
X112844019Y-94079968D01*
X112746561Y-94204870D01*
X112639392Y-94347022D01*
X112557490Y-94471172D01*
X112497109Y-94587537D01*
X112454500Y-94706328D01*
X112425916Y-94837762D01*
X112407608Y-94992051D01*
X112396869Y-95157917D01*
X112384250Y-95411917D01*
X111409028Y-95417417D01*
X111209785Y-95418238D01*
X111023612Y-95418419D01*
X110854767Y-95418000D01*
X110707507Y-95417018D01*
X110586088Y-95415510D01*
X110494767Y-95413515D01*
X110437801Y-95411072D01*
X110419487Y-95408598D01*
X110413033Y-95382252D01*
X110408090Y-95324204D01*
X110405424Y-95245079D01*
X110405167Y-95210078D01*
X110397243Y-95032960D01*
X110374891Y-94859717D01*
X110340239Y-94701784D01*
X110295416Y-94570598D01*
X110279988Y-94537541D01*
X110239753Y-94467913D01*
X110181732Y-94379692D01*
X110115292Y-94286763D01*
X110077367Y-94237167D01*
X109929895Y-94047650D01*
X109807325Y-93884632D01*
X109706560Y-93742860D01*
X109624504Y-93617080D01*
X109558059Y-93502040D01*
X109504129Y-93392485D01*
X109459618Y-93283164D01*
X109421428Y-93168822D01*
X109396642Y-93082411D01*
X109372936Y-92989929D01*
X109356782Y-92909739D01*
X109346812Y-92829358D01*
X109341656Y-92736299D01*
X109339947Y-92618079D01*
X109339914Y-92565000D01*
X109345315Y-92371064D01*
X109362865Y-92203327D01*
X109395585Y-92046651D01*
X109446498Y-91885898D01*
X109505080Y-91737720D01*
X109619818Y-91514365D01*
X109769689Y-91299060D01*
X109947492Y-91099806D01*
X110146028Y-90924605D01*
X110358095Y-90781458D01*
X110373417Y-90772757D01*
X110583447Y-90666872D01*
X110786941Y-90591043D01*
X110999490Y-90540464D01*
X111220083Y-90511772D01*
X111513114Y-90505970D01*
X111797664Y-90540526D01*
D14*
X155130000Y-104530000D02*
X153800000Y-104530000D01*
X155130000Y-103200000D02*
X155130000Y-104530000D01*
X155130000Y-101930000D02*
X152470000Y-101930000D01*
X152470000Y-101930000D02*
X152470000Y-96790000D01*
X155130000Y-101930000D02*
X155130000Y-96790000D01*
X155130000Y-96790000D02*
X152470000Y-96790000D01*
D15*
X135737309Y-107826998D02*
X136262691Y-107826998D01*
X136262691Y-105973002D02*
X135737309Y-105973002D01*
D16*
X133750000Y-106350000D02*
X133750000Y-107500000D01*
D15*
X131462691Y-100873002D02*
X130937309Y-100873002D01*
X130937309Y-102726998D02*
X131462691Y-102726998D01*
D16*
X133450000Y-102350000D02*
X133450000Y-101200000D01*
D15*
X131462691Y-105973002D02*
X130937309Y-105973002D01*
X130937309Y-107826998D02*
X131462691Y-107826998D01*
D16*
X133450000Y-107450000D02*
X133450000Y-106300000D01*
D15*
X135737309Y-102726998D02*
X136262691Y-102726998D01*
X136262691Y-100873002D02*
X135737309Y-100873002D01*
D16*
X133750000Y-101250000D02*
X133750000Y-102400000D01*
D15*
X166923004Y-103673008D02*
X166923004Y-111526992D01*
X166923004Y-111526992D02*
X167617262Y-111526992D01*
X171476996Y-111526992D02*
X171476996Y-103673008D01*
X171476996Y-103673008D02*
X170782738Y-103673008D01*
X167617262Y-103673008D02*
X166923004Y-103673008D01*
X170782738Y-111526992D02*
X171476996Y-111526992D01*
D16*
X170650000Y-103250000D02*
X167750000Y-103250000D01*
D15*
X161863004Y-103673008D02*
X161863004Y-111526992D01*
X161863004Y-111526992D02*
X162557262Y-111526992D01*
X166416996Y-111526992D02*
X166416996Y-103673008D01*
X166416996Y-103673008D02*
X165722738Y-103673008D01*
X162557262Y-103673008D02*
X161863004Y-103673008D01*
X165722738Y-111526992D02*
X166416996Y-111526992D01*
D16*
X165590000Y-103250000D02*
X162690000Y-103250000D01*
D15*
X158126998Y-90062691D02*
X158126998Y-89537309D01*
X156273002Y-89537309D02*
X156273002Y-90062691D01*
D16*
X156650000Y-92050000D02*
X157800000Y-92050000D01*
D15*
X154526998Y-90062691D02*
X154526998Y-89537309D01*
X152673002Y-89537309D02*
X152673002Y-90062691D01*
D16*
X153050000Y-92050000D02*
X154200000Y-92050000D01*
D15*
X153462691Y-92473002D02*
X152937309Y-92473002D01*
X152937309Y-94326998D02*
X153462691Y-94326998D01*
D16*
X155450000Y-93950000D02*
X155450000Y-92800000D01*
D17*
X135181000Y-104654000D02*
X135181000Y-104146000D01*
X134419000Y-104654000D02*
X134419000Y-104146000D01*
X132781000Y-104654000D02*
X132781000Y-104146000D01*
X132019000Y-104654000D02*
X132019000Y-104146000D01*
D15*
X128326700Y-98942340D02*
X128326700Y-100273300D01*
X132873300Y-97057660D02*
X132873300Y-95726700D01*
X132873300Y-100273300D02*
X132873300Y-98942340D01*
X128326700Y-100273300D02*
X132873300Y-100273300D01*
X128326700Y-95726700D02*
X128326700Y-97057660D01*
X132873300Y-95726700D02*
X128326700Y-95726700D01*
X132873300Y-97057660D02*
X131600000Y-95750000D01*
X132873300Y-98942340D02*
X131500000Y-100250000D01*
D17*
X136473000Y-100454000D02*
X136727000Y-100454000D01*
X136473000Y-99946000D02*
X136727000Y-99946000D01*
X153927000Y-94846000D02*
X153673000Y-94846000D01*
X153927000Y-95354000D02*
X153673000Y-95354000D01*
D16*
X170200000Y-125800000D02*
X162500000Y-125800000D01*
X162500000Y-125800000D02*
X162500000Y-113700000D01*
X162500000Y-113700000D02*
X170200000Y-113700000D01*
X170200000Y-113700000D02*
X170200000Y-125800000D01*
D17*
X155146000Y-91127000D02*
X155146000Y-90873000D01*
X155654000Y-91127000D02*
X155654000Y-90873000D01*
X158746000Y-91127000D02*
X158746000Y-90873000D01*
X159254000Y-91127000D02*
X159254000Y-90873000D01*
D14*
X156010000Y-97890000D02*
X156010000Y-98440000D01*
X161310000Y-98290000D02*
X160910000Y-98290000D01*
X161310000Y-97890000D02*
X161310000Y-98290000D01*
X161310000Y-92990000D02*
X160910000Y-92990000D01*
X161310000Y-93390000D02*
X161310000Y-92990000D01*
X156010000Y-92990000D02*
X156410000Y-92990000D01*
X156010000Y-93390000D02*
X156010000Y-92990000D01*
D17*
X160654000Y-111981000D02*
X160146000Y-111981000D01*
X160654000Y-111219000D02*
X160146000Y-111219000D01*
X158746000Y-109927000D02*
X158746000Y-109673000D01*
X159254000Y-109927000D02*
X159254000Y-109673000D01*
X167146000Y-112419000D02*
X167654000Y-112419000D01*
X167146000Y-113181000D02*
X167654000Y-113181000D01*
X156854000Y-99673000D02*
X156854000Y-99927000D01*
X156346000Y-99673000D02*
X156346000Y-99927000D01*
X157854000Y-99673000D02*
X157854000Y-99927000D01*
X157346000Y-99673000D02*
X157346000Y-99927000D01*
X161146000Y-91727000D02*
X161146000Y-91473000D01*
X161654000Y-91727000D02*
X161654000Y-91473000D01*
X160454000Y-91727000D02*
X160454000Y-91473000D01*
X159946000Y-91727000D02*
X159946000Y-91473000D01*
D16*
X107000000Y-126000000D02*
X134200000Y-126000000D01*
X107000000Y-113950000D02*
X107000000Y-126000000D01*
X134200000Y-114000000D02*
X107000000Y-113950000D01*
X134200000Y-126000000D02*
X134200000Y-114000000D01*
X134800000Y-126000000D02*
X162000000Y-126000000D01*
X134800000Y-113950000D02*
X134800000Y-126000000D01*
X162000000Y-114000000D02*
X134800000Y-113950000D01*
X162000000Y-126000000D02*
X162000000Y-114000000D01*
D17*
X149256000Y-112619000D02*
X149764000Y-112619000D01*
X149256000Y-113381000D02*
X149764000Y-113381000D01*
X141136000Y-112819000D02*
X141644000Y-112819000D01*
X141136000Y-113581000D02*
X141644000Y-113581000D01*
X126746000Y-112619000D02*
X127254000Y-112619000D01*
X126746000Y-113381000D02*
X127254000Y-113381000D01*
X118854000Y-113381000D02*
X118346000Y-113381000D01*
X118854000Y-112619000D02*
X118346000Y-112619000D01*
D16*
X131235000Y-113435000D02*
X129965000Y-113435000D01*
X129965000Y-112165000D02*
X131235000Y-112165000D01*
X124035000Y-113235000D02*
X122765000Y-113235000D01*
X122765000Y-111965000D02*
X124035000Y-111965000D01*
D18*
X147300000Y-100750000D02*
G75*
G03*
X147300000Y-100750000I-111803J0D01*
G01*
D14*
X150410000Y-100300000D02*
X150410000Y-98500000D01*
X147190000Y-98500000D02*
X147190000Y-100350000D01*
D17*
X146654000Y-98473000D02*
X146654000Y-98727000D01*
X146146000Y-98473000D02*
X146146000Y-98727000D01*
D18*
X151550278Y-105430000D02*
G75*
G03*
X151550278Y-105430000I-180278J0D01*
G01*
D16*
X146670000Y-106830000D02*
X146670000Y-101630000D01*
X150820000Y-106830000D02*
X146670000Y-106830000D01*
X150820000Y-101530000D02*
X150820000Y-106830000D01*
X146670000Y-101530000D02*
X150820000Y-101530000D01*
X152475000Y-112165000D02*
X153745000Y-112165000D01*
X153745000Y-113435000D02*
X152475000Y-113435000D01*
X144275000Y-112165000D02*
X145545000Y-112165000D01*
X145545000Y-113435000D02*
X144275000Y-113435000D01*
X161235000Y-108165000D02*
X161235000Y-109435000D01*
X159965000Y-109435000D02*
X159965000Y-108165000D01*
D17*
X151346000Y-104127000D02*
X151346000Y-103873000D01*
X151854000Y-104127000D02*
X151854000Y-103873000D01*
D13*
G36*
X109491241Y-85469184D02*
G01*
X109517753Y-85482282D01*
X109550447Y-85505106D01*
X109574275Y-85529996D01*
X109590594Y-85561249D01*
X109600760Y-85603166D01*
X109606128Y-85660044D01*
X109608056Y-85736184D01*
X109608169Y-85768917D01*
X109607839Y-85840656D01*
X109606473Y-85891927D01*
X109603500Y-85927404D01*
X109598351Y-85951763D01*
X109590457Y-85969680D01*
X109582243Y-85981902D01*
X109529813Y-86033905D01*
X109468070Y-86065184D01*
X109401464Y-86074592D01*
X109334442Y-86060980D01*
X109313208Y-86051354D01*
X109262376Y-86024859D01*
X109262376Y-86440052D01*
X109299475Y-86420868D01*
X109348357Y-86406025D01*
X109408439Y-86402222D01*
X109468436Y-86409243D01*
X109513744Y-86425013D01*
X109551325Y-86455047D01*
X109583436Y-86498024D01*
X109585850Y-86502436D01*
X109596033Y-86523221D01*
X109603470Y-86544170D01*
X109608589Y-86569548D01*
X109611819Y-86603618D01*
X109613587Y-86650641D01*
X109614323Y-86714882D01*
X109614456Y-86787176D01*
X109614456Y-87017822D01*
X109476139Y-87017822D01*
X109476139Y-86592533D01*
X109437451Y-86559979D01*
X109397262Y-86533940D01*
X109359203Y-86529205D01*
X109320934Y-86541389D01*
X109300538Y-86553320D01*
X109285358Y-86570313D01*
X109274562Y-86595995D01*
X109267317Y-86633991D01*
X109262792Y-86687926D01*
X109260156Y-86761425D01*
X109259228Y-86810347D01*
X109256089Y-87011535D01*
X109190074Y-87015336D01*
X109124060Y-87019136D01*
X109124060Y-85770650D01*
X109262376Y-85770650D01*
X109265903Y-85840254D01*
X109277785Y-85888569D01*
X109299980Y-85918631D01*
X109334441Y-85933471D01*
X109369258Y-85936436D01*
X109408671Y-85933028D01*
X109434829Y-85919617D01*
X109451186Y-85901896D01*
X109464063Y-85882835D01*
X109471728Y-85861601D01*
X109475139Y-85831849D01*
X109475251Y-85787236D01*
X109474103Y-85749880D01*
X109471468Y-85693604D01*
X109467544Y-85656658D01*
X109460937Y-85633223D01*
X109450251Y-85617480D01*
X109440167Y-85608380D01*
X109398030Y-85588537D01*
X109348160Y-85585332D01*
X109319524Y-85592168D01*
X109291172Y-85616464D01*
X109272391Y-85663728D01*
X109263288Y-85733624D01*
X109262376Y-85770650D01*
X109124060Y-85770650D01*
X109124060Y-85458614D01*
X109193218Y-85458614D01*
X109234740Y-85460256D01*
X109256162Y-85466087D01*
X109262374Y-85477461D01*
X109262376Y-85477798D01*
X109265258Y-85488938D01*
X109277970Y-85487673D01*
X109303243Y-85475433D01*
X109362131Y-85456707D01*
X109428385Y-85454739D01*
X109491241Y-85469184D01*
G37*
X109491241Y-85469184D02*
X109517753Y-85482282D01*
X109550447Y-85505106D01*
X109574275Y-85529996D01*
X109590594Y-85561249D01*
X109600760Y-85603166D01*
X109606128Y-85660044D01*
X109608056Y-85736184D01*
X109608169Y-85768917D01*
X109607839Y-85840656D01*
X109606473Y-85891927D01*
X109603500Y-85927404D01*
X109598351Y-85951763D01*
X109590457Y-85969680D01*
X109582243Y-85981902D01*
X109529813Y-86033905D01*
X109468070Y-86065184D01*
X109401464Y-86074592D01*
X109334442Y-86060980D01*
X109313208Y-86051354D01*
X109262376Y-86024859D01*
X109262376Y-86440052D01*
X109299475Y-86420868D01*
X109348357Y-86406025D01*
X109408439Y-86402222D01*
X109468436Y-86409243D01*
X109513744Y-86425013D01*
X109551325Y-86455047D01*
X109583436Y-86498024D01*
X109585850Y-86502436D01*
X109596033Y-86523221D01*
X109603470Y-86544170D01*
X109608589Y-86569548D01*
X109611819Y-86603618D01*
X109613587Y-86650641D01*
X109614323Y-86714882D01*
X109614456Y-86787176D01*
X109614456Y-87017822D01*
X109476139Y-87017822D01*
X109476139Y-86592533D01*
X109437451Y-86559979D01*
X109397262Y-86533940D01*
X109359203Y-86529205D01*
X109320934Y-86541389D01*
X109300538Y-86553320D01*
X109285358Y-86570313D01*
X109274562Y-86595995D01*
X109267317Y-86633991D01*
X109262792Y-86687926D01*
X109260156Y-86761425D01*
X109259228Y-86810347D01*
X109256089Y-87011535D01*
X109190074Y-87015336D01*
X109124060Y-87019136D01*
X109124060Y-85770650D01*
X109262376Y-85770650D01*
X109265903Y-85840254D01*
X109277785Y-85888569D01*
X109299980Y-85918631D01*
X109334441Y-85933471D01*
X109369258Y-85936436D01*
X109408671Y-85933028D01*
X109434829Y-85919617D01*
X109451186Y-85901896D01*
X109464063Y-85882835D01*
X109471728Y-85861601D01*
X109475139Y-85831849D01*
X109475251Y-85787236D01*
X109474103Y-85749880D01*
X109471468Y-85693604D01*
X109467544Y-85656658D01*
X109460937Y-85633223D01*
X109450251Y-85617480D01*
X109440167Y-85608380D01*
X109398030Y-85588537D01*
X109348160Y-85585332D01*
X109319524Y-85592168D01*
X109291172Y-85616464D01*
X109272391Y-85663728D01*
X109263288Y-85733624D01*
X109262376Y-85770650D01*
X109124060Y-85770650D01*
X109124060Y-85458614D01*
X109193218Y-85458614D01*
X109234740Y-85460256D01*
X109256162Y-85466087D01*
X109262374Y-85477461D01*
X109262376Y-85477798D01*
X109265258Y-85488938D01*
X109277970Y-85487673D01*
X109303243Y-85475433D01*
X109362131Y-85456707D01*
X109428385Y-85454739D01*
X109491241Y-85469184D01*
G36*
X110015790Y-86406555D02*
G01*
X110074945Y-86422339D01*
X110119977Y-86450948D01*
X110151754Y-86488419D01*
X110161634Y-86504411D01*
X110168927Y-86521163D01*
X110174026Y-86542592D01*
X110177321Y-86572616D01*
X110179203Y-86615154D01*
X110180063Y-86674122D01*
X110180293Y-86753440D01*
X110180297Y-86774484D01*
X110180297Y-87017822D01*
X110119941Y-87017822D01*
X110081443Y-87015126D01*
X110052977Y-87008295D01*
X110045845Y-87004083D01*
X110026348Y-86996813D01*
X110006434Y-87004083D01*
X109973647Y-87013160D01*
X109926022Y-87016813D01*
X109873236Y-87015228D01*
X109824964Y-87008589D01*
X109796782Y-87000072D01*
X109742247Y-86965063D01*
X109708165Y-86916479D01*
X109692843Y-86851882D01*
X109692701Y-86850223D01*
X109694045Y-86821566D01*
X109815644Y-86821566D01*
X109826274Y-86854161D01*
X109843590Y-86872505D01*
X109878348Y-86886379D01*
X109924227Y-86891917D01*
X109971012Y-86889191D01*
X110008486Y-86878274D01*
X110018985Y-86871269D01*
X110037332Y-86838904D01*
X110041980Y-86802111D01*
X110041980Y-86753763D01*
X109972418Y-86753763D01*
X109906333Y-86758850D01*
X109856236Y-86773263D01*
X109825071Y-86795729D01*
X109815644Y-86821566D01*
X109694045Y-86821566D01*
X109696013Y-86779647D01*
X109719290Y-86723845D01*
X109763052Y-86681647D01*
X109769101Y-86677808D01*
X109795093Y-86665309D01*
X109827265Y-86657740D01*
X109872240Y-86654061D01*
X109925669Y-86653216D01*
X110041980Y-86653169D01*
X110041980Y-86604411D01*
X110037047Y-86566581D01*
X110024457Y-86541236D01*
X110022983Y-86539887D01*
X109994966Y-86528800D01*
X109952674Y-86524503D01*
X109905936Y-86526615D01*
X109864582Y-86534756D01*
X109840043Y-86546965D01*
X109826747Y-86556746D01*
X109812706Y-86558613D01*
X109793329Y-86550600D01*
X109764024Y-86530739D01*
X109720197Y-86497063D01*
X109716175Y-86493909D01*
X109718236Y-86482236D01*
X109735432Y-86462822D01*
X109761567Y-86441248D01*
X109790448Y-86423096D01*
X109799522Y-86418809D01*
X109832620Y-86410256D01*
X109881120Y-86404155D01*
X109935305Y-86401708D01*
X109937839Y-86401703D01*
X110015790Y-86406555D01*
G37*
X110015790Y-86406555D02*
X110074945Y-86422339D01*
X110119977Y-86450948D01*
X110151754Y-86488419D01*
X110161634Y-86504411D01*
X110168927Y-86521163D01*
X110174026Y-86542592D01*
X110177321Y-86572616D01*
X110179203Y-86615154D01*
X110180063Y-86674122D01*
X110180293Y-86753440D01*
X110180297Y-86774484D01*
X110180297Y-87017822D01*
X110119941Y-87017822D01*
X110081443Y-87015126D01*
X110052977Y-87008295D01*
X110045845Y-87004083D01*
X110026348Y-86996813D01*
X110006434Y-87004083D01*
X109973647Y-87013160D01*
X109926022Y-87016813D01*
X109873236Y-87015228D01*
X109824964Y-87008589D01*
X109796782Y-87000072D01*
X109742247Y-86965063D01*
X109708165Y-86916479D01*
X109692843Y-86851882D01*
X109692701Y-86850223D01*
X109694045Y-86821566D01*
X109815644Y-86821566D01*
X109826274Y-86854161D01*
X109843590Y-86872505D01*
X109878348Y-86886379D01*
X109924227Y-86891917D01*
X109971012Y-86889191D01*
X110008486Y-86878274D01*
X110018985Y-86871269D01*
X110037332Y-86838904D01*
X110041980Y-86802111D01*
X110041980Y-86753763D01*
X109972418Y-86753763D01*
X109906333Y-86758850D01*
X109856236Y-86773263D01*
X109825071Y-86795729D01*
X109815644Y-86821566D01*
X109694045Y-86821566D01*
X109696013Y-86779647D01*
X109719290Y-86723845D01*
X109763052Y-86681647D01*
X109769101Y-86677808D01*
X109795093Y-86665309D01*
X109827265Y-86657740D01*
X109872240Y-86654061D01*
X109925669Y-86653216D01*
X110041980Y-86653169D01*
X110041980Y-86604411D01*
X110037047Y-86566581D01*
X110024457Y-86541236D01*
X110022983Y-86539887D01*
X109994966Y-86528800D01*
X109952674Y-86524503D01*
X109905936Y-86526615D01*
X109864582Y-86534756D01*
X109840043Y-86546965D01*
X109826747Y-86556746D01*
X109812706Y-86558613D01*
X109793329Y-86550600D01*
X109764024Y-86530739D01*
X109720197Y-86497063D01*
X109716175Y-86493909D01*
X109718236Y-86482236D01*
X109735432Y-86462822D01*
X109761567Y-86441248D01*
X109790448Y-86423096D01*
X109799522Y-86418809D01*
X109832620Y-86410256D01*
X109881120Y-86404155D01*
X109935305Y-86401708D01*
X109937839Y-86401703D01*
X110015790Y-86406555D01*
G36*
X110406644Y-86403020D02*
G01*
X110425461Y-86408660D01*
X110431527Y-86421053D01*
X110431782Y-86426647D01*
X110432871Y-86442230D01*
X110440368Y-86444676D01*
X110460619Y-86433993D01*
X110472649Y-86426694D01*
X110510600Y-86411063D01*
X110555928Y-86403334D01*
X110603456Y-86402740D01*
X110648005Y-86408513D01*
X110684398Y-86419884D01*
X110707457Y-86436088D01*
X110712004Y-86456355D01*
X110709709Y-86461843D01*
X110692980Y-86484626D01*
X110667037Y-86512647D01*
X110662345Y-86517177D01*
X110637617Y-86538005D01*
X110616282Y-86544735D01*
X110586445Y-86540038D01*
X110574492Y-86536917D01*
X110537295Y-86529421D01*
X110511141Y-86532792D01*
X110489054Y-86544681D01*
X110468822Y-86560635D01*
X110453921Y-86580700D01*
X110443566Y-86608702D01*
X110436971Y-86648467D01*
X110433351Y-86703823D01*
X110431922Y-86778594D01*
X110431782Y-86823740D01*
X110431782Y-87017822D01*
X110306040Y-87017822D01*
X110306040Y-86401683D01*
X110368911Y-86401683D01*
X110406644Y-86403020D01*
G37*
X110406644Y-86403020D02*
X110425461Y-86408660D01*
X110431527Y-86421053D01*
X110431782Y-86426647D01*
X110432871Y-86442230D01*
X110440368Y-86444676D01*
X110460619Y-86433993D01*
X110472649Y-86426694D01*
X110510600Y-86411063D01*
X110555928Y-86403334D01*
X110603456Y-86402740D01*
X110648005Y-86408513D01*
X110684398Y-86419884D01*
X110707457Y-86436088D01*
X110712004Y-86456355D01*
X110709709Y-86461843D01*
X110692980Y-86484626D01*
X110667037Y-86512647D01*
X110662345Y-86517177D01*
X110637617Y-86538005D01*
X110616282Y-86544735D01*
X110586445Y-86540038D01*
X110574492Y-86536917D01*
X110537295Y-86529421D01*
X110511141Y-86532792D01*
X110489054Y-86544681D01*
X110468822Y-86560635D01*
X110453921Y-86580700D01*
X110443566Y-86608702D01*
X110436971Y-86648467D01*
X110433351Y-86703823D01*
X110431922Y-86778594D01*
X110431782Y-86823740D01*
X110431782Y-87017822D01*
X110306040Y-87017822D01*
X110306040Y-86401683D01*
X110368911Y-86401683D01*
X110406644Y-86403020D01*
G36*
X111198812Y-87017822D02*
G01*
X111129654Y-87017822D01*
X111089512Y-87016645D01*
X111068606Y-87011772D01*
X111061078Y-87001186D01*
X111060495Y-86994029D01*
X111059226Y-86979676D01*
X111051221Y-86976923D01*
X111030185Y-86985771D01*
X111013827Y-86994029D01*
X110951023Y-87013597D01*
X110882752Y-87014729D01*
X110827248Y-87000135D01*
X110775562Y-86964877D01*
X110736162Y-86912835D01*
X110714587Y-86851450D01*
X110714038Y-86848018D01*
X110710833Y-86810571D01*
X110709239Y-86756813D01*
X110709367Y-86716155D01*
X110846721Y-86716155D01*
X110849903Y-86770194D01*
X110857141Y-86814735D01*
X110866940Y-86839888D01*
X110904011Y-86874260D01*
X110948026Y-86886582D01*
X110993416Y-86876618D01*
X111032203Y-86846895D01*
X111046892Y-86826905D01*
X111055481Y-86803050D01*
X111059504Y-86768230D01*
X111060495Y-86715930D01*
X111058722Y-86664139D01*
X111054037Y-86618634D01*
X111047397Y-86588181D01*
X111046290Y-86585452D01*
X111019509Y-86553000D01*
X110980421Y-86535183D01*
X110936685Y-86532306D01*
X110895962Y-86544674D01*
X110865913Y-86572593D01*
X110862796Y-86578148D01*
X110853039Y-86612022D01*
X110847723Y-86660728D01*
X110846721Y-86716155D01*
X110709367Y-86716155D01*
X110709432Y-86695540D01*
X110710336Y-86662563D01*
X110716486Y-86580981D01*
X110729267Y-86519730D01*
X110750529Y-86474449D01*
X110782122Y-86440779D01*
X110812793Y-86421014D01*
X110855646Y-86407120D01*
X110908944Y-86402354D01*
X110963520Y-86406236D01*
X111010208Y-86418282D01*
X111034876Y-86432693D01*
X111060495Y-86455878D01*
X111060495Y-86162773D01*
X111198812Y-86162773D01*
X111198812Y-87017822D01*
G37*
X111198812Y-87017822D02*
X111129654Y-87017822D01*
X111089512Y-87016645D01*
X111068606Y-87011772D01*
X111061078Y-87001186D01*
X111060495Y-86994029D01*
X111059226Y-86979676D01*
X111051221Y-86976923D01*
X111030185Y-86985771D01*
X111013827Y-86994029D01*
X110951023Y-87013597D01*
X110882752Y-87014729D01*
X110827248Y-87000135D01*
X110775562Y-86964877D01*
X110736162Y-86912835D01*
X110714587Y-86851450D01*
X110714038Y-86848018D01*
X110710833Y-86810571D01*
X110709239Y-86756813D01*
X110709367Y-86716155D01*
X110846721Y-86716155D01*
X110849903Y-86770194D01*
X110857141Y-86814735D01*
X110866940Y-86839888D01*
X110904011Y-86874260D01*
X110948026Y-86886582D01*
X110993416Y-86876618D01*
X111032203Y-86846895D01*
X111046892Y-86826905D01*
X111055481Y-86803050D01*
X111059504Y-86768230D01*
X111060495Y-86715930D01*
X111058722Y-86664139D01*
X111054037Y-86618634D01*
X111047397Y-86588181D01*
X111046290Y-86585452D01*
X111019509Y-86553000D01*
X110980421Y-86535183D01*
X110936685Y-86532306D01*
X110895962Y-86544674D01*
X110865913Y-86572593D01*
X110862796Y-86578148D01*
X110853039Y-86612022D01*
X110847723Y-86660728D01*
X110846721Y-86716155D01*
X110709367Y-86716155D01*
X110709432Y-86695540D01*
X110710336Y-86662563D01*
X110716486Y-86580981D01*
X110729267Y-86519730D01*
X110750529Y-86474449D01*
X110782122Y-86440779D01*
X110812793Y-86421014D01*
X110855646Y-86407120D01*
X110908944Y-86402354D01*
X110963520Y-86406236D01*
X111010208Y-86418282D01*
X111034876Y-86432693D01*
X111060495Y-86455878D01*
X111060495Y-86162773D01*
X111198812Y-86162773D01*
X111198812Y-87017822D01*
G36*
X111681524Y-86404237D02*
G01*
X111731255Y-86407971D01*
X111861291Y-86797773D01*
X111881678Y-86728614D01*
X111893946Y-86685874D01*
X111910085Y-86628115D01*
X111927512Y-86564625D01*
X111936726Y-86530570D01*
X111971388Y-86401683D01*
X112114391Y-86401683D01*
X112071646Y-86536857D01*
X112050596Y-86603342D01*
X112025167Y-86683539D01*
X111998610Y-86767193D01*
X111974902Y-86841782D01*
X111920902Y-87011535D01*
X111862598Y-87015328D01*
X111804295Y-87019122D01*
X111772679Y-86914734D01*
X111753182Y-86849889D01*
X111731904Y-86778400D01*
X111713308Y-86715263D01*
X111712574Y-86712750D01*
X111698684Y-86669969D01*
X111686429Y-86640779D01*
X111677846Y-86629741D01*
X111676082Y-86631018D01*
X111669891Y-86648130D01*
X111658128Y-86684787D01*
X111642225Y-86736378D01*
X111623614Y-86798294D01*
X111613543Y-86832352D01*
X111559007Y-87017822D01*
X111443264Y-87017822D01*
X111350737Y-86725471D01*
X111324744Y-86643462D01*
X111301066Y-86568987D01*
X111280820Y-86505544D01*
X111265126Y-86456632D01*
X111255102Y-86425749D01*
X111252055Y-86416726D01*
X111254467Y-86407487D01*
X111273408Y-86403441D01*
X111312823Y-86403846D01*
X111318993Y-86404152D01*
X111392086Y-86407971D01*
X111439957Y-86584010D01*
X111457553Y-86648211D01*
X111473277Y-86704649D01*
X111485746Y-86748422D01*
X111493574Y-86774630D01*
X111495020Y-86778903D01*
X111501014Y-86773990D01*
X111513101Y-86748532D01*
X111529893Y-86705997D01*
X111550003Y-86649850D01*
X111567003Y-86599130D01*
X111631794Y-86400504D01*
X111681524Y-86404237D01*
G37*
X111681524Y-86404237D02*
X111731255Y-86407971D01*
X111861291Y-86797773D01*
X111881678Y-86728614D01*
X111893946Y-86685874D01*
X111910085Y-86628115D01*
X111927512Y-86564625D01*
X111936726Y-86530570D01*
X111971388Y-86401683D01*
X112114391Y-86401683D01*
X112071646Y-86536857D01*
X112050596Y-86603342D01*
X112025167Y-86683539D01*
X111998610Y-86767193D01*
X111974902Y-86841782D01*
X111920902Y-87011535D01*
X111862598Y-87015328D01*
X111804295Y-87019122D01*
X111772679Y-86914734D01*
X111753182Y-86849889D01*
X111731904Y-86778400D01*
X111713308Y-86715263D01*
X111712574Y-86712750D01*
X111698684Y-86669969D01*
X111686429Y-86640779D01*
X111677846Y-86629741D01*
X111676082Y-86631018D01*
X111669891Y-86648130D01*
X111658128Y-86684787D01*
X111642225Y-86736378D01*
X111623614Y-86798294D01*
X111613543Y-86832352D01*
X111559007Y-87017822D01*
X111443264Y-87017822D01*
X111350737Y-86725471D01*
X111324744Y-86643462D01*
X111301066Y-86568987D01*
X111280820Y-86505544D01*
X111265126Y-86456632D01*
X111255102Y-86425749D01*
X111252055Y-86416726D01*
X111254467Y-86407487D01*
X111273408Y-86403441D01*
X111312823Y-86403846D01*
X111318993Y-86404152D01*
X111392086Y-86407971D01*
X111439957Y-86584010D01*
X111457553Y-86648211D01*
X111473277Y-86704649D01*
X111485746Y-86748422D01*
X111493574Y-86774630D01*
X111495020Y-86778903D01*
X111501014Y-86773990D01*
X111513101Y-86748532D01*
X111529893Y-86705997D01*
X111550003Y-86649850D01*
X111567003Y-86599130D01*
X111631794Y-86400504D01*
X111681524Y-86404237D01*
G36*
X112438411Y-86405417D02*
G01*
X112491411Y-86418290D01*
X112506731Y-86425110D01*
X112536428Y-86442974D01*
X112559220Y-86463093D01*
X112576083Y-86488962D01*
X112587998Y-86524073D01*
X112595942Y-86571920D01*
X112600894Y-86635996D01*
X112603831Y-86719794D01*
X112604947Y-86775768D01*
X112609052Y-87017822D01*
X112538932Y-87017822D01*
X112496393Y-87016038D01*
X112474476Y-87009942D01*
X112468812Y-86999706D01*
X112465821Y-86988637D01*
X112452451Y-86990754D01*
X112434233Y-86999629D01*
X112388624Y-87013233D01*
X112330007Y-87016899D01*
X112268354Y-87010903D01*
X112213638Y-86995521D01*
X112208730Y-86993386D01*
X112158723Y-86958255D01*
X112125756Y-86909419D01*
X112110587Y-86852333D01*
X112111746Y-86831824D01*
X112235508Y-86831824D01*
X112246413Y-86859425D01*
X112278745Y-86879204D01*
X112330910Y-86889819D01*
X112358787Y-86891228D01*
X112405247Y-86887620D01*
X112436129Y-86873597D01*
X112443664Y-86866931D01*
X112464076Y-86830666D01*
X112468812Y-86797773D01*
X112468812Y-86753763D01*
X112407513Y-86753763D01*
X112336256Y-86757395D01*
X112286276Y-86768818D01*
X112254696Y-86788824D01*
X112247626Y-86797743D01*
X112235508Y-86831824D01*
X112111746Y-86831824D01*
X112113971Y-86792456D01*
X112136663Y-86735244D01*
X112167624Y-86696580D01*
X112186376Y-86679864D01*
X112204733Y-86668878D01*
X112228619Y-86662180D01*
X112263957Y-86658326D01*
X112316669Y-86655873D01*
X112337577Y-86655168D01*
X112468812Y-86650879D01*
X112468620Y-86611158D01*
X112463537Y-86569405D01*
X112445162Y-86544158D01*
X112408039Y-86528030D01*
X112407043Y-86527742D01*
X112354410Y-86521400D01*
X112302906Y-86529684D01*
X112264630Y-86549827D01*
X112249272Y-86559773D01*
X112232730Y-86558397D01*
X112207275Y-86543987D01*
X112192328Y-86533817D01*
X112163091Y-86512088D01*
X112144980Y-86495800D01*
X112142074Y-86491137D01*
X112154040Y-86467005D01*
X112189396Y-86438185D01*
X112204753Y-86428461D01*
X112248901Y-86411714D01*
X112308398Y-86402227D01*
X112374487Y-86400095D01*
X112438411Y-86405417D01*
G37*
X112438411Y-86405417D02*
X112491411Y-86418290D01*
X112506731Y-86425110D01*
X112536428Y-86442974D01*
X112559220Y-86463093D01*
X112576083Y-86488962D01*
X112587998Y-86524073D01*
X112595942Y-86571920D01*
X112600894Y-86635996D01*
X112603831Y-86719794D01*
X112604947Y-86775768D01*
X112609052Y-87017822D01*
X112538932Y-87017822D01*
X112496393Y-87016038D01*
X112474476Y-87009942D01*
X112468812Y-86999706D01*
X112465821Y-86988637D01*
X112452451Y-86990754D01*
X112434233Y-86999629D01*
X112388624Y-87013233D01*
X112330007Y-87016899D01*
X112268354Y-87010903D01*
X112213638Y-86995521D01*
X112208730Y-86993386D01*
X112158723Y-86958255D01*
X112125756Y-86909419D01*
X112110587Y-86852333D01*
X112111746Y-86831824D01*
X112235508Y-86831824D01*
X112246413Y-86859425D01*
X112278745Y-86879204D01*
X112330910Y-86889819D01*
X112358787Y-86891228D01*
X112405247Y-86887620D01*
X112436129Y-86873597D01*
X112443664Y-86866931D01*
X112464076Y-86830666D01*
X112468812Y-86797773D01*
X112468812Y-86753763D01*
X112407513Y-86753763D01*
X112336256Y-86757395D01*
X112286276Y-86768818D01*
X112254696Y-86788824D01*
X112247626Y-86797743D01*
X112235508Y-86831824D01*
X112111746Y-86831824D01*
X112113971Y-86792456D01*
X112136663Y-86735244D01*
X112167624Y-86696580D01*
X112186376Y-86679864D01*
X112204733Y-86668878D01*
X112228619Y-86662180D01*
X112263957Y-86658326D01*
X112316669Y-86655873D01*
X112337577Y-86655168D01*
X112468812Y-86650879D01*
X112468620Y-86611158D01*
X112463537Y-86569405D01*
X112445162Y-86544158D01*
X112408039Y-86528030D01*
X112407043Y-86527742D01*
X112354410Y-86521400D01*
X112302906Y-86529684D01*
X112264630Y-86549827D01*
X112249272Y-86559773D01*
X112232730Y-86558397D01*
X112207275Y-86543987D01*
X112192328Y-86533817D01*
X112163091Y-86512088D01*
X112144980Y-86495800D01*
X112142074Y-86491137D01*
X112154040Y-86467005D01*
X112189396Y-86438185D01*
X112204753Y-86428461D01*
X112248901Y-86411714D01*
X112308398Y-86402227D01*
X112374487Y-86400095D01*
X112438411Y-86405417D01*
G36*
X113035255Y-86401486D02*
G01*
X113083595Y-86411015D01*
X113111114Y-86425125D01*
X113140064Y-86448568D01*
X113098876Y-86500571D01*
X113073482Y-86532064D01*
X113056238Y-86547428D01*
X113039102Y-86549776D01*
X113014027Y-86542217D01*
X113002257Y-86537941D01*
X112954270Y-86531631D01*
X112910324Y-86545156D01*
X112878060Y-86575710D01*
X112872819Y-86585452D01*
X112867112Y-86611258D01*
X112862706Y-86658817D01*
X112859811Y-86724758D01*
X112858631Y-86805710D01*
X112858614Y-86817226D01*
X112858614Y-87017822D01*
X112720297Y-87017822D01*
X112720297Y-86401683D01*
X112789456Y-86401683D01*
X112829333Y-86402725D01*
X112850107Y-86407358D01*
X112857789Y-86417849D01*
X112858614Y-86427745D01*
X112858614Y-86453806D01*
X112891745Y-86427745D01*
X112929735Y-86409965D01*
X112980770Y-86401174D01*
X113035255Y-86401486D01*
G37*
X113035255Y-86401486D02*
X113083595Y-86411015D01*
X113111114Y-86425125D01*
X113140064Y-86448568D01*
X113098876Y-86500571D01*
X113073482Y-86532064D01*
X113056238Y-86547428D01*
X113039102Y-86549776D01*
X113014027Y-86542217D01*
X113002257Y-86537941D01*
X112954270Y-86531631D01*
X112910324Y-86545156D01*
X112878060Y-86575710D01*
X112872819Y-86585452D01*
X112867112Y-86611258D01*
X112862706Y-86658817D01*
X112859811Y-86724758D01*
X112858631Y-86805710D01*
X112858614Y-86817226D01*
X112858614Y-87017822D01*
X112720297Y-87017822D01*
X112720297Y-86401683D01*
X112789456Y-86401683D01*
X112829333Y-86402725D01*
X112850107Y-86407358D01*
X112857789Y-86417849D01*
X112858614Y-86427745D01*
X112858614Y-86453806D01*
X112891745Y-86427745D01*
X112929735Y-86409965D01*
X112980770Y-86401174D01*
X113035255Y-86401486D01*
G36*
X113432581Y-86404970D02*
G01*
X113492685Y-86420597D01*
X113543021Y-86452848D01*
X113567393Y-86476940D01*
X113607345Y-86533895D01*
X113630242Y-86599965D01*
X113638108Y-86681182D01*
X113638148Y-86687748D01*
X113638218Y-86753763D01*
X113258264Y-86753763D01*
X113266363Y-86788342D01*
X113280987Y-86819659D01*
X113306581Y-86852291D01*
X113311935Y-86857500D01*
X113357943Y-86885694D01*
X113410410Y-86890475D01*
X113470803Y-86871926D01*
X113481040Y-86866931D01*
X113512439Y-86851745D01*
X113533470Y-86843094D01*
X113537139Y-86842293D01*
X113549948Y-86850063D01*
X113574378Y-86869072D01*
X113586779Y-86879460D01*
X113612476Y-86903321D01*
X113620915Y-86919077D01*
X113615058Y-86933571D01*
X113611928Y-86937534D01*
X113590725Y-86954879D01*
X113555738Y-86975959D01*
X113531337Y-86988265D01*
X113462072Y-87009946D01*
X113385388Y-87016971D01*
X113312765Y-87008647D01*
X113292426Y-87002686D01*
X113229476Y-86968952D01*
X113182815Y-86917045D01*
X113152173Y-86846459D01*
X113137282Y-86756692D01*
X113135647Y-86709753D01*
X113140421Y-86641413D01*
X113260990Y-86641413D01*
X113272652Y-86646465D01*
X113303998Y-86650429D01*
X113349571Y-86652768D01*
X113380446Y-86653169D01*
X113435981Y-86652783D01*
X113471033Y-86650975D01*
X113490262Y-86646773D01*
X113498330Y-86639203D01*
X113499901Y-86628218D01*
X113489121Y-86594381D01*
X113461980Y-86560940D01*
X113426277Y-86535272D01*
X113390560Y-86524772D01*
X113342048Y-86534086D01*
X113300053Y-86561013D01*
X113270936Y-86599827D01*
X113260990Y-86641413D01*
X113140421Y-86641413D01*
X113142599Y-86610236D01*
X113164055Y-86530949D01*
X113200470Y-86471263D01*
X113252297Y-86430549D01*
X113319990Y-86408179D01*
X113356662Y-86403871D01*
X113432581Y-86404970D01*
G37*
X113432581Y-86404970D02*
X113492685Y-86420597D01*
X113543021Y-86452848D01*
X113567393Y-86476940D01*
X113607345Y-86533895D01*
X113630242Y-86599965D01*
X113638108Y-86681182D01*
X113638148Y-86687748D01*
X113638218Y-86753763D01*
X113258264Y-86753763D01*
X113266363Y-86788342D01*
X113280987Y-86819659D01*
X113306581Y-86852291D01*
X113311935Y-86857500D01*
X113357943Y-86885694D01*
X113410410Y-86890475D01*
X113470803Y-86871926D01*
X113481040Y-86866931D01*
X113512439Y-86851745D01*
X113533470Y-86843094D01*
X113537139Y-86842293D01*
X113549948Y-86850063D01*
X113574378Y-86869072D01*
X113586779Y-86879460D01*
X113612476Y-86903321D01*
X113620915Y-86919077D01*
X113615058Y-86933571D01*
X113611928Y-86937534D01*
X113590725Y-86954879D01*
X113555738Y-86975959D01*
X113531337Y-86988265D01*
X113462072Y-87009946D01*
X113385388Y-87016971D01*
X113312765Y-87008647D01*
X113292426Y-87002686D01*
X113229476Y-86968952D01*
X113182815Y-86917045D01*
X113152173Y-86846459D01*
X113137282Y-86756692D01*
X113135647Y-86709753D01*
X113140421Y-86641413D01*
X113260990Y-86641413D01*
X113272652Y-86646465D01*
X113303998Y-86650429D01*
X113349571Y-86652768D01*
X113380446Y-86653169D01*
X113435981Y-86652783D01*
X113471033Y-86650975D01*
X113490262Y-86646773D01*
X113498330Y-86639203D01*
X113499901Y-86628218D01*
X113489121Y-86594381D01*
X113461980Y-86560940D01*
X113426277Y-86535272D01*
X113390560Y-86524772D01*
X113342048Y-86534086D01*
X113300053Y-86561013D01*
X113270936Y-86599827D01*
X113260990Y-86641413D01*
X113140421Y-86641413D01*
X113142599Y-86610236D01*
X113164055Y-86530949D01*
X113200470Y-86471263D01*
X113252297Y-86430549D01*
X113319990Y-86408179D01*
X113356662Y-86403871D01*
X113432581Y-86404970D01*
G36*
X108861739Y-85465148D02*
G01*
X108927521Y-85494231D01*
X108977460Y-85542793D01*
X109011626Y-85610908D01*
X109030093Y-85698651D01*
X109031417Y-85712351D01*
X109032454Y-85808939D01*
X109019007Y-85893602D01*
X108991892Y-85962221D01*
X108977373Y-85984294D01*
X108926799Y-86031011D01*
X108862391Y-86061268D01*
X108790334Y-86073824D01*
X108716815Y-86067439D01*
X108660928Y-86047772D01*
X108612868Y-86014629D01*
X108573588Y-85971175D01*
X108572908Y-85970158D01*
X108556956Y-85943338D01*
X108546590Y-85916368D01*
X108540312Y-85882332D01*
X108536627Y-85834310D01*
X108535003Y-85794931D01*
X108534328Y-85759219D01*
X108660045Y-85759219D01*
X108661274Y-85794770D01*
X108665734Y-85842094D01*
X108673603Y-85872465D01*
X108687793Y-85894072D01*
X108701083Y-85906694D01*
X108748198Y-85933122D01*
X108797495Y-85936653D01*
X108843407Y-85917639D01*
X108866362Y-85896331D01*
X108882904Y-85874859D01*
X108892579Y-85854313D01*
X108896826Y-85827574D01*
X108897080Y-85787523D01*
X108895772Y-85750638D01*
X108892957Y-85697947D01*
X108888495Y-85663772D01*
X108880452Y-85641480D01*
X108866897Y-85624442D01*
X108856155Y-85614703D01*
X108811223Y-85589123D01*
X108762751Y-85587847D01*
X108722106Y-85602999D01*
X108687433Y-85634642D01*
X108666776Y-85686620D01*
X108660045Y-85759219D01*
X108534328Y-85759219D01*
X108533521Y-85716621D01*
X108536052Y-85658056D01*
X108543638Y-85614007D01*
X108557319Y-85579248D01*
X108578135Y-85548551D01*
X108585853Y-85539436D01*
X108634111Y-85494021D01*
X108685872Y-85467493D01*
X108749172Y-85456379D01*
X108780039Y-85455471D01*
X108861739Y-85465148D01*
G37*
X108861739Y-85465148D02*
X108927521Y-85494231D01*
X108977460Y-85542793D01*
X109011626Y-85610908D01*
X109030093Y-85698651D01*
X109031417Y-85712351D01*
X109032454Y-85808939D01*
X109019007Y-85893602D01*
X108991892Y-85962221D01*
X108977373Y-85984294D01*
X108926799Y-86031011D01*
X108862391Y-86061268D01*
X108790334Y-86073824D01*
X108716815Y-86067439D01*
X108660928Y-86047772D01*
X108612868Y-86014629D01*
X108573588Y-85971175D01*
X108572908Y-85970158D01*
X108556956Y-85943338D01*
X108546590Y-85916368D01*
X108540312Y-85882332D01*
X108536627Y-85834310D01*
X108535003Y-85794931D01*
X108534328Y-85759219D01*
X108660045Y-85759219D01*
X108661274Y-85794770D01*
X108665734Y-85842094D01*
X108673603Y-85872465D01*
X108687793Y-85894072D01*
X108701083Y-85906694D01*
X108748198Y-85933122D01*
X108797495Y-85936653D01*
X108843407Y-85917639D01*
X108866362Y-85896331D01*
X108882904Y-85874859D01*
X108892579Y-85854313D01*
X108896826Y-85827574D01*
X108897080Y-85787523D01*
X108895772Y-85750638D01*
X108892957Y-85697947D01*
X108888495Y-85663772D01*
X108880452Y-85641480D01*
X108866897Y-85624442D01*
X108856155Y-85614703D01*
X108811223Y-85589123D01*
X108762751Y-85587847D01*
X108722106Y-85602999D01*
X108687433Y-85634642D01*
X108666776Y-85686620D01*
X108660045Y-85759219D01*
X108534328Y-85759219D01*
X108533521Y-85716621D01*
X108536052Y-85658056D01*
X108543638Y-85614007D01*
X108557319Y-85579248D01*
X108578135Y-85548551D01*
X108585853Y-85539436D01*
X108634111Y-85494021D01*
X108685872Y-85467493D01*
X108749172Y-85456379D01*
X108780039Y-85455471D01*
X108861739Y-85465148D01*
G36*
X110043301Y-85472614D02*
G01*
X110055832Y-85478514D01*
X110099201Y-85510283D01*
X110140210Y-85556646D01*
X110170832Y-85607696D01*
X110179541Y-85631166D01*
X110187488Y-85673091D01*
X110192226Y-85723757D01*
X110192801Y-85744679D01*
X110192871Y-85810693D01*
X109812917Y-85810693D01*
X109821017Y-85845273D01*
X109840896Y-85886170D01*
X109875653Y-85921514D01*
X109917002Y-85944282D01*
X109943351Y-85949010D01*
X109979084Y-85943273D01*
X110021718Y-85928882D01*
X110036201Y-85922262D01*
X110089760Y-85895513D01*
X110135467Y-85930376D01*
X110161842Y-85953955D01*
X110175876Y-85973417D01*
X110176586Y-85979129D01*
X110164049Y-85992973D01*
X110136572Y-86014012D01*
X110111634Y-86030425D01*
X110044336Y-86059930D01*
X109968890Y-86073284D01*
X109894112Y-86069812D01*
X109834505Y-86051663D01*
X109773059Y-86012784D01*
X109729392Y-85961595D01*
X109702074Y-85895367D01*
X109689678Y-85811371D01*
X109688579Y-85772936D01*
X109692978Y-85684861D01*
X109693518Y-85682299D01*
X109819418Y-85682299D01*
X109822885Y-85690558D01*
X109837137Y-85695113D01*
X109866530Y-85697065D01*
X109915425Y-85697517D01*
X109934252Y-85697525D01*
X109991533Y-85696843D01*
X110027859Y-85694364D01*
X110047396Y-85689443D01*
X110054310Y-85681434D01*
X110054555Y-85678862D01*
X110046664Y-85658423D01*
X110026915Y-85629789D01*
X110018425Y-85619763D01*
X109986906Y-85591408D01*
X109954051Y-85580259D01*
X109936349Y-85579327D01*
X109888461Y-85590981D01*
X109848301Y-85622285D01*
X109822827Y-85667752D01*
X109822375Y-85669233D01*
X109819418Y-85682299D01*
X109693518Y-85682299D01*
X109707608Y-85615510D01*
X109733962Y-85560025D01*
X109766193Y-85520639D01*
X109825783Y-85477931D01*
X109895832Y-85455109D01*
X109970339Y-85453046D01*
X110043301Y-85472614D01*
G37*
X110043301Y-85472614D02*
X110055832Y-85478514D01*
X110099201Y-85510283D01*
X110140210Y-85556646D01*
X110170832Y-85607696D01*
X110179541Y-85631166D01*
X110187488Y-85673091D01*
X110192226Y-85723757D01*
X110192801Y-85744679D01*
X110192871Y-85810693D01*
X109812917Y-85810693D01*
X109821017Y-85845273D01*
X109840896Y-85886170D01*
X109875653Y-85921514D01*
X109917002Y-85944282D01*
X109943351Y-85949010D01*
X109979084Y-85943273D01*
X110021718Y-85928882D01*
X110036201Y-85922262D01*
X110089760Y-85895513D01*
X110135467Y-85930376D01*
X110161842Y-85953955D01*
X110175876Y-85973417D01*
X110176586Y-85979129D01*
X110164049Y-85992973D01*
X110136572Y-86014012D01*
X110111634Y-86030425D01*
X110044336Y-86059930D01*
X109968890Y-86073284D01*
X109894112Y-86069812D01*
X109834505Y-86051663D01*
X109773059Y-86012784D01*
X109729392Y-85961595D01*
X109702074Y-85895367D01*
X109689678Y-85811371D01*
X109688579Y-85772936D01*
X109692978Y-85684861D01*
X109693518Y-85682299D01*
X109819418Y-85682299D01*
X109822885Y-85690558D01*
X109837137Y-85695113D01*
X109866530Y-85697065D01*
X109915425Y-85697517D01*
X109934252Y-85697525D01*
X109991533Y-85696843D01*
X110027859Y-85694364D01*
X110047396Y-85689443D01*
X110054310Y-85681434D01*
X110054555Y-85678862D01*
X110046664Y-85658423D01*
X110026915Y-85629789D01*
X110018425Y-85619763D01*
X109986906Y-85591408D01*
X109954051Y-85580259D01*
X109936349Y-85579327D01*
X109888461Y-85590981D01*
X109848301Y-85622285D01*
X109822827Y-85667752D01*
X109822375Y-85669233D01*
X109819418Y-85682299D01*
X109693518Y-85682299D01*
X109707608Y-85615510D01*
X109733962Y-85560025D01*
X109766193Y-85520639D01*
X109825783Y-85477931D01*
X109895832Y-85455109D01*
X109970339Y-85453046D01*
X110043301Y-85472614D01*
G36*
X111414017Y-85456452D02*
G01*
X111461634Y-85465482D01*
X111511034Y-85484370D01*
X111516312Y-85486777D01*
X111553774Y-85506476D01*
X111579717Y-85524781D01*
X111588103Y-85536508D01*
X111580117Y-85555632D01*
X111560720Y-85583850D01*
X111552110Y-85594384D01*
X111516628Y-85635847D01*
X111470885Y-85608858D01*
X111427350Y-85590878D01*
X111377050Y-85581267D01*
X111328812Y-85580660D01*
X111291467Y-85589691D01*
X111282505Y-85595327D01*
X111265437Y-85621171D01*
X111263363Y-85650941D01*
X111276134Y-85674197D01*
X111283688Y-85678708D01*
X111306325Y-85684309D01*
X111346115Y-85690892D01*
X111395166Y-85697183D01*
X111404215Y-85698170D01*
X111482996Y-85711798D01*
X111540136Y-85734946D01*
X111578030Y-85769752D01*
X111599079Y-85818354D01*
X111605635Y-85877718D01*
X111596577Y-85945198D01*
X111567164Y-85998188D01*
X111517278Y-86036783D01*
X111446800Y-86061081D01*
X111368565Y-86070667D01*
X111304766Y-86070552D01*
X111253016Y-86061845D01*
X111217673Y-86049825D01*
X111173017Y-86028880D01*
X111131747Y-86004574D01*
X111117079Y-85993876D01*
X111079357Y-85963084D01*
X111124852Y-85917049D01*
X111170347Y-85871013D01*
X111222072Y-85905243D01*
X111273952Y-85930952D01*
X111329351Y-85944399D01*
X111382605Y-85945818D01*
X111428049Y-85935443D01*
X111460016Y-85913507D01*
X111470338Y-85894998D01*
X111468789Y-85865314D01*
X111443140Y-85842615D01*
X111393460Y-85826940D01*
X111339031Y-85819695D01*
X111255264Y-85805873D01*
X111193033Y-85779796D01*
X111151507Y-85740699D01*
X111129853Y-85687820D01*
X111126853Y-85625126D01*
X111141671Y-85559642D01*
X111175454Y-85510144D01*
X111228505Y-85476408D01*
X111301126Y-85458207D01*
X111354928Y-85454639D01*
X111414017Y-85456452D01*
G37*
X111414017Y-85456452D02*
X111461634Y-85465482D01*
X111511034Y-85484370D01*
X111516312Y-85486777D01*
X111553774Y-85506476D01*
X111579717Y-85524781D01*
X111588103Y-85536508D01*
X111580117Y-85555632D01*
X111560720Y-85583850D01*
X111552110Y-85594384D01*
X111516628Y-85635847D01*
X111470885Y-85608858D01*
X111427350Y-85590878D01*
X111377050Y-85581267D01*
X111328812Y-85580660D01*
X111291467Y-85589691D01*
X111282505Y-85595327D01*
X111265437Y-85621171D01*
X111263363Y-85650941D01*
X111276134Y-85674197D01*
X111283688Y-85678708D01*
X111306325Y-85684309D01*
X111346115Y-85690892D01*
X111395166Y-85697183D01*
X111404215Y-85698170D01*
X111482996Y-85711798D01*
X111540136Y-85734946D01*
X111578030Y-85769752D01*
X111599079Y-85818354D01*
X111605635Y-85877718D01*
X111596577Y-85945198D01*
X111567164Y-85998188D01*
X111517278Y-86036783D01*
X111446800Y-86061081D01*
X111368565Y-86070667D01*
X111304766Y-86070552D01*
X111253016Y-86061845D01*
X111217673Y-86049825D01*
X111173017Y-86028880D01*
X111131747Y-86004574D01*
X111117079Y-85993876D01*
X111079357Y-85963084D01*
X111124852Y-85917049D01*
X111170347Y-85871013D01*
X111222072Y-85905243D01*
X111273952Y-85930952D01*
X111329351Y-85944399D01*
X111382605Y-85945818D01*
X111428049Y-85935443D01*
X111460016Y-85913507D01*
X111470338Y-85894998D01*
X111468789Y-85865314D01*
X111443140Y-85842615D01*
X111393460Y-85826940D01*
X111339031Y-85819695D01*
X111255264Y-85805873D01*
X111193033Y-85779796D01*
X111151507Y-85740699D01*
X111129853Y-85687820D01*
X111126853Y-85625126D01*
X111141671Y-85559642D01*
X111175454Y-85510144D01*
X111228505Y-85476408D01*
X111301126Y-85458207D01*
X111354928Y-85454639D01*
X111414017Y-85456452D01*
G36*
X112010762Y-85466055D02*
G01*
X112074363Y-85500692D01*
X112124123Y-85555372D01*
X112147568Y-85599842D01*
X112157634Y-85639121D01*
X112164156Y-85695116D01*
X112166951Y-85759621D01*
X112165836Y-85824429D01*
X112160626Y-85881334D01*
X112154541Y-85911727D01*
X112134014Y-85953306D01*
X112098463Y-85997468D01*
X112055619Y-86036087D01*
X112013211Y-86061034D01*
X112012177Y-86061430D01*
X111959553Y-86072331D01*
X111897188Y-86072601D01*
X111837924Y-86062676D01*
X111815040Y-86054722D01*
X111756102Y-86021300D01*
X111713890Y-85977511D01*
X111686156Y-85919538D01*
X111670651Y-85843565D01*
X111667143Y-85803771D01*
X111667590Y-85753766D01*
X111802376Y-85753766D01*
X111806917Y-85826732D01*
X111819986Y-85882334D01*
X111840756Y-85917861D01*
X111855552Y-85928020D01*
X111893464Y-85935104D01*
X111938527Y-85933007D01*
X111977487Y-85922812D01*
X111987704Y-85917204D01*
X112014659Y-85884538D01*
X112032451Y-85834545D01*
X112040024Y-85773705D01*
X112036325Y-85708497D01*
X112028057Y-85669253D01*
X112004320Y-85623805D01*
X111966849Y-85595396D01*
X111921720Y-85585573D01*
X111875011Y-85595887D01*
X111839132Y-85621112D01*
X111820277Y-85641925D01*
X111809272Y-85662439D01*
X111804026Y-85690203D01*
X111802449Y-85732762D01*
X111802376Y-85753766D01*
X111667590Y-85753766D01*
X111668094Y-85697580D01*
X111685388Y-85610501D01*
X111719029Y-85542530D01*
X111769018Y-85493664D01*
X111835356Y-85463899D01*
X111849601Y-85460448D01*
X111935210Y-85452345D01*
X112010762Y-85466055D01*
G37*
X112010762Y-85466055D02*
X112074363Y-85500692D01*
X112124123Y-85555372D01*
X112147568Y-85599842D01*
X112157634Y-85639121D01*
X112164156Y-85695116D01*
X112166951Y-85759621D01*
X112165836Y-85824429D01*
X112160626Y-85881334D01*
X112154541Y-85911727D01*
X112134014Y-85953306D01*
X112098463Y-85997468D01*
X112055619Y-86036087D01*
X112013211Y-86061034D01*
X112012177Y-86061430D01*
X111959553Y-86072331D01*
X111897188Y-86072601D01*
X111837924Y-86062676D01*
X111815040Y-86054722D01*
X111756102Y-86021300D01*
X111713890Y-85977511D01*
X111686156Y-85919538D01*
X111670651Y-85843565D01*
X111667143Y-85803771D01*
X111667590Y-85753766D01*
X111802376Y-85753766D01*
X111806917Y-85826732D01*
X111819986Y-85882334D01*
X111840756Y-85917861D01*
X111855552Y-85928020D01*
X111893464Y-85935104D01*
X111938527Y-85933007D01*
X111977487Y-85922812D01*
X111987704Y-85917204D01*
X112014659Y-85884538D01*
X112032451Y-85834545D01*
X112040024Y-85773705D01*
X112036325Y-85708497D01*
X112028057Y-85669253D01*
X112004320Y-85623805D01*
X111966849Y-85595396D01*
X111921720Y-85585573D01*
X111875011Y-85595887D01*
X111839132Y-85621112D01*
X111820277Y-85641925D01*
X111809272Y-85662439D01*
X111804026Y-85690203D01*
X111802449Y-85732762D01*
X111802376Y-85753766D01*
X111667590Y-85753766D01*
X111668094Y-85697580D01*
X111685388Y-85610501D01*
X111719029Y-85542530D01*
X111769018Y-85493664D01*
X111835356Y-85463899D01*
X111849601Y-85460448D01*
X111935210Y-85452345D01*
X112010762Y-85466055D01*
G36*
X112393367Y-85654342D02*
G01*
X112394555Y-85746563D01*
X112398897Y-85816610D01*
X112407558Y-85867381D01*
X112421704Y-85901772D01*
X112442500Y-85922679D01*
X112471110Y-85933000D01*
X112506535Y-85935636D01*
X112543636Y-85932682D01*
X112571818Y-85921889D01*
X112592243Y-85900360D01*
X112606079Y-85865199D01*
X112614491Y-85813510D01*
X112618643Y-85742394D01*
X112619703Y-85654342D01*
X112619703Y-85458614D01*
X112758020Y-85458614D01*
X112758020Y-86062179D01*
X112688862Y-86062179D01*
X112647170Y-86060489D01*
X112625701Y-86054556D01*
X112619703Y-86043293D01*
X112616091Y-86033261D01*
X112601714Y-86035383D01*
X112572736Y-86049580D01*
X112506319Y-86071480D01*
X112435875Y-86069928D01*
X112368377Y-86046147D01*
X112336233Y-86027362D01*
X112311715Y-86007022D01*
X112293804Y-85981573D01*
X112281479Y-85947458D01*
X112273723Y-85901121D01*
X112269516Y-85839007D01*
X112267840Y-85757561D01*
X112267624Y-85694578D01*
X112267624Y-85458614D01*
X112393367Y-85458614D01*
X112393367Y-85654342D01*
G37*
X112393367Y-85654342D02*
X112394555Y-85746563D01*
X112398897Y-85816610D01*
X112407558Y-85867381D01*
X112421704Y-85901772D01*
X112442500Y-85922679D01*
X112471110Y-85933000D01*
X112506535Y-85935636D01*
X112543636Y-85932682D01*
X112571818Y-85921889D01*
X112592243Y-85900360D01*
X112606079Y-85865199D01*
X112614491Y-85813510D01*
X112618643Y-85742394D01*
X112619703Y-85654342D01*
X112619703Y-85458614D01*
X112758020Y-85458614D01*
X112758020Y-86062179D01*
X112688862Y-86062179D01*
X112647170Y-86060489D01*
X112625701Y-86054556D01*
X112619703Y-86043293D01*
X112616091Y-86033261D01*
X112601714Y-86035383D01*
X112572736Y-86049580D01*
X112506319Y-86071480D01*
X112435875Y-86069928D01*
X112368377Y-86046147D01*
X112336233Y-86027362D01*
X112311715Y-86007022D01*
X112293804Y-85981573D01*
X112281479Y-85947458D01*
X112273723Y-85901121D01*
X112269516Y-85839007D01*
X112267840Y-85757561D01*
X112267624Y-85694578D01*
X112267624Y-85458614D01*
X112393367Y-85458614D01*
X112393367Y-85654342D01*
G36*
X113617226Y-85463880D02*
G01*
X113690080Y-85494830D01*
X113713027Y-85509895D01*
X113742354Y-85533048D01*
X113760764Y-85551253D01*
X113763961Y-85557183D01*
X113754935Y-85570340D01*
X113731837Y-85592667D01*
X113713344Y-85608250D01*
X113662728Y-85648926D01*
X113622760Y-85615295D01*
X113591874Y-85593584D01*
X113561759Y-85586090D01*
X113527292Y-85587920D01*
X113472561Y-85601528D01*
X113434886Y-85629772D01*
X113411991Y-85675433D01*
X113401597Y-85741289D01*
X113401595Y-85741331D01*
X113402494Y-85814939D01*
X113416463Y-85868946D01*
X113444328Y-85905716D01*
X113463325Y-85918168D01*
X113513776Y-85933673D01*
X113567663Y-85933683D01*
X113614546Y-85918638D01*
X113625644Y-85911287D01*
X113653476Y-85892511D01*
X113675236Y-85889434D01*
X113698704Y-85903409D01*
X113724649Y-85928510D01*
X113765716Y-85970880D01*
X113720121Y-86008464D01*
X113649674Y-86050882D01*
X113570233Y-86071785D01*
X113487215Y-86070272D01*
X113432694Y-86056411D01*
X113368970Y-86022135D01*
X113318005Y-85968212D01*
X113294851Y-85930149D01*
X113276099Y-85875536D01*
X113266715Y-85806369D01*
X113266643Y-85731407D01*
X113275824Y-85659409D01*
X113294199Y-85599137D01*
X113297093Y-85592958D01*
X113339952Y-85532351D01*
X113397979Y-85488224D01*
X113466591Y-85461493D01*
X113541201Y-85453073D01*
X113617226Y-85463880D01*
G37*
X113617226Y-85463880D02*
X113690080Y-85494830D01*
X113713027Y-85509895D01*
X113742354Y-85533048D01*
X113760764Y-85551253D01*
X113763961Y-85557183D01*
X113754935Y-85570340D01*
X113731837Y-85592667D01*
X113713344Y-85608250D01*
X113662728Y-85648926D01*
X113622760Y-85615295D01*
X113591874Y-85593584D01*
X113561759Y-85586090D01*
X113527292Y-85587920D01*
X113472561Y-85601528D01*
X113434886Y-85629772D01*
X113411991Y-85675433D01*
X113401597Y-85741289D01*
X113401595Y-85741331D01*
X113402494Y-85814939D01*
X113416463Y-85868946D01*
X113444328Y-85905716D01*
X113463325Y-85918168D01*
X113513776Y-85933673D01*
X113567663Y-85933683D01*
X113614546Y-85918638D01*
X113625644Y-85911287D01*
X113653476Y-85892511D01*
X113675236Y-85889434D01*
X113698704Y-85903409D01*
X113724649Y-85928510D01*
X113765716Y-85970880D01*
X113720121Y-86008464D01*
X113649674Y-86050882D01*
X113570233Y-86071785D01*
X113487215Y-86070272D01*
X113432694Y-86056411D01*
X113368970Y-86022135D01*
X113318005Y-85968212D01*
X113294851Y-85930149D01*
X113276099Y-85875536D01*
X113266715Y-85806369D01*
X113266643Y-85731407D01*
X113275824Y-85659409D01*
X113294199Y-85599137D01*
X113297093Y-85592958D01*
X113339952Y-85532351D01*
X113397979Y-85488224D01*
X113466591Y-85461493D01*
X113541201Y-85453073D01*
X113617226Y-85463880D01*
G36*
X114077898Y-85456457D02*
G01*
X114110096Y-85464279D01*
X114171825Y-85492921D01*
X114224610Y-85536667D01*
X114261141Y-85589117D01*
X114266160Y-85600893D01*
X114273045Y-85631740D01*
X114277864Y-85677371D01*
X114279505Y-85723492D01*
X114279505Y-85810693D01*
X114097178Y-85810693D01*
X114021979Y-85810978D01*
X113969003Y-85812704D01*
X113935325Y-85817181D01*
X113918020Y-85825720D01*
X113914163Y-85839630D01*
X113920829Y-85860222D01*
X113932770Y-85884315D01*
X113966080Y-85924525D01*
X114012368Y-85944558D01*
X114068944Y-85943905D01*
X114133031Y-85922101D01*
X114188417Y-85895193D01*
X114234375Y-85931532D01*
X114280333Y-85967872D01*
X114237096Y-86007819D01*
X114179374Y-86045563D01*
X114108386Y-86068320D01*
X114032029Y-86074688D01*
X113958199Y-86063268D01*
X113946287Y-86059393D01*
X113881399Y-86025506D01*
X113833130Y-85974986D01*
X113800465Y-85906325D01*
X113782385Y-85818014D01*
X113782175Y-85816121D01*
X113780556Y-85719878D01*
X113787100Y-85685542D01*
X113914852Y-85685542D01*
X113926584Y-85690822D01*
X113958438Y-85694867D01*
X114005397Y-85697176D01*
X114035154Y-85697525D01*
X114090648Y-85697306D01*
X114125346Y-85695916D01*
X114143601Y-85692251D01*
X114149766Y-85685210D01*
X114148195Y-85673690D01*
X114146878Y-85669233D01*
X114124382Y-85627355D01*
X114089003Y-85593604D01*
X114057780Y-85578773D01*
X114016301Y-85579668D01*
X113974269Y-85598164D01*
X113939012Y-85628786D01*
X113917854Y-85666062D01*
X113914852Y-85685542D01*
X113787100Y-85685542D01*
X113796690Y-85635229D01*
X113828698Y-85564191D01*
X113874701Y-85508779D01*
X113932821Y-85471009D01*
X114001180Y-85452896D01*
X114077898Y-85456457D01*
G37*
X114077898Y-85456457D02*
X114110096Y-85464279D01*
X114171825Y-85492921D01*
X114224610Y-85536667D01*
X114261141Y-85589117D01*
X114266160Y-85600893D01*
X114273045Y-85631740D01*
X114277864Y-85677371D01*
X114279505Y-85723492D01*
X114279505Y-85810693D01*
X114097178Y-85810693D01*
X114021979Y-85810978D01*
X113969003Y-85812704D01*
X113935325Y-85817181D01*
X113918020Y-85825720D01*
X113914163Y-85839630D01*
X113920829Y-85860222D01*
X113932770Y-85884315D01*
X113966080Y-85924525D01*
X114012368Y-85944558D01*
X114068944Y-85943905D01*
X114133031Y-85922101D01*
X114188417Y-85895193D01*
X114234375Y-85931532D01*
X114280333Y-85967872D01*
X114237096Y-86007819D01*
X114179374Y-86045563D01*
X114108386Y-86068320D01*
X114032029Y-86074688D01*
X113958199Y-86063268D01*
X113946287Y-86059393D01*
X113881399Y-86025506D01*
X113833130Y-85974986D01*
X113800465Y-85906325D01*
X113782385Y-85818014D01*
X113782175Y-85816121D01*
X113780556Y-85719878D01*
X113787100Y-85685542D01*
X113914852Y-85685542D01*
X113926584Y-85690822D01*
X113958438Y-85694867D01*
X114005397Y-85697176D01*
X114035154Y-85697525D01*
X114090648Y-85697306D01*
X114125346Y-85695916D01*
X114143601Y-85692251D01*
X114149766Y-85685210D01*
X114148195Y-85673690D01*
X114146878Y-85669233D01*
X114124382Y-85627355D01*
X114089003Y-85593604D01*
X114057780Y-85578773D01*
X114016301Y-85579668D01*
X113974269Y-85598164D01*
X113939012Y-85628786D01*
X113917854Y-85666062D01*
X113914852Y-85685542D01*
X113787100Y-85685542D01*
X113796690Y-85635229D01*
X113828698Y-85564191D01*
X113874701Y-85508779D01*
X113932821Y-85471009D01*
X114001180Y-85452896D01*
X114077898Y-85456457D01*
G36*
X110645988Y-85469002D02*
G01*
X110677283Y-85483950D01*
X110707591Y-85505541D01*
X110730682Y-85530391D01*
X110747500Y-85562087D01*
X110758994Y-85604214D01*
X110766109Y-85660358D01*
X110769793Y-85734106D01*
X110770992Y-85829044D01*
X110771011Y-85838985D01*
X110771287Y-86062179D01*
X110632970Y-86062179D01*
X110632970Y-85856418D01*
X110632872Y-85780189D01*
X110632191Y-85724939D01*
X110630349Y-85686501D01*
X110626767Y-85660706D01*
X110620868Y-85643384D01*
X110612073Y-85630368D01*
X110599820Y-85617507D01*
X110556953Y-85589873D01*
X110510157Y-85584745D01*
X110465576Y-85602217D01*
X110450072Y-85615221D01*
X110438690Y-85627447D01*
X110430519Y-85640540D01*
X110425026Y-85658615D01*
X110421680Y-85685787D01*
X110419949Y-85726170D01*
X110419303Y-85783879D01*
X110419208Y-85854132D01*
X110419208Y-86062179D01*
X110280891Y-86062179D01*
X110280891Y-85458614D01*
X110350050Y-85458614D01*
X110391572Y-85460256D01*
X110412994Y-85466087D01*
X110419205Y-85477461D01*
X110419208Y-85477798D01*
X110422090Y-85488938D01*
X110434801Y-85487674D01*
X110460074Y-85475434D01*
X110517395Y-85457424D01*
X110582963Y-85455421D01*
X110645988Y-85469002D01*
G37*
X110645988Y-85469002D02*
X110677283Y-85483950D01*
X110707591Y-85505541D01*
X110730682Y-85530391D01*
X110747500Y-85562087D01*
X110758994Y-85604214D01*
X110766109Y-85660358D01*
X110769793Y-85734106D01*
X110770992Y-85829044D01*
X110771011Y-85838985D01*
X110771287Y-86062179D01*
X110632970Y-86062179D01*
X110632970Y-85856418D01*
X110632872Y-85780189D01*
X110632191Y-85724939D01*
X110630349Y-85686501D01*
X110626767Y-85660706D01*
X110620868Y-85643384D01*
X110612073Y-85630368D01*
X110599820Y-85617507D01*
X110556953Y-85589873D01*
X110510157Y-85584745D01*
X110465576Y-85602217D01*
X110450072Y-85615221D01*
X110438690Y-85627447D01*
X110430519Y-85640540D01*
X110425026Y-85658615D01*
X110421680Y-85685787D01*
X110419949Y-85726170D01*
X110419303Y-85783879D01*
X110419208Y-85854132D01*
X110419208Y-86062179D01*
X110280891Y-86062179D01*
X110280891Y-85458614D01*
X110350050Y-85458614D01*
X110391572Y-85460256D01*
X110412994Y-85466087D01*
X110419205Y-85477461D01*
X110419208Y-85477798D01*
X110422090Y-85488938D01*
X110434801Y-85487674D01*
X110460074Y-85475434D01*
X110517395Y-85457424D01*
X110582963Y-85455421D01*
X110645988Y-85469002D01*
G36*
X113199460Y-85458030D02*
G01*
X113242711Y-85471245D01*
X113270558Y-85487941D01*
X113279629Y-85501145D01*
X113277132Y-85516797D01*
X113260931Y-85541385D01*
X113247232Y-85558800D01*
X113218992Y-85590283D01*
X113197775Y-85603529D01*
X113179688Y-85602664D01*
X113126035Y-85589010D01*
X113086630Y-85589630D01*
X113054632Y-85605104D01*
X113043890Y-85614161D01*
X113009505Y-85646027D01*
X113009505Y-86062179D01*
X112871188Y-86062179D01*
X112871188Y-85458614D01*
X112940347Y-85458614D01*
X112981869Y-85460256D01*
X113003291Y-85466087D01*
X113009502Y-85477461D01*
X113009505Y-85477798D01*
X113012439Y-85489713D01*
X113025704Y-85488159D01*
X113044084Y-85479563D01*
X113082046Y-85463568D01*
X113112872Y-85453945D01*
X113152536Y-85451478D01*
X113199460Y-85458030D01*
G37*
X113199460Y-85458030D02*
X113242711Y-85471245D01*
X113270558Y-85487941D01*
X113279629Y-85501145D01*
X113277132Y-85516797D01*
X113260931Y-85541385D01*
X113247232Y-85558800D01*
X113218992Y-85590283D01*
X113197775Y-85603529D01*
X113179688Y-85602664D01*
X113126035Y-85589010D01*
X113086630Y-85589630D01*
X113054632Y-85605104D01*
X113043890Y-85614161D01*
X113009505Y-85646027D01*
X113009505Y-86062179D01*
X112871188Y-86062179D01*
X112871188Y-85458614D01*
X112940347Y-85458614D01*
X112981869Y-85460256D01*
X113003291Y-85466087D01*
X113009502Y-85477461D01*
X113009505Y-85477798D01*
X113012439Y-85489713D01*
X113025704Y-85488159D01*
X113044084Y-85479563D01*
X113082046Y-85463568D01*
X113112872Y-85453945D01*
X113152536Y-85451478D01*
X113199460Y-85458030D01*
G36*
X111776964Y-81290018D02*
G01*
X111833812Y-81591570D01*
X112253338Y-81764512D01*
X112504984Y-81593395D01*
X112575458Y-81545750D01*
X112639163Y-81503210D01*
X112693126Y-81467715D01*
X112734373Y-81441210D01*
X112759934Y-81425636D01*
X112766895Y-81422278D01*
X112779435Y-81430914D01*
X112806231Y-81454792D01*
X112844280Y-81490859D01*
X112890579Y-81536067D01*
X112942123Y-81587364D01*
X112995909Y-81641701D01*
X113048935Y-81696028D01*
X113098195Y-81747295D01*
X113140687Y-81792451D01*
X113173407Y-81828446D01*
X113193351Y-81852230D01*
X113198119Y-81860190D01*
X113191257Y-81874865D01*
X113172020Y-81907014D01*
X113142430Y-81953492D01*
X113104510Y-82011156D01*
X113060282Y-82076860D01*
X113034654Y-82114336D01*
X112987941Y-82182768D01*
X112946432Y-82244520D01*
X112912140Y-82296519D01*
X112887080Y-82335692D01*
X112873264Y-82358965D01*
X112871188Y-82363855D01*
X112875895Y-82377755D01*
X112888723Y-82410150D01*
X112907738Y-82456485D01*
X112931003Y-82512206D01*
X112956584Y-82572758D01*
X112982545Y-82633586D01*
X113006950Y-82690136D01*
X113027863Y-82737852D01*
X113043349Y-82772181D01*
X113051472Y-82788568D01*
X113051952Y-82789212D01*
X113064707Y-82792341D01*
X113098677Y-82799321D01*
X113150340Y-82809467D01*
X113216176Y-82822092D01*
X113292664Y-82836509D01*
X113337290Y-82844823D01*
X113419021Y-82860384D01*
X113492843Y-82875192D01*
X113555021Y-82888436D01*
X113601822Y-82899305D01*
X113629509Y-82906989D01*
X113635074Y-82909427D01*
X113640526Y-82925930D01*
X113644924Y-82963200D01*
X113648272Y-83016880D01*
X113650574Y-83082612D01*
X113651832Y-83156037D01*
X113652048Y-83232796D01*
X113651227Y-83308532D01*
X113649371Y-83378886D01*
X113646482Y-83439500D01*
X113642565Y-83486016D01*
X113637622Y-83514075D01*
X113634657Y-83519916D01*
X113616934Y-83526917D01*
X113579381Y-83536927D01*
X113526964Y-83548769D01*
X113464652Y-83561267D01*
X113442900Y-83565310D01*
X113338024Y-83584520D01*
X113255180Y-83599991D01*
X113191630Y-83612337D01*
X113144637Y-83622173D01*
X113111463Y-83630114D01*
X113089371Y-83636776D01*
X113075624Y-83642773D01*
X113067484Y-83648719D01*
X113066345Y-83649894D01*
X113054977Y-83668826D01*
X113037635Y-83705669D01*
X113016050Y-83755913D01*
X112991954Y-83815046D01*
X112967079Y-83878556D01*
X112943157Y-83941932D01*
X112921919Y-84000662D01*
X112905097Y-84050235D01*
X112894422Y-84086139D01*
X112891627Y-84103862D01*
X112891860Y-84104483D01*
X112901331Y-84118970D01*
X112922818Y-84150844D01*
X112954063Y-84196789D01*
X112992807Y-84253485D01*
X113036793Y-84317617D01*
X113049319Y-84335842D01*
X113093984Y-84401914D01*
X113133288Y-84462200D01*
X113165088Y-84513235D01*
X113187245Y-84551560D01*
X113197617Y-84573711D01*
X113198119Y-84576432D01*
X113189405Y-84590736D01*
X113165325Y-84619072D01*
X113128976Y-84658396D01*
X113083453Y-84705661D01*
X113031852Y-84757823D01*
X112977267Y-84811835D01*
X112922794Y-84864653D01*
X112871529Y-84913231D01*
X112826567Y-84954523D01*
X112791004Y-84985485D01*
X112767935Y-85003070D01*
X112761554Y-85005941D01*
X112746699Y-84999178D01*
X112716286Y-84980939D01*
X112675268Y-84954297D01*
X112643709Y-84932852D01*
X112586525Y-84893503D01*
X112518806Y-84847171D01*
X112450880Y-84800913D01*
X112414361Y-84776155D01*
X112290752Y-84692547D01*
X112186991Y-84748650D01*
X112139720Y-84773228D01*
X112099523Y-84792331D01*
X112072326Y-84803227D01*
X112065402Y-84804743D01*
X112057077Y-84793549D01*
X112040654Y-84761917D01*
X112017357Y-84712765D01*
X111988414Y-84649010D01*
X111955050Y-84573571D01*
X111918491Y-84489364D01*
X111879964Y-84399308D01*
X111840694Y-84306321D01*
X111801908Y-84213320D01*
X111764830Y-84123223D01*
X111730689Y-84038948D01*
X111700708Y-83963413D01*
X111676116Y-83899534D01*
X111658136Y-83850231D01*
X111647997Y-83818421D01*
X111646366Y-83807496D01*
X111659291Y-83793561D01*
X111687589Y-83770940D01*
X111725346Y-83744333D01*
X111728515Y-83742228D01*
X111826100Y-83664114D01*
X111904786Y-83572982D01*
X111963891Y-83471745D01*
X112002732Y-83363318D01*
X112020628Y-83250614D01*
X112016897Y-83136548D01*
X111990857Y-83024034D01*
X111941825Y-82915985D01*
X111927400Y-82892345D01*
X111852369Y-82796887D01*
X111763730Y-82720232D01*
X111664549Y-82662780D01*
X111557895Y-82624929D01*
X111446836Y-82607078D01*
X111334439Y-82609625D01*
X111223773Y-82632970D01*
X111117906Y-82677510D01*
X111019905Y-82743645D01*
X110989590Y-82770487D01*
X110912438Y-82854512D01*
X110856218Y-82942966D01*
X110817653Y-83042115D01*
X110796174Y-83140303D01*
X110790872Y-83250697D01*
X110808552Y-83361640D01*
X110847419Y-83469381D01*
X110905677Y-83570169D01*
X110981531Y-83660256D01*
X111073183Y-83735892D01*
X111085228Y-83743864D01*
X111123389Y-83769974D01*
X111152399Y-83792595D01*
X111166268Y-83807039D01*
X111166469Y-83807496D01*
X111163492Y-83823121D01*
X111151689Y-83858582D01*
X111132286Y-83910962D01*
X111106512Y-83977345D01*
X111075591Y-84054814D01*
X111040751Y-84140450D01*
X111003217Y-84231337D01*
X110964217Y-84324559D01*
X110924977Y-84417197D01*
X110886724Y-84506335D01*
X110850683Y-84589055D01*
X110818083Y-84662441D01*
X110790148Y-84723575D01*
X110768105Y-84769541D01*
X110753182Y-84797421D01*
X110747172Y-84804743D01*
X110728809Y-84799041D01*
X110694448Y-84783749D01*
X110650016Y-84761599D01*
X110625583Y-84748650D01*
X110521822Y-84692547D01*
X110398213Y-84776155D01*
X110335114Y-84818987D01*
X110266030Y-84866122D01*
X110201293Y-84910503D01*
X110168866Y-84932852D01*
X110123259Y-84963477D01*
X110084640Y-84987747D01*
X110058048Y-85002587D01*
X110049410Y-85005724D01*
X110036839Y-84997261D01*
X110009016Y-84973636D01*
X109968639Y-84937302D01*
X109918405Y-84890711D01*
X109861012Y-84836317D01*
X109824714Y-84801392D01*
X109761210Y-84738996D01*
X109706327Y-84683188D01*
X109662286Y-84636354D01*
X109631305Y-84600882D01*
X109615602Y-84579161D01*
X109614095Y-84574752D01*
X109621086Y-84557985D01*
X109640406Y-84524082D01*
X109669909Y-84476476D01*
X109707455Y-84418599D01*
X109750900Y-84353884D01*
X109763255Y-84335842D01*
X109808273Y-84270267D01*
X109848660Y-84211228D01*
X109882160Y-84162042D01*
X109906514Y-84126028D01*
X109919464Y-84106502D01*
X109920715Y-84104483D01*
X109918844Y-84088922D01*
X109908913Y-84054709D01*
X109892653Y-84006355D01*
X109871795Y-83948371D01*
X109848073Y-83885270D01*
X109823216Y-83821563D01*
X109798958Y-83761761D01*
X109777029Y-83710376D01*
X109759162Y-83671919D01*
X109747087Y-83650902D01*
X109746229Y-83649894D01*
X109738846Y-83643888D01*
X109726375Y-83637948D01*
X109706080Y-83631460D01*
X109675222Y-83623809D01*
X109631066Y-83614380D01*
X109570874Y-83602559D01*
X109491907Y-83587729D01*
X109391430Y-83569277D01*
X109369675Y-83565310D01*
X109305198Y-83552853D01*
X109248989Y-83540666D01*
X109206013Y-83529926D01*
X109181240Y-83521809D01*
X109177918Y-83519916D01*
X109172444Y-83503138D01*
X109167994Y-83465645D01*
X109164572Y-83411794D01*
X109162181Y-83345944D01*
X109160823Y-83272453D01*
X109160501Y-83195680D01*
X109161219Y-83119983D01*
X109162979Y-83049720D01*
X109165784Y-82989250D01*
X109169638Y-82942930D01*
X109174543Y-82915119D01*
X109177500Y-82909427D01*
X109193963Y-82903686D01*
X109231449Y-82894345D01*
X109286225Y-82882215D01*
X109354555Y-82868107D01*
X109432706Y-82852830D01*
X109475284Y-82844823D01*
X109556071Y-82829721D01*
X109628113Y-82816040D01*
X109687889Y-82804467D01*
X109731879Y-82795687D01*
X109756561Y-82790387D01*
X109760623Y-82789212D01*
X109767489Y-82775965D01*
X109782002Y-82744057D01*
X109802229Y-82698047D01*
X109826234Y-82642492D01*
X109852082Y-82581953D01*
X109877840Y-82520986D01*
X109901573Y-82464151D01*
X109921346Y-82416006D01*
X109935224Y-82381110D01*
X109941274Y-82364021D01*
X109941386Y-82363274D01*
X109934528Y-82349793D01*
X109915302Y-82318770D01*
X109885728Y-82273289D01*
X109847827Y-82216432D01*
X109803620Y-82151283D01*
X109777921Y-82113862D01*
X109731093Y-82045247D01*
X109689501Y-81982952D01*
X109655175Y-81930129D01*
X109630143Y-81889927D01*
X109616435Y-81865500D01*
X109614456Y-81860024D01*
X109622966Y-81847278D01*
X109646493Y-81820063D01*
X109682032Y-81781428D01*
X109726577Y-81734423D01*
X109777123Y-81682095D01*
X109830664Y-81627495D01*
X109884195Y-81573670D01*
X109934711Y-81523670D01*
X109979206Y-81480543D01*
X110014675Y-81447339D01*
X110038113Y-81427106D01*
X110045954Y-81422278D01*
X110058720Y-81429067D01*
X110089256Y-81448142D01*
X110134590Y-81477561D01*
X110191756Y-81515381D01*
X110257784Y-81559661D01*
X110307590Y-81593395D01*
X110559236Y-81764512D01*
X110768999Y-81678041D01*
X110978763Y-81591570D01*
X111035611Y-81290018D01*
X111092460Y-80988466D01*
X111720115Y-80988466D01*
X111776964Y-81290018D01*
G37*
X111776964Y-81290018D02*
X111833812Y-81591570D01*
X112253338Y-81764512D01*
X112504984Y-81593395D01*
X112575458Y-81545750D01*
X112639163Y-81503210D01*
X112693126Y-81467715D01*
X112734373Y-81441210D01*
X112759934Y-81425636D01*
X112766895Y-81422278D01*
X112779435Y-81430914D01*
X112806231Y-81454792D01*
X112844280Y-81490859D01*
X112890579Y-81536067D01*
X112942123Y-81587364D01*
X112995909Y-81641701D01*
X113048935Y-81696028D01*
X113098195Y-81747295D01*
X113140687Y-81792451D01*
X113173407Y-81828446D01*
X113193351Y-81852230D01*
X113198119Y-81860190D01*
X113191257Y-81874865D01*
X113172020Y-81907014D01*
X113142430Y-81953492D01*
X113104510Y-82011156D01*
X113060282Y-82076860D01*
X113034654Y-82114336D01*
X112987941Y-82182768D01*
X112946432Y-82244520D01*
X112912140Y-82296519D01*
X112887080Y-82335692D01*
X112873264Y-82358965D01*
X112871188Y-82363855D01*
X112875895Y-82377755D01*
X112888723Y-82410150D01*
X112907738Y-82456485D01*
X112931003Y-82512206D01*
X112956584Y-82572758D01*
X112982545Y-82633586D01*
X113006950Y-82690136D01*
X113027863Y-82737852D01*
X113043349Y-82772181D01*
X113051472Y-82788568D01*
X113051952Y-82789212D01*
X113064707Y-82792341D01*
X113098677Y-82799321D01*
X113150340Y-82809467D01*
X113216176Y-82822092D01*
X113292664Y-82836509D01*
X113337290Y-82844823D01*
X113419021Y-82860384D01*
X113492843Y-82875192D01*
X113555021Y-82888436D01*
X113601822Y-82899305D01*
X113629509Y-82906989D01*
X113635074Y-82909427D01*
X113640526Y-82925930D01*
X113644924Y-82963200D01*
X113648272Y-83016880D01*
X113650574Y-83082612D01*
X113651832Y-83156037D01*
X113652048Y-83232796D01*
X113651227Y-83308532D01*
X113649371Y-83378886D01*
X113646482Y-83439500D01*
X113642565Y-83486016D01*
X113637622Y-83514075D01*
X113634657Y-83519916D01*
X113616934Y-83526917D01*
X113579381Y-83536927D01*
X113526964Y-83548769D01*
X113464652Y-83561267D01*
X113442900Y-83565310D01*
X113338024Y-83584520D01*
X113255180Y-83599991D01*
X113191630Y-83612337D01*
X113144637Y-83622173D01*
X113111463Y-83630114D01*
X113089371Y-83636776D01*
X113075624Y-83642773D01*
X113067484Y-83648719D01*
X113066345Y-83649894D01*
X113054977Y-83668826D01*
X113037635Y-83705669D01*
X113016050Y-83755913D01*
X112991954Y-83815046D01*
X112967079Y-83878556D01*
X112943157Y-83941932D01*
X112921919Y-84000662D01*
X112905097Y-84050235D01*
X112894422Y-84086139D01*
X112891627Y-84103862D01*
X112891860Y-84104483D01*
X112901331Y-84118970D01*
X112922818Y-84150844D01*
X112954063Y-84196789D01*
X112992807Y-84253485D01*
X113036793Y-84317617D01*
X113049319Y-84335842D01*
X113093984Y-84401914D01*
X113133288Y-84462200D01*
X113165088Y-84513235D01*
X113187245Y-84551560D01*
X113197617Y-84573711D01*
X113198119Y-84576432D01*
X113189405Y-84590736D01*
X113165325Y-84619072D01*
X113128976Y-84658396D01*
X113083453Y-84705661D01*
X113031852Y-84757823D01*
X112977267Y-84811835D01*
X112922794Y-84864653D01*
X112871529Y-84913231D01*
X112826567Y-84954523D01*
X112791004Y-84985485D01*
X112767935Y-85003070D01*
X112761554Y-85005941D01*
X112746699Y-84999178D01*
X112716286Y-84980939D01*
X112675268Y-84954297D01*
X112643709Y-84932852D01*
X112586525Y-84893503D01*
X112518806Y-84847171D01*
X112450880Y-84800913D01*
X112414361Y-84776155D01*
X112290752Y-84692547D01*
X112186991Y-84748650D01*
X112139720Y-84773228D01*
X112099523Y-84792331D01*
X112072326Y-84803227D01*
X112065402Y-84804743D01*
X112057077Y-84793549D01*
X112040654Y-84761917D01*
X112017357Y-84712765D01*
X111988414Y-84649010D01*
X111955050Y-84573571D01*
X111918491Y-84489364D01*
X111879964Y-84399308D01*
X111840694Y-84306321D01*
X111801908Y-84213320D01*
X111764830Y-84123223D01*
X111730689Y-84038948D01*
X111700708Y-83963413D01*
X111676116Y-83899534D01*
X111658136Y-83850231D01*
X111647997Y-83818421D01*
X111646366Y-83807496D01*
X111659291Y-83793561D01*
X111687589Y-83770940D01*
X111725346Y-83744333D01*
X111728515Y-83742228D01*
X111826100Y-83664114D01*
X111904786Y-83572982D01*
X111963891Y-83471745D01*
X112002732Y-83363318D01*
X112020628Y-83250614D01*
X112016897Y-83136548D01*
X111990857Y-83024034D01*
X111941825Y-82915985D01*
X111927400Y-82892345D01*
X111852369Y-82796887D01*
X111763730Y-82720232D01*
X111664549Y-82662780D01*
X111557895Y-82624929D01*
X111446836Y-82607078D01*
X111334439Y-82609625D01*
X111223773Y-82632970D01*
X111117906Y-82677510D01*
X111019905Y-82743645D01*
X110989590Y-82770487D01*
X110912438Y-82854512D01*
X110856218Y-82942966D01*
X110817653Y-83042115D01*
X110796174Y-83140303D01*
X110790872Y-83250697D01*
X110808552Y-83361640D01*
X110847419Y-83469381D01*
X110905677Y-83570169D01*
X110981531Y-83660256D01*
X111073183Y-83735892D01*
X111085228Y-83743864D01*
X111123389Y-83769974D01*
X111152399Y-83792595D01*
X111166268Y-83807039D01*
X111166469Y-83807496D01*
X111163492Y-83823121D01*
X111151689Y-83858582D01*
X111132286Y-83910962D01*
X111106512Y-83977345D01*
X111075591Y-84054814D01*
X111040751Y-84140450D01*
X111003217Y-84231337D01*
X110964217Y-84324559D01*
X110924977Y-84417197D01*
X110886724Y-84506335D01*
X110850683Y-84589055D01*
X110818083Y-84662441D01*
X110790148Y-84723575D01*
X110768105Y-84769541D01*
X110753182Y-84797421D01*
X110747172Y-84804743D01*
X110728809Y-84799041D01*
X110694448Y-84783749D01*
X110650016Y-84761599D01*
X110625583Y-84748650D01*
X110521822Y-84692547D01*
X110398213Y-84776155D01*
X110335114Y-84818987D01*
X110266030Y-84866122D01*
X110201293Y-84910503D01*
X110168866Y-84932852D01*
X110123259Y-84963477D01*
X110084640Y-84987747D01*
X110058048Y-85002587D01*
X110049410Y-85005724D01*
X110036839Y-84997261D01*
X110009016Y-84973636D01*
X109968639Y-84937302D01*
X109918405Y-84890711D01*
X109861012Y-84836317D01*
X109824714Y-84801392D01*
X109761210Y-84738996D01*
X109706327Y-84683188D01*
X109662286Y-84636354D01*
X109631305Y-84600882D01*
X109615602Y-84579161D01*
X109614095Y-84574752D01*
X109621086Y-84557985D01*
X109640406Y-84524082D01*
X109669909Y-84476476D01*
X109707455Y-84418599D01*
X109750900Y-84353884D01*
X109763255Y-84335842D01*
X109808273Y-84270267D01*
X109848660Y-84211228D01*
X109882160Y-84162042D01*
X109906514Y-84126028D01*
X109919464Y-84106502D01*
X109920715Y-84104483D01*
X109918844Y-84088922D01*
X109908913Y-84054709D01*
X109892653Y-84006355D01*
X109871795Y-83948371D01*
X109848073Y-83885270D01*
X109823216Y-83821563D01*
X109798958Y-83761761D01*
X109777029Y-83710376D01*
X109759162Y-83671919D01*
X109747087Y-83650902D01*
X109746229Y-83649894D01*
X109738846Y-83643888D01*
X109726375Y-83637948D01*
X109706080Y-83631460D01*
X109675222Y-83623809D01*
X109631066Y-83614380D01*
X109570874Y-83602559D01*
X109491907Y-83587729D01*
X109391430Y-83569277D01*
X109369675Y-83565310D01*
X109305198Y-83552853D01*
X109248989Y-83540666D01*
X109206013Y-83529926D01*
X109181240Y-83521809D01*
X109177918Y-83519916D01*
X109172444Y-83503138D01*
X109167994Y-83465645D01*
X109164572Y-83411794D01*
X109162181Y-83345944D01*
X109160823Y-83272453D01*
X109160501Y-83195680D01*
X109161219Y-83119983D01*
X109162979Y-83049720D01*
X109165784Y-82989250D01*
X109169638Y-82942930D01*
X109174543Y-82915119D01*
X109177500Y-82909427D01*
X109193963Y-82903686D01*
X109231449Y-82894345D01*
X109286225Y-82882215D01*
X109354555Y-82868107D01*
X109432706Y-82852830D01*
X109475284Y-82844823D01*
X109556071Y-82829721D01*
X109628113Y-82816040D01*
X109687889Y-82804467D01*
X109731879Y-82795687D01*
X109756561Y-82790387D01*
X109760623Y-82789212D01*
X109767489Y-82775965D01*
X109782002Y-82744057D01*
X109802229Y-82698047D01*
X109826234Y-82642492D01*
X109852082Y-82581953D01*
X109877840Y-82520986D01*
X109901573Y-82464151D01*
X109921346Y-82416006D01*
X109935224Y-82381110D01*
X109941274Y-82364021D01*
X109941386Y-82363274D01*
X109934528Y-82349793D01*
X109915302Y-82318770D01*
X109885728Y-82273289D01*
X109847827Y-82216432D01*
X109803620Y-82151283D01*
X109777921Y-82113862D01*
X109731093Y-82045247D01*
X109689501Y-81982952D01*
X109655175Y-81930129D01*
X109630143Y-81889927D01*
X109616435Y-81865500D01*
X109614456Y-81860024D01*
X109622966Y-81847278D01*
X109646493Y-81820063D01*
X109682032Y-81781428D01*
X109726577Y-81734423D01*
X109777123Y-81682095D01*
X109830664Y-81627495D01*
X109884195Y-81573670D01*
X109934711Y-81523670D01*
X109979206Y-81480543D01*
X110014675Y-81447339D01*
X110038113Y-81427106D01*
X110045954Y-81422278D01*
X110058720Y-81429067D01*
X110089256Y-81448142D01*
X110134590Y-81477561D01*
X110191756Y-81515381D01*
X110257784Y-81559661D01*
X110307590Y-81593395D01*
X110559236Y-81764512D01*
X110768999Y-81678041D01*
X110978763Y-81591570D01*
X111035611Y-81290018D01*
X111092460Y-80988466D01*
X111720115Y-80988466D01*
X111776964Y-81290018D01*
D10*
X155750000Y-103589285D02*
X155750000Y-104125000D01*
X155714285Y-104232142D01*
X155642857Y-104303571D01*
X155535714Y-104339285D01*
X155464285Y-104339285D01*
X156428571Y-103589285D02*
X156285714Y-103589285D01*
X156214285Y-103625000D01*
X156178571Y-103660714D01*
X156107142Y-103767857D01*
X156071428Y-103910714D01*
X156071428Y-104196428D01*
X156107142Y-104267857D01*
X156142857Y-104303571D01*
X156214285Y-104339285D01*
X156357142Y-104339285D01*
X156428571Y-104303571D01*
X156464285Y-104267857D01*
X156500000Y-104196428D01*
X156500000Y-104017857D01*
X156464285Y-103946428D01*
X156428571Y-103910714D01*
X156357142Y-103875000D01*
X156214285Y-103875000D01*
X156142857Y-103910714D01*
X156107142Y-103946428D01*
X156071428Y-104017857D01*
X136517857Y-108967857D02*
X136482142Y-109003571D01*
X136375000Y-109039285D01*
X136303571Y-109039285D01*
X136196428Y-109003571D01*
X136125000Y-108932142D01*
X136089285Y-108860714D01*
X136053571Y-108717857D01*
X136053571Y-108610714D01*
X136089285Y-108467857D01*
X136125000Y-108396428D01*
X136196428Y-108325000D01*
X136303571Y-108289285D01*
X136375000Y-108289285D01*
X136482142Y-108325000D01*
X136517857Y-108360714D01*
X136803571Y-108360714D02*
X136839285Y-108325000D01*
X136910714Y-108289285D01*
X137089285Y-108289285D01*
X137160714Y-108325000D01*
X137196428Y-108360714D01*
X137232142Y-108432142D01*
X137232142Y-108503571D01*
X137196428Y-108610714D01*
X136767857Y-109039285D01*
X137232142Y-109039285D01*
X137946428Y-109039285D02*
X137517857Y-109039285D01*
X137732142Y-109039285D02*
X137732142Y-108289285D01*
X137660714Y-108396428D01*
X137589285Y-108467857D01*
X137517857Y-108503571D01*
X129467857Y-104882142D02*
X129503571Y-104917857D01*
X129539285Y-105025000D01*
X129539285Y-105096428D01*
X129503571Y-105203571D01*
X129432142Y-105275000D01*
X129360714Y-105310714D01*
X129217857Y-105346428D01*
X129110714Y-105346428D01*
X128967857Y-105310714D01*
X128896428Y-105275000D01*
X128825000Y-105203571D01*
X128789285Y-105096428D01*
X128789285Y-105025000D01*
X128825000Y-104917857D01*
X128860714Y-104882142D01*
X128860714Y-104596428D02*
X128825000Y-104560714D01*
X128789285Y-104489285D01*
X128789285Y-104310714D01*
X128825000Y-104239285D01*
X128860714Y-104203571D01*
X128932142Y-104167857D01*
X129003571Y-104167857D01*
X129110714Y-104203571D01*
X129539285Y-104632142D01*
X129539285Y-104167857D01*
X128860714Y-103882142D02*
X128825000Y-103846428D01*
X128789285Y-103775000D01*
X128789285Y-103596428D01*
X128825000Y-103525000D01*
X128860714Y-103489285D01*
X128932142Y-103453571D01*
X129003571Y-103453571D01*
X129110714Y-103489285D01*
X129539285Y-103917857D01*
X129539285Y-103453571D01*
X129917857Y-108867857D02*
X129882142Y-108903571D01*
X129775000Y-108939285D01*
X129703571Y-108939285D01*
X129596428Y-108903571D01*
X129525000Y-108832142D01*
X129489285Y-108760714D01*
X129453571Y-108617857D01*
X129453571Y-108510714D01*
X129489285Y-108367857D01*
X129525000Y-108296428D01*
X129596428Y-108225000D01*
X129703571Y-108189285D01*
X129775000Y-108189285D01*
X129882142Y-108225000D01*
X129917857Y-108260714D01*
X130203571Y-108260714D02*
X130239285Y-108225000D01*
X130310714Y-108189285D01*
X130489285Y-108189285D01*
X130560714Y-108225000D01*
X130596428Y-108260714D01*
X130632142Y-108332142D01*
X130632142Y-108403571D01*
X130596428Y-108510714D01*
X130167857Y-108939285D01*
X130632142Y-108939285D01*
X131096428Y-108189285D02*
X131167857Y-108189285D01*
X131239285Y-108225000D01*
X131275000Y-108260714D01*
X131310714Y-108332142D01*
X131346428Y-108475000D01*
X131346428Y-108653571D01*
X131310714Y-108796428D01*
X131275000Y-108867857D01*
X131239285Y-108903571D01*
X131167857Y-108939285D01*
X131096428Y-108939285D01*
X131025000Y-108903571D01*
X130989285Y-108867857D01*
X130953571Y-108796428D01*
X130917857Y-108653571D01*
X130917857Y-108475000D01*
X130953571Y-108332142D01*
X130989285Y-108260714D01*
X131025000Y-108225000D01*
X131096428Y-108189285D01*
X139117857Y-102067857D02*
X139082142Y-102103571D01*
X138975000Y-102139285D01*
X138903571Y-102139285D01*
X138796428Y-102103571D01*
X138725000Y-102032142D01*
X138689285Y-101960714D01*
X138653571Y-101817857D01*
X138653571Y-101710714D01*
X138689285Y-101567857D01*
X138725000Y-101496428D01*
X138796428Y-101425000D01*
X138903571Y-101389285D01*
X138975000Y-101389285D01*
X139082142Y-101425000D01*
X139117857Y-101460714D01*
X139403571Y-101460714D02*
X139439285Y-101425000D01*
X139510714Y-101389285D01*
X139689285Y-101389285D01*
X139760714Y-101425000D01*
X139796428Y-101460714D01*
X139832142Y-101532142D01*
X139832142Y-101603571D01*
X139796428Y-101710714D01*
X139367857Y-102139285D01*
X139832142Y-102139285D01*
X140082142Y-101389285D02*
X140546428Y-101389285D01*
X140296428Y-101675000D01*
X140403571Y-101675000D01*
X140475000Y-101710714D01*
X140510714Y-101746428D01*
X140546428Y-101817857D01*
X140546428Y-101996428D01*
X140510714Y-102067857D01*
X140475000Y-102103571D01*
X140403571Y-102139285D01*
X140189285Y-102139285D01*
X140117857Y-102103571D01*
X140082142Y-102067857D01*
X171467857Y-102482142D02*
X171503571Y-102517857D01*
X171539285Y-102625000D01*
X171539285Y-102696428D01*
X171503571Y-102803571D01*
X171432142Y-102875000D01*
X171360714Y-102910714D01*
X171217857Y-102946428D01*
X171110714Y-102946428D01*
X170967857Y-102910714D01*
X170896428Y-102875000D01*
X170825000Y-102803571D01*
X170789285Y-102696428D01*
X170789285Y-102625000D01*
X170825000Y-102517857D01*
X170860714Y-102482142D01*
X171539285Y-101767857D02*
X171539285Y-102196428D01*
X171539285Y-101982142D02*
X170789285Y-101982142D01*
X170896428Y-102053571D01*
X170967857Y-102125000D01*
X171003571Y-102196428D01*
X170789285Y-101303571D02*
X170789285Y-101232142D01*
X170825000Y-101160714D01*
X170860714Y-101125000D01*
X170932142Y-101089285D01*
X171075000Y-101053571D01*
X171253571Y-101053571D01*
X171396428Y-101089285D01*
X171467857Y-101125000D01*
X171503571Y-101160714D01*
X171539285Y-101232142D01*
X171539285Y-101303571D01*
X171503571Y-101375000D01*
X171467857Y-101410714D01*
X171396428Y-101446428D01*
X171253571Y-101482142D01*
X171075000Y-101482142D01*
X170932142Y-101446428D01*
X170860714Y-101410714D01*
X170825000Y-101375000D01*
X170789285Y-101303571D01*
X166267857Y-102282142D02*
X166303571Y-102317857D01*
X166339285Y-102425000D01*
X166339285Y-102496428D01*
X166303571Y-102603571D01*
X166232142Y-102675000D01*
X166160714Y-102710714D01*
X166017857Y-102746428D01*
X165910714Y-102746428D01*
X165767857Y-102710714D01*
X165696428Y-102675000D01*
X165625000Y-102603571D01*
X165589285Y-102496428D01*
X165589285Y-102425000D01*
X165625000Y-102317857D01*
X165660714Y-102282142D01*
X166339285Y-101567857D02*
X166339285Y-101996428D01*
X166339285Y-101782142D02*
X165589285Y-101782142D01*
X165696428Y-101853571D01*
X165767857Y-101925000D01*
X165803571Y-101996428D01*
X165660714Y-101282142D02*
X165625000Y-101246428D01*
X165589285Y-101175000D01*
X165589285Y-100996428D01*
X165625000Y-100925000D01*
X165660714Y-100889285D01*
X165732142Y-100853571D01*
X165803571Y-100853571D01*
X165910714Y-100889285D01*
X166339285Y-101317857D01*
X166339285Y-100853571D01*
X158267857Y-86925000D02*
X158303571Y-86960714D01*
X158339285Y-87067857D01*
X158339285Y-87139285D01*
X158303571Y-87246428D01*
X158232142Y-87317857D01*
X158160714Y-87353571D01*
X158017857Y-87389285D01*
X157910714Y-87389285D01*
X157767857Y-87353571D01*
X157696428Y-87317857D01*
X157625000Y-87246428D01*
X157589285Y-87139285D01*
X157589285Y-87067857D01*
X157625000Y-86960714D01*
X157660714Y-86925000D01*
X158339285Y-86567857D02*
X158339285Y-86425000D01*
X158303571Y-86353571D01*
X158267857Y-86317857D01*
X158160714Y-86246428D01*
X158017857Y-86210714D01*
X157732142Y-86210714D01*
X157660714Y-86246428D01*
X157625000Y-86282142D01*
X157589285Y-86353571D01*
X157589285Y-86496428D01*
X157625000Y-86567857D01*
X157660714Y-86603571D01*
X157732142Y-86639285D01*
X157910714Y-86639285D01*
X157982142Y-86603571D01*
X158017857Y-86567857D01*
X158053571Y-86496428D01*
X158053571Y-86353571D01*
X158017857Y-86282142D01*
X157982142Y-86246428D01*
X157910714Y-86210714D01*
X152267857Y-89082142D02*
X152303571Y-89117857D01*
X152339285Y-89225000D01*
X152339285Y-89296428D01*
X152303571Y-89403571D01*
X152232142Y-89475000D01*
X152160714Y-89510714D01*
X152017857Y-89546428D01*
X151910714Y-89546428D01*
X151767857Y-89510714D01*
X151696428Y-89475000D01*
X151625000Y-89403571D01*
X151589285Y-89296428D01*
X151589285Y-89225000D01*
X151625000Y-89117857D01*
X151660714Y-89082142D01*
X152339285Y-88367857D02*
X152339285Y-88796428D01*
X152339285Y-88582142D02*
X151589285Y-88582142D01*
X151696428Y-88653571D01*
X151767857Y-88725000D01*
X151803571Y-88796428D01*
X151589285Y-88117857D02*
X151589285Y-87653571D01*
X151875000Y-87903571D01*
X151875000Y-87796428D01*
X151910714Y-87725000D01*
X151946428Y-87689285D01*
X152017857Y-87653571D01*
X152196428Y-87653571D01*
X152267857Y-87689285D01*
X152303571Y-87725000D01*
X152339285Y-87796428D01*
X152339285Y-88010714D01*
X152303571Y-88082142D01*
X152267857Y-88117857D01*
X151117857Y-92267857D02*
X151082142Y-92303571D01*
X150975000Y-92339285D01*
X150903571Y-92339285D01*
X150796428Y-92303571D01*
X150725000Y-92232142D01*
X150689285Y-92160714D01*
X150653571Y-92017857D01*
X150653571Y-91910714D01*
X150689285Y-91767857D01*
X150725000Y-91696428D01*
X150796428Y-91625000D01*
X150903571Y-91589285D01*
X150975000Y-91589285D01*
X151082142Y-91625000D01*
X151117857Y-91660714D01*
X151832142Y-92339285D02*
X151403571Y-92339285D01*
X151617857Y-92339285D02*
X151617857Y-91589285D01*
X151546428Y-91696428D01*
X151475000Y-91767857D01*
X151403571Y-91803571D01*
X152189285Y-92339285D02*
X152332142Y-92339285D01*
X152403571Y-92303571D01*
X152439285Y-92267857D01*
X152510714Y-92160714D01*
X152546428Y-92017857D01*
X152546428Y-91732142D01*
X152510714Y-91660714D01*
X152475000Y-91625000D01*
X152403571Y-91589285D01*
X152260714Y-91589285D01*
X152189285Y-91625000D01*
X152153571Y-91660714D01*
X152117857Y-91732142D01*
X152117857Y-91910714D01*
X152153571Y-91982142D01*
X152189285Y-92017857D01*
X152260714Y-92053571D01*
X152403571Y-92053571D01*
X152475000Y-92017857D01*
X152510714Y-91982142D01*
X152546428Y-91910714D01*
X136146428Y-105025000D02*
X136146428Y-105275000D01*
X136539285Y-105275000D02*
X135789285Y-105275000D01*
X135789285Y-104917857D01*
X136146428Y-104382142D02*
X136182142Y-104275000D01*
X136217857Y-104239285D01*
X136289285Y-104203571D01*
X136396428Y-104203571D01*
X136467857Y-104239285D01*
X136503571Y-104275000D01*
X136539285Y-104346428D01*
X136539285Y-104632142D01*
X135789285Y-104632142D01*
X135789285Y-104382142D01*
X135825000Y-104310714D01*
X135860714Y-104275000D01*
X135932142Y-104239285D01*
X136003571Y-104239285D01*
X136075000Y-104275000D01*
X136110714Y-104310714D01*
X136146428Y-104382142D01*
X136146428Y-104632142D01*
X135789285Y-103953571D02*
X135789285Y-103453571D01*
X136539285Y-103775000D01*
X130946428Y-105025000D02*
X130946428Y-105275000D01*
X131339285Y-105275000D02*
X130589285Y-105275000D01*
X130589285Y-104917857D01*
X130946428Y-104382142D02*
X130982142Y-104275000D01*
X131017857Y-104239285D01*
X131089285Y-104203571D01*
X131196428Y-104203571D01*
X131267857Y-104239285D01*
X131303571Y-104275000D01*
X131339285Y-104346428D01*
X131339285Y-104632142D01*
X130589285Y-104632142D01*
X130589285Y-104382142D01*
X130625000Y-104310714D01*
X130660714Y-104275000D01*
X130732142Y-104239285D01*
X130803571Y-104239285D01*
X130875000Y-104275000D01*
X130910714Y-104310714D01*
X130946428Y-104382142D01*
X130946428Y-104632142D01*
X130589285Y-103560714D02*
X130589285Y-103703571D01*
X130625000Y-103775000D01*
X130660714Y-103810714D01*
X130767857Y-103882142D01*
X130910714Y-103917857D01*
X131196428Y-103917857D01*
X131267857Y-103882142D01*
X131303571Y-103846428D01*
X131339285Y-103775000D01*
X131339285Y-103632142D01*
X131303571Y-103560714D01*
X131267857Y-103525000D01*
X131196428Y-103489285D01*
X131017857Y-103489285D01*
X130946428Y-103525000D01*
X130910714Y-103560714D01*
X130875000Y-103632142D01*
X130875000Y-103775000D01*
X130910714Y-103846428D01*
X130946428Y-103882142D01*
X131017857Y-103917857D01*
X126117857Y-100067857D02*
X126082142Y-100103571D01*
X125975000Y-100139285D01*
X125903571Y-100139285D01*
X125796428Y-100103571D01*
X125725000Y-100032142D01*
X125689285Y-99960714D01*
X125653571Y-99817857D01*
X125653571Y-99710714D01*
X125689285Y-99567857D01*
X125725000Y-99496428D01*
X125796428Y-99425000D01*
X125903571Y-99389285D01*
X125975000Y-99389285D01*
X126082142Y-99425000D01*
X126117857Y-99460714D01*
X126403571Y-99460714D02*
X126439285Y-99425000D01*
X126510714Y-99389285D01*
X126689285Y-99389285D01*
X126760714Y-99425000D01*
X126796428Y-99460714D01*
X126832142Y-99532142D01*
X126832142Y-99603571D01*
X126796428Y-99710714D01*
X126367857Y-100139285D01*
X126832142Y-100139285D01*
X127510714Y-99389285D02*
X127153571Y-99389285D01*
X127117857Y-99746428D01*
X127153571Y-99710714D01*
X127225000Y-99675000D01*
X127403571Y-99675000D01*
X127475000Y-99710714D01*
X127510714Y-99746428D01*
X127546428Y-99817857D01*
X127546428Y-99996428D01*
X127510714Y-100067857D01*
X127475000Y-100103571D01*
X127403571Y-100139285D01*
X127225000Y-100139285D01*
X127153571Y-100103571D01*
X127117857Y-100067857D01*
X138517857Y-100467857D02*
X138482142Y-100503571D01*
X138375000Y-100539285D01*
X138303571Y-100539285D01*
X138196428Y-100503571D01*
X138125000Y-100432142D01*
X138089285Y-100360714D01*
X138053571Y-100217857D01*
X138053571Y-100110714D01*
X138089285Y-99967857D01*
X138125000Y-99896428D01*
X138196428Y-99825000D01*
X138303571Y-99789285D01*
X138375000Y-99789285D01*
X138482142Y-99825000D01*
X138517857Y-99860714D01*
X138803571Y-99860714D02*
X138839285Y-99825000D01*
X138910714Y-99789285D01*
X139089285Y-99789285D01*
X139160714Y-99825000D01*
X139196428Y-99860714D01*
X139232142Y-99932142D01*
X139232142Y-100003571D01*
X139196428Y-100110714D01*
X138767857Y-100539285D01*
X139232142Y-100539285D01*
X139875000Y-100039285D02*
X139875000Y-100539285D01*
X139696428Y-99753571D02*
X139517857Y-100289285D01*
X139982142Y-100289285D01*
X153317857Y-96467857D02*
X153282142Y-96503571D01*
X153175000Y-96539285D01*
X153103571Y-96539285D01*
X152996428Y-96503571D01*
X152925000Y-96432142D01*
X152889285Y-96360714D01*
X152853571Y-96217857D01*
X152853571Y-96110714D01*
X152889285Y-95967857D01*
X152925000Y-95896428D01*
X152996428Y-95825000D01*
X153103571Y-95789285D01*
X153175000Y-95789285D01*
X153282142Y-95825000D01*
X153317857Y-95860714D01*
X154032142Y-96539285D02*
X153603571Y-96539285D01*
X153817857Y-96539285D02*
X153817857Y-95789285D01*
X153746428Y-95896428D01*
X153675000Y-95967857D01*
X153603571Y-96003571D01*
X154460714Y-96110714D02*
X154389285Y-96075000D01*
X154353571Y-96039285D01*
X154317857Y-95967857D01*
X154317857Y-95932142D01*
X154353571Y-95860714D01*
X154389285Y-95825000D01*
X154460714Y-95789285D01*
X154603571Y-95789285D01*
X154675000Y-95825000D01*
X154710714Y-95860714D01*
X154746428Y-95932142D01*
X154746428Y-95967857D01*
X154710714Y-96039285D01*
X154675000Y-96075000D01*
X154603571Y-96110714D01*
X154460714Y-96110714D01*
X154389285Y-96146428D01*
X154353571Y-96182142D01*
X154317857Y-96253571D01*
X154317857Y-96396428D01*
X154353571Y-96467857D01*
X154389285Y-96503571D01*
X154460714Y-96539285D01*
X154603571Y-96539285D01*
X154675000Y-96503571D01*
X154710714Y-96467857D01*
X154746428Y-96396428D01*
X154746428Y-96253571D01*
X154710714Y-96182142D01*
X154675000Y-96146428D01*
X154603571Y-96110714D01*
X172350000Y-123589285D02*
X172350000Y-124125000D01*
X172314285Y-124232142D01*
X172242857Y-124303571D01*
X172135714Y-124339285D01*
X172064285Y-124339285D01*
X173064285Y-123589285D02*
X172707142Y-123589285D01*
X172671428Y-123946428D01*
X172707142Y-123910714D01*
X172778571Y-123875000D01*
X172957142Y-123875000D01*
X173028571Y-123910714D01*
X173064285Y-123946428D01*
X173100000Y-124017857D01*
X173100000Y-124196428D01*
X173064285Y-124267857D01*
X173028571Y-124303571D01*
X172957142Y-124339285D01*
X172778571Y-124339285D01*
X172707142Y-124303571D01*
X172671428Y-124267857D01*
X155667857Y-89525000D02*
X155703571Y-89560714D01*
X155739285Y-89667857D01*
X155739285Y-89739285D01*
X155703571Y-89846428D01*
X155632142Y-89917857D01*
X155560714Y-89953571D01*
X155417857Y-89989285D01*
X155310714Y-89989285D01*
X155167857Y-89953571D01*
X155096428Y-89917857D01*
X155025000Y-89846428D01*
X154989285Y-89739285D01*
X154989285Y-89667857D01*
X155025000Y-89560714D01*
X155060714Y-89525000D01*
X154989285Y-89275000D02*
X154989285Y-88775000D01*
X155739285Y-89096428D01*
X159267857Y-89525000D02*
X159303571Y-89560714D01*
X159339285Y-89667857D01*
X159339285Y-89739285D01*
X159303571Y-89846428D01*
X159232142Y-89917857D01*
X159160714Y-89953571D01*
X159017857Y-89989285D01*
X158910714Y-89989285D01*
X158767857Y-89953571D01*
X158696428Y-89917857D01*
X158625000Y-89846428D01*
X158589285Y-89739285D01*
X158589285Y-89667857D01*
X158625000Y-89560714D01*
X158660714Y-89525000D01*
X158589285Y-88846428D02*
X158589285Y-89203571D01*
X158946428Y-89239285D01*
X158910714Y-89203571D01*
X158875000Y-89132142D01*
X158875000Y-88953571D01*
X158910714Y-88882142D01*
X158946428Y-88846428D01*
X159017857Y-88810714D01*
X159196428Y-88810714D01*
X159267857Y-88846428D01*
X159303571Y-88882142D01*
X159339285Y-88953571D01*
X159339285Y-89132142D01*
X159303571Y-89203571D01*
X159267857Y-89239285D01*
X161828571Y-92589285D02*
X161828571Y-93196428D01*
X161864285Y-93267857D01*
X161900000Y-93303571D01*
X161971428Y-93339285D01*
X162114285Y-93339285D01*
X162185714Y-93303571D01*
X162221428Y-93267857D01*
X162257142Y-93196428D01*
X162257142Y-92589285D01*
X162578571Y-92660714D02*
X162614285Y-92625000D01*
X162685714Y-92589285D01*
X162864285Y-92589285D01*
X162935714Y-92625000D01*
X162971428Y-92660714D01*
X163007142Y-92732142D01*
X163007142Y-92803571D01*
X162971428Y-92910714D01*
X162542857Y-93339285D01*
X163007142Y-93339285D01*
X158075000Y-111939285D02*
X157825000Y-111582142D01*
X157646428Y-111939285D02*
X157646428Y-111189285D01*
X157932142Y-111189285D01*
X158003571Y-111225000D01*
X158039285Y-111260714D01*
X158075000Y-111332142D01*
X158075000Y-111439285D01*
X158039285Y-111510714D01*
X158003571Y-111546428D01*
X157932142Y-111582142D01*
X157646428Y-111582142D01*
X158360714Y-111260714D02*
X158396428Y-111225000D01*
X158467857Y-111189285D01*
X158646428Y-111189285D01*
X158717857Y-111225000D01*
X158753571Y-111260714D01*
X158789285Y-111332142D01*
X158789285Y-111403571D01*
X158753571Y-111510714D01*
X158325000Y-111939285D01*
X158789285Y-111939285D01*
X159339285Y-108125000D02*
X158982142Y-108375000D01*
X159339285Y-108553571D02*
X158589285Y-108553571D01*
X158589285Y-108267857D01*
X158625000Y-108196428D01*
X158660714Y-108160714D01*
X158732142Y-108125000D01*
X158839285Y-108125000D01*
X158910714Y-108160714D01*
X158946428Y-108196428D01*
X158982142Y-108267857D01*
X158982142Y-108553571D01*
X159339285Y-107410714D02*
X159339285Y-107839285D01*
X159339285Y-107625000D02*
X158589285Y-107625000D01*
X158696428Y-107696428D01*
X158767857Y-107767857D01*
X158803571Y-107839285D01*
X164175000Y-112946428D02*
X163925000Y-112946428D01*
X163925000Y-113339285D02*
X163925000Y-112589285D01*
X164282142Y-112589285D01*
X164817857Y-112946428D02*
X164925000Y-112982142D01*
X164960714Y-113017857D01*
X164996428Y-113089285D01*
X164996428Y-113196428D01*
X164960714Y-113267857D01*
X164925000Y-113303571D01*
X164853571Y-113339285D01*
X164567857Y-113339285D01*
X164567857Y-112589285D01*
X164817857Y-112589285D01*
X164889285Y-112625000D01*
X164925000Y-112660714D01*
X164960714Y-112732142D01*
X164960714Y-112803571D01*
X164925000Y-112875000D01*
X164889285Y-112910714D01*
X164817857Y-112946428D01*
X164567857Y-112946428D01*
X165675000Y-112589285D02*
X165317857Y-112589285D01*
X165282142Y-112946428D01*
X165317857Y-112910714D01*
X165389285Y-112875000D01*
X165567857Y-112875000D01*
X165639285Y-112910714D01*
X165675000Y-112946428D01*
X165710714Y-113017857D01*
X165710714Y-113196428D01*
X165675000Y-113267857D01*
X165639285Y-113303571D01*
X165567857Y-113339285D01*
X165389285Y-113339285D01*
X165317857Y-113303571D01*
X165282142Y-113267857D01*
X156867857Y-102282142D02*
X156903571Y-102317857D01*
X156939285Y-102425000D01*
X156939285Y-102496428D01*
X156903571Y-102603571D01*
X156832142Y-102675000D01*
X156760714Y-102710714D01*
X156617857Y-102746428D01*
X156510714Y-102746428D01*
X156367857Y-102710714D01*
X156296428Y-102675000D01*
X156225000Y-102603571D01*
X156189285Y-102496428D01*
X156189285Y-102425000D01*
X156225000Y-102317857D01*
X156260714Y-102282142D01*
X156939285Y-101567857D02*
X156939285Y-101996428D01*
X156939285Y-101782142D02*
X156189285Y-101782142D01*
X156296428Y-101853571D01*
X156367857Y-101925000D01*
X156403571Y-101996428D01*
X156939285Y-100853571D02*
X156939285Y-101282142D01*
X156939285Y-101067857D02*
X156189285Y-101067857D01*
X156296428Y-101139285D01*
X156367857Y-101210714D01*
X156403571Y-101282142D01*
X158267857Y-101725000D02*
X158303571Y-101760714D01*
X158339285Y-101867857D01*
X158339285Y-101939285D01*
X158303571Y-102046428D01*
X158232142Y-102117857D01*
X158160714Y-102153571D01*
X158017857Y-102189285D01*
X157910714Y-102189285D01*
X157767857Y-102153571D01*
X157696428Y-102117857D01*
X157625000Y-102046428D01*
X157589285Y-101939285D01*
X157589285Y-101867857D01*
X157625000Y-101760714D01*
X157660714Y-101725000D01*
X157910714Y-101296428D02*
X157875000Y-101367857D01*
X157839285Y-101403571D01*
X157767857Y-101439285D01*
X157732142Y-101439285D01*
X157660714Y-101403571D01*
X157625000Y-101367857D01*
X157589285Y-101296428D01*
X157589285Y-101153571D01*
X157625000Y-101082142D01*
X157660714Y-101046428D01*
X157732142Y-101010714D01*
X157767857Y-101010714D01*
X157839285Y-101046428D01*
X157875000Y-101082142D01*
X157910714Y-101153571D01*
X157910714Y-101296428D01*
X157946428Y-101367857D01*
X157982142Y-101403571D01*
X158053571Y-101439285D01*
X158196428Y-101439285D01*
X158267857Y-101403571D01*
X158303571Y-101367857D01*
X158339285Y-101296428D01*
X158339285Y-101153571D01*
X158303571Y-101082142D01*
X158267857Y-101046428D01*
X158196428Y-101010714D01*
X158053571Y-101010714D01*
X157982142Y-101046428D01*
X157946428Y-101082142D01*
X157910714Y-101153571D01*
X161667857Y-90125000D02*
X161703571Y-90160714D01*
X161739285Y-90267857D01*
X161739285Y-90339285D01*
X161703571Y-90446428D01*
X161632142Y-90517857D01*
X161560714Y-90553571D01*
X161417857Y-90589285D01*
X161310714Y-90589285D01*
X161167857Y-90553571D01*
X161096428Y-90517857D01*
X161025000Y-90446428D01*
X160989285Y-90339285D01*
X160989285Y-90267857D01*
X161025000Y-90160714D01*
X161060714Y-90125000D01*
X160989285Y-89482142D02*
X160989285Y-89625000D01*
X161025000Y-89696428D01*
X161060714Y-89732142D01*
X161167857Y-89803571D01*
X161310714Y-89839285D01*
X161596428Y-89839285D01*
X161667857Y-89803571D01*
X161703571Y-89767857D01*
X161739285Y-89696428D01*
X161739285Y-89553571D01*
X161703571Y-89482142D01*
X161667857Y-89446428D01*
X161596428Y-89410714D01*
X161417857Y-89410714D01*
X161346428Y-89446428D01*
X161310714Y-89482142D01*
X161275000Y-89553571D01*
X161275000Y-89696428D01*
X161310714Y-89767857D01*
X161346428Y-89803571D01*
X161417857Y-89839285D01*
X160467857Y-90125000D02*
X160503571Y-90160714D01*
X160539285Y-90267857D01*
X160539285Y-90339285D01*
X160503571Y-90446428D01*
X160432142Y-90517857D01*
X160360714Y-90553571D01*
X160217857Y-90589285D01*
X160110714Y-90589285D01*
X159967857Y-90553571D01*
X159896428Y-90517857D01*
X159825000Y-90446428D01*
X159789285Y-90339285D01*
X159789285Y-90267857D01*
X159825000Y-90160714D01*
X159860714Y-90125000D01*
X160039285Y-89482142D02*
X160539285Y-89482142D01*
X159753571Y-89660714D02*
X160289285Y-89839285D01*
X160289285Y-89375000D01*
X133350000Y-112789285D02*
X133350000Y-113325000D01*
X133314285Y-113432142D01*
X133242857Y-113503571D01*
X133135714Y-113539285D01*
X133064285Y-113539285D01*
X134028571Y-113039285D02*
X134028571Y-113539285D01*
X133850000Y-112753571D02*
X133671428Y-113289285D01*
X134135714Y-113289285D01*
X136320000Y-124989285D02*
X136320000Y-125525000D01*
X136284285Y-125632142D01*
X136212857Y-125703571D01*
X136105714Y-125739285D01*
X136034285Y-125739285D01*
X137070000Y-125739285D02*
X136641428Y-125739285D01*
X136855714Y-125739285D02*
X136855714Y-124989285D01*
X136784285Y-125096428D01*
X136712857Y-125167857D01*
X136641428Y-125203571D01*
X149005000Y-111746428D02*
X148755000Y-111746428D01*
X148755000Y-112139285D02*
X148755000Y-111389285D01*
X149112142Y-111389285D01*
X149647857Y-111746428D02*
X149755000Y-111782142D01*
X149790714Y-111817857D01*
X149826428Y-111889285D01*
X149826428Y-111996428D01*
X149790714Y-112067857D01*
X149755000Y-112103571D01*
X149683571Y-112139285D01*
X149397857Y-112139285D01*
X149397857Y-111389285D01*
X149647857Y-111389285D01*
X149719285Y-111425000D01*
X149755000Y-111460714D01*
X149790714Y-111532142D01*
X149790714Y-111603571D01*
X149755000Y-111675000D01*
X149719285Y-111710714D01*
X149647857Y-111746428D01*
X149397857Y-111746428D01*
X150112142Y-111460714D02*
X150147857Y-111425000D01*
X150219285Y-111389285D01*
X150397857Y-111389285D01*
X150469285Y-111425000D01*
X150505000Y-111460714D01*
X150540714Y-111532142D01*
X150540714Y-111603571D01*
X150505000Y-111710714D01*
X150076428Y-112139285D01*
X150540714Y-112139285D01*
X140775000Y-111946428D02*
X140525000Y-111946428D01*
X140525000Y-112339285D02*
X140525000Y-111589285D01*
X140882142Y-111589285D01*
X141417857Y-111946428D02*
X141525000Y-111982142D01*
X141560714Y-112017857D01*
X141596428Y-112089285D01*
X141596428Y-112196428D01*
X141560714Y-112267857D01*
X141525000Y-112303571D01*
X141453571Y-112339285D01*
X141167857Y-112339285D01*
X141167857Y-111589285D01*
X141417857Y-111589285D01*
X141489285Y-111625000D01*
X141525000Y-111660714D01*
X141560714Y-111732142D01*
X141560714Y-111803571D01*
X141525000Y-111875000D01*
X141489285Y-111910714D01*
X141417857Y-111946428D01*
X141167857Y-111946428D01*
X142310714Y-112339285D02*
X141882142Y-112339285D01*
X142096428Y-112339285D02*
X142096428Y-111589285D01*
X142025000Y-111696428D01*
X141953571Y-111767857D01*
X141882142Y-111803571D01*
X126375000Y-111746428D02*
X126125000Y-111746428D01*
X126125000Y-112139285D02*
X126125000Y-111389285D01*
X126482142Y-111389285D01*
X127017857Y-111746428D02*
X127125000Y-111782142D01*
X127160714Y-111817857D01*
X127196428Y-111889285D01*
X127196428Y-111996428D01*
X127160714Y-112067857D01*
X127125000Y-112103571D01*
X127053571Y-112139285D01*
X126767857Y-112139285D01*
X126767857Y-111389285D01*
X127017857Y-111389285D01*
X127089285Y-111425000D01*
X127125000Y-111460714D01*
X127160714Y-111532142D01*
X127160714Y-111603571D01*
X127125000Y-111675000D01*
X127089285Y-111710714D01*
X127017857Y-111746428D01*
X126767857Y-111746428D01*
X127839285Y-111639285D02*
X127839285Y-112139285D01*
X127660714Y-111353571D02*
X127482142Y-111889285D01*
X127946428Y-111889285D01*
X117975000Y-111746428D02*
X117725000Y-111746428D01*
X117725000Y-112139285D02*
X117725000Y-111389285D01*
X118082142Y-111389285D01*
X118617857Y-111746428D02*
X118725000Y-111782142D01*
X118760714Y-111817857D01*
X118796428Y-111889285D01*
X118796428Y-111996428D01*
X118760714Y-112067857D01*
X118725000Y-112103571D01*
X118653571Y-112139285D01*
X118367857Y-112139285D01*
X118367857Y-111389285D01*
X118617857Y-111389285D01*
X118689285Y-111425000D01*
X118725000Y-111460714D01*
X118760714Y-111532142D01*
X118760714Y-111603571D01*
X118725000Y-111675000D01*
X118689285Y-111710714D01*
X118617857Y-111746428D01*
X118367857Y-111746428D01*
X119046428Y-111389285D02*
X119510714Y-111389285D01*
X119260714Y-111675000D01*
X119367857Y-111675000D01*
X119439285Y-111710714D01*
X119475000Y-111746428D01*
X119510714Y-111817857D01*
X119510714Y-111996428D01*
X119475000Y-112067857D01*
X119439285Y-112103571D01*
X119367857Y-112139285D01*
X119153571Y-112139285D01*
X119082142Y-112103571D01*
X119046428Y-112067857D01*
X130917857Y-111267857D02*
X130882142Y-111303571D01*
X130775000Y-111339285D01*
X130703571Y-111339285D01*
X130596428Y-111303571D01*
X130525000Y-111232142D01*
X130489285Y-111160714D01*
X130453571Y-111017857D01*
X130453571Y-110910714D01*
X130489285Y-110767857D01*
X130525000Y-110696428D01*
X130596428Y-110625000D01*
X130703571Y-110589285D01*
X130775000Y-110589285D01*
X130882142Y-110625000D01*
X130917857Y-110660714D01*
X131632142Y-111339285D02*
X131203571Y-111339285D01*
X131417857Y-111339285D02*
X131417857Y-110589285D01*
X131346428Y-110696428D01*
X131275000Y-110767857D01*
X131203571Y-110803571D01*
X131882142Y-110589285D02*
X132382142Y-110589285D01*
X132060714Y-111339285D01*
X122117857Y-111267857D02*
X122082142Y-111303571D01*
X121975000Y-111339285D01*
X121903571Y-111339285D01*
X121796428Y-111303571D01*
X121725000Y-111232142D01*
X121689285Y-111160714D01*
X121653571Y-111017857D01*
X121653571Y-110910714D01*
X121689285Y-110767857D01*
X121725000Y-110696428D01*
X121796428Y-110625000D01*
X121903571Y-110589285D01*
X121975000Y-110589285D01*
X122082142Y-110625000D01*
X122117857Y-110660714D01*
X122832142Y-111339285D02*
X122403571Y-111339285D01*
X122617857Y-111339285D02*
X122617857Y-110589285D01*
X122546428Y-110696428D01*
X122475000Y-110767857D01*
X122403571Y-110803571D01*
X123475000Y-110589285D02*
X123332142Y-110589285D01*
X123260714Y-110625000D01*
X123225000Y-110660714D01*
X123153571Y-110767857D01*
X123117857Y-110910714D01*
X123117857Y-111196428D01*
X123153571Y-111267857D01*
X123189285Y-111303571D01*
X123260714Y-111339285D01*
X123403571Y-111339285D01*
X123475000Y-111303571D01*
X123510714Y-111267857D01*
X123546428Y-111196428D01*
X123546428Y-111017857D01*
X123510714Y-110946428D01*
X123475000Y-110910714D01*
X123403571Y-110875000D01*
X123260714Y-110875000D01*
X123189285Y-110910714D01*
X123153571Y-110946428D01*
X123117857Y-111017857D01*
X145358571Y-100409285D02*
X145358571Y-101016428D01*
X145394285Y-101087857D01*
X145430000Y-101123571D01*
X145501428Y-101159285D01*
X145644285Y-101159285D01*
X145715714Y-101123571D01*
X145751428Y-101087857D01*
X145787142Y-101016428D01*
X145787142Y-100409285D01*
X146072857Y-100409285D02*
X146537142Y-100409285D01*
X146287142Y-100695000D01*
X146394285Y-100695000D01*
X146465714Y-100730714D01*
X146501428Y-100766428D01*
X146537142Y-100837857D01*
X146537142Y-101016428D01*
X146501428Y-101087857D01*
X146465714Y-101123571D01*
X146394285Y-101159285D01*
X146180000Y-101159285D01*
X146108571Y-101123571D01*
X146072857Y-101087857D01*
X145317857Y-97267857D02*
X145282142Y-97303571D01*
X145175000Y-97339285D01*
X145103571Y-97339285D01*
X144996428Y-97303571D01*
X144925000Y-97232142D01*
X144889285Y-97160714D01*
X144853571Y-97017857D01*
X144853571Y-96910714D01*
X144889285Y-96767857D01*
X144925000Y-96696428D01*
X144996428Y-96625000D01*
X145103571Y-96589285D01*
X145175000Y-96589285D01*
X145282142Y-96625000D01*
X145317857Y-96660714D01*
X146032142Y-97339285D02*
X145603571Y-97339285D01*
X145817857Y-97339285D02*
X145817857Y-96589285D01*
X145746428Y-96696428D01*
X145675000Y-96767857D01*
X145603571Y-96803571D01*
X146675000Y-96839285D02*
X146675000Y-97339285D01*
X146496428Y-96553571D02*
X146317857Y-97089285D01*
X146782142Y-97089285D01*
X145589285Y-102807142D02*
X146339285Y-102307142D01*
X145589285Y-102307142D02*
X146339285Y-102807142D01*
X146339285Y-101628571D02*
X146339285Y-102057142D01*
X146339285Y-101842857D02*
X145589285Y-101842857D01*
X145696428Y-101914285D01*
X145767857Y-101985714D01*
X145803571Y-102057142D01*
X151785000Y-111467857D02*
X151749285Y-111503571D01*
X151642142Y-111539285D01*
X151570714Y-111539285D01*
X151463571Y-111503571D01*
X151392142Y-111432142D01*
X151356428Y-111360714D01*
X151320714Y-111217857D01*
X151320714Y-111110714D01*
X151356428Y-110967857D01*
X151392142Y-110896428D01*
X151463571Y-110825000D01*
X151570714Y-110789285D01*
X151642142Y-110789285D01*
X151749285Y-110825000D01*
X151785000Y-110860714D01*
X152499285Y-111539285D02*
X152070714Y-111539285D01*
X152285000Y-111539285D02*
X152285000Y-110789285D01*
X152213571Y-110896428D01*
X152142142Y-110967857D01*
X152070714Y-111003571D01*
X145985000Y-111467857D02*
X145949285Y-111503571D01*
X145842142Y-111539285D01*
X145770714Y-111539285D01*
X145663571Y-111503571D01*
X145592142Y-111432142D01*
X145556428Y-111360714D01*
X145520714Y-111217857D01*
X145520714Y-111110714D01*
X145556428Y-110967857D01*
X145592142Y-110896428D01*
X145663571Y-110825000D01*
X145770714Y-110789285D01*
X145842142Y-110789285D01*
X145949285Y-110825000D01*
X145985000Y-110860714D01*
X146270714Y-110860714D02*
X146306428Y-110825000D01*
X146377857Y-110789285D01*
X146556428Y-110789285D01*
X146627857Y-110825000D01*
X146663571Y-110860714D01*
X146699285Y-110932142D01*
X146699285Y-111003571D01*
X146663571Y-111110714D01*
X146235000Y-111539285D01*
X146699285Y-111539285D01*
X161267857Y-105882142D02*
X161303571Y-105917857D01*
X161339285Y-106025000D01*
X161339285Y-106096428D01*
X161303571Y-106203571D01*
X161232142Y-106275000D01*
X161160714Y-106310714D01*
X161017857Y-106346428D01*
X160910714Y-106346428D01*
X160767857Y-106310714D01*
X160696428Y-106275000D01*
X160625000Y-106203571D01*
X160589285Y-106096428D01*
X160589285Y-106025000D01*
X160625000Y-105917857D01*
X160660714Y-105882142D01*
X161339285Y-105167857D02*
X161339285Y-105596428D01*
X161339285Y-105382142D02*
X160589285Y-105382142D01*
X160696428Y-105453571D01*
X160767857Y-105525000D01*
X160803571Y-105596428D01*
X160589285Y-104489285D02*
X160589285Y-104846428D01*
X160946428Y-104882142D01*
X160910714Y-104846428D01*
X160875000Y-104775000D01*
X160875000Y-104596428D01*
X160910714Y-104525000D01*
X160946428Y-104489285D01*
X161017857Y-104453571D01*
X161196428Y-104453571D01*
X161267857Y-104489285D01*
X161303571Y-104525000D01*
X161339285Y-104596428D01*
X161339285Y-104775000D01*
X161303571Y-104846428D01*
X161267857Y-104882142D01*
X151867857Y-102325000D02*
X151903571Y-102360714D01*
X151939285Y-102467857D01*
X151939285Y-102539285D01*
X151903571Y-102646428D01*
X151832142Y-102717857D01*
X151760714Y-102753571D01*
X151617857Y-102789285D01*
X151510714Y-102789285D01*
X151367857Y-102753571D01*
X151296428Y-102717857D01*
X151225000Y-102646428D01*
X151189285Y-102539285D01*
X151189285Y-102467857D01*
X151225000Y-102360714D01*
X151260714Y-102325000D01*
X151189285Y-102075000D02*
X151189285Y-101610714D01*
X151475000Y-101860714D01*
X151475000Y-101753571D01*
X151510714Y-101682142D01*
X151546428Y-101646428D01*
X151617857Y-101610714D01*
X151796428Y-101610714D01*
X151867857Y-101646428D01*
X151903571Y-101682142D01*
X151939285Y-101753571D01*
X151939285Y-101967857D01*
X151903571Y-102039285D01*
X151867857Y-102075000D01*
M02*
