M48
; DRILL file {KiCad (5.1.8)-1} date 01/26/21 22:47:17
; FORMAT={-:-/ absolute / inch / decimal}
; #@! TF.CreationDate,2021-01-26T22:47:17-05:00
; #@! TF.GenerationSoftware,Kicad,Pcbnew,(5.1.8)-1
FMAT,2
INCH
T1C0.0100
T2C0.0394
T3C0.0472
T4C0.0492
T5C0.0984
T6C0.1181
T7C0.0551
T8C0.0984
%
G90
G05
T1
X4.2598Y-4.9291
X4.2677Y-4.4331
X4.2677Y-4.6457
X4.3543Y-4.7717
X4.4094Y-4.6457
X4.4567Y-4.4488
X4.4724Y-4.9291
X4.5354Y-4.6457
X4.5906Y-4.7717
X4.748Y-4.4488
X4.748Y-4.622
X4.748Y-4.7717
X4.748Y-4.9291
X4.9055Y-4.7717
X4.9685Y-4.622
X4.9732Y-4.4016
X4.9843Y-3.8583
X5.0079Y-3.6929
X5.0079Y-3.7638
X5.0236Y-4.9291
X5.0748Y-4.2087
X5.0787Y-4.622
X5.0787Y-4.0079
X5.1417Y-4.7717
X5.2205Y-4.6457
X5.2205Y-4.9291
X5.252Y-3.685
X5.252Y-3.7717
X5.2598Y-4.2756
X5.2598Y-4.3386
X5.2992Y-3.811
X5.3091Y-3.9449
X5.3543Y-4.9291
X5.378Y-4.2756
X5.378Y-4.3386
X5.3937Y-3.8504
X5.3996Y-4.0728
X5.3996Y-4.1516
X5.4803Y-3.811
X5.4803Y-3.9055
X5.5039Y-4.4567
X5.5669Y-4.9291
X5.7613Y-4.315
X5.7638Y-3.8346
X5.7638Y-3.9291
X5.7795Y-3.748
X5.7843Y-4.3148
X5.8053Y-3.7344
X5.8073Y-4.3151
X5.811Y-4.4488
X5.811Y-4.5118
X5.811Y-4.5512
X5.813Y-3.8141
X5.8268Y-4.7874
X5.8268Y-4.9291
X5.8305Y-4.3152
X5.8346Y-3.8064
X5.8538Y-4.3152
X5.8661Y-4.5118
X5.8661Y-4.5512
X5.8898Y-4.315
X5.8957Y-3.9921
X5.937Y-3.6772
X5.9528Y-3.2913
X5.9606Y-4.5118
X5.9606Y-4.5512
X5.9764Y-3.2913
X6.0Y-4.0755
X6.0Y-4.1135
X6.0Y-4.7087
X6.0079Y-3.748
X6.0236Y-3.2913
X6.0236Y-4.5118
X6.0236Y-4.5512
X6.028Y-4.4409
X6.0472Y-3.2913
X6.0472Y-3.4409
X6.0551Y-4.1732
X6.0709Y-3.2913
X6.0866Y-4.5118
X6.0866Y-4.5512
X6.0945Y-3.2913
X6.1024Y-3.7402
X6.1181Y-3.5354
X6.1181Y-4.9291
X6.1339Y-3.9101
X6.1811Y-4.2047
X6.189Y-3.4488
X6.189Y-3.6535
X6.204Y-3.7314
X6.2047Y-4.315
X6.2134Y-3.7993
X6.2283Y-4.315
X6.2283Y-4.7638
X6.2362Y-3.9101
X6.2362Y-3.9481
X6.2362Y-4.6535
X6.2366Y-3.8815
X6.2598Y-3.5354
X6.2756Y-3.6457
X6.2804Y-3.7314
X6.2804Y-3.7993
X6.2953Y-3.8819
X6.3071Y-3.5591
X6.3105Y-4.1758
X6.3228Y-4.9291
X6.3386Y-4.1811
X6.3386Y-4.4961
X6.3543Y-3.5591
X6.3615Y-3.7359
X6.3615Y-3.9213
X6.3701Y-4.3937
X6.3788Y-3.6685
X6.3826Y-3.6253
X6.3937Y-4.2441
X6.3937Y-4.3701
X6.4111Y-3.7008
X6.4488Y-4.7953
X6.4547Y-4.0175
X6.4567Y-3.9764
X6.4567Y-4.2441
X6.4803Y-4.6614
X6.5276Y-4.2441
X6.5276Y-4.3701
X6.5638Y-4.389
X6.5669Y-4.8976
X6.5906Y-3.3701
X6.6063Y-4.622
X6.6358Y-3.4114
X6.6457Y-3.2126
X6.6535Y-4.4409
X6.6555Y-3.4114
X6.6752Y-3.2205
X6.6752Y-3.4114
X6.7323Y-4.8976
T2
X6.0551Y-3.863
X6.0551Y-3.963
X6.0551Y-4.063
T3
X5.7244Y-4.562
X6.2756Y-4.562
X4.6299Y-4.562
X5.1811Y-4.562
T4
X6.4409Y-4.5866
X6.4567Y-4.8976
X6.4724Y-4.5
X6.6457Y-4.5394
X6.6457Y-4.7362
X6.6575Y-4.9094
T5
X5.5669Y-4.7638
X6.1181Y-4.7638
X4.4724Y-4.7638
X5.0236Y-4.7638
T6
X5.6063Y-3.3268
X4.6555Y-3.3268
X5.6063Y-4.2795
X4.6555Y-4.2795
T7
X6.5433Y-4.5394
T8
G00X5.3642Y-4.7972
M15
G01X5.3642Y-4.7303
M16
G05
G00X6.3209Y-4.7972
M15
G01X6.3209Y-4.7303
M16
G05
G00X4.2697Y-4.7972
M15
G01X4.2697Y-4.7303
M16
G05
G00X5.2264Y-4.7972
M15
G01X5.2264Y-4.7303
M16
G05
T0
M30
