G04 #@! TF.GenerationSoftware,KiCad,Pcbnew,(5.1.8)-1*
G04 #@! TF.CreationDate,2021-01-26T22:47:04-05:00*
G04 #@! TF.ProjectId,kimchi_ulid,6b696d63-6869-45f7-956c-69642e6b6963,v0.1*
G04 #@! TF.SameCoordinates,Original*
G04 #@! TF.FileFunction,Soldermask,Top*
G04 #@! TF.FilePolarity,Negative*
%FSLAX46Y46*%
G04 Gerber Fmt 4.6, Leading zero omitted, Abs format (unit mm)*
G04 Created by KiCad (PCBNEW (5.1.8)-1) date 2021-01-26 22:47:04*
%MOMM*%
%LPD*%
G01*
G04 APERTURE LIST*
G04 #@! TA.AperFunction,Profile*
%ADD10C,0.100000*%
G04 #@! TD*
%ADD11O,1.801600X1.801600*%
%ADD12C,1.501600*%
%ADD13C,1.901600*%
%ADD14O,0.701600X0.351600*%
%ADD15O,0.351600X0.701600*%
%ADD16C,2.601600*%
%ADD17O,2.601600X4.301600*%
%ADD18C,4.601600*%
%ADD19C,5.101600*%
%ADD20C,0.100000*%
G04 APERTURE END LIST*
D10*
X172000000Y-80600000D02*
X107000000Y-80600000D01*
X107000000Y-126000000D02*
X172000000Y-126000000D01*
X107000000Y-80600000D02*
X107000000Y-126000000D01*
X172000000Y-126000000D02*
X172000000Y-80600000D01*
X172000000Y-80600000D02*
X107000000Y-80600000D01*
X107000000Y-126000000D02*
X172000000Y-126000000D01*
X107000000Y-80600000D02*
X107000000Y-126000000D01*
X172000000Y-126000000D02*
X172000000Y-80600000D01*
G36*
G01*
X154700800Y-102350000D02*
X154700800Y-104050000D01*
G75*
G02*
X154650000Y-104100800I-50800J0D01*
G01*
X152950000Y-104100800D01*
G75*
G02*
X152899200Y-104050000I0J50800D01*
G01*
X152899200Y-102350000D01*
G75*
G02*
X152950000Y-102299200I50800J0D01*
G01*
X154650000Y-102299200D01*
G75*
G02*
X154700800Y-102350000I0J-50800D01*
G01*
G37*
D11*
X153800000Y-100660000D03*
X153800000Y-98120000D03*
G36*
G01*
X137852396Y-107600798D02*
X136447048Y-107600798D01*
G75*
G02*
X136396248Y-107549998I0J50800D01*
G01*
X136396248Y-106250002D01*
G75*
G02*
X136447048Y-106199202I50800J0D01*
G01*
X137852396Y-106199202D01*
G75*
G02*
X137903196Y-106250002I0J-50800D01*
G01*
X137903196Y-107549998D01*
G75*
G02*
X137852396Y-107600798I-50800J0D01*
G01*
G37*
G36*
G01*
X135552952Y-107600798D02*
X134147604Y-107600798D01*
G75*
G02*
X134096804Y-107549998I0J50800D01*
G01*
X134096804Y-106250002D01*
G75*
G02*
X134147604Y-106199202I50800J0D01*
G01*
X135552952Y-106199202D01*
G75*
G02*
X135603752Y-106250002I0J-50800D01*
G01*
X135603752Y-107549998D01*
G75*
G02*
X135552952Y-107600798I-50800J0D01*
G01*
G37*
G36*
G01*
X129347604Y-101099202D02*
X130752952Y-101099202D01*
G75*
G02*
X130803752Y-101150002I0J-50800D01*
G01*
X130803752Y-102449998D01*
G75*
G02*
X130752952Y-102500798I-50800J0D01*
G01*
X129347604Y-102500798D01*
G75*
G02*
X129296804Y-102449998I0J50800D01*
G01*
X129296804Y-101150002D01*
G75*
G02*
X129347604Y-101099202I50800J0D01*
G01*
G37*
G36*
G01*
X131647048Y-101099202D02*
X133052396Y-101099202D01*
G75*
G02*
X133103196Y-101150002I0J-50800D01*
G01*
X133103196Y-102449998D01*
G75*
G02*
X133052396Y-102500798I-50800J0D01*
G01*
X131647048Y-102500798D01*
G75*
G02*
X131596248Y-102449998I0J50800D01*
G01*
X131596248Y-101150002D01*
G75*
G02*
X131647048Y-101099202I50800J0D01*
G01*
G37*
G36*
G01*
X129347604Y-106199202D02*
X130752952Y-106199202D01*
G75*
G02*
X130803752Y-106250002I0J-50800D01*
G01*
X130803752Y-107549998D01*
G75*
G02*
X130752952Y-107600798I-50800J0D01*
G01*
X129347604Y-107600798D01*
G75*
G02*
X129296804Y-107549998I0J50800D01*
G01*
X129296804Y-106250002D01*
G75*
G02*
X129347604Y-106199202I50800J0D01*
G01*
G37*
G36*
G01*
X131647048Y-106199202D02*
X133052396Y-106199202D01*
G75*
G02*
X133103196Y-106250002I0J-50800D01*
G01*
X133103196Y-107549998D01*
G75*
G02*
X133052396Y-107600798I-50800J0D01*
G01*
X131647048Y-107600798D01*
G75*
G02*
X131596248Y-107549998I0J50800D01*
G01*
X131596248Y-106250002D01*
G75*
G02*
X131647048Y-106199202I50800J0D01*
G01*
G37*
G36*
G01*
X137852396Y-102500798D02*
X136447048Y-102500798D01*
G75*
G02*
X136396248Y-102449998I0J50800D01*
G01*
X136396248Y-101150002D01*
G75*
G02*
X136447048Y-101099202I50800J0D01*
G01*
X137852396Y-101099202D01*
G75*
G02*
X137903196Y-101150002I0J-50800D01*
G01*
X137903196Y-102449998D01*
G75*
G02*
X137852396Y-102500798I-50800J0D01*
G01*
G37*
G36*
G01*
X135552952Y-102500798D02*
X134147604Y-102500798D01*
G75*
G02*
X134096804Y-102449998I0J50800D01*
G01*
X134096804Y-101150002D01*
G75*
G02*
X134147604Y-101099202I50800J0D01*
G01*
X135552952Y-101099202D01*
G75*
G02*
X135603752Y-101150002I0J-50800D01*
G01*
X135603752Y-102449998D01*
G75*
G02*
X135552952Y-102500798I-50800J0D01*
G01*
G37*
G36*
G01*
X167899203Y-111552392D02*
X167899203Y-108991996D01*
G75*
G02*
X167950003Y-108941196I50800J0D01*
G01*
X170449997Y-108941196D01*
G75*
G02*
X170500797Y-108991996I0J-50800D01*
G01*
X170500797Y-111552392D01*
G75*
G02*
X170449997Y-111603192I-50800J0D01*
G01*
X167950003Y-111603192D01*
G75*
G02*
X167899203Y-111552392I0J50800D01*
G01*
G37*
G36*
G01*
X167899203Y-106208004D02*
X167899203Y-103647608D01*
G75*
G02*
X167950003Y-103596808I50800J0D01*
G01*
X170449997Y-103596808D01*
G75*
G02*
X170500797Y-103647608I0J-50800D01*
G01*
X170500797Y-106208004D01*
G75*
G02*
X170449997Y-106258804I-50800J0D01*
G01*
X167950003Y-106258804D01*
G75*
G02*
X167899203Y-106208004I0J50800D01*
G01*
G37*
G36*
G01*
X162839203Y-111552392D02*
X162839203Y-108991996D01*
G75*
G02*
X162890003Y-108941196I50800J0D01*
G01*
X165389997Y-108941196D01*
G75*
G02*
X165440797Y-108991996I0J-50800D01*
G01*
X165440797Y-111552392D01*
G75*
G02*
X165389997Y-111603192I-50800J0D01*
G01*
X162890003Y-111603192D01*
G75*
G02*
X162839203Y-111552392I0J50800D01*
G01*
G37*
G36*
G01*
X162839203Y-106208004D02*
X162839203Y-103647608D01*
G75*
G02*
X162890003Y-103596808I50800J0D01*
G01*
X165389997Y-103596808D01*
G75*
G02*
X165440797Y-103647608I0J-50800D01*
G01*
X165440797Y-106208004D01*
G75*
G02*
X165389997Y-106258804I-50800J0D01*
G01*
X162890003Y-106258804D01*
G75*
G02*
X162839203Y-106208004I0J50800D01*
G01*
G37*
G36*
G01*
X157900798Y-87947604D02*
X157900798Y-89352952D01*
G75*
G02*
X157849998Y-89403752I-50800J0D01*
G01*
X156550002Y-89403752D01*
G75*
G02*
X156499202Y-89352952I0J50800D01*
G01*
X156499202Y-87947604D01*
G75*
G02*
X156550002Y-87896804I50800J0D01*
G01*
X157849998Y-87896804D01*
G75*
G02*
X157900798Y-87947604I0J-50800D01*
G01*
G37*
G36*
G01*
X157900798Y-90247048D02*
X157900798Y-91652396D01*
G75*
G02*
X157849998Y-91703196I-50800J0D01*
G01*
X156550002Y-91703196D01*
G75*
G02*
X156499202Y-91652396I0J50800D01*
G01*
X156499202Y-90247048D01*
G75*
G02*
X156550002Y-90196248I50800J0D01*
G01*
X157849998Y-90196248D01*
G75*
G02*
X157900798Y-90247048I0J-50800D01*
G01*
G37*
G36*
G01*
X154300798Y-87947604D02*
X154300798Y-89352952D01*
G75*
G02*
X154249998Y-89403752I-50800J0D01*
G01*
X152950002Y-89403752D01*
G75*
G02*
X152899202Y-89352952I0J50800D01*
G01*
X152899202Y-87947604D01*
G75*
G02*
X152950002Y-87896804I50800J0D01*
G01*
X154249998Y-87896804D01*
G75*
G02*
X154300798Y-87947604I0J-50800D01*
G01*
G37*
G36*
G01*
X154300798Y-90247048D02*
X154300798Y-91652396D01*
G75*
G02*
X154249998Y-91703196I-50800J0D01*
G01*
X152950002Y-91703196D01*
G75*
G02*
X152899202Y-91652396I0J50800D01*
G01*
X152899202Y-90247048D01*
G75*
G02*
X152950002Y-90196248I50800J0D01*
G01*
X154249998Y-90196248D01*
G75*
G02*
X154300798Y-90247048I0J-50800D01*
G01*
G37*
G36*
G01*
X151347604Y-92699202D02*
X152752952Y-92699202D01*
G75*
G02*
X152803752Y-92750002I0J-50800D01*
G01*
X152803752Y-94049998D01*
G75*
G02*
X152752952Y-94100798I-50800J0D01*
G01*
X151347604Y-94100798D01*
G75*
G02*
X151296804Y-94049998I0J50800D01*
G01*
X151296804Y-92750002D01*
G75*
G02*
X151347604Y-92699202I50800J0D01*
G01*
G37*
G36*
G01*
X153647048Y-92699202D02*
X155052396Y-92699202D01*
G75*
G02*
X155103196Y-92750002I0J-50800D01*
G01*
X155103196Y-94049998D01*
G75*
G02*
X155052396Y-94100798I-50800J0D01*
G01*
X153647048Y-94100798D01*
G75*
G02*
X153596248Y-94049998I0J50800D01*
G01*
X153596248Y-92750002D01*
G75*
G02*
X153647048Y-92699202I50800J0D01*
G01*
G37*
G36*
G01*
X135166000Y-104192000D02*
X134434000Y-104192000D01*
G75*
G02*
X134198000Y-103956000I0J236000D01*
G01*
X134198000Y-103484000D01*
G75*
G02*
X134434000Y-103248000I236000J0D01*
G01*
X135166000Y-103248000D01*
G75*
G02*
X135402000Y-103484000I0J-236000D01*
G01*
X135402000Y-103956000D01*
G75*
G02*
X135166000Y-104192000I-236000J0D01*
G01*
G37*
G36*
G01*
X135166000Y-105552000D02*
X134434000Y-105552000D01*
G75*
G02*
X134198000Y-105316000I0J236000D01*
G01*
X134198000Y-104844000D01*
G75*
G02*
X134434000Y-104608000I236000J0D01*
G01*
X135166000Y-104608000D01*
G75*
G02*
X135402000Y-104844000I0J-236000D01*
G01*
X135402000Y-105316000D01*
G75*
G02*
X135166000Y-105552000I-236000J0D01*
G01*
G37*
G36*
G01*
X132766000Y-104192000D02*
X132034000Y-104192000D01*
G75*
G02*
X131798000Y-103956000I0J236000D01*
G01*
X131798000Y-103484000D01*
G75*
G02*
X132034000Y-103248000I236000J0D01*
G01*
X132766000Y-103248000D01*
G75*
G02*
X133002000Y-103484000I0J-236000D01*
G01*
X133002000Y-103956000D01*
G75*
G02*
X132766000Y-104192000I-236000J0D01*
G01*
G37*
G36*
G01*
X132766000Y-105552000D02*
X132034000Y-105552000D01*
G75*
G02*
X131798000Y-105316000I0J236000D01*
G01*
X131798000Y-104844000D01*
G75*
G02*
X132034000Y-104608000I236000J0D01*
G01*
X132766000Y-104608000D01*
G75*
G02*
X133002000Y-104844000I0J-236000D01*
G01*
X133002000Y-105316000D01*
G75*
G02*
X132766000Y-105552000I-236000J0D01*
G01*
G37*
G36*
G01*
X130053900Y-97390400D02*
X130053900Y-98609600D01*
G75*
G02*
X130003100Y-98660400I-50800J0D01*
G01*
X127488500Y-98660400D01*
G75*
G02*
X127437700Y-98609600I0J50800D01*
G01*
X127437700Y-97390400D01*
G75*
G02*
X127488500Y-97339600I50800J0D01*
G01*
X130003100Y-97339600D01*
G75*
G02*
X130053900Y-97390400I0J-50800D01*
G01*
G37*
G36*
G01*
X133762300Y-97390400D02*
X133762300Y-98609600D01*
G75*
G02*
X133711500Y-98660400I-50800J0D01*
G01*
X131196900Y-98660400D01*
G75*
G02*
X131146100Y-98609600I0J50800D01*
G01*
X131146100Y-97390400D01*
G75*
G02*
X131196900Y-97339600I50800J0D01*
G01*
X133711500Y-97339600D01*
G75*
G02*
X133762300Y-97390400I0J-50800D01*
G01*
G37*
G36*
G01*
X136701500Y-100416250D02*
X136701500Y-99983750D01*
G75*
G02*
X136892250Y-99793000I190750J0D01*
G01*
X137273750Y-99793000D01*
G75*
G02*
X137464500Y-99983750I0J-190750D01*
G01*
X137464500Y-100416250D01*
G75*
G02*
X137273750Y-100607000I-190750J0D01*
G01*
X136892250Y-100607000D01*
G75*
G02*
X136701500Y-100416250I0J190750D01*
G01*
G37*
G36*
G01*
X135735500Y-100416250D02*
X135735500Y-99983750D01*
G75*
G02*
X135926250Y-99793000I190750J0D01*
G01*
X136307750Y-99793000D01*
G75*
G02*
X136498500Y-99983750I0J-190750D01*
G01*
X136498500Y-100416250D01*
G75*
G02*
X136307750Y-100607000I-190750J0D01*
G01*
X135926250Y-100607000D01*
G75*
G02*
X135735500Y-100416250I0J190750D01*
G01*
G37*
G36*
G01*
X153698500Y-94883750D02*
X153698500Y-95316250D01*
G75*
G02*
X153507750Y-95507000I-190750J0D01*
G01*
X153126250Y-95507000D01*
G75*
G02*
X152935500Y-95316250I0J190750D01*
G01*
X152935500Y-94883750D01*
G75*
G02*
X153126250Y-94693000I190750J0D01*
G01*
X153507750Y-94693000D01*
G75*
G02*
X153698500Y-94883750I0J-190750D01*
G01*
G37*
G36*
G01*
X154664500Y-94883750D02*
X154664500Y-95316250D01*
G75*
G02*
X154473750Y-95507000I-190750J0D01*
G01*
X154092250Y-95507000D01*
G75*
G02*
X153901500Y-95316250I0J190750D01*
G01*
X153901500Y-94883750D01*
G75*
G02*
X154092250Y-94693000I190750J0D01*
G01*
X154473750Y-94693000D01*
G75*
G02*
X154664500Y-94883750I0J-190750D01*
G01*
G37*
D12*
X166200000Y-115300000D03*
G36*
G01*
X169700000Y-116250800D02*
X167900000Y-116250800D01*
G75*
G02*
X167849200Y-116200000I0J50800D01*
G01*
X167849200Y-114400000D01*
G75*
G02*
X167900000Y-114349200I50800J0D01*
G01*
X169700000Y-114349200D01*
G75*
G02*
X169750800Y-114400000I0J-50800D01*
G01*
X169750800Y-116200000D01*
G75*
G02*
X169700000Y-116250800I-50800J0D01*
G01*
G37*
D13*
X164400000Y-114300000D03*
G36*
G01*
X164500000Y-117450800D02*
X162700000Y-117450800D01*
G75*
G02*
X162649200Y-117400000I0J50800D01*
G01*
X162649200Y-115600000D01*
G75*
G02*
X162700000Y-115549200I50800J0D01*
G01*
X164500000Y-115549200D01*
G75*
G02*
X164550800Y-115600000I0J-50800D01*
G01*
X164550800Y-117400000D01*
G75*
G02*
X164500000Y-117450800I-50800J0D01*
G01*
G37*
G36*
G01*
X169700000Y-121250800D02*
X167900000Y-121250800D01*
G75*
G02*
X167849200Y-121200000I0J50800D01*
G01*
X167849200Y-119400000D01*
G75*
G02*
X167900000Y-119349200I50800J0D01*
G01*
X169700000Y-119349200D01*
G75*
G02*
X169750800Y-119400000I0J-50800D01*
G01*
X169750800Y-121200000D01*
G75*
G02*
X169700000Y-121250800I-50800J0D01*
G01*
G37*
G36*
G01*
X164900000Y-125350800D02*
X163100000Y-125350800D01*
G75*
G02*
X163049200Y-125300000I0J50800D01*
G01*
X163049200Y-123500000D01*
G75*
G02*
X163100000Y-123449200I50800J0D01*
G01*
X164900000Y-123449200D01*
G75*
G02*
X164950800Y-123500000I0J-50800D01*
G01*
X164950800Y-125300000D01*
G75*
G02*
X164900000Y-125350800I-50800J0D01*
G01*
G37*
G36*
G01*
X170000000Y-125650800D02*
X168200000Y-125650800D01*
G75*
G02*
X168149200Y-125600000I0J50800D01*
G01*
X168149200Y-123800000D01*
G75*
G02*
X168200000Y-123749200I50800J0D01*
G01*
X170000000Y-123749200D01*
G75*
G02*
X170050800Y-123800000I0J-50800D01*
G01*
X170050800Y-125600000D01*
G75*
G02*
X170000000Y-125650800I-50800J0D01*
G01*
G37*
G36*
G01*
X155616250Y-90898500D02*
X155183750Y-90898500D01*
G75*
G02*
X154993000Y-90707750I0J190750D01*
G01*
X154993000Y-90326250D01*
G75*
G02*
X155183750Y-90135500I190750J0D01*
G01*
X155616250Y-90135500D01*
G75*
G02*
X155807000Y-90326250I0J-190750D01*
G01*
X155807000Y-90707750D01*
G75*
G02*
X155616250Y-90898500I-190750J0D01*
G01*
G37*
G36*
G01*
X155616250Y-91864500D02*
X155183750Y-91864500D01*
G75*
G02*
X154993000Y-91673750I0J190750D01*
G01*
X154993000Y-91292250D01*
G75*
G02*
X155183750Y-91101500I190750J0D01*
G01*
X155616250Y-91101500D01*
G75*
G02*
X155807000Y-91292250I0J-190750D01*
G01*
X155807000Y-91673750D01*
G75*
G02*
X155616250Y-91864500I-190750J0D01*
G01*
G37*
G36*
G01*
X159216250Y-90898500D02*
X158783750Y-90898500D01*
G75*
G02*
X158593000Y-90707750I0J190750D01*
G01*
X158593000Y-90326250D01*
G75*
G02*
X158783750Y-90135500I190750J0D01*
G01*
X159216250Y-90135500D01*
G75*
G02*
X159407000Y-90326250I0J-190750D01*
G01*
X159407000Y-90707750D01*
G75*
G02*
X159216250Y-90898500I-190750J0D01*
G01*
G37*
G36*
G01*
X159216250Y-91864500D02*
X158783750Y-91864500D01*
G75*
G02*
X158593000Y-91673750I0J190750D01*
G01*
X158593000Y-91292250D01*
G75*
G02*
X158783750Y-91101500I190750J0D01*
G01*
X159216250Y-91101500D01*
G75*
G02*
X159407000Y-91292250I0J-190750D01*
G01*
X159407000Y-91673750D01*
G75*
G02*
X159216250Y-91864500I-190750J0D01*
G01*
G37*
G36*
G01*
X160385000Y-95690800D02*
X158660000Y-95690800D01*
G75*
G02*
X158609200Y-95640000I0J50800D01*
G01*
X158609200Y-93915000D01*
G75*
G02*
X158660000Y-93864200I50800J0D01*
G01*
X160385000Y-93864200D01*
G75*
G02*
X160435800Y-93915000I0J-50800D01*
G01*
X160435800Y-95640000D01*
G75*
G02*
X160385000Y-95690800I-50800J0D01*
G01*
G37*
G36*
G01*
X158660000Y-95690800D02*
X156935000Y-95690800D01*
G75*
G02*
X156884200Y-95640000I0J50800D01*
G01*
X156884200Y-93915000D01*
G75*
G02*
X156935000Y-93864200I50800J0D01*
G01*
X158660000Y-93864200D01*
G75*
G02*
X158710800Y-93915000I0J-50800D01*
G01*
X158710800Y-95640000D01*
G75*
G02*
X158660000Y-95690800I-50800J0D01*
G01*
G37*
G36*
G01*
X160385000Y-97415800D02*
X158660000Y-97415800D01*
G75*
G02*
X158609200Y-97365000I0J50800D01*
G01*
X158609200Y-95640000D01*
G75*
G02*
X158660000Y-95589200I50800J0D01*
G01*
X160385000Y-95589200D01*
G75*
G02*
X160435800Y-95640000I0J-50800D01*
G01*
X160435800Y-97365000D01*
G75*
G02*
X160385000Y-97415800I-50800J0D01*
G01*
G37*
G36*
G01*
X158660000Y-97415800D02*
X156935000Y-97415800D01*
G75*
G02*
X156884200Y-97365000I0J50800D01*
G01*
X156884200Y-95640000D01*
G75*
G02*
X156935000Y-95589200I50800J0D01*
G01*
X158660000Y-95589200D01*
G75*
G02*
X158710800Y-95640000I0J-50800D01*
G01*
X158710800Y-97365000D01*
G75*
G02*
X158660000Y-97415800I-50800J0D01*
G01*
G37*
D14*
X156460000Y-97390000D03*
X156460000Y-96890000D03*
X156460000Y-96390000D03*
X156460000Y-95890000D03*
X156460000Y-95390000D03*
X156460000Y-94890000D03*
X156460000Y-94390000D03*
X156460000Y-93890000D03*
D15*
X156910000Y-93440000D03*
X157410000Y-93440000D03*
X157910000Y-93440000D03*
X158410000Y-93440000D03*
X158910000Y-93440000D03*
X159410000Y-93440000D03*
X159910000Y-93440000D03*
X160410000Y-93440000D03*
D14*
X160860000Y-93890000D03*
X160860000Y-94390000D03*
X160860000Y-94890000D03*
X160860000Y-95390000D03*
X160860000Y-95890000D03*
X160860000Y-96390000D03*
X160860000Y-96890000D03*
X160860000Y-97390000D03*
D15*
X160410000Y-97840000D03*
X159910000Y-97840000D03*
X159410000Y-97840000D03*
X158910000Y-97840000D03*
X158410000Y-97840000D03*
X157910000Y-97840000D03*
X157410000Y-97840000D03*
X156910000Y-97840000D03*
G36*
G01*
X160192000Y-111234000D02*
X160192000Y-111966000D01*
G75*
G02*
X159956000Y-112202000I-236000J0D01*
G01*
X159484000Y-112202000D01*
G75*
G02*
X159248000Y-111966000I0J236000D01*
G01*
X159248000Y-111234000D01*
G75*
G02*
X159484000Y-110998000I236000J0D01*
G01*
X159956000Y-110998000D01*
G75*
G02*
X160192000Y-111234000I0J-236000D01*
G01*
G37*
G36*
G01*
X161552000Y-111234000D02*
X161552000Y-111966000D01*
G75*
G02*
X161316000Y-112202000I-236000J0D01*
G01*
X160844000Y-112202000D01*
G75*
G02*
X160608000Y-111966000I0J236000D01*
G01*
X160608000Y-111234000D01*
G75*
G02*
X160844000Y-110998000I236000J0D01*
G01*
X161316000Y-110998000D01*
G75*
G02*
X161552000Y-111234000I0J-236000D01*
G01*
G37*
G36*
G01*
X159216250Y-110664500D02*
X158783750Y-110664500D01*
G75*
G02*
X158593000Y-110473750I0J190750D01*
G01*
X158593000Y-110092250D01*
G75*
G02*
X158783750Y-109901500I190750J0D01*
G01*
X159216250Y-109901500D01*
G75*
G02*
X159407000Y-110092250I0J-190750D01*
G01*
X159407000Y-110473750D01*
G75*
G02*
X159216250Y-110664500I-190750J0D01*
G01*
G37*
G36*
G01*
X159216250Y-109698500D02*
X158783750Y-109698500D01*
G75*
G02*
X158593000Y-109507750I0J190750D01*
G01*
X158593000Y-109126250D01*
G75*
G02*
X158783750Y-108935500I190750J0D01*
G01*
X159216250Y-108935500D01*
G75*
G02*
X159407000Y-109126250I0J-190750D01*
G01*
X159407000Y-109507750D01*
G75*
G02*
X159216250Y-109698500I-190750J0D01*
G01*
G37*
G36*
G01*
X167608000Y-113166000D02*
X167608000Y-112434000D01*
G75*
G02*
X167844000Y-112198000I236000J0D01*
G01*
X168316000Y-112198000D01*
G75*
G02*
X168552000Y-112434000I0J-236000D01*
G01*
X168552000Y-113166000D01*
G75*
G02*
X168316000Y-113402000I-236000J0D01*
G01*
X167844000Y-113402000D01*
G75*
G02*
X167608000Y-113166000I0J236000D01*
G01*
G37*
G36*
G01*
X166248000Y-113166000D02*
X166248000Y-112434000D01*
G75*
G02*
X166484000Y-112198000I236000J0D01*
G01*
X166956000Y-112198000D01*
G75*
G02*
X167192000Y-112434000I0J-236000D01*
G01*
X167192000Y-113166000D01*
G75*
G02*
X166956000Y-113402000I-236000J0D01*
G01*
X166484000Y-113402000D01*
G75*
G02*
X166248000Y-113166000I0J236000D01*
G01*
G37*
G36*
G01*
X156383750Y-99901500D02*
X156816250Y-99901500D01*
G75*
G02*
X157007000Y-100092250I0J-190750D01*
G01*
X157007000Y-100473750D01*
G75*
G02*
X156816250Y-100664500I-190750J0D01*
G01*
X156383750Y-100664500D01*
G75*
G02*
X156193000Y-100473750I0J190750D01*
G01*
X156193000Y-100092250D01*
G75*
G02*
X156383750Y-99901500I190750J0D01*
G01*
G37*
G36*
G01*
X156383750Y-98935500D02*
X156816250Y-98935500D01*
G75*
G02*
X157007000Y-99126250I0J-190750D01*
G01*
X157007000Y-99507750D01*
G75*
G02*
X156816250Y-99698500I-190750J0D01*
G01*
X156383750Y-99698500D01*
G75*
G02*
X156193000Y-99507750I0J190750D01*
G01*
X156193000Y-99126250D01*
G75*
G02*
X156383750Y-98935500I190750J0D01*
G01*
G37*
G36*
G01*
X157383750Y-99901500D02*
X157816250Y-99901500D01*
G75*
G02*
X158007000Y-100092250I0J-190750D01*
G01*
X158007000Y-100473750D01*
G75*
G02*
X157816250Y-100664500I-190750J0D01*
G01*
X157383750Y-100664500D01*
G75*
G02*
X157193000Y-100473750I0J190750D01*
G01*
X157193000Y-100092250D01*
G75*
G02*
X157383750Y-99901500I190750J0D01*
G01*
G37*
G36*
G01*
X157383750Y-98935500D02*
X157816250Y-98935500D01*
G75*
G02*
X158007000Y-99126250I0J-190750D01*
G01*
X158007000Y-99507750D01*
G75*
G02*
X157816250Y-99698500I-190750J0D01*
G01*
X157383750Y-99698500D01*
G75*
G02*
X157193000Y-99507750I0J190750D01*
G01*
X157193000Y-99126250D01*
G75*
G02*
X157383750Y-98935500I190750J0D01*
G01*
G37*
G36*
G01*
X161616250Y-91498500D02*
X161183750Y-91498500D01*
G75*
G02*
X160993000Y-91307750I0J190750D01*
G01*
X160993000Y-90926250D01*
G75*
G02*
X161183750Y-90735500I190750J0D01*
G01*
X161616250Y-90735500D01*
G75*
G02*
X161807000Y-90926250I0J-190750D01*
G01*
X161807000Y-91307750D01*
G75*
G02*
X161616250Y-91498500I-190750J0D01*
G01*
G37*
G36*
G01*
X161616250Y-92464500D02*
X161183750Y-92464500D01*
G75*
G02*
X160993000Y-92273750I0J190750D01*
G01*
X160993000Y-91892250D01*
G75*
G02*
X161183750Y-91701500I190750J0D01*
G01*
X161616250Y-91701500D01*
G75*
G02*
X161807000Y-91892250I0J-190750D01*
G01*
X161807000Y-92273750D01*
G75*
G02*
X161616250Y-92464500I-190750J0D01*
G01*
G37*
G36*
G01*
X160416250Y-91498500D02*
X159983750Y-91498500D01*
G75*
G02*
X159793000Y-91307750I0J190750D01*
G01*
X159793000Y-90926250D01*
G75*
G02*
X159983750Y-90735500I190750J0D01*
G01*
X160416250Y-90735500D01*
G75*
G02*
X160607000Y-90926250I0J-190750D01*
G01*
X160607000Y-91307750D01*
G75*
G02*
X160416250Y-91498500I-190750J0D01*
G01*
G37*
G36*
G01*
X160416250Y-92464500D02*
X159983750Y-92464500D01*
G75*
G02*
X159793000Y-92273750I0J190750D01*
G01*
X159793000Y-91892250D01*
G75*
G02*
X159983750Y-91701500I190750J0D01*
G01*
X160416250Y-91701500D01*
G75*
G02*
X160607000Y-91892250I0J-190750D01*
G01*
X160607000Y-92273750D01*
G75*
G02*
X160416250Y-92464500I-190750J0D01*
G01*
G37*
D16*
X131600000Y-115875000D03*
X117600000Y-115875000D03*
D17*
X108450000Y-121000000D03*
X132750000Y-121000000D03*
D18*
X113600000Y-121000000D03*
X127600000Y-121000000D03*
D16*
X159400000Y-115875000D03*
X145400000Y-115875000D03*
D17*
X136250000Y-121000000D03*
X160550000Y-121000000D03*
D18*
X141400000Y-121000000D03*
X155400000Y-121000000D03*
G36*
G01*
X149718000Y-113366000D02*
X149718000Y-112634000D01*
G75*
G02*
X149954000Y-112398000I236000J0D01*
G01*
X150426000Y-112398000D01*
G75*
G02*
X150662000Y-112634000I0J-236000D01*
G01*
X150662000Y-113366000D01*
G75*
G02*
X150426000Y-113602000I-236000J0D01*
G01*
X149954000Y-113602000D01*
G75*
G02*
X149718000Y-113366000I0J236000D01*
G01*
G37*
G36*
G01*
X148358000Y-113366000D02*
X148358000Y-112634000D01*
G75*
G02*
X148594000Y-112398000I236000J0D01*
G01*
X149066000Y-112398000D01*
G75*
G02*
X149302000Y-112634000I0J-236000D01*
G01*
X149302000Y-113366000D01*
G75*
G02*
X149066000Y-113602000I-236000J0D01*
G01*
X148594000Y-113602000D01*
G75*
G02*
X148358000Y-113366000I0J236000D01*
G01*
G37*
G36*
G01*
X141598000Y-113566000D02*
X141598000Y-112834000D01*
G75*
G02*
X141834000Y-112598000I236000J0D01*
G01*
X142306000Y-112598000D01*
G75*
G02*
X142542000Y-112834000I0J-236000D01*
G01*
X142542000Y-113566000D01*
G75*
G02*
X142306000Y-113802000I-236000J0D01*
G01*
X141834000Y-113802000D01*
G75*
G02*
X141598000Y-113566000I0J236000D01*
G01*
G37*
G36*
G01*
X140238000Y-113566000D02*
X140238000Y-112834000D01*
G75*
G02*
X140474000Y-112598000I236000J0D01*
G01*
X140946000Y-112598000D01*
G75*
G02*
X141182000Y-112834000I0J-236000D01*
G01*
X141182000Y-113566000D01*
G75*
G02*
X140946000Y-113802000I-236000J0D01*
G01*
X140474000Y-113802000D01*
G75*
G02*
X140238000Y-113566000I0J236000D01*
G01*
G37*
G36*
G01*
X127208000Y-113366000D02*
X127208000Y-112634000D01*
G75*
G02*
X127444000Y-112398000I236000J0D01*
G01*
X127916000Y-112398000D01*
G75*
G02*
X128152000Y-112634000I0J-236000D01*
G01*
X128152000Y-113366000D01*
G75*
G02*
X127916000Y-113602000I-236000J0D01*
G01*
X127444000Y-113602000D01*
G75*
G02*
X127208000Y-113366000I0J236000D01*
G01*
G37*
G36*
G01*
X125848000Y-113366000D02*
X125848000Y-112634000D01*
G75*
G02*
X126084000Y-112398000I236000J0D01*
G01*
X126556000Y-112398000D01*
G75*
G02*
X126792000Y-112634000I0J-236000D01*
G01*
X126792000Y-113366000D01*
G75*
G02*
X126556000Y-113602000I-236000J0D01*
G01*
X126084000Y-113602000D01*
G75*
G02*
X125848000Y-113366000I0J236000D01*
G01*
G37*
G36*
G01*
X118392000Y-112634000D02*
X118392000Y-113366000D01*
G75*
G02*
X118156000Y-113602000I-236000J0D01*
G01*
X117684000Y-113602000D01*
G75*
G02*
X117448000Y-113366000I0J236000D01*
G01*
X117448000Y-112634000D01*
G75*
G02*
X117684000Y-112398000I236000J0D01*
G01*
X118156000Y-112398000D01*
G75*
G02*
X118392000Y-112634000I0J-236000D01*
G01*
G37*
G36*
G01*
X119752000Y-112634000D02*
X119752000Y-113366000D01*
G75*
G02*
X119516000Y-113602000I-236000J0D01*
G01*
X119044000Y-113602000D01*
G75*
G02*
X118808000Y-113366000I0J236000D01*
G01*
X118808000Y-112634000D01*
G75*
G02*
X119044000Y-112398000I236000J0D01*
G01*
X119516000Y-112398000D01*
G75*
G02*
X119752000Y-112634000I0J-236000D01*
G01*
G37*
G36*
G01*
X129927000Y-112174000D02*
X129927000Y-113426000D01*
G75*
G02*
X129601000Y-113752000I-326000J0D01*
G01*
X128949000Y-113752000D01*
G75*
G02*
X128623000Y-113426000I0J326000D01*
G01*
X128623000Y-112174000D01*
G75*
G02*
X128949000Y-111848000I326000J0D01*
G01*
X129601000Y-111848000D01*
G75*
G02*
X129927000Y-112174000I0J-326000D01*
G01*
G37*
G36*
G01*
X132577000Y-112174000D02*
X132577000Y-113426000D01*
G75*
G02*
X132251000Y-113752000I-326000J0D01*
G01*
X131599000Y-113752000D01*
G75*
G02*
X131273000Y-113426000I0J326000D01*
G01*
X131273000Y-112174000D01*
G75*
G02*
X131599000Y-111848000I326000J0D01*
G01*
X132251000Y-111848000D01*
G75*
G02*
X132577000Y-112174000I0J-326000D01*
G01*
G37*
G36*
G01*
X122727000Y-111974000D02*
X122727000Y-113226000D01*
G75*
G02*
X122401000Y-113552000I-326000J0D01*
G01*
X121749000Y-113552000D01*
G75*
G02*
X121423000Y-113226000I0J326000D01*
G01*
X121423000Y-111974000D01*
G75*
G02*
X121749000Y-111648000I326000J0D01*
G01*
X122401000Y-111648000D01*
G75*
G02*
X122727000Y-111974000I0J-326000D01*
G01*
G37*
G36*
G01*
X125377000Y-111974000D02*
X125377000Y-113226000D01*
G75*
G02*
X125051000Y-113552000I-326000J0D01*
G01*
X124399000Y-113552000D01*
G75*
G02*
X124073000Y-113226000I0J326000D01*
G01*
X124073000Y-111974000D01*
G75*
G02*
X124399000Y-111648000I326000J0D01*
G01*
X125051000Y-111648000D01*
G75*
G02*
X125377000Y-111974000I0J-326000D01*
G01*
G37*
G36*
G01*
X148175000Y-101080800D02*
X147525000Y-101080800D01*
G75*
G02*
X147474200Y-101030000I0J50800D01*
G01*
X147474200Y-99970000D01*
G75*
G02*
X147525000Y-99919200I50800J0D01*
G01*
X148175000Y-99919200D01*
G75*
G02*
X148225800Y-99970000I0J-50800D01*
G01*
X148225800Y-101030000D01*
G75*
G02*
X148175000Y-101080800I-50800J0D01*
G01*
G37*
G36*
G01*
X149125000Y-101080800D02*
X148475000Y-101080800D01*
G75*
G02*
X148424200Y-101030000I0J50800D01*
G01*
X148424200Y-99970000D01*
G75*
G02*
X148475000Y-99919200I50800J0D01*
G01*
X149125000Y-99919200D01*
G75*
G02*
X149175800Y-99970000I0J-50800D01*
G01*
X149175800Y-101030000D01*
G75*
G02*
X149125000Y-101080800I-50800J0D01*
G01*
G37*
G36*
G01*
X150075000Y-101080800D02*
X149425000Y-101080800D01*
G75*
G02*
X149374200Y-101030000I0J50800D01*
G01*
X149374200Y-99970000D01*
G75*
G02*
X149425000Y-99919200I50800J0D01*
G01*
X150075000Y-99919200D01*
G75*
G02*
X150125800Y-99970000I0J-50800D01*
G01*
X150125800Y-101030000D01*
G75*
G02*
X150075000Y-101080800I-50800J0D01*
G01*
G37*
G36*
G01*
X150075000Y-98880800D02*
X149425000Y-98880800D01*
G75*
G02*
X149374200Y-98830000I0J50800D01*
G01*
X149374200Y-97770000D01*
G75*
G02*
X149425000Y-97719200I50800J0D01*
G01*
X150075000Y-97719200D01*
G75*
G02*
X150125800Y-97770000I0J-50800D01*
G01*
X150125800Y-98830000D01*
G75*
G02*
X150075000Y-98880800I-50800J0D01*
G01*
G37*
G36*
G01*
X148175000Y-98880800D02*
X147525000Y-98880800D01*
G75*
G02*
X147474200Y-98830000I0J50800D01*
G01*
X147474200Y-97770000D01*
G75*
G02*
X147525000Y-97719200I50800J0D01*
G01*
X148175000Y-97719200D01*
G75*
G02*
X148225800Y-97770000I0J-50800D01*
G01*
X148225800Y-98830000D01*
G75*
G02*
X148175000Y-98880800I-50800J0D01*
G01*
G37*
G36*
G01*
X146183750Y-98701500D02*
X146616250Y-98701500D01*
G75*
G02*
X146807000Y-98892250I0J-190750D01*
G01*
X146807000Y-99273750D01*
G75*
G02*
X146616250Y-99464500I-190750J0D01*
G01*
X146183750Y-99464500D01*
G75*
G02*
X145993000Y-99273750I0J190750D01*
G01*
X145993000Y-98892250D01*
G75*
G02*
X146183750Y-98701500I190750J0D01*
G01*
G37*
G36*
G01*
X146183750Y-97735500D02*
X146616250Y-97735500D01*
G75*
G02*
X146807000Y-97926250I0J-190750D01*
G01*
X146807000Y-98307750D01*
G75*
G02*
X146616250Y-98498500I-190750J0D01*
G01*
X146183750Y-98498500D01*
G75*
G02*
X145993000Y-98307750I0J190750D01*
G01*
X145993000Y-97926250D01*
G75*
G02*
X146183750Y-97735500I190750J0D01*
G01*
G37*
G36*
G01*
X148320000Y-106350800D02*
X146820000Y-106350800D01*
G75*
G02*
X146769200Y-106300000I0J50800D01*
G01*
X146769200Y-104600000D01*
G75*
G02*
X146820000Y-104549200I50800J0D01*
G01*
X148320000Y-104549200D01*
G75*
G02*
X148370800Y-104600000I0J-50800D01*
G01*
X148370800Y-106300000D01*
G75*
G02*
X148320000Y-106350800I-50800J0D01*
G01*
G37*
G36*
G01*
X148320000Y-103810800D02*
X146820000Y-103810800D01*
G75*
G02*
X146769200Y-103760000I0J50800D01*
G01*
X146769200Y-102060000D01*
G75*
G02*
X146820000Y-102009200I50800J0D01*
G01*
X148320000Y-102009200D01*
G75*
G02*
X148370800Y-102060000I0J-50800D01*
G01*
X148370800Y-103760000D01*
G75*
G02*
X148320000Y-103810800I-50800J0D01*
G01*
G37*
G36*
G01*
X150520000Y-103810800D02*
X149020000Y-103810800D01*
G75*
G02*
X148969200Y-103760000I0J50800D01*
G01*
X148969200Y-102060000D01*
G75*
G02*
X149020000Y-102009200I50800J0D01*
G01*
X150520000Y-102009200D01*
G75*
G02*
X150570800Y-102060000I0J-50800D01*
G01*
X150570800Y-103760000D01*
G75*
G02*
X150520000Y-103810800I-50800J0D01*
G01*
G37*
G36*
G01*
X150520000Y-106350800D02*
X149020000Y-106350800D01*
G75*
G02*
X148969200Y-106300000I0J50800D01*
G01*
X148969200Y-104600000D01*
G75*
G02*
X149020000Y-104549200I50800J0D01*
G01*
X150520000Y-104549200D01*
G75*
G02*
X150570800Y-104600000I0J-50800D01*
G01*
X150570800Y-106300000D01*
G75*
G02*
X150520000Y-106350800I-50800J0D01*
G01*
G37*
G36*
G01*
X153783000Y-113426000D02*
X153783000Y-112174000D01*
G75*
G02*
X154109000Y-111848000I326000J0D01*
G01*
X154761000Y-111848000D01*
G75*
G02*
X155087000Y-112174000I0J-326000D01*
G01*
X155087000Y-113426000D01*
G75*
G02*
X154761000Y-113752000I-326000J0D01*
G01*
X154109000Y-113752000D01*
G75*
G02*
X153783000Y-113426000I0J326000D01*
G01*
G37*
G36*
G01*
X151133000Y-113426000D02*
X151133000Y-112174000D01*
G75*
G02*
X151459000Y-111848000I326000J0D01*
G01*
X152111000Y-111848000D01*
G75*
G02*
X152437000Y-112174000I0J-326000D01*
G01*
X152437000Y-113426000D01*
G75*
G02*
X152111000Y-113752000I-326000J0D01*
G01*
X151459000Y-113752000D01*
G75*
G02*
X151133000Y-113426000I0J326000D01*
G01*
G37*
G36*
G01*
X145583000Y-113426000D02*
X145583000Y-112174000D01*
G75*
G02*
X145909000Y-111848000I326000J0D01*
G01*
X146561000Y-111848000D01*
G75*
G02*
X146887000Y-112174000I0J-326000D01*
G01*
X146887000Y-113426000D01*
G75*
G02*
X146561000Y-113752000I-326000J0D01*
G01*
X145909000Y-113752000D01*
G75*
G02*
X145583000Y-113426000I0J326000D01*
G01*
G37*
G36*
G01*
X142933000Y-113426000D02*
X142933000Y-112174000D01*
G75*
G02*
X143259000Y-111848000I326000J0D01*
G01*
X143911000Y-111848000D01*
G75*
G02*
X144237000Y-112174000I0J-326000D01*
G01*
X144237000Y-113426000D01*
G75*
G02*
X143911000Y-113752000I-326000J0D01*
G01*
X143259000Y-113752000D01*
G75*
G02*
X142933000Y-113426000I0J326000D01*
G01*
G37*
G36*
G01*
X159974000Y-109473000D02*
X161226000Y-109473000D01*
G75*
G02*
X161552000Y-109799000I0J-326000D01*
G01*
X161552000Y-110451000D01*
G75*
G02*
X161226000Y-110777000I-326000J0D01*
G01*
X159974000Y-110777000D01*
G75*
G02*
X159648000Y-110451000I0J326000D01*
G01*
X159648000Y-109799000D01*
G75*
G02*
X159974000Y-109473000I326000J0D01*
G01*
G37*
G36*
G01*
X159974000Y-106823000D02*
X161226000Y-106823000D01*
G75*
G02*
X161552000Y-107149000I0J-326000D01*
G01*
X161552000Y-107801000D01*
G75*
G02*
X161226000Y-108127000I-326000J0D01*
G01*
X159974000Y-108127000D01*
G75*
G02*
X159648000Y-107801000I0J326000D01*
G01*
X159648000Y-107149000D01*
G75*
G02*
X159974000Y-106823000I326000J0D01*
G01*
G37*
G36*
G01*
X151816250Y-103898500D02*
X151383750Y-103898500D01*
G75*
G02*
X151193000Y-103707750I0J190750D01*
G01*
X151193000Y-103326250D01*
G75*
G02*
X151383750Y-103135500I190750J0D01*
G01*
X151816250Y-103135500D01*
G75*
G02*
X152007000Y-103326250I0J-190750D01*
G01*
X152007000Y-103707750D01*
G75*
G02*
X151816250Y-103898500I-190750J0D01*
G01*
G37*
G36*
G01*
X151816250Y-104864500D02*
X151383750Y-104864500D01*
G75*
G02*
X151193000Y-104673750I0J190750D01*
G01*
X151193000Y-104292250D01*
G75*
G02*
X151383750Y-104101500I190750J0D01*
G01*
X151816250Y-104101500D01*
G75*
G02*
X152007000Y-104292250I0J-190750D01*
G01*
X152007000Y-104673750D01*
G75*
G02*
X151816250Y-104864500I-190750J0D01*
G01*
G37*
D19*
X142400000Y-108700000D03*
X142400000Y-84500000D03*
X118250000Y-108700000D03*
X118250000Y-84500000D03*
D20*
G36*
X156885284Y-97281119D02*
G01*
X156886200Y-97282800D01*
X156886200Y-97413800D01*
X157017200Y-97413800D01*
X157018932Y-97414800D01*
X157018932Y-97416800D01*
X157017396Y-97417790D01*
X157007685Y-97418746D01*
X156998529Y-97421524D01*
X156990094Y-97426032D01*
X156982701Y-97432100D01*
X156976633Y-97439493D01*
X156972125Y-97447928D01*
X156969347Y-97457084D01*
X156968410Y-97466599D01*
X156969347Y-97476114D01*
X156972125Y-97485270D01*
X156976633Y-97493705D01*
X156982701Y-97501098D01*
X156990247Y-97507291D01*
X156990951Y-97509163D01*
X156989682Y-97510709D01*
X156988035Y-97510601D01*
X156976507Y-97504439D01*
X156943902Y-97494548D01*
X156910000Y-97491209D01*
X156876099Y-97494548D01*
X156843494Y-97504439D01*
X156813448Y-97520499D01*
X156787113Y-97542112D01*
X156765500Y-97568447D01*
X156749440Y-97598493D01*
X156742491Y-97621401D01*
X156741031Y-97622768D01*
X156739117Y-97622187D01*
X156738615Y-97620430D01*
X156740032Y-97613303D01*
X156740032Y-97603743D01*
X156738166Y-97594359D01*
X156734506Y-97585523D01*
X156729192Y-97577570D01*
X156722430Y-97570809D01*
X156714477Y-97565495D01*
X156705642Y-97561835D01*
X156696258Y-97559969D01*
X156686698Y-97559969D01*
X156679567Y-97561387D01*
X156677673Y-97560744D01*
X156677283Y-97558782D01*
X156678596Y-97557511D01*
X156701507Y-97550561D01*
X156731553Y-97534501D01*
X156757888Y-97512888D01*
X156779501Y-97486553D01*
X156795561Y-97456507D01*
X156805452Y-97423902D01*
X156808791Y-97390000D01*
X156805452Y-97356098D01*
X156795561Y-97323493D01*
X156788222Y-97309763D01*
X156788288Y-97307764D01*
X156790051Y-97306821D01*
X156791649Y-97307709D01*
X156795687Y-97313752D01*
X156802448Y-97320514D01*
X156810401Y-97325828D01*
X156819237Y-97329488D01*
X156828621Y-97331354D01*
X156838181Y-97331354D01*
X156847565Y-97329488D01*
X156856400Y-97325828D01*
X156864353Y-97320514D01*
X156871115Y-97313753D01*
X156876429Y-97305800D01*
X156880089Y-97296964D01*
X156881964Y-97287534D01*
X156882202Y-97282702D01*
X156883286Y-97281021D01*
X156885284Y-97281119D01*
G37*
G36*
X160437790Y-97282604D02*
G01*
X160438746Y-97292315D01*
X160441524Y-97301471D01*
X160446032Y-97309906D01*
X160452100Y-97317299D01*
X160459493Y-97323367D01*
X160467928Y-97327875D01*
X160477084Y-97330653D01*
X160486599Y-97331590D01*
X160496114Y-97330653D01*
X160505270Y-97327875D01*
X160513705Y-97323367D01*
X160521098Y-97317299D01*
X160527291Y-97309753D01*
X160529163Y-97309049D01*
X160530709Y-97310318D01*
X160530601Y-97311965D01*
X160524439Y-97323493D01*
X160514548Y-97356098D01*
X160511209Y-97390000D01*
X160514548Y-97423902D01*
X160524439Y-97456507D01*
X160540499Y-97486553D01*
X160562112Y-97512888D01*
X160588447Y-97534501D01*
X160618493Y-97550561D01*
X160641401Y-97557510D01*
X160642768Y-97558970D01*
X160642187Y-97560884D01*
X160640430Y-97561386D01*
X160633303Y-97559969D01*
X160623743Y-97559969D01*
X160614359Y-97561835D01*
X160605523Y-97565495D01*
X160597570Y-97570809D01*
X160590809Y-97577571D01*
X160585495Y-97585524D01*
X160581835Y-97594359D01*
X160579969Y-97603743D01*
X160579969Y-97613303D01*
X160581386Y-97620430D01*
X160580743Y-97622324D01*
X160578781Y-97622714D01*
X160577510Y-97621401D01*
X160570561Y-97598493D01*
X160554501Y-97568447D01*
X160532888Y-97542112D01*
X160506553Y-97520499D01*
X160476507Y-97504439D01*
X160443902Y-97494548D01*
X160410000Y-97491209D01*
X160376099Y-97494548D01*
X160343494Y-97504439D01*
X160329764Y-97511778D01*
X160327765Y-97511712D01*
X160326822Y-97509949D01*
X160327710Y-97508351D01*
X160333753Y-97504313D01*
X160340515Y-97497552D01*
X160345829Y-97489599D01*
X160349489Y-97480763D01*
X160351355Y-97471379D01*
X160351355Y-97461819D01*
X160349489Y-97452435D01*
X160345829Y-97443600D01*
X160340515Y-97435647D01*
X160333754Y-97428885D01*
X160325801Y-97423571D01*
X160316965Y-97419911D01*
X160307535Y-97418036D01*
X160302703Y-97417798D01*
X160301022Y-97416714D01*
X160301120Y-97414716D01*
X160302801Y-97413800D01*
X160433800Y-97413800D01*
X160433800Y-97282800D01*
X160434800Y-97281068D01*
X160436800Y-97281068D01*
X160437790Y-97282604D01*
G37*
G36*
X160018932Y-97414800D02*
G01*
X160018932Y-97416800D01*
X160017396Y-97417790D01*
X160007685Y-97418746D01*
X159998529Y-97421524D01*
X159990094Y-97426032D01*
X159982701Y-97432100D01*
X159976633Y-97439493D01*
X159972125Y-97447928D01*
X159969347Y-97457084D01*
X159968410Y-97466599D01*
X159969347Y-97476114D01*
X159972125Y-97485270D01*
X159976633Y-97493705D01*
X159982701Y-97501098D01*
X159990247Y-97507291D01*
X159990951Y-97509163D01*
X159989682Y-97510709D01*
X159988035Y-97510601D01*
X159976507Y-97504439D01*
X159943902Y-97494548D01*
X159910000Y-97491209D01*
X159876099Y-97494548D01*
X159843494Y-97504439D01*
X159829764Y-97511778D01*
X159827765Y-97511712D01*
X159826822Y-97509949D01*
X159827710Y-97508351D01*
X159833753Y-97504313D01*
X159840515Y-97497552D01*
X159845829Y-97489599D01*
X159849489Y-97480763D01*
X159851355Y-97471379D01*
X159851355Y-97461819D01*
X159849489Y-97452435D01*
X159845829Y-97443600D01*
X159840515Y-97435647D01*
X159833754Y-97428885D01*
X159825801Y-97423571D01*
X159816965Y-97419911D01*
X159807535Y-97418036D01*
X159802703Y-97417798D01*
X159801022Y-97416714D01*
X159801120Y-97414716D01*
X159802801Y-97413800D01*
X160017200Y-97413800D01*
X160018932Y-97414800D01*
G37*
G36*
X158018932Y-97414800D02*
G01*
X158018932Y-97416800D01*
X158017396Y-97417790D01*
X158007685Y-97418746D01*
X157998529Y-97421524D01*
X157990094Y-97426032D01*
X157982701Y-97432100D01*
X157976633Y-97439493D01*
X157972125Y-97447928D01*
X157969347Y-97457084D01*
X157968410Y-97466599D01*
X157969347Y-97476114D01*
X157972125Y-97485270D01*
X157976633Y-97493705D01*
X157982701Y-97501098D01*
X157990247Y-97507291D01*
X157990951Y-97509163D01*
X157989682Y-97510709D01*
X157988035Y-97510601D01*
X157976507Y-97504439D01*
X157943902Y-97494548D01*
X157910000Y-97491209D01*
X157876099Y-97494548D01*
X157843494Y-97504439D01*
X157829764Y-97511778D01*
X157827765Y-97511712D01*
X157826822Y-97509949D01*
X157827710Y-97508351D01*
X157833753Y-97504313D01*
X157840515Y-97497552D01*
X157845829Y-97489599D01*
X157849489Y-97480763D01*
X157851355Y-97471379D01*
X157851355Y-97461819D01*
X157849489Y-97452435D01*
X157845829Y-97443600D01*
X157840515Y-97435647D01*
X157833754Y-97428885D01*
X157825801Y-97423571D01*
X157816965Y-97419911D01*
X157807535Y-97418036D01*
X157802703Y-97417798D01*
X157801022Y-97416714D01*
X157801120Y-97414716D01*
X157802801Y-97413800D01*
X158017200Y-97413800D01*
X158018932Y-97414800D01*
G37*
G36*
X158518932Y-97414800D02*
G01*
X158518932Y-97416800D01*
X158517396Y-97417790D01*
X158507685Y-97418746D01*
X158498529Y-97421524D01*
X158490094Y-97426032D01*
X158482701Y-97432100D01*
X158476633Y-97439493D01*
X158472125Y-97447928D01*
X158469347Y-97457084D01*
X158468410Y-97466599D01*
X158469347Y-97476114D01*
X158472125Y-97485270D01*
X158476633Y-97493705D01*
X158482701Y-97501098D01*
X158490247Y-97507291D01*
X158490951Y-97509163D01*
X158489682Y-97510709D01*
X158488035Y-97510601D01*
X158476507Y-97504439D01*
X158443902Y-97494548D01*
X158410000Y-97491209D01*
X158376099Y-97494548D01*
X158343494Y-97504439D01*
X158329764Y-97511778D01*
X158327765Y-97511712D01*
X158326822Y-97509949D01*
X158327710Y-97508351D01*
X158333753Y-97504313D01*
X158340515Y-97497552D01*
X158345829Y-97489599D01*
X158349489Y-97480763D01*
X158351355Y-97471379D01*
X158351355Y-97461819D01*
X158349489Y-97452435D01*
X158345829Y-97443600D01*
X158340515Y-97435647D01*
X158333754Y-97428885D01*
X158325801Y-97423571D01*
X158316965Y-97419911D01*
X158307535Y-97418036D01*
X158302703Y-97417798D01*
X158301022Y-97416714D01*
X158301120Y-97414716D01*
X158302801Y-97413800D01*
X158517200Y-97413800D01*
X158518932Y-97414800D01*
G37*
G36*
X159018932Y-97414800D02*
G01*
X159018932Y-97416800D01*
X159017396Y-97417790D01*
X159007685Y-97418746D01*
X158998529Y-97421524D01*
X158990094Y-97426032D01*
X158982701Y-97432100D01*
X158976633Y-97439493D01*
X158972125Y-97447928D01*
X158969347Y-97457084D01*
X158968410Y-97466599D01*
X158969347Y-97476114D01*
X158972125Y-97485270D01*
X158976633Y-97493705D01*
X158982701Y-97501098D01*
X158990247Y-97507291D01*
X158990951Y-97509163D01*
X158989682Y-97510709D01*
X158988035Y-97510601D01*
X158976507Y-97504439D01*
X158943902Y-97494548D01*
X158910000Y-97491209D01*
X158876099Y-97494548D01*
X158843494Y-97504439D01*
X158829764Y-97511778D01*
X158827765Y-97511712D01*
X158826822Y-97509949D01*
X158827710Y-97508351D01*
X158833753Y-97504313D01*
X158840515Y-97497552D01*
X158845829Y-97489599D01*
X158849489Y-97480763D01*
X158851355Y-97471379D01*
X158851355Y-97461819D01*
X158849489Y-97452435D01*
X158845829Y-97443600D01*
X158840515Y-97435647D01*
X158833754Y-97428885D01*
X158825801Y-97423571D01*
X158816965Y-97419911D01*
X158807535Y-97418036D01*
X158802703Y-97417798D01*
X158801022Y-97416714D01*
X158801120Y-97414716D01*
X158802801Y-97413800D01*
X159017200Y-97413800D01*
X159018932Y-97414800D01*
G37*
G36*
X159518932Y-97414800D02*
G01*
X159518932Y-97416800D01*
X159517396Y-97417790D01*
X159507685Y-97418746D01*
X159498529Y-97421524D01*
X159490094Y-97426032D01*
X159482701Y-97432100D01*
X159476633Y-97439493D01*
X159472125Y-97447928D01*
X159469347Y-97457084D01*
X159468410Y-97466599D01*
X159469347Y-97476114D01*
X159472125Y-97485270D01*
X159476633Y-97493705D01*
X159482701Y-97501098D01*
X159490247Y-97507291D01*
X159490951Y-97509163D01*
X159489682Y-97510709D01*
X159488035Y-97510601D01*
X159476507Y-97504439D01*
X159443902Y-97494548D01*
X159410000Y-97491209D01*
X159376099Y-97494548D01*
X159343494Y-97504439D01*
X159329764Y-97511778D01*
X159327765Y-97511712D01*
X159326822Y-97509949D01*
X159327710Y-97508351D01*
X159333753Y-97504313D01*
X159340515Y-97497552D01*
X159345829Y-97489599D01*
X159349489Y-97480763D01*
X159351355Y-97471379D01*
X159351355Y-97461819D01*
X159349489Y-97452435D01*
X159345829Y-97443600D01*
X159340515Y-97435647D01*
X159333754Y-97428885D01*
X159325801Y-97423571D01*
X159316965Y-97419911D01*
X159307535Y-97418036D01*
X159302703Y-97417798D01*
X159301022Y-97416714D01*
X159301120Y-97414716D01*
X159302801Y-97413800D01*
X159517200Y-97413800D01*
X159518932Y-97414800D01*
G37*
G36*
X157518932Y-97414800D02*
G01*
X157518932Y-97416800D01*
X157517396Y-97417790D01*
X157507685Y-97418746D01*
X157498529Y-97421524D01*
X157490094Y-97426032D01*
X157482701Y-97432100D01*
X157476633Y-97439493D01*
X157472125Y-97447928D01*
X157469347Y-97457084D01*
X157468410Y-97466599D01*
X157469347Y-97476114D01*
X157472125Y-97485270D01*
X157476633Y-97493705D01*
X157482701Y-97501098D01*
X157490247Y-97507291D01*
X157490951Y-97509163D01*
X157489682Y-97510709D01*
X157488035Y-97510601D01*
X157476507Y-97504439D01*
X157443902Y-97494548D01*
X157410000Y-97491209D01*
X157376099Y-97494548D01*
X157343494Y-97504439D01*
X157329764Y-97511778D01*
X157327765Y-97511712D01*
X157326822Y-97509949D01*
X157327710Y-97508351D01*
X157333753Y-97504313D01*
X157340515Y-97497552D01*
X157345829Y-97489599D01*
X157349489Y-97480763D01*
X157351355Y-97471379D01*
X157351355Y-97461819D01*
X157349489Y-97452435D01*
X157345829Y-97443600D01*
X157340515Y-97435647D01*
X157333754Y-97428885D01*
X157325801Y-97423571D01*
X157316965Y-97419911D01*
X157307535Y-97418036D01*
X157302703Y-97417798D01*
X157301022Y-97416714D01*
X157301120Y-97414716D01*
X157302801Y-97413800D01*
X157517200Y-97413800D01*
X157518932Y-97414800D01*
G37*
G36*
X160437790Y-96782604D02*
G01*
X160438746Y-96792315D01*
X160441524Y-96801471D01*
X160446032Y-96809906D01*
X160452100Y-96817299D01*
X160459493Y-96823367D01*
X160467928Y-96827875D01*
X160477084Y-96830653D01*
X160486599Y-96831590D01*
X160496114Y-96830653D01*
X160505270Y-96827875D01*
X160513705Y-96823367D01*
X160521098Y-96817299D01*
X160527291Y-96809753D01*
X160529163Y-96809049D01*
X160530709Y-96810318D01*
X160530601Y-96811965D01*
X160524439Y-96823493D01*
X160514548Y-96856098D01*
X160511209Y-96890000D01*
X160514548Y-96923902D01*
X160524439Y-96956507D01*
X160531778Y-96970237D01*
X160531712Y-96972236D01*
X160529949Y-96973179D01*
X160528351Y-96972291D01*
X160524313Y-96966248D01*
X160517552Y-96959486D01*
X160509599Y-96954172D01*
X160500763Y-96950512D01*
X160491379Y-96948646D01*
X160481819Y-96948646D01*
X160472435Y-96950512D01*
X160463600Y-96954172D01*
X160455647Y-96959486D01*
X160448885Y-96966247D01*
X160443571Y-96974200D01*
X160439911Y-96983036D01*
X160438036Y-96992466D01*
X160437798Y-96997298D01*
X160436714Y-96998979D01*
X160434716Y-96998881D01*
X160433800Y-96997200D01*
X160433800Y-96782800D01*
X160434800Y-96781068D01*
X160436800Y-96781068D01*
X160437790Y-96782604D01*
G37*
G36*
X156885284Y-96781119D02*
G01*
X156886200Y-96782800D01*
X156886200Y-96997200D01*
X156885200Y-96998932D01*
X156883200Y-96998932D01*
X156882210Y-96997396D01*
X156881254Y-96987685D01*
X156878476Y-96978529D01*
X156873968Y-96970094D01*
X156867900Y-96962701D01*
X156860507Y-96956633D01*
X156852072Y-96952125D01*
X156842916Y-96949347D01*
X156833401Y-96948410D01*
X156823886Y-96949347D01*
X156814730Y-96952125D01*
X156806295Y-96956633D01*
X156798902Y-96962701D01*
X156792709Y-96970247D01*
X156790837Y-96970951D01*
X156789291Y-96969682D01*
X156789399Y-96968035D01*
X156795561Y-96956507D01*
X156805452Y-96923902D01*
X156808791Y-96890000D01*
X156805452Y-96856098D01*
X156795561Y-96823493D01*
X156788222Y-96809763D01*
X156788288Y-96807764D01*
X156790051Y-96806821D01*
X156791649Y-96807709D01*
X156795687Y-96813752D01*
X156802448Y-96820514D01*
X156810401Y-96825828D01*
X156819237Y-96829488D01*
X156828621Y-96831354D01*
X156838181Y-96831354D01*
X156847565Y-96829488D01*
X156856400Y-96825828D01*
X156864353Y-96820514D01*
X156871115Y-96813753D01*
X156876429Y-96805800D01*
X156880089Y-96796964D01*
X156881964Y-96787534D01*
X156882202Y-96782702D01*
X156883286Y-96781021D01*
X156885284Y-96781119D01*
G37*
G36*
X160437790Y-96282604D02*
G01*
X160438746Y-96292315D01*
X160441524Y-96301471D01*
X160446032Y-96309906D01*
X160452100Y-96317299D01*
X160459493Y-96323367D01*
X160467928Y-96327875D01*
X160477084Y-96330653D01*
X160486599Y-96331590D01*
X160496114Y-96330653D01*
X160505270Y-96327875D01*
X160513705Y-96323367D01*
X160521098Y-96317299D01*
X160527291Y-96309753D01*
X160529163Y-96309049D01*
X160530709Y-96310318D01*
X160530601Y-96311965D01*
X160524439Y-96323493D01*
X160514548Y-96356098D01*
X160511209Y-96390000D01*
X160514548Y-96423902D01*
X160524439Y-96456507D01*
X160531778Y-96470237D01*
X160531712Y-96472236D01*
X160529949Y-96473179D01*
X160528351Y-96472291D01*
X160524313Y-96466248D01*
X160517552Y-96459486D01*
X160509599Y-96454172D01*
X160500763Y-96450512D01*
X160491379Y-96448646D01*
X160481819Y-96448646D01*
X160472435Y-96450512D01*
X160463600Y-96454172D01*
X160455647Y-96459486D01*
X160448885Y-96466247D01*
X160443571Y-96474200D01*
X160439911Y-96483036D01*
X160438036Y-96492466D01*
X160437798Y-96497298D01*
X160436714Y-96498979D01*
X160434716Y-96498881D01*
X160433800Y-96497200D01*
X160433800Y-96282800D01*
X160434800Y-96281068D01*
X160436800Y-96281068D01*
X160437790Y-96282604D01*
G37*
G36*
X156885284Y-96281119D02*
G01*
X156886200Y-96282800D01*
X156886200Y-96497200D01*
X156885200Y-96498932D01*
X156883200Y-96498932D01*
X156882210Y-96497396D01*
X156881254Y-96487685D01*
X156878476Y-96478529D01*
X156873968Y-96470094D01*
X156867900Y-96462701D01*
X156860507Y-96456633D01*
X156852072Y-96452125D01*
X156842916Y-96449347D01*
X156833401Y-96448410D01*
X156823886Y-96449347D01*
X156814730Y-96452125D01*
X156806295Y-96456633D01*
X156798902Y-96462701D01*
X156792709Y-96470247D01*
X156790837Y-96470951D01*
X156789291Y-96469682D01*
X156789399Y-96468035D01*
X156795561Y-96456507D01*
X156805452Y-96423902D01*
X156808791Y-96390000D01*
X156805452Y-96356098D01*
X156795561Y-96323493D01*
X156788222Y-96309763D01*
X156788288Y-96307764D01*
X156790051Y-96306821D01*
X156791649Y-96307709D01*
X156795687Y-96313752D01*
X156802448Y-96320514D01*
X156810401Y-96325828D01*
X156819237Y-96329488D01*
X156828621Y-96331354D01*
X156838181Y-96331354D01*
X156847565Y-96329488D01*
X156856400Y-96325828D01*
X156864353Y-96320514D01*
X156871115Y-96313753D01*
X156876429Y-96305800D01*
X156880089Y-96296964D01*
X156881964Y-96287534D01*
X156882202Y-96282702D01*
X156883286Y-96281021D01*
X156885284Y-96281119D01*
G37*
G36*
X160437790Y-95782604D02*
G01*
X160438746Y-95792315D01*
X160441524Y-95801471D01*
X160446032Y-95809906D01*
X160452100Y-95817299D01*
X160459493Y-95823367D01*
X160467928Y-95827875D01*
X160477084Y-95830653D01*
X160486599Y-95831590D01*
X160496114Y-95830653D01*
X160505270Y-95827875D01*
X160513705Y-95823367D01*
X160521098Y-95817299D01*
X160527291Y-95809753D01*
X160529163Y-95809049D01*
X160530709Y-95810318D01*
X160530601Y-95811965D01*
X160524439Y-95823493D01*
X160514548Y-95856098D01*
X160511209Y-95890000D01*
X160514548Y-95923902D01*
X160524439Y-95956507D01*
X160531778Y-95970237D01*
X160531712Y-95972236D01*
X160529949Y-95973179D01*
X160528351Y-95972291D01*
X160524313Y-95966248D01*
X160517552Y-95959486D01*
X160509599Y-95954172D01*
X160500763Y-95950512D01*
X160491379Y-95948646D01*
X160481819Y-95948646D01*
X160472435Y-95950512D01*
X160463600Y-95954172D01*
X160455647Y-95959486D01*
X160448885Y-95966247D01*
X160443571Y-95974200D01*
X160439911Y-95983036D01*
X160438036Y-95992466D01*
X160437798Y-95997298D01*
X160436714Y-95998979D01*
X160434716Y-95998881D01*
X160433800Y-95997200D01*
X160433800Y-95782800D01*
X160434800Y-95781068D01*
X160436800Y-95781068D01*
X160437790Y-95782604D01*
G37*
G36*
X156885284Y-95781119D02*
G01*
X156886200Y-95782800D01*
X156886200Y-95997200D01*
X156885200Y-95998932D01*
X156883200Y-95998932D01*
X156882210Y-95997396D01*
X156881254Y-95987685D01*
X156878476Y-95978529D01*
X156873968Y-95970094D01*
X156867900Y-95962701D01*
X156860507Y-95956633D01*
X156852072Y-95952125D01*
X156842916Y-95949347D01*
X156833401Y-95948410D01*
X156823886Y-95949347D01*
X156814730Y-95952125D01*
X156806295Y-95956633D01*
X156798902Y-95962701D01*
X156792709Y-95970247D01*
X156790837Y-95970951D01*
X156789291Y-95969682D01*
X156789399Y-95968035D01*
X156795561Y-95956507D01*
X156805452Y-95923902D01*
X156808791Y-95890000D01*
X156805452Y-95856098D01*
X156795561Y-95823493D01*
X156788222Y-95809763D01*
X156788288Y-95807764D01*
X156790051Y-95806821D01*
X156791649Y-95807709D01*
X156795687Y-95813752D01*
X156802448Y-95820514D01*
X156810401Y-95825828D01*
X156819237Y-95829488D01*
X156828621Y-95831354D01*
X156838181Y-95831354D01*
X156847565Y-95829488D01*
X156856400Y-95825828D01*
X156864353Y-95820514D01*
X156871115Y-95813753D01*
X156876429Y-95805800D01*
X156880089Y-95796964D01*
X156881964Y-95787534D01*
X156882202Y-95782702D01*
X156883286Y-95781021D01*
X156885284Y-95781119D01*
G37*
G36*
X160437790Y-95282604D02*
G01*
X160438746Y-95292315D01*
X160441524Y-95301471D01*
X160446032Y-95309906D01*
X160452100Y-95317299D01*
X160459493Y-95323367D01*
X160467928Y-95327875D01*
X160477084Y-95330653D01*
X160486599Y-95331590D01*
X160496114Y-95330653D01*
X160505270Y-95327875D01*
X160513705Y-95323367D01*
X160521098Y-95317299D01*
X160527291Y-95309753D01*
X160529163Y-95309049D01*
X160530709Y-95310318D01*
X160530601Y-95311965D01*
X160524439Y-95323493D01*
X160514548Y-95356098D01*
X160511209Y-95390000D01*
X160514548Y-95423902D01*
X160524439Y-95456507D01*
X160531778Y-95470237D01*
X160531712Y-95472236D01*
X160529949Y-95473179D01*
X160528351Y-95472291D01*
X160524313Y-95466248D01*
X160517552Y-95459486D01*
X160509599Y-95454172D01*
X160500763Y-95450512D01*
X160491379Y-95448646D01*
X160481819Y-95448646D01*
X160472435Y-95450512D01*
X160463600Y-95454172D01*
X160455647Y-95459486D01*
X160448885Y-95466247D01*
X160443571Y-95474200D01*
X160439911Y-95483036D01*
X160438036Y-95492466D01*
X160437798Y-95497298D01*
X160436714Y-95498979D01*
X160434716Y-95498881D01*
X160433800Y-95497200D01*
X160433800Y-95282800D01*
X160434800Y-95281068D01*
X160436800Y-95281068D01*
X160437790Y-95282604D01*
G37*
G36*
X156885284Y-95281119D02*
G01*
X156886200Y-95282800D01*
X156886200Y-95497200D01*
X156885200Y-95498932D01*
X156883200Y-95498932D01*
X156882210Y-95497396D01*
X156881254Y-95487685D01*
X156878476Y-95478529D01*
X156873968Y-95470094D01*
X156867900Y-95462701D01*
X156860507Y-95456633D01*
X156852072Y-95452125D01*
X156842916Y-95449347D01*
X156833401Y-95448410D01*
X156823886Y-95449347D01*
X156814730Y-95452125D01*
X156806295Y-95456633D01*
X156798902Y-95462701D01*
X156792709Y-95470247D01*
X156790837Y-95470951D01*
X156789291Y-95469682D01*
X156789399Y-95468035D01*
X156795561Y-95456507D01*
X156805452Y-95423902D01*
X156808791Y-95390000D01*
X156805452Y-95356098D01*
X156795561Y-95323493D01*
X156788222Y-95309763D01*
X156788288Y-95307764D01*
X156790051Y-95306821D01*
X156791649Y-95307709D01*
X156795687Y-95313752D01*
X156802448Y-95320514D01*
X156810401Y-95325828D01*
X156819237Y-95329488D01*
X156828621Y-95331354D01*
X156838181Y-95331354D01*
X156847565Y-95329488D01*
X156856400Y-95325828D01*
X156864353Y-95320514D01*
X156871115Y-95313753D01*
X156876429Y-95305800D01*
X156880089Y-95296964D01*
X156881964Y-95287534D01*
X156882202Y-95282702D01*
X156883286Y-95281021D01*
X156885284Y-95281119D01*
G37*
G36*
X160437790Y-94782604D02*
G01*
X160438746Y-94792315D01*
X160441524Y-94801471D01*
X160446032Y-94809906D01*
X160452100Y-94817299D01*
X160459493Y-94823367D01*
X160467928Y-94827875D01*
X160477084Y-94830653D01*
X160486599Y-94831590D01*
X160496114Y-94830653D01*
X160505270Y-94827875D01*
X160513705Y-94823367D01*
X160521098Y-94817299D01*
X160527291Y-94809753D01*
X160529163Y-94809049D01*
X160530709Y-94810318D01*
X160530601Y-94811965D01*
X160524439Y-94823493D01*
X160514548Y-94856098D01*
X160511209Y-94890000D01*
X160514548Y-94923902D01*
X160524439Y-94956507D01*
X160531778Y-94970237D01*
X160531712Y-94972236D01*
X160529949Y-94973179D01*
X160528351Y-94972291D01*
X160524313Y-94966248D01*
X160517552Y-94959486D01*
X160509599Y-94954172D01*
X160500763Y-94950512D01*
X160491379Y-94948646D01*
X160481819Y-94948646D01*
X160472435Y-94950512D01*
X160463600Y-94954172D01*
X160455647Y-94959486D01*
X160448885Y-94966247D01*
X160443571Y-94974200D01*
X160439911Y-94983036D01*
X160438036Y-94992466D01*
X160437798Y-94997298D01*
X160436714Y-94998979D01*
X160434716Y-94998881D01*
X160433800Y-94997200D01*
X160433800Y-94782800D01*
X160434800Y-94781068D01*
X160436800Y-94781068D01*
X160437790Y-94782604D01*
G37*
G36*
X156885284Y-94781119D02*
G01*
X156886200Y-94782800D01*
X156886200Y-94997200D01*
X156885200Y-94998932D01*
X156883200Y-94998932D01*
X156882210Y-94997396D01*
X156881254Y-94987685D01*
X156878476Y-94978529D01*
X156873968Y-94970094D01*
X156867900Y-94962701D01*
X156860507Y-94956633D01*
X156852072Y-94952125D01*
X156842916Y-94949347D01*
X156833401Y-94948410D01*
X156823886Y-94949347D01*
X156814730Y-94952125D01*
X156806295Y-94956633D01*
X156798902Y-94962701D01*
X156792709Y-94970247D01*
X156790837Y-94970951D01*
X156789291Y-94969682D01*
X156789399Y-94968035D01*
X156795561Y-94956507D01*
X156805452Y-94923902D01*
X156808791Y-94890000D01*
X156805452Y-94856098D01*
X156795561Y-94823493D01*
X156788222Y-94809763D01*
X156788288Y-94807764D01*
X156790051Y-94806821D01*
X156791649Y-94807709D01*
X156795687Y-94813752D01*
X156802448Y-94820514D01*
X156810401Y-94825828D01*
X156819237Y-94829488D01*
X156828621Y-94831354D01*
X156838181Y-94831354D01*
X156847565Y-94829488D01*
X156856400Y-94825828D01*
X156864353Y-94820514D01*
X156871115Y-94813753D01*
X156876429Y-94805800D01*
X156880089Y-94796964D01*
X156881964Y-94787534D01*
X156882202Y-94782702D01*
X156883286Y-94781021D01*
X156885284Y-94781119D01*
G37*
G36*
X160437790Y-94282604D02*
G01*
X160438746Y-94292315D01*
X160441524Y-94301471D01*
X160446032Y-94309906D01*
X160452100Y-94317299D01*
X160459493Y-94323367D01*
X160467928Y-94327875D01*
X160477084Y-94330653D01*
X160486599Y-94331590D01*
X160496114Y-94330653D01*
X160505270Y-94327875D01*
X160513705Y-94323367D01*
X160521098Y-94317299D01*
X160527291Y-94309753D01*
X160529163Y-94309049D01*
X160530709Y-94310318D01*
X160530601Y-94311965D01*
X160524439Y-94323493D01*
X160514548Y-94356098D01*
X160511209Y-94390000D01*
X160514548Y-94423902D01*
X160524439Y-94456507D01*
X160531778Y-94470237D01*
X160531712Y-94472236D01*
X160529949Y-94473179D01*
X160528351Y-94472291D01*
X160524313Y-94466248D01*
X160517552Y-94459486D01*
X160509599Y-94454172D01*
X160500763Y-94450512D01*
X160491379Y-94448646D01*
X160481819Y-94448646D01*
X160472435Y-94450512D01*
X160463600Y-94454172D01*
X160455647Y-94459486D01*
X160448885Y-94466247D01*
X160443571Y-94474200D01*
X160439911Y-94483036D01*
X160438036Y-94492466D01*
X160437798Y-94497298D01*
X160436714Y-94498979D01*
X160434716Y-94498881D01*
X160433800Y-94497200D01*
X160433800Y-94282800D01*
X160434800Y-94281068D01*
X160436800Y-94281068D01*
X160437790Y-94282604D01*
G37*
G36*
X156885284Y-94281119D02*
G01*
X156886200Y-94282800D01*
X156886200Y-94497200D01*
X156885200Y-94498932D01*
X156883200Y-94498932D01*
X156882210Y-94497396D01*
X156881254Y-94487685D01*
X156878476Y-94478529D01*
X156873968Y-94470094D01*
X156867900Y-94462701D01*
X156860507Y-94456633D01*
X156852072Y-94452125D01*
X156842916Y-94449347D01*
X156833401Y-94448410D01*
X156823886Y-94449347D01*
X156814730Y-94452125D01*
X156806295Y-94456633D01*
X156798902Y-94462701D01*
X156792709Y-94470247D01*
X156790837Y-94470951D01*
X156789291Y-94469682D01*
X156789399Y-94468035D01*
X156795561Y-94456507D01*
X156805452Y-94423902D01*
X156808791Y-94390000D01*
X156805452Y-94356098D01*
X156795561Y-94323493D01*
X156788222Y-94309763D01*
X156788288Y-94307764D01*
X156790051Y-94306821D01*
X156791649Y-94307709D01*
X156795687Y-94313752D01*
X156802448Y-94320514D01*
X156810401Y-94325828D01*
X156819237Y-94329488D01*
X156828621Y-94331354D01*
X156838181Y-94331354D01*
X156847565Y-94329488D01*
X156856400Y-94325828D01*
X156864353Y-94320514D01*
X156871115Y-94313753D01*
X156876429Y-94305800D01*
X156880089Y-94296964D01*
X156881964Y-94287534D01*
X156882202Y-94282702D01*
X156883286Y-94281021D01*
X156885284Y-94281119D01*
G37*
G36*
X160580884Y-93657813D02*
G01*
X160581386Y-93659570D01*
X160579969Y-93666697D01*
X160579969Y-93676257D01*
X160581835Y-93685641D01*
X160585495Y-93694477D01*
X160590809Y-93702430D01*
X160597571Y-93709191D01*
X160605524Y-93714505D01*
X160614359Y-93718165D01*
X160623743Y-93720031D01*
X160633303Y-93720031D01*
X160640430Y-93718614D01*
X160642324Y-93719257D01*
X160642714Y-93721219D01*
X160641401Y-93722490D01*
X160618493Y-93729439D01*
X160588447Y-93745499D01*
X160562112Y-93767112D01*
X160540499Y-93793447D01*
X160524439Y-93823493D01*
X160514548Y-93856098D01*
X160511209Y-93890000D01*
X160514548Y-93923902D01*
X160524439Y-93956507D01*
X160531778Y-93970237D01*
X160531712Y-93972236D01*
X160529949Y-93973179D01*
X160528351Y-93972291D01*
X160524313Y-93966248D01*
X160517552Y-93959486D01*
X160509599Y-93954172D01*
X160500763Y-93950512D01*
X160491379Y-93948646D01*
X160481819Y-93948646D01*
X160472435Y-93950512D01*
X160463600Y-93954172D01*
X160455647Y-93959486D01*
X160448885Y-93966247D01*
X160443571Y-93974200D01*
X160439911Y-93983036D01*
X160438036Y-93992466D01*
X160437798Y-93997298D01*
X160436714Y-93998979D01*
X160434716Y-93998881D01*
X160433800Y-93997200D01*
X160433800Y-93866200D01*
X160302800Y-93866200D01*
X160301068Y-93865200D01*
X160301068Y-93863200D01*
X160302604Y-93862210D01*
X160312315Y-93861254D01*
X160321471Y-93858476D01*
X160329906Y-93853968D01*
X160337299Y-93847900D01*
X160343367Y-93840507D01*
X160347875Y-93832072D01*
X160350653Y-93822916D01*
X160351590Y-93813401D01*
X160350653Y-93803886D01*
X160347875Y-93794730D01*
X160343367Y-93786295D01*
X160337299Y-93778902D01*
X160329753Y-93772709D01*
X160329049Y-93770837D01*
X160330318Y-93769291D01*
X160331965Y-93769399D01*
X160343493Y-93775561D01*
X160376098Y-93785452D01*
X160410000Y-93788791D01*
X160443901Y-93785452D01*
X160476506Y-93775561D01*
X160506552Y-93759501D01*
X160532887Y-93737888D01*
X160554501Y-93711553D01*
X160570561Y-93681507D01*
X160577510Y-93658599D01*
X160578970Y-93657232D01*
X160580884Y-93657813D01*
G37*
G36*
X156742489Y-93658595D02*
G01*
X156749439Y-93681506D01*
X156765499Y-93711552D01*
X156787112Y-93737887D01*
X156813447Y-93759501D01*
X156843493Y-93775561D01*
X156876098Y-93785452D01*
X156910000Y-93788791D01*
X156943901Y-93785452D01*
X156976506Y-93775561D01*
X156990236Y-93768222D01*
X156992235Y-93768288D01*
X156993178Y-93770051D01*
X156992290Y-93771649D01*
X156986247Y-93775687D01*
X156979485Y-93782448D01*
X156974171Y-93790401D01*
X156970511Y-93799237D01*
X156968645Y-93808621D01*
X156968645Y-93818181D01*
X156970511Y-93827565D01*
X156974171Y-93836400D01*
X156979485Y-93844353D01*
X156986246Y-93851115D01*
X156994199Y-93856429D01*
X157003035Y-93860089D01*
X157012465Y-93861964D01*
X157017297Y-93862202D01*
X157018978Y-93863286D01*
X157018880Y-93865284D01*
X157017199Y-93866200D01*
X156886200Y-93866200D01*
X156886200Y-93997200D01*
X156885200Y-93998932D01*
X156883200Y-93998932D01*
X156882210Y-93997396D01*
X156881254Y-93987685D01*
X156878476Y-93978529D01*
X156873968Y-93970094D01*
X156867900Y-93962701D01*
X156860507Y-93956633D01*
X156852072Y-93952125D01*
X156842916Y-93949347D01*
X156833401Y-93948410D01*
X156823886Y-93949347D01*
X156814730Y-93952125D01*
X156806295Y-93956633D01*
X156798902Y-93962701D01*
X156792709Y-93970247D01*
X156790837Y-93970951D01*
X156789291Y-93969682D01*
X156789399Y-93968035D01*
X156795561Y-93956507D01*
X156805452Y-93923902D01*
X156808791Y-93890000D01*
X156805452Y-93856098D01*
X156795561Y-93823493D01*
X156779501Y-93793447D01*
X156757888Y-93767112D01*
X156731553Y-93745499D01*
X156701507Y-93729439D01*
X156678599Y-93722490D01*
X156677232Y-93721030D01*
X156677813Y-93719116D01*
X156679570Y-93718614D01*
X156686697Y-93720031D01*
X156696257Y-93720031D01*
X156705641Y-93718165D01*
X156714477Y-93714505D01*
X156722430Y-93709191D01*
X156729191Y-93702429D01*
X156734505Y-93694476D01*
X156738165Y-93685641D01*
X156740031Y-93676257D01*
X156740031Y-93666697D01*
X156738613Y-93659566D01*
X156739256Y-93657672D01*
X156741218Y-93657282D01*
X156742489Y-93658595D01*
G37*
G36*
X158992235Y-93768288D02*
G01*
X158993178Y-93770051D01*
X158992290Y-93771649D01*
X158986247Y-93775687D01*
X158979485Y-93782448D01*
X158974171Y-93790401D01*
X158970511Y-93799237D01*
X158968645Y-93808621D01*
X158968645Y-93818181D01*
X158970511Y-93827565D01*
X158974171Y-93836400D01*
X158979485Y-93844353D01*
X158986246Y-93851115D01*
X158994199Y-93856429D01*
X159003035Y-93860089D01*
X159012465Y-93861964D01*
X159017297Y-93862202D01*
X159018978Y-93863286D01*
X159018880Y-93865284D01*
X159017199Y-93866200D01*
X158802800Y-93866200D01*
X158801068Y-93865200D01*
X158801068Y-93863200D01*
X158802604Y-93862210D01*
X158812315Y-93861254D01*
X158821471Y-93858476D01*
X158829906Y-93853968D01*
X158837299Y-93847900D01*
X158843367Y-93840507D01*
X158847875Y-93832072D01*
X158850653Y-93822916D01*
X158851590Y-93813401D01*
X158850653Y-93803886D01*
X158847875Y-93794730D01*
X158843367Y-93786295D01*
X158837299Y-93778902D01*
X158829753Y-93772709D01*
X158829049Y-93770837D01*
X158830318Y-93769291D01*
X158831965Y-93769399D01*
X158843493Y-93775561D01*
X158876098Y-93785452D01*
X158910000Y-93788791D01*
X158943901Y-93785452D01*
X158976506Y-93775561D01*
X158990236Y-93768222D01*
X158992235Y-93768288D01*
G37*
G36*
X159992235Y-93768288D02*
G01*
X159993178Y-93770051D01*
X159992290Y-93771649D01*
X159986247Y-93775687D01*
X159979485Y-93782448D01*
X159974171Y-93790401D01*
X159970511Y-93799237D01*
X159968645Y-93808621D01*
X159968645Y-93818181D01*
X159970511Y-93827565D01*
X159974171Y-93836400D01*
X159979485Y-93844353D01*
X159986246Y-93851115D01*
X159994199Y-93856429D01*
X160003035Y-93860089D01*
X160012465Y-93861964D01*
X160017297Y-93862202D01*
X160018978Y-93863286D01*
X160018880Y-93865284D01*
X160017199Y-93866200D01*
X159802800Y-93866200D01*
X159801068Y-93865200D01*
X159801068Y-93863200D01*
X159802604Y-93862210D01*
X159812315Y-93861254D01*
X159821471Y-93858476D01*
X159829906Y-93853968D01*
X159837299Y-93847900D01*
X159843367Y-93840507D01*
X159847875Y-93832072D01*
X159850653Y-93822916D01*
X159851590Y-93813401D01*
X159850653Y-93803886D01*
X159847875Y-93794730D01*
X159843367Y-93786295D01*
X159837299Y-93778902D01*
X159829753Y-93772709D01*
X159829049Y-93770837D01*
X159830318Y-93769291D01*
X159831965Y-93769399D01*
X159843493Y-93775561D01*
X159876098Y-93785452D01*
X159910000Y-93788791D01*
X159943901Y-93785452D01*
X159976506Y-93775561D01*
X159990236Y-93768222D01*
X159992235Y-93768288D01*
G37*
G36*
X157492235Y-93768288D02*
G01*
X157493178Y-93770051D01*
X157492290Y-93771649D01*
X157486247Y-93775687D01*
X157479485Y-93782448D01*
X157474171Y-93790401D01*
X157470511Y-93799237D01*
X157468645Y-93808621D01*
X157468645Y-93818181D01*
X157470511Y-93827565D01*
X157474171Y-93836400D01*
X157479485Y-93844353D01*
X157486246Y-93851115D01*
X157494199Y-93856429D01*
X157503035Y-93860089D01*
X157512465Y-93861964D01*
X157517297Y-93862202D01*
X157518978Y-93863286D01*
X157518880Y-93865284D01*
X157517199Y-93866200D01*
X157302800Y-93866200D01*
X157301068Y-93865200D01*
X157301068Y-93863200D01*
X157302604Y-93862210D01*
X157312315Y-93861254D01*
X157321471Y-93858476D01*
X157329906Y-93853968D01*
X157337299Y-93847900D01*
X157343367Y-93840507D01*
X157347875Y-93832072D01*
X157350653Y-93822916D01*
X157351590Y-93813401D01*
X157350653Y-93803886D01*
X157347875Y-93794730D01*
X157343367Y-93786295D01*
X157337299Y-93778902D01*
X157329753Y-93772709D01*
X157329049Y-93770837D01*
X157330318Y-93769291D01*
X157331965Y-93769399D01*
X157343493Y-93775561D01*
X157376098Y-93785452D01*
X157410000Y-93788791D01*
X157443901Y-93785452D01*
X157476506Y-93775561D01*
X157490236Y-93768222D01*
X157492235Y-93768288D01*
G37*
G36*
X157992235Y-93768288D02*
G01*
X157993178Y-93770051D01*
X157992290Y-93771649D01*
X157986247Y-93775687D01*
X157979485Y-93782448D01*
X157974171Y-93790401D01*
X157970511Y-93799237D01*
X157968645Y-93808621D01*
X157968645Y-93818181D01*
X157970511Y-93827565D01*
X157974171Y-93836400D01*
X157979485Y-93844353D01*
X157986246Y-93851115D01*
X157994199Y-93856429D01*
X158003035Y-93860089D01*
X158012465Y-93861964D01*
X158017297Y-93862202D01*
X158018978Y-93863286D01*
X158018880Y-93865284D01*
X158017199Y-93866200D01*
X157802800Y-93866200D01*
X157801068Y-93865200D01*
X157801068Y-93863200D01*
X157802604Y-93862210D01*
X157812315Y-93861254D01*
X157821471Y-93858476D01*
X157829906Y-93853968D01*
X157837299Y-93847900D01*
X157843367Y-93840507D01*
X157847875Y-93832072D01*
X157850653Y-93822916D01*
X157851590Y-93813401D01*
X157850653Y-93803886D01*
X157847875Y-93794730D01*
X157843367Y-93786295D01*
X157837299Y-93778902D01*
X157829753Y-93772709D01*
X157829049Y-93770837D01*
X157830318Y-93769291D01*
X157831965Y-93769399D01*
X157843493Y-93775561D01*
X157876098Y-93785452D01*
X157910000Y-93788791D01*
X157943901Y-93785452D01*
X157976506Y-93775561D01*
X157990236Y-93768222D01*
X157992235Y-93768288D01*
G37*
G36*
X158492235Y-93768288D02*
G01*
X158493178Y-93770051D01*
X158492290Y-93771649D01*
X158486247Y-93775687D01*
X158479485Y-93782448D01*
X158474171Y-93790401D01*
X158470511Y-93799237D01*
X158468645Y-93808621D01*
X158468645Y-93818181D01*
X158470511Y-93827565D01*
X158474171Y-93836400D01*
X158479485Y-93844353D01*
X158486246Y-93851115D01*
X158494199Y-93856429D01*
X158503035Y-93860089D01*
X158512465Y-93861964D01*
X158517297Y-93862202D01*
X158518978Y-93863286D01*
X158518880Y-93865284D01*
X158517199Y-93866200D01*
X158302800Y-93866200D01*
X158301068Y-93865200D01*
X158301068Y-93863200D01*
X158302604Y-93862210D01*
X158312315Y-93861254D01*
X158321471Y-93858476D01*
X158329906Y-93853968D01*
X158337299Y-93847900D01*
X158343367Y-93840507D01*
X158347875Y-93832072D01*
X158350653Y-93822916D01*
X158351590Y-93813401D01*
X158350653Y-93803886D01*
X158347875Y-93794730D01*
X158343367Y-93786295D01*
X158337299Y-93778902D01*
X158329753Y-93772709D01*
X158329049Y-93770837D01*
X158330318Y-93769291D01*
X158331965Y-93769399D01*
X158343493Y-93775561D01*
X158376098Y-93785452D01*
X158410000Y-93788791D01*
X158443901Y-93785452D01*
X158476506Y-93775561D01*
X158490236Y-93768222D01*
X158492235Y-93768288D01*
G37*
G36*
X159492235Y-93768288D02*
G01*
X159493178Y-93770051D01*
X159492290Y-93771649D01*
X159486247Y-93775687D01*
X159479485Y-93782448D01*
X159474171Y-93790401D01*
X159470511Y-93799237D01*
X159468645Y-93808621D01*
X159468645Y-93818181D01*
X159470511Y-93827565D01*
X159474171Y-93836400D01*
X159479485Y-93844353D01*
X159486246Y-93851115D01*
X159494199Y-93856429D01*
X159503035Y-93860089D01*
X159512465Y-93861964D01*
X159517297Y-93862202D01*
X159518978Y-93863286D01*
X159518880Y-93865284D01*
X159517199Y-93866200D01*
X159302800Y-93866200D01*
X159301068Y-93865200D01*
X159301068Y-93863200D01*
X159302604Y-93862210D01*
X159312315Y-93861254D01*
X159321471Y-93858476D01*
X159329906Y-93853968D01*
X159337299Y-93847900D01*
X159343367Y-93840507D01*
X159347875Y-93832072D01*
X159350653Y-93822916D01*
X159351590Y-93813401D01*
X159350653Y-93803886D01*
X159347875Y-93794730D01*
X159343367Y-93786295D01*
X159337299Y-93778902D01*
X159329753Y-93772709D01*
X159329049Y-93770837D01*
X159330318Y-93769291D01*
X159331965Y-93769399D01*
X159343493Y-93775561D01*
X159376098Y-93785452D01*
X159410000Y-93788791D01*
X159443901Y-93785452D01*
X159476506Y-93775561D01*
X159490236Y-93768222D01*
X159492235Y-93768288D01*
G37*
M02*
